<svg id="Group_1270" data-name="Group 1270" xmlns="http://www.w3.org/2000/svg" xmlns:xlink="http://www.w3.org/1999/xlink" width="361.229" height="270.269" viewBox="0 0 361.229 270.269">
  <defs>
    <linearGradient id="linear-gradient" x1="0.5" y1="1" x2="0.5" gradientUnits="objectBoundingBox">
      <stop offset="0" stop-color="gray" stop-opacity="0.251"/>
      <stop offset="0.54" stop-color="gray" stop-opacity="0.122"/>
      <stop offset="1" stop-color="gray" stop-opacity="0.102"/>
    </linearGradient>
  </defs>
  <ellipse id="Ellipse_17" data-name="Ellipse 17" cx="114.854" cy="6.216" rx="114.854" ry="6.216" transform="translate(73.059 257.836)" fill="#6c63ff" opacity="0.1"/>
  <path id="Path_1181" data-name="Path 1181" d="M677.588,651.971l-.988,1.449-6.108,9.088-5.186,1.564-3.869-3.786.188-2.5.965-12.976s-23.937-14.082-26.077-16.716-10.372-5.021-10.372-5.021-12.594-5.844-17.286-16.051,7.82-11.771,7.82-11.771l47,44.95Z" transform="translate(-424.617 -412.29)" fill="#ffc1c7"/>
  <path id="Path_1182" data-name="Path 1182" d="M766.334,774.452l-14.9,13.911a55.823,55.823,0,0,1-16.216.494c-4.893-.738-3.951-3.421-2.664-5.268l.023-.033a5.413,5.413,0,0,1,3.174-2.088,12.827,12.827,0,0,0,8.521-6.114l4.609,3.951,7.984-9.3,5.9,2.772Z" transform="translate(-507.602 -529.503)" fill="#575988"/>
  <line id="Line_33" data-name="Line 33" y1="12.95" x2="14.876" transform="translate(240.294 243.437)" fill="#fff"/>
  <path id="Path_1183" data-name="Path 1183" d="M679.787,655.58l-3.507-1.646.329-.5.988-1.449-13.921-11.771-47-44.944s-12.511,1.557-7.82,11.764,17.286,16.051,17.286,16.051,8.231,2.387,10.372,5.021,26.094,16.71,26.094,16.71l-.965,12.976-.046.619-.306-.26a12.828,12.828,0,0,1-8.521,6.114,5.413,5.413,0,0,0-3.174,2.088l-.023.033c-1.317,1.844-2.229,4.527,2.664,5.268a55.834,55.834,0,0,0,16.216-.494l14.9-13.911Z" transform="translate(-424.617 -412.304)" opacity="0.1"/>
  <path id="Path_1184" data-name="Path 1184" d="M63.3,469.55c5.716,24.431,17.816,45.549,36.936,55.793,39.745,21.277,129.371,10.3,196.26-2.3a153.159,153.159,0,0,0,87.1-49.794Z" transform="translate(-59.395 -327.978)" fill="#6c63ff" opacity="0.1"/>
  <path id="Path_1185" data-name="Path 1185" d="M432.894,66.151h-36.7a3.174,3.174,0,0,1,0-6.345h6.345a3.171,3.171,0,0,1,0-6.341h-4.53a3.174,3.174,0,0,1,0-6.345h19.156A50.685,50.685,0,0,0,402.217,43c-52.233-6.707-70.882-2.272-77.461,2.3a73.149,73.149,0,0,1-26.848,11.768c-32.228,6.648-92.5,14.645-147.125-2.562-27.15-8.561-47.327,5.9-59.424,30.055H439.265a56.685,56.685,0,0,0-4.31-19.176A3.164,3.164,0,0,1,432.894,66.151Z" transform="translate(-78.216 -39.575)" fill="#6c63ff" opacity="0.1"/>
  <path id="Path_1186" data-name="Path 1186" d="M52.23,314.67A161.721,161.721,0,0,0,53.653,357.3L375.889,369.08a151.317,151.317,0,0,0,22.389-34.144Zm127.449,30.4h-6.345a3.174,3.174,0,1,1,0,6.345h-36.7a3.174,3.174,0,0,1,0-6.345h6.345a3.171,3.171,0,0,1,0-6.341h-4.531a3.174,3.174,0,0,1,0-6.345h36.7a3.174,3.174,0,0,1,0,6.345h4.531a3.171,3.171,0,1,1,0,6.341Z" transform="translate(-51.44 -224.093)" fill="#6c63ff" opacity="0.1"/>
  <path id="Path_1187" data-name="Path 1187" d="M414.223,176.86l-351.8,8.561A140.3,140.3,0,0,0,54,221.747H408.059a150.512,150.512,0,0,0,5.113-23.157A109.723,109.723,0,0,0,414.223,176.86Zm-288.8,28.033h-6.345a3.174,3.174,0,1,1,0,6.345h-36.7a3.174,3.174,0,0,1,0-6.345H88.72a3.171,3.171,0,1,1,0-6.341H84.189a3.174,3.174,0,0,1,0-6.345h36.7a3.174,3.174,0,0,1,0,6.345h4.531a3.171,3.171,0,0,1,0,6.341Z" transform="translate(-53.157 -131.658)" fill="#6c63ff" opacity="0.1"/>
  <g id="Group_1266" data-name="Group 1266" transform="translate(260.303 89.78)" opacity="0.1">
    <path id="Path_1188" data-name="Path 1188" d="M848.76,413.912s9.285-22.883,26.623-31.371a37.4,37.4,0,0,0,16.98-16.489,62.937,62.937,0,0,0,4.257-10.691" transform="translate(-846.54 -341.165)" fill="none" stroke="#535461" stroke-miterlimit="10" stroke-width="2"/>
    <path id="Path_1189" data-name="Path 1189" d="M1004.472,321.03c-1.808,2.272-11.162,5.6-11.162,5.6s1.126-9.861,2.933-12.133a5.268,5.268,0,1,1,8.232,6.546Z" transform="translate(-943.496 -312.249)" fill="#6c63ff"/>
    <path id="Path_1190" data-name="Path 1190" d="M992.187,372.465c-2.753.925-12.406-1.376-12.406-1.376s6.305-7.665,9.057-8.59a5.268,5.268,0,1,1,3.349,9.966Z" transform="translate(-934.421 -345.689)" fill="#6c63ff"/>
    <path id="Path_1191" data-name="Path 1191" d="M944.2,437.067c-2.842-.593-10.016-7.451-10.016-7.451s9.315-3.434,12.156-2.845a5.268,5.268,0,0,1-2.14,10.3Z" transform="translate(-903.835 -389.018)" fill="#6c63ff"/>
    <path id="Path_1192" data-name="Path 1192" d="M890.922,476.641c-2.9-.1-11.132-5.65-11.132-5.65s8.6-4.959,11.5-4.857a5.268,5.268,0,1,1-.369,10.507Z" transform="translate(-867.353 -415.465)" fill="#6c63ff"/>
    <path id="Path_1193" data-name="Path 1193" d="M952.459,358.464c.369,2.881,6.658,10.559,6.658,10.559s4.142-9.022,3.77-11.9a5.268,5.268,0,0,0-10.428,1.34Z" transform="translate(-916.089 -339.495)" fill="#6c63ff"/>
    <path id="Path_1194" data-name="Path 1194" d="M892.71,402.683c1.215,2.634,9.516,8.083,9.516,8.083s1.248-9.845.033-12.482a5.268,5.268,0,0,0-9.549,4.4Z" transform="translate(-875.785 -368.11)" fill="#6c63ff"/>
    <path id="Path_1195" data-name="Path 1195" d="M842.124,458.321c.754,2.805,8.011,9.575,8.011,9.575s2.9-9.492,2.147-12.3a5.268,5.268,0,0,0-10.158,2.723Z" transform="translate(-842.018 -405.989)" fill="#6c63ff"/>
    <path id="Path_1196" data-name="Path 1196" d="M1004.472,321.03c-1.808,2.272-11.162,5.6-11.162,5.6s1.126-9.861,2.933-12.133a5.268,5.268,0,1,1,8.232,6.546Z" transform="translate(-943.496 -312.249)" opacity="0.25"/>
    <path id="Path_1197" data-name="Path 1197" d="M992.187,372.465c-2.753.925-12.406-1.376-12.406-1.376s6.305-7.665,9.057-8.59a5.268,5.268,0,1,1,3.349,9.966Z" transform="translate(-934.421 -345.689)" opacity="0.25"/>
    <path id="Path_1198" data-name="Path 1198" d="M944.2,437.067c-2.842-.593-10.016-7.451-10.016-7.451s9.315-3.434,12.156-2.845a5.268,5.268,0,0,1-2.14,10.3Z" transform="translate(-903.835 -389.018)" opacity="0.25"/>
    <path id="Path_1199" data-name="Path 1199" d="M890.922,476.641c-2.9-.1-11.132-5.65-11.132-5.65s8.6-4.959,11.5-4.857a5.268,5.268,0,1,1-.369,10.507Z" transform="translate(-867.353 -415.465)" opacity="0.25"/>
    <path id="Path_1200" data-name="Path 1200" d="M952.459,358.464c.369,2.881,6.658,10.559,6.658,10.559s4.142-9.022,3.77-11.9a5.268,5.268,0,0,0-10.428,1.34Z" transform="translate(-916.089 -339.495)" opacity="0.25"/>
    <path id="Path_1201" data-name="Path 1201" d="M892.71,402.683c1.215,2.634,9.516,8.083,9.516,8.083s1.248-9.845.033-12.482a5.268,5.268,0,0,0-9.549,4.4Z" transform="translate(-875.785 -368.11)" opacity="0.25"/>
    <path id="Path_1202" data-name="Path 1202" d="M842.124,458.321c.754,2.805,8.011,9.575,8.011,9.575s2.9-9.492,2.147-12.3a5.268,5.268,0,0,0-10.158,2.723Z" transform="translate(-842.018 -405.989)" opacity="0.25"/>
  </g>
  <g id="Group_1267" data-name="Group 1267" transform="translate(238.259 39.405)" opacity="0.1">
    <path id="Path_1203" data-name="Path 1203" d="M803.86,277.119s1.172-24.668,14.715-38.427a37.415,37.415,0,0,0,10.552-21.184A62.971,62.971,0,0,0,829.588,206" transform="translate(-794.38 -190.608)" fill="none" stroke="#535461" stroke-miterlimit="10" stroke-width="2"/>
    <path id="Path_1204" data-name="Path 1204" d="M887.071,165.92c-.951,2.746-8.676,8.976-8.676,8.976s-2.206-9.677-1.258-12.42a5.268,5.268,0,0,1,9.933,3.444Z" transform="translate(-843.372 -159.253)" fill="#6c63ff"/>
    <path id="Path_1205" data-name="Path 1205" d="M891.943,215.547c-2.305,1.785-12.163,2.818-12.163,2.818s3.408-9.325,5.7-11.109a5.268,5.268,0,0,1,6.467,8.291Z" transform="translate(-845.303 -190.838)" fill="#6c63ff"/>
    <path id="Path_1206" data-name="Path 1206" d="M863.992,291.526c-2.878.385-11.922-3.707-11.922-3.707s7.649-6.328,10.537-6.714a5.268,5.268,0,0,1,1.4,10.421Z" transform="translate(-826.717 -240.976)" fill="#6c63ff"/>
    <path id="Path_1207" data-name="Path 1207" d="M828.173,346.123c-2.769.869-12.373-1.646-12.373-1.646s6.467-7.527,9.239-8.393a5.268,5.268,0,1,1,3.134,10.032Z" transform="translate(-802.389 -277.619)" fill="#6c63ff"/>
    <path id="Path_1208" data-name="Path 1208" d="M846.7,218.566c1.317,2.595,9.785,7.754,9.785,7.754s.912-9.878-.392-12.476a5.268,5.268,0,0,0-9.394,4.722Z" transform="translate(-822.835 -194.126)" fill="#6c63ff"/>
    <path id="Path_1209" data-name="Path 1209" d="M804.978,280.077c2.021,2.084,11.656,4.471,11.656,4.471s-2.084-9.706-4.106-11.791a5.268,5.268,0,0,0-7.55,7.319Z" transform="translate(-794.283 -234.466)" fill="#6c63ff"/>
    <path id="Path_1210" data-name="Path 1210" d="M775.786,349.439c1.646,2.4,10.734,6.378,10.734,6.378s-.418-9.917-2.055-12.314a5.268,5.268,0,0,0-8.679,5.927Z" transform="translate(-775.068 -281.498)" fill="#6c63ff"/>
  </g>
  <path id="Path_1211" data-name="Path 1211" d="M468.218,125.049s-7.846-.471-6.914,5.028a1.34,1.34,0,0,0,.7,1.413s0-.408.8-.27a3.5,3.5,0,0,0,.853.043,1.782,1.782,0,0,0,1.044-.431h0s2.206-.912,3.062-4.517c0,0,.635-.787.609-.988l-1.317.566a2.377,2.377,0,0,1,.1,1.748s-.043-1.715-.3-1.676c-.053,0-.688.329-.688.329a3.908,3.908,0,0,1,.191,2.874s.224-2.051-.435-2.753l-.932.543a4.121,4.121,0,0,1,.293,3.121s.158-2.15-.487-2.99l-.846.659a4,4,0,0,1,.329,2.858s-.066-2.506-.517-2.693a5.151,5.151,0,0,0-.85.919s.583,1.231.221,1.88c0,0-.221-1.669-.4-1.676a5.531,5.531,0,0,0-.813,1.864,4.024,4.024,0,0,1,.635-1.975,2.229,2.229,0,0,0-1.129.583s.115-.78,1.317-.849a5.12,5.12,0,0,1,.77-.889,4.767,4.767,0,0,0-1.906.221,2.141,2.141,0,0,1,2.124-.4l.836-.678a6.949,6.949,0,0,0-2.229.02,2.683,2.683,0,0,1,2.453-.175l.909-.543a8.149,8.149,0,0,0-2.13-.184,3.281,3.281,0,0,1,2.4.036l.658-.29s-.988-.191-1.264-.224-.3-.109-.3-.109a3.385,3.385,0,0,1,1.834.2A7.674,7.674,0,0,0,468.218,125.049Z" transform="translate(-326.302 -96.9)" fill="#6c63ff" opacity="0.1"/>
  <path id="Path_1212" data-name="Path 1212" d="M418.558,206.213s-2.68,7.392,2.855,8.067a1.343,1.343,0,0,0,1.554-.27s-.388-.128-.03-.846a3.531,3.531,0,0,0,.27-.807,1.781,1.781,0,0,0-.115-1.123h0s-.247-2.374-3.461-4.218c0,0-.576-.833-.777-.866l.168,1.429a2.383,2.383,0,0,1,1.706.4s-1.646-.445-1.692-.191c0,.053.122.754.122.754a3.926,3.926,0,0,1,2.812.632s-1.9-.794-2.762-.365l.257,1.05a4.108,4.108,0,0,1,3.075.606s-2.018-.764-3.006-.382l.392.988a4.085,4.085,0,0,1,2.835.491s-2.42-.659-2.73-.267a5.081,5.081,0,0,0,.642,1.077s1.343-.211,1.864.329c0,0-1.663-.26-1.722-.086a5.643,5.643,0,0,0,1.554,1.317,4.006,4.006,0,0,1-1.706-1.166A2.219,2.219,0,0,0,420.9,214s-.715-.329-.441-1.495a5.3,5.3,0,0,1-.635-.988,4.853,4.853,0,0,0-.329,1.893,2.145,2.145,0,0,1,.217-2.153l-.415-.988a6.666,6.666,0,0,0-.612,2.14,2.708,2.708,0,0,1,.527-2.4l-.263-1.024a8.3,8.3,0,0,0-.78,1.975,3.266,3.266,0,0,1,.718-2.285l-.1-.708s-.461.882-.573,1.149-.191.257-.191.257a3.408,3.408,0,0,1,.718-1.7A7.975,7.975,0,0,0,418.558,206.213Z" transform="translate(-297.247 -151.304)" fill="#6c63ff" opacity="0.1"/>
  <path id="Path_1213" data-name="Path 1213" d="M576.6,187.3s-2.683,7.389,2.855,8.064a1.34,1.34,0,0,0,1.551-.267s-.385-.128-.03-.849a3.543,3.543,0,0,0,.283-.807,1.746,1.746,0,0,0-.119-1.119h0s-.247-2.374-3.46-4.221c0,0-.573-.833-.774-.866l.165,1.432a2.371,2.371,0,0,1,1.706.4s-1.646-.444-1.689-.188c0,.049.122.754.122.754a3.9,3.9,0,0,1,2.809.632s-1.9-.8-2.762-.365l.257,1.047a4.116,4.116,0,0,1,3.078.606s-2.018-.764-3.006-.379l.392.988a4.085,4.085,0,0,1,2.835.491s-2.42-.658-2.73-.27a5.194,5.194,0,0,0,.639,1.077s1.347-.211,1.867.329c0,0-1.666-.26-1.722-.089a5.638,5.638,0,0,0,1.554,1.317,4.03,4.03,0,0,1-1.709-1.169,2.211,2.211,0,0,0,.24,1.248s-.718-.329-.445-1.5a5.2,5.2,0,0,1-.632-.988,4.769,4.769,0,0,0-.329,1.893,2.142,2.142,0,0,1,.221-2.153l-.418-.988a6.6,6.6,0,0,0-.609,2.143,2.714,2.714,0,0,1,.527-2.4L577,190.075a8.216,8.216,0,0,0-.78,1.976,3.253,3.253,0,0,1,.714-2.285l-.1-.7s-.461.882-.57,1.146-.191.26-.191.26a3.371,3.371,0,0,1,.718-1.7A8.337,8.337,0,0,0,576.6,187.3Z" transform="translate(-403.249 -138.614)" fill="#6c63ff" opacity="0.1"/>
  <path id="Path_1214" data-name="Path 1214" d="M318.366,159.183s-2.683,7.392,2.855,8.064a1.333,1.333,0,0,0,1.551-.267s-.385-.128-.029-.846a3.716,3.716,0,0,0,.283-.807,1.782,1.782,0,0,0-.119-1.123h0s-.247-2.374-3.461-4.221c0,0-.573-.83-.774-.863l.165,1.429a2.383,2.383,0,0,1,1.706.4s-1.646-.448-1.689-.191c0,.053.122.754.122.754a3.916,3.916,0,0,1,2.809.632s-1.9-.8-2.763-.365l.257,1.05a4.108,4.108,0,0,1,3.075.606s-2.015-.764-3-.382l.392.988a4.085,4.085,0,0,1,2.835.491s-2.423-.659-2.73-.27a5.193,5.193,0,0,0,.639,1.08s1.347-.214,1.864.329c0,0-1.663-.26-1.722-.086a5.733,5.733,0,0,0,1.557,1.317,4,4,0,0,1-1.709-1.169,2.213,2.213,0,0,0,.24,1.248s-.718-.329-.445-1.495a5.142,5.142,0,0,1-.632-.988,4.79,4.79,0,0,0-.329,1.893,2.145,2.145,0,0,1,.217-2.153l-.415-.988a6.694,6.694,0,0,0-.612,2.143,2.708,2.708,0,0,1,.527-2.4l-.26-1.027a8.207,8.207,0,0,0-.78,1.975,3.253,3.253,0,0,1,.715-2.285l-.1-.7s-.461.882-.57,1.149-.191.257-.191.257a3.386,3.386,0,0,1,.715-1.7A7.37,7.37,0,0,0,318.366,159.183Z" transform="translate(-230.043 -119.759)" fill="#6c63ff" opacity="0.1"/>
  <path id="Path_1215" data-name="Path 1215" d="M570.05,311.084s2.071,7.573,6.983,4.939a1.34,1.34,0,0,0,1.113-1.113s-.388.115-.513-.678a3.554,3.554,0,0,0-.234-.82,1.788,1.788,0,0,0-.741-.849h0s-1.571-1.794-5.268-1.452c0,0-.948-.349-1.133-.26l.962,1.073a2.392,2.392,0,0,1,1.623-.658s-1.61.589-1.488.816c.023.046.533.546.533.546a3.892,3.892,0,0,1,2.661-1.1s-2.012.448-2.47,1.294l.816.711a4.113,4.113,0,0,1,2.861-1.281s-2.088.54-2.674,1.422l.9.589a3.993,3.993,0,0,1,2.6-1.235s-2.347.869-2.384,1.353a5.194,5.194,0,0,0,1.146.514s.988-.948,1.706-.813c0,0-1.508.744-1.455.922a5.846,5.846,0,0,0,2.025.171,4,4,0,0,1-2.068.03,2.222,2.222,0,0,0,.912.882s-.777.142-1.225-.968a5.129,5.129,0,0,1-1.09-.444,4.8,4.8,0,0,0,.823,1.735,2.138,2.138,0,0,1-1.064-1.883l-.905-.563a6.842,6.842,0,0,0,.734,2.1,2.709,2.709,0,0,1-.955-2.265l-.807-.685a8.322,8.322,0,0,0,.511,2.074,3.286,3.286,0,0,1-.731-2.282l-.487-.52s.132.988.2,1.268,0,.329,0,.329a3.39,3.39,0,0,1-.4-1.8A8.137,8.137,0,0,0,570.05,311.084Z" transform="translate(-399.294 -221.522)" fill="#6c63ff" opacity="0.1"/>
  <path id="Path_1216" data-name="Path 1216" d="M425.722,263.983a18.021,18.021,0,0,0,2.367,2.279l6.414,5.466a11.27,11.27,0,0,0,3.754,2.433,5.874,5.874,0,0,0,5.123-.787l-.109-.036.109-.072a9.671,9.671,0,0,1-3.085-1.413,3.468,3.468,0,0,1-1.357-2.3h0v-.135a2.4,2.4,0,0,1,.036-.372,8.163,8.163,0,0,0,3.862-1.36l-.112-.04.112-.069c-3.418-1.1-5.785-4.3-6.858-7.7s-1.077-7.01-1.192-10.563-.379-7.2-1.913-10.418a17.093,17.093,0,0,1-1.6-3.655,5.674,5.674,0,0,1-.109-1.175,15.7,15.7,0,0,1,.731-3.78,78.791,78.791,0,0,0,1.8-8.4,19.7,19.7,0,0,0,.293-3.046,7.824,7.824,0,0,0-.471-2.927c-1.508-3.918-6.75-5.765-7.55-9.878a8.641,8.641,0,0,1-.119-1.676v-.922c0-.306,0-.659-.026-.961-.227-2.894-2.018-5.406-3.747-7.754-2.081-2.825-4.28-5.762-7.477-7.267a17.784,17.784,0,0,0-8.762-1.3,22.789,22.789,0,0,0-4.34-2.947,19.569,19.569,0,0,0-7.115-2.772c-3.177-.349-6.319.869-9.506,1.073-4.333.28-8.587-1.317-12.92-1.646s-9.321,1.129-11.257,5.492a10.474,10.474,0,0,0-.816,3.335h0c-.02.221-.033.438-.043.659v.023a20.688,20.688,0,0,0,.076,2.67v.1a4.878,4.878,0,0,0,.053.533.5.5,0,0,0,.016.155,4.213,4.213,0,0,0,.056.494l.02.155c.026.207.056.415.082.622a6.609,6.609,0,0,0,.273,1.258,2.358,2.358,0,0,0,.349.659,2.784,2.784,0,0,0,1.91.889l.576.082c-.059.119-.122.237-.178.359a20.472,20.472,0,0,0-1.976,8.814,20.834,20.834,0,0,0,17.688,20.506l.6.751c3.694,4.629,8.33,10.809,10.536,15.258-2.548,3.164-5.532,8.775-6.381,18.185l-1.261,2.943c-2.644,3.8-3.326,9.288-2.644,14.392-.744,2.759-1.594,6.226-2.183,9.094-4.382-.971-19.34-3.375-22.877-5.709L344.214,276.7s-13.5-9.43-20.763-6.282a58.269,58.269,0,0,0-8.768-8.334c-3.1-2.321-10.793-11.389-10.793-11.389L291.83,234.683c-.033-1.854-.231-3.437-.738-4.119-1.422-1.9-8.952-6.128-10.457-5.215s-2.763-1.976-2.763-1.976l-.115-.063c-.283-.165-1.087-.619-2.2-1.218a29.253,29.253,0,0,1,.1-4.007c.023-.224.053-.448.086-.659a18.356,18.356,0,0,0,17.174-14.007c.053-.207.089-.421.132-.632a3.237,3.237,0,0,0,3.039-.882,4.859,4.859,0,0,0,.764-4.376,40.97,40.97,0,0,1-1.152-4.475c-.207-2.091.53-4.28-.148-6.256a6.953,6.953,0,0,0-3.671-3.711c-1.6-.8-3.352-1.268-4.988-2-1.561-.691-3.013-1.62-4.633-2.167a19.132,19.132,0,0,0-6.585-.682,16.635,16.635,0,0,0-4.313-1.268,6.143,6.143,0,0,0-4.712,1.228c-.988.876-1.791,2.282-3.131,2.328a4.044,4.044,0,0,1-1.837-.583c-1.663-.8-3.767-1.248-5.268-.191a5.437,5.437,0,0,0-1.854,3.839,12.48,12.48,0,0,1-.942,4.257,18.489,18.489,0,0,1-1.63,2.17,9.324,9.324,0,0,0-1.821,6.407v.066c-.079-.329-.155-.636-.211-.958a5.383,5.383,0,0,0,.033.728,18.737,18.737,0,0,0,.734,3.329l1.363,4.774a28.054,28.054,0,0,0,2.716,7.04,11.591,11.591,0,0,0,1.847,2.321,8.53,8.53,0,0,0,4.139,2.4,5.3,5.3,0,0,0,1.692.1,1.087,1.087,0,0,1-.03.2c-.122-.023-.247-.049-.362-.066a3.517,3.517,0,0,0-1.617.043c-2.6.925-3.391,3.74-3.622,4.847-.053.283-.069.454-.069.454s.043.165.092.444l-.023.1c-.053.28-.069.454-.069.454s.043.165.092.451l-.678.016-11.343,1.482a25.956,25.956,0,0,0-6.378.1,2.631,2.631,0,0,0-.329.1c-1.646.57-9.19,5.775-15.959,10.566a2.48,2.48,0,0,0-.02-.385l-1.926,1.37v.4c-.481.329-.958.678-1.419,1.011-2.071,1.482-3.951,2.818-5.35,3.842-1.705,1.225-2.762,2-2.762,2a2,2,0,0,0-1.04,1.169c-.533,1.235-.718,3.717,1.208,8.6A67.388,67.388,0,0,1,215.054,268a10.474,10.474,0,0,0-2.716.659,4.916,4.916,0,0,0-2.947,2.634,4.534,4.534,0,0,0-.023,2.93c1.587,5.63,27.858,37.6,27.858,37.6l.329.03a23.1,23.1,0,0,0,4.05,0,4.611,4.611,0,0,0,2.9-1.041s5.825,7.478,14.379,2.384c-.059,6.783-.23,11.758.846,14.263,1.676,3.892,1.676,12.752,1.676,12.752l1.594.056c-.086.329-.181.659-.283.988-.734,2.427-1.818,5.36-2.963,6.061-1.929,1.185-1.014,21.56-.935,23.318h0v.105l-.112,8.231v.658a7.973,7.973,0,0,1-.642-1.014s-3.1,2.963-3.158,9.219a60.041,60.041,0,0,0,.056,6.467s12.512-.484,14.859.379,21.981-.751,21.981-.751a2.886,2.886,0,0,0-1.366-3.342c3.339-.24,6.98-.879,9.114-2.427,4.692-3.388-9.466-6.029-10.454-6.565s-5.88-4.853-7.9-6.47a4.109,4.109,0,0,0-2.087-.777l.254-7.379c3.013-3.395,6.276-22.113,6.276-22.113,1.067-.889,1.531-3.052,1.722-4.372a2.005,2.005,0,0,0,1.373-1.841h0c3.447.115,7.784.089,8.617-.737,1.422-1.409,1.254-6.213,1.254-6.213l-2.009-50.85-.132-.194a25.351,25.351,0,0,0,.02-7.02c4.511,1.287,8.021,2.163,8.021,2.163s6.789,1.251,11.554,2.3a7.789,7.789,0,0,0-1.725,2.9c-4.28,12.182,20,11.679,20,11.679l11.462,5.3,26.979,8.818c-8.669-2.558-18.573-5.568-25.313-7.632a17.717,17.717,0,0,0-2.022-.491,17.191,17.191,0,0,0-16.545,6.1c-.046.063-.089.118-.138.178a7.244,7.244,0,0,0-.171,8.6c1.031,1.459,2.41,3.4,4.027,5.653-3.421,1.034-9.081,3.915-5.64,11.323,4.768,10.27,17.566,16.134,17.566,16.134s8.366,2.4,10.536,5.054a38.909,38.909,0,0,0,6.042,4.382c1.976,2.091,3.523,3.457,4.442,3.76,3.668,1.208,10.81,7.007,15.834,11.356l-.754,10.391-.049.626-.31-.263s-2.222,4.61-8.663,6.154a5.515,5.515,0,0,0-3.223,2.1l-.023.03-.191.277-.145-.109c-1.317,1.854-1.929,4.554,3.042,5.3a57.167,57.167,0,0,0,16.463-.5l7.757-7.171a7.618,7.618,0,0,0,2.963,1.538c5.8,1.317,22.083,7.619,22.083,7.619,0-1.768,14.392-24.513,14.392-24.513,19.426-36.771-1.7-64.251-4.034-67.112l-.207-.25-.181-3.056-.04-.7s10.484-4.636,6.467-6.842S430.48,281.914,426.7,277.5c-2.963-3.444-2.792-11.438-3.1-18.251a10.968,10.968,0,0,0,2.13,4.61c.023.03.05.053.073.082l-.28-.244A3.416,3.416,0,0,0,425.722,263.983Zm-129.177-2.825a46.371,46.371,0,0,0,5.268,4.488c-1.87-.912-3.326-1.682-4.448-2.3C297.1,262.61,296.825,261.879,296.545,261.158ZM256.609,226.7a5.443,5.443,0,0,1-1.7,2.473l-.659-2.841C255.118,226.471,255.921,226.6,256.609,226.7Zm131.6,78.07c.26-.56.53-1.11.8-1.646a6.174,6.174,0,0,0,2.927-2.035,41.8,41.8,0,0,1,1.271,6.078v.148a9.275,9.275,0,0,1-.372,2.446c-.3.961-.856,1.867-1.86,1.976a36.725,36.725,0,0,1-5.555-1.294c-.892-.244-1.873-.517-2.92-.813C384.143,309.523,386.429,308.6,388.206,304.772ZM413.971,235.3a5.43,5.43,0,0,0-3.47-1.992c-.286-.191-.731-.494-1.3-.905-2.766-2.025-8.287-6.585-10.819-12.41a13.949,13.949,0,0,0,2.061-.754,14.908,14.908,0,0,0,2.911-1.762c.3-.237.6-.484.882-.741a15.365,15.365,0,0,0,1.976-2.157c.234-.329.461-.642.658-.988a15.172,15.172,0,0,0,.876-1.574,19.612,19.612,0,0,0,1.38-3.951c.128-.547.24-1.1.329-1.663s.175-1.123.237-1.689a47.687,47.687,0,0,0,.234-6.016c0-.1,0-.194,0-.29V198.3h0a29.435,29.435,0,0,0-.659-6.055c.148.056.3.112.438.178a4.434,4.434,0,0,1,.678.412c-.053-.076-.112-.151-.168-.227a8.553,8.553,0,0,1,2.3,2.545,36.34,36.34,0,0,1,3.9,31.079,18.565,18.565,0,0,0-1.185,4.3c-.464,5.3,4.61,9.351,6.5,14.336a25.988,25.988,0,0,1,1.218,8.008c-1.422-6.937-6.621-13.766-8.969-17.569Z" transform="translate(-157.213 -131.703)" fill="url(#linear-gradient)"/>
  <path id="Path_1217" data-name="Path 1217" d="M406.575,665.224s-.247,4.116-1.811,5.433c0,0-3.21,18.6-6.173,21.978l-.494,1.893-12.347-1.4,2.469-16.463,2.3-15.146Z" transform="translate(-275.676 -456.74)" fill="#ffc1c8"/>
  <path id="Path_1218" data-name="Path 1218" d="M406.575,665.224s-.247,4.116-1.811,5.433c0,0-3.21,18.6-6.173,21.978l-.494,1.893-12.347-1.4,2.469-16.463,2.3-15.146Z" transform="translate(-275.676 -456.74)" opacity="0.03"/>
  <path id="Path_1219" data-name="Path 1219" d="M344.161,713.219l5.321-.234-.283,8.376-4.073,2.73-7.336-1.607,2.677-11.195Z" transform="translate(-226.567 -477.095)" fill="#ff748f"/>
  <path id="Path_1220" data-name="Path 1220" d="M344.161,713.219l5.321-.234-.283,8.376-4.073,2.73-7.336-1.607,2.677-11.195Z" transform="translate(-226.567 -477.095)" fill="#06aff2"/>
  <path id="Path_1221" data-name="Path 1221" d="M400.921,778.581s4.178-1.232,6.16.375,6.8,5.89,7.767,6.427,14.876,3.161,10.283,6.532-16.387,2.41-16.387,2.41-7.715-2.252-7.928-2.357-4.939-2.41-5.087-2.572,1.337-10.865,1.337-10.865Z" transform="translate(-282.363 -534.956)" fill="#5d618c"/>
  <path id="Path_1222" data-name="Path 1222" d="M400.921,778.581s4.178-1.232,6.16.375,6.8,5.89,7.767,6.427,14.876,3.161,10.283,6.532-16.387,2.41-16.387,2.41-7.715-2.252-7.928-2.357-4.939-2.41-5.087-2.572,1.337-10.865,1.337-10.865Z" transform="translate(-282.363 -534.956)" opacity="0.03"/>
  <path id="Path_1223" data-name="Path 1223" d="M267.472,364.039l-.247,15.3-.56,32.646-.329.286c-9.8,8.478-16.71-.494-16.71-.494a4.491,4.491,0,0,1-2.858,1.034,22.334,22.334,0,0,1-3.984,0l-.329-.03s-25.853-31.8-27.417-37.394a4.564,4.564,0,0,1,.023-2.911,4.875,4.875,0,0,1,2.9-2.6,10.233,10.233,0,0,1,2.673-.658,67.649,67.649,0,0,0-4.116-14.487c-1.9-4.857-1.712-7.323-1.189-8.561a1.982,1.982,0,0,1,1.024-1.162s1.04-.767,2.716-1.975c1.393-1.017,3.227-2.348,5.268-3.819l1.893-1.357c6.984-5.011,15.4-10.912,17.121-11.524a2.525,2.525,0,0,1,.329-.1c3.533-.853,15.389.919,15.389.919Z" transform="translate(-161.02 -231.696)" fill="#034aa6"/>
  <path id="Path_1224" data-name="Path 1224" d="M324.218,364.052l-.247,15.3c-11.712-3.454-22.6-26.341-24.036-28.145-1.228-1.567.033-19.021.5-24.954,3.533-.853,15.389.919,15.389.919Z" transform="translate(-217.767 -231.709)" fill="none"/>
  <path id="Path_1225" data-name="Path 1225" d="M324.218,364.052l-.247,15.3c-11.712-3.454-22.6-26.341-24.036-28.145-1.228-1.567.033-19.021.5-24.954,3.533-.853,15.389.919,15.389.919Z" transform="translate(-217.767 -231.709)" opacity="0.1"/>
  <path id="Path_1226" data-name="Path 1226" d="M622.522,349.479s-9.137,4.692-10.289,23.13c0,0-1.482,9.384-2.3,11.03s-4.775,17.2-4.281,19.1c0,0-.823,1.893-3.869,1.07s-19.508-3.375-23.213-5.844l-10.207-4.856s-19.92-14.076-24.118-1.975,19.673,11.613,19.673,11.613l11.277,5.268,34.16,11.27s4.527,2.058,7.573-4.527a77.28,77.28,0,0,1,6.914-11.853s6.914-19.426,6.832-22.719,7.408-11.112,7.408-11.112,1.482-20.743-10.7-20.332Z" transform="translate(-381.651 -246.94)" fill="#ffc1c7"/>
  <path id="Path_1227" data-name="Path 1227" d="M622.522,349.479s-9.137,4.692-10.289,23.13c0,0-1.482,9.384-2.3,11.03s-4.775,17.2-4.281,19.1c0,0-.823,1.893-3.869,1.07s-19.508-3.375-23.213-5.844l-10.207-4.856s-19.92-14.076-24.118-1.975,19.673,11.613,19.673,11.613l11.277,5.268,34.16,11.27s4.527,2.058,7.573-4.527a77.28,77.28,0,0,1,6.914-11.853s6.914-19.426,6.832-22.719,7.408-11.112,7.408-11.112,1.482-20.743-10.7-20.332Z" transform="translate(-381.651 -246.94)" opacity="0.03"/>
  <path id="Path_1228" data-name="Path 1228" d="M473.067,399.64a15.891,15.891,0,0,0,2.8,1.765s7.573,9.012,10.618,11.317,13.006,11.112,10.991,14.448-4.28,2.591-4.28,2.591l-17.823-12.347s-6.256-4.485-7.53-6.625A49.507,49.507,0,0,1,465,404.167Z" transform="translate(-328.833 -281.086)" fill="#ffc1c8"/>
  <path id="Path_1229" data-name="Path 1229" d="M473.067,399.64a15.891,15.891,0,0,0,2.8,1.765s7.573,9.012,10.618,11.317,13.006,11.112,10.991,14.448-4.28,2.591-4.28,2.591l-17.823-12.347s-6.256-4.485-7.53-6.625A49.507,49.507,0,0,1,465,404.167Z" transform="translate(-328.833 -281.086)" opacity="0.03"/>
  <path id="Path_1230" data-name="Path 1230" d="M400.55,313.32l12.8,17.161-11.524,4.488L397.05,320.6Z" transform="translate(-266.316 -210.159)" fill="#dce6f2"/>
  <path id="Path_1231" data-name="Path 1231" d="M400.55,313.32l12.8,17.161-11.524,4.488L397.05,320.6Z" transform="translate(-266.316 -210.159)" opacity="0.03"/>
  <path id="Path_1232" data-name="Path 1232" d="M449.3,485.77l2.3,3.375,1.976,50.541s.165,4.774-1.235,6.173-12.841.494-12.841.494.412-51.528.576-52.516S449.3,485.77,449.3,485.77Z" transform="translate(-311.729 -338.857)" fill="#575988"/>
  <path id="Path_1233" data-name="Path 1233" d="M449.3,485.77l2.3,3.375,1.976,50.541s.165,4.774-1.235,6.173-12.841.494-12.841.494.412-51.528.576-52.516S449.3,485.77,449.3,485.77Z" transform="translate(-311.729 -338.857)" opacity="0.1"/>
  <path id="Path_1234" data-name="Path 1234" d="M382.231,671.413a41.741,41.741,0,0,1-2.634,5.347s-2.14,12.212-3.052,13.338c-.658.823-.961,6.967-1.07,10.17-.04,1.159-.056,1.933-.056,1.933l-12.584,6-.056-7.929v-.105h0c-.079-1.748-.988-22,.919-23.176,1.119-.695,2.186-3.622,2.907-6.022.55-1.853.9-3.4.9-3.4s13.98-.909,15.146.589C383.074,668.686,382.778,669.984,382.231,671.413Z" transform="translate(-260.077 -460.611)" fill="#ffc1c8"/>
  <path id="Path_1235" data-name="Path 1235" d="M390.566,671.379c-5.67-.119-12.775-.359-15.646-.461.55-1.854.9-3.4.9-3.4s13.98-.909,15.146.589C391.409,668.653,391.113,669.95,390.566,671.379Z" transform="translate(-268.412 -460.578)" opacity="0.1"/>
  <path id="Path_1236" data-name="Path 1236" d="M365.686,451.48s-3.869,20.579-3.128,33.831-.576,23.041,1.07,26.917,1.646,12.676,1.646,12.676,22.389.823,24.694.494,2.223-2.058,2.223-2.058-1.564-13.671-.082-17.951,1.235-17.368,1.235-17.368l6.256-21.072s1.893-9.466-2.058-13.335S365.686,451.48,365.686,451.48Z" transform="translate(-260.057 -315.597)" fill="#575988"/>
  <path id="Path_1237" data-name="Path 1237" d="M633.587,666.971l-.988,1.449-6.108,9.087-5.186,1.564-3.869-3.786.188-2.5.965-12.976s-23.937-14.082-26.077-16.716-10.372-5.021-10.372-5.021-12.594-5.844-17.286-16.051,7.82-11.771,7.82-11.771l47,44.95Z" transform="translate(-395.104 -422.352)" fill="#ffc1c7"/>
  <path id="Path_1238" data-name="Path 1238" d="M690.462,744.724l-6.108,9.087-5.186,1.564-3.869-3.786.188-2.5,4.257,3.652,7.984-9.3Z" transform="translate(-452.95 -498.659)" opacity="0.1"/>
  <path id="Path_1239" data-name="Path 1239" d="M722.335,789.452l-14.9,13.911a55.826,55.826,0,0,1-16.216.494c-4.893-.738-3.951-3.421-2.664-5.268l.023-.033a5.413,5.413,0,0,1,3.174-2.088,12.827,12.827,0,0,0,8.521-6.114l4.609,3.951,7.985-9.3,5.9,2.772Z" transform="translate(-478.089 -539.564)" fill="#575988"/>
  <path id="Path_1240" data-name="Path 1240" d="M721.91,795.6l-14.9,13.917a55.838,55.838,0,0,1-16.216.494c-4.893-.738-4.28-3.421-2.993-5.268a10.206,10.206,0,0,0,5.133,2.137,81.942,81.942,0,0,0,10.536,0l14.876-12.95Z" transform="translate(-477.664 -545.554)" fill="#fff"/>
  <path id="Path_1241" data-name="Path 1241" d="M385.865,284.357c-1.212.606-1.768,2.476-1.992,4.61a39.387,39.387,0,0,0,.234,8.027s-16.463-4.5-14.7-5.38c1.011-.5,1.548-4.172,1.821-7.191.2-2.232.263-4.112.263-4.112S389.158,282.71,385.865,284.357Z" transform="translate(-264.623 -201.046)" fill="#ffc1c8"/>
  <path id="Path_1242" data-name="Path 1242" d="M743.875,302.025S723.9,320.9,724.557,315.416a6.674,6.674,0,0,0-.691-3.069c-1.847-4.451-6.954-11.363-10.948-16.417-2.931-3.707-5.268-6.417-5.268-6.417s24.809-20.852,22.834-9a14.218,14.218,0,0,0,1.083,7.961c2.473,5.821,7.951,10.4,10.688,12.423C743.243,301.627,743.875,302.025,743.875,302.025Z" transform="translate(-491.589 -198.739)" fill="#ffc1c7"/>
  <path id="Path_1243" data-name="Path 1243" d="M727.755,284.134c-.359.444-1.689,2.005-2.084,2.417-3.753,3.908-4.254,9.548-10.1,9.548a20.546,20.546,0,0,1-2.634-.168c-2.93-3.707-5.268-6.417-5.268-6.417s24.8-20.852,22.827-9C730.03,283.327,726.711,281.671,727.755,284.134Z" transform="translate(-491.602 -198.739)" opacity="0.1"/>
  <path id="Path_1244" data-name="Path 1244" d="M710.259,228.571a20.552,20.552,0,1,1-6.02-14.612A20.635,20.635,0,0,1,710.259,228.571Z" transform="translate(-465.658 -152.504)" fill="#ffc1c7"/>
  <path id="Path_1245" data-name="Path 1245" d="M776.909,350.567s-19.975,18.876-19.317,13.391a6.674,6.674,0,0,0-.691-3.069l2.887-6.809a19.535,19.535,0,0,1,12.778-4.84,18.588,18.588,0,0,1,2.558.174l.165.026C776.277,350.169,776.909,350.567,776.909,350.567Z" transform="translate(-524.623 -247.281)" opacity="0.1"/>
  <path id="Path_1246" data-name="Path 1246" d="M673.585,490.2s-14.158,22.607-14.158,24.365c0,0-16.025-6.256-21.731-7.573s-11.086-13.279-11.086-13.279-15.146-14.27-21.073-16.246c-5.028-1.676-29.188-35.757-36.386-46.04a7.243,7.243,0,0,1,.171-8.544l.135-.175a16.822,16.822,0,0,1,16.278-6.065,17.007,17.007,0,0,1,1.976.487c10.365,3.2,28.316,8.709,37.37,11.195a38.034,38.034,0,0,0,5.466,1.287c.988-.1,1.531-.988,1.831-1.959a9.328,9.328,0,0,0,.366-2.43v-.148a41.739,41.739,0,0,0-1.3-6.19c-1.057-3.622-2.888-7.873-5.927-9.9-2.522-1.682-4.527-5.393-5.578-9.706-1.413-5.824-1.087-12.755,2.064-17.293l3.046-7.184,5.093-12.018,2.838-6.7a19.535,19.535,0,0,1,12.778-4.84,18.62,18.62,0,0,1,2.558.174c2.183.3,4.07.958,4.857,2.249,2.413,3.951,7.9,11.195,9,18.438s-.217,19.1,3.513,23.489,5.927,14.925,9.878,17.121-6.365,6.8-6.365,6.8l.04.695.178,3.039s.073.082.2.247C671.915,426.34,692.681,453.652,673.585,490.2Z" transform="translate(-397.813 -248.622)" fill="#034aa6"/>
  <path id="Path_1247" data-name="Path 1247" d="M801.165,564.016c-4.326.906-13.789,2.878-18.01,3.744l-.741.151c-.247.05-.524.1-.823.138-4.241.583-13.44.3-17.651.125a9.316,9.316,0,0,0,.365-2.43V565.6a139.1,139.1,0,0,0,17.3-2.15c.53-.109,1.054-.224,1.564-.33.738-.171,1.455-.352,2.14-.543a57.587,57.587,0,0,1,15.475-1.83l.178,3.039S801.018,563.852,801.165,564.016Z" transform="translate(-529.345 -389.144)" fill="#575988"/>
  <path id="Path_1248" data-name="Path 1248" d="M819.064,567.92v4.656l-.741.151c-.247.049-.524.1-.823.138v-4.59C818.03,568.154,818.554,568.039,819.064,567.92Z" transform="translate(-565.27 -393.959)" fill="#ff6584"/>
  <path id="Path_1249" data-name="Path 1249" d="M767.593,595s-8.807,20.167-14.158,22.142-18.685,8.972-18.685,8.972,7.655,6.75,15.64-.659S769.9,598.293,767.593,595Z" transform="translate(-509.766 -412.123)" opacity="0.1"/>
  <path id="Path_1250" data-name="Path 1250" d="M862.185,586.77s.823,7.655-.329,9.055S862.185,586.77,862.185,586.77Z" transform="translate(-594.727 -406.602)" opacity="0.1"/>
  <path id="Path_1251" data-name="Path 1251" d="M842.365,602s4.445,46.59-17.615,46.837C824.75,648.843,845.411,628.34,842.365,602Z" transform="translate(-570.133 -416.818)" opacity="0.1"/>
  <path id="Path_1252" data-name="Path 1252" d="M891.225,636s6.338,24.447-1.975,27.246A62.007,62.007,0,0,0,891.225,636Z" transform="translate(-613.396 -439.623)" opacity="0.1"/>
  <path id="Path_1253" data-name="Path 1253" d="M746.953,617c-.412,0-17.121,2.881-13.5,5.186S746.953,617,746.953,617Z" transform="translate(-508.552 -426.879)" opacity="0.1"/>
  <path id="Path_1254" data-name="Path 1254" d="M810.5,516.77s13.664,12.1,11.03,13.417" transform="translate(-560.575 -359.65)" opacity="0.1"/>
  <path id="Path_1255" data-name="Path 1255" d="M807,528.52s7.9,9.713,7,10.289" transform="translate(-558.227 -367.532)" opacity="0.1"/>
  <path id="Path_1256" data-name="Path 1256" d="M858.25,524s3.622,4.527,3.046,5.515" transform="translate(-592.603 -364.5)" opacity="0.1"/>
  <path id="Path_1257" data-name="Path 1257" d="M869.25,516.77s5.186,4.027,4.034,5.6" transform="translate(-599.981 -359.65)" opacity="0.1"/>
  <path id="Path_1258" data-name="Path 1258" d="M754.082,367.77s16.874,1.317,16.134,14.9-13.335,17.039-13.335,17.039l-16.38-4.692S747.826,368.675,754.082,367.77Z" transform="translate(-513.623 -259.71)" fill="#ffc1c7"/>
  <path id="Path_1259" data-name="Path 1259" d="M624.178,550.357c10.365,3.2,28.316,8.709,37.371,11.195a4.788,4.788,0,0,1-3.862.214l-34.16-11.27-1.337-.626A16.984,16.984,0,0,1,624.178,550.357Z" transform="translate(-434.267 -381.852)" opacity="0.1"/>
  <path id="Path_1260" data-name="Path 1260" d="M751.67,397.315c-1.6,2.14-3.016,4.445-2.964,5.887a34.472,34.472,0,0,1-1.574,6.812,113.88,113.88,0,0,1-9.549,22.627c-1.057-3.622-2.887-7.873-5.926-9.9-2.522-1.682-4.527-5.393-5.578-9.706a57.159,57.159,0,0,1,1.873-6.371c.823-1.646,2.3-11.03,2.3-11.03a49.314,49.314,0,0,1,.932-7.076,29.816,29.816,0,0,1,5.094-12.018,14.223,14.223,0,0,1,4.28-4.037l4.857-.741c5.6-.188,8.3,4.07,9.6,8.735A19.519,19.519,0,0,1,751.67,397.315Z" transform="translate(-503.951 -262.38)" opacity="0.1"/>
  <path id="Path_1261" data-name="Path 1261" d="M606.522,368.519s-9.137,4.692-10.289,23.13c0,0-1.482,9.384-2.3,11.03s-4.774,17.2-4.28,19.1c0,0-.823,1.893-3.869,1.07S566.27,419.471,562.566,417l-10.207-4.857s-19.92-14.076-24.118-1.976,19.673,11.613,19.673,11.613l11.277,5.268,34.16,11.27s4.527,2.058,7.573-4.527c.761-1.646,1.574-3.21,2.367-4.633a114.453,114.453,0,0,0,9.815-23.107,33.3,33.3,0,0,0,1.574-6.812c-.036-1.442,1.38-3.75,2.963-5.887a19.409,19.409,0,0,0,3.325-16.825c-1.3-4.665-4.014-8.923-9.6-8.732Z" transform="translate(-370.919 -259.724)" fill="#ffc1c7"/>
  <path id="Path_1262" data-name="Path 1262" d="M389.842,284.33c-1.211.606-1.768,2.476-1.992,4.61h-.642a18.011,18.011,0,0,1-12.008-4.557c.2-2.232.263-4.112.263-4.112S393.135,282.684,389.842,284.33Z" transform="translate(-268.6 -201.02)" opacity="0.1"/>
  <path id="Path_1263" data-name="Path 1263" d="M392.888,212.709A18.109,18.109,0,1,1,374.779,194.6,18.109,18.109,0,0,1,392.888,212.709Z" transform="translate(-256.171 -143.557)" fill="#ffc1c8"/>
  <path id="Path_1264" data-name="Path 1264" d="M388.487,357.121s-9.466,3.786-12.429,5.1-19.92-1.729-19.92-1.729-8.808-4.445-8.067-8.89-7.079-19.008-7.079-19.008-.247-12.923,3.21-15.393,2.14-7.655,2.14-7.655.016-.171.069-.451c.214-1.1.988-3.9,3.553-4.817a3.4,3.4,0,0,1,1.59-.043c2.459.372,6.5,2.2,9.841,3.892,2.766,1.4,5.054,2.7,5.578,3l.112.063s1.235,2.881,2.716,1.976,8.89,3.293,10.289,5.186.412,10.783.165,13.006,1.4,8.808,3.21,12.587S388.487,357.121,388.487,357.121Z" transform="translate(-245.653 -217.047)" opacity="0.1"/>
  <path id="Path_1265" data-name="Path 1265" d="M388.487,354.121s-9.466,3.786-12.429,5.1-19.92-1.729-19.92-1.729-8.808-4.445-8.067-8.89-7.079-19.008-7.079-19.008-.247-12.923,3.21-15.393,2.14-7.655,2.14-7.655.016-.171.069-.451c.214-1.1.988-3.9,3.553-4.817a3.4,3.4,0,0,1,1.59-.043c2.459.372,6.5,2.2,9.841,3.892,2.766,1.4,5.054,2.7,5.578,3l.112.062s1.235,2.881,2.716,1.976,8.89,3.293,10.289,5.186.412,10.783.165,13.006,1.4,8.808,3.21,12.588S388.487,354.121,388.487,354.121Z" transform="translate(-245.653 -215.035)" fill="#dce6f2"/>
  <path id="Path_1266" data-name="Path 1266" d="M372.94,423.265s-8.123,13.17-9.44,13.885l.494,4.61s11.58-2.417,12.295-5.653.329-13.006.329-13.006Z" transform="translate(-260.752 -296.822)" fill="#575988"/>
  <path id="Path_1267" data-name="Path 1267" d="M372.94,423.265s-8.123,13.17-9.44,13.885l.494,4.61s11.58-2.417,12.295-5.653.329-13.006.329-13.006Z" transform="translate(-260.752 -296.822)" opacity="0.2"/>
  <path id="Path_1268" data-name="Path 1268" d="M426.88,372.64s1.439,5.558,3.7,7.451S426.88,372.64,426.88,372.64Z" transform="translate(-303.264 -262.976)" opacity="0.1"/>
  <path id="Path_1269" data-name="Path 1269" d="M384,409.928c.207.372,7.161,9.838,14.487,13.335s23.667,7.616,23.667,7.616,13.253,2.469,15.515,3.414,5.146-3.293-9.055-9.341-16.957-8.725-16.957-8.725-12.347-6.016-14.323-8.979S384,409.928,384,409.928Z" transform="translate(-274.503 -285.612)" fill="#ffc1c8"/>
  <path id="Path_1270" data-name="Path 1270" d="M399.75,547.91c.247-.165,6.174-6.5,6.914-3.787S399.75,547.91,399.75,547.91Z" transform="translate(-285.067 -377.544)" opacity="0.1"/>
  <path id="Path_1271" data-name="Path 1271" d="M403.543,519c-.082.247-.905,7.244-3.293,8.067" transform="translate(-285.402 -361.146)" opacity="0.1"/>
  <path id="Path_1272" data-name="Path 1272" d="M407.857,524.77s-2.14,7.49-4.857,7.978" transform="translate(-287.247 -365.016)" opacity="0.1"/>
  <path id="Path_1273" data-name="Path 1273" d="M384.75,588.473s3.622.082,4.116-2.223" transform="translate(-275.006 -406.254)" opacity="0.1"/>
  <path id="Path_1274" data-name="Path 1274" d="M399.75,638.52c.494.082,8.231,5.021,6.256,6.009S399.75,638.52,399.75,638.52Z" transform="translate(-285.067 -441.313)" opacity="0.1"/>
  <path id="Path_1275" data-name="Path 1275" d="M376.016,765.14v.761c-.039,1.159-.056,1.932-.056,1.932l-12.584,6-.056-7.928V765.8h0v-.537l5.038.161Z" transform="translate(-260.632 -526.243)" opacity="0.1"/>
  <path id="Path_1276" data-name="Path 1276" d="M326.6,738.432l-10.5,4.017-4.712-2.785.049-3.813.109-8.185,5.038.161,7.658-.267v5.732Z" transform="translate(-208.86 -488.008)" fill="#06aff2"/>
  <path id="Path_1277" data-name="Path 1277" d="M378.018,788.494l-10.5,4.017-4.712-2.786.049-3.813a7.628,7.628,0,0,0,5.788,3s3.694-4.61,5.943-5.946a1.374,1.374,0,0,1,1.073-.145v.537Z" transform="translate(-260.289 -538.066)" opacity="0.1"/>
  <path id="Path_1278" data-name="Path 1278" d="M361.113,790.891a7.568,7.568,0,0,1-6.427-4.017s-3.052,2.947-3.108,9.16a59.356,59.356,0,0,0,.056,6.427s12.317-.481,14.622.375,21.639-.751,21.639-.751,1.284-3.375-4.554-4.553-10.658-7.392-10.819-7.659-3.214-6.256-5.462-4.939S361.113,790.891,361.113,790.891Z" transform="translate(-252.745 -539.394)" fill="#5d618c"/>
  <path id="Path_1279" data-name="Path 1279" d="M412.548,188.458l-1.228-.168.767-.02Z" transform="translate(-292.827 -139.311)" opacity="0.1"/>
  <path id="Path_1280" data-name="Path 1280" d="M392.87,212.747a18.151,18.151,0,0,1-.484,4.172,2.9,2.9,0,0,1-.78-.329c-.352-.227-.7-.54-1.119-.5a1.334,1.334,0,0,0-.659.3c-1.949,1.426-3.4,3.77-5.769,4.224a3.806,3.806,0,0,0,.092-2.153,4.455,4.455,0,0,1-3.9,1.251,1.881,1.881,0,0,0,.056-1.294,37.788,37.788,0,0,1-5.2,2.413c-.063-.329-.122-.632-.184-.948-2.522,1.231-2.325,5.41-4.847,6.641-1.5.734-3.622.207-4.659,1.531-.04.053-.076.105-.112.161a18.109,18.109,0,1,1,27.559-15.452Z" transform="translate(-256.153 -143.595)" opacity="0.1"/>
  <path id="Path_1281" data-name="Path 1281" d="M362.906,183.776a17.8,17.8,0,0,0-4.7-1.449,5.978,5.978,0,0,0-4.636,1.222c-.988.869-1.761,2.265-3.078,2.3a3.962,3.962,0,0,1-1.811-.579c-1.646-.79-3.7-1.238-5.189-.191a5.4,5.4,0,0,0-1.824,3.819,12.217,12.217,0,0,1-.925,4.231,18.751,18.751,0,0,1-1.6,2.157,9.318,9.318,0,0,0-1.791,6.368,18.476,18.476,0,0,0,.718,3.309l1.343,4.745a28.024,28.024,0,0,0,2.674,7,9.481,9.481,0,0,0,5.729,4.54c1.469.329,3.247.059,4.07-1.2.211-.329.346-.682.576-.988,1.021-1.317,3.158-.794,4.659-1.528,2.522-1.231,2.325-5.41,4.847-6.641l.188.945a38.308,38.308,0,0,0,5.2-2.41,1.9,1.9,0,0,1-.053,1.294,4.468,4.468,0,0,0,3.9-1.251,3.807,3.807,0,0,1-.092,2.153c2.371-.458,3.819-2.8,5.769-4.228a1.361,1.361,0,0,1,.659-.3c.418-.036.767.277,1.119.5a3.154,3.154,0,0,0,3.9-.5,4.867,4.867,0,0,0,.751-4.353,36.476,36.476,0,0,1-1.129-4.445c-.207-2.078.517-4.247-.148-6.223a6.876,6.876,0,0,0-3.622-3.688c-1.584-.8-3.293-1.261-4.909-1.976-1.534-.688-2.963-1.61-4.557-2.153a20.645,20.645,0,0,0-7.244-.659" transform="translate(-243.185 -135.291)" fill="#794f6a"/>
  <path id="Path_1282" data-name="Path 1282" d="M352.279,338.714s2.634-17.724-19.92-16.848L321,323.377s10.836,1.949,13.443,2.236l.277.039C337.133,326.094,345.477,325.544,352.279,338.714Z" transform="translate(-232.246 -228.899)" fill="#034aa6"/>
  <path id="Path_1283" data-name="Path 1283" d="M372.25,580.219v-.2C381.5,572.018,372.25,580.219,372.25,580.219Z" transform="translate(-266.621 -399.722)" opacity="0.1"/>
  <path id="Path_1284" data-name="Path 1284" d="M247.261,502.2a22.317,22.317,0,0,1-3.984,0L215.57,461.874a4.874,4.874,0,0,1,2.9-2.6Z" transform="translate(-161.529 -321.083)" fill="#575988"/>
  <path id="Path_1285" data-name="Path 1285" d="M229.843,404.337l-1.317,1.564s-9.99-16.595-12.136-25.023a1.981,1.981,0,0,1,1.024-1.162s1.04-.767,2.716-1.976C220.753,381.7,222.876,391.4,229.843,404.337Z" transform="translate(-162.079 -266.397)" fill="#575988"/>
  <path id="Path_1286" data-name="Path 1286" d="M258.363,385.819l-2.634,1.482c-7.191-8.416-7.8-22.554-7.738-28.188l1.9-1.363C250.145,365.148,258.363,385.819,258.363,385.819Z" transform="translate(-183.273 -252.989)" fill="#575988"/>
  <path id="Path_1287" data-name="Path 1287" d="M298.271,438.52c-.082,1.07-3.128,11.935,1.317,13.746S298.271,438.52,298.271,438.52Z" transform="translate(-216.266 -307.165)" opacity="0.1"/>
  <path id="Path_1288" data-name="Path 1288" d="M329.5,485.041c.165.576,1.646,19.344,4.856,17.862s1.482-22.883,1.482-22.883Z" transform="translate(-237.947 -335.001)" opacity="0.1"/>
  <path id="Path_1289" data-name="Path 1289" d="M714.236,228.513a20.552,20.552,0,0,1-5.755,14.29,12.022,12.022,0,0,1-4.576.079,4.554,4.554,0,0,1-2.14-.859,5.571,5.571,0,0,1-1.386-2.005c-1.2-2.585-1.817-5.571-3.5-7.784s-5.107-3.184-6.733-.915c-.886,1.231-1.034,3.125-2.216,3.977-1.419,1.027-3.293-.181-4.4-1.646-3.26-4.28-2.144-12.7-8.36-13.878l-.25-.043a20.634,20.634,0,0,1,39.316,8.785Z" transform="translate(-469.635 -152.447)" opacity="0.1"/>
  <path id="Path_1290" data-name="Path 1290" d="M668.967,208.214c-1.007-.194-2.176-.168-2.851-1.037a3.993,3.993,0,0,1-.609-1.9c-.4-2.917-.625-6.048.537-8.692,1.906-4.336,6.812-5.785,11.076-5.462s8.449,1.913,12.713,1.646c3.134-.2,6.226-1.416,9.351-1.07a19.027,19.027,0,0,1,7,2.759,16.75,16.75,0,0,1,5.683,4.468c2.167,2.98,2.575,7.1,2.634,10.958.072,4.534-.247,9.242-2.15,13.233-2.759,5.792-8.913,9.239-14.649,8.2a4.555,4.555,0,0,1-2.14-.859,5.6,5.6,0,0,1-1.383-2.005c-1.205-2.588-1.821-5.571-3.507-7.787s-5.107-3.181-6.733-.912c-.886,1.228-1.034,3.125-2.216,3.977-1.419,1.024-3.293-.184-4.4-1.646C674.067,217.8,675.184,209.392,668.967,208.214Z" transform="translate(-463.103 -141.195)" fill="#945b79"/>
  <path id="Path_1291" data-name="Path 1291" d="M806.5,211.242c3.138,1.5,5.314,4.415,7.359,7.224,1.7,2.335,3.464,4.83,3.688,7.708a30.836,30.836,0,0,0,.138,3.536c.787,4.093,5.927,5.927,7.428,9.825a11.432,11.432,0,0,1,.171,5.825,78.618,78.618,0,0,1-1.775,8.34,11.1,11.1,0,0,0-.609,5.031,15.434,15.434,0,0,0,1.567,3.622c1.511,3.2,1.771,6.822,1.887,10.355s.112,7.128,1.169,10.5,3.388,6.559,6.75,7.649a7.934,7.934,0,0,1-3.8,1.35,3.171,3.171,0,0,0,1.317,2.924,9.592,9.592,0,0,0,3.036,1.406,5.729,5.729,0,0,1-5.044.777,11.305,11.305,0,0,1-3.691-2.417l-6.312-5.429a17.806,17.806,0,0,1-2.328-2.265c-4.083-5.074-1.646-12.762-3.925-18.857-1.857-4.955-6.848-8.979-6.391-14.25a18.6,18.6,0,0,1,1.166-4.28,36.439,36.439,0,0,0-3.836-30.891A7.312,7.312,0,0,0,801.7,216.1c-1.828-.873-4.438-.5-5.476-2.239a8.694,8.694,0,0,1-.708-3.566A18.21,18.21,0,0,1,806.5,211.242Z" transform="translate(-550.527 -153.795)" fill="#945b79"/>
  <path id="Path_1292" data-name="Path 1292" d="M341.286,362.57a11.985,11.985,0,0,1,20.921-6.045,26.289,26.289,0,0,1,4.639,7.164c3.293,8.314,3.54,9.054,3.54,9.054s-20.332,3.951-20.167,6.914L341,364.924S341.069,364,341.286,362.57Z" transform="translate(-245.66 -249.376)" opacity="0.1"/>
  <path id="Path_1293" data-name="Path 1293" d="M341.286,359.57a11.985,11.985,0,0,1,20.921-6.045,26.294,26.294,0,0,1,4.639,7.165c3.293,8.314,3.54,9.055,3.54,9.055s-20.332,3.951-20.167,6.914L341,361.924S341.069,361,341.286,359.57Z" transform="translate(-245.66 -247.364)" fill="#dce6f2"/>
  <path id="Path_1294" data-name="Path 1294" d="M359.25,340.89c.247.412,9.96,12.265,15.063,13.954S359.25,340.89,359.25,340.89Z" transform="translate(-257.902 -241.68)" opacity="0.1"/>
  <path id="Path_1295" data-name="Path 1295" d="M232.5,457.27s25.682,30.292,28.975,42.556" transform="translate(-172.885 -319.741)" opacity="0.1"/>
  <path id="Path_1296" data-name="Path 1296" d="M235.5,372.27s5.6,28.975,16.463,41.157,22.06,32.926,22.06,32.926" transform="translate(-174.897 -262.728)" fill="none" stroke="#000" stroke-miterlimit="10" stroke-width="2" opacity="0.1"/>
  <g id="Group_1268" data-name="Group 1268" transform="translate(93.96 57.075)" opacity="0.1">
    <path id="Path_1297" data-name="Path 1297" d="M451.625,244.24a3.925,3.925,0,0,1-.935,2.634,3.154,3.154,0,0,1-3.9.5c-.352-.224-.7-.537-1.12-.5a1.361,1.361,0,0,0-.659.3c-1.854,1.357-3.256,3.543-5.433,4.145a3.8,3.8,0,0,1-.171,1.729c2.371-.458,3.82-2.8,5.769-4.228a1.362,1.362,0,0,1,.659-.3c.418-.036.767.277,1.119.5a3.154,3.154,0,0,0,3.9-.5A4.861,4.861,0,0,0,451.625,244.24Z" transform="translate(-405.628 -233.928)"/>
    <path id="Path_1298" data-name="Path 1298" d="M472.44,217.056c.026.27.073.537.125.8,0-1.646.392-3.358,0-4.939C472.571,214.263,472.3,215.686,472.44,217.056Z" transform="translate(-427.756 -212.92)"/>
    <path id="Path_1299" data-name="Path 1299" d="M370.526,245.368a4.468,4.468,0,0,1-3.9,1.251,1.9,1.9,0,0,0,.053-1.294,38.3,38.3,0,0,1-5.2,2.41l-.188-.945c-2.522,1.231-2.324,5.41-4.847,6.641-1.5.734-3.622.2-4.659,1.528-.23.3-.365.658-.576.988-.823,1.261-2.6,1.534-4.07,1.2a9.455,9.455,0,0,1-5.729-4.54,28.148,28.148,0,0,1-2.674-7l-1.343-4.745c-.221-.79-.444-1.58-.589-2.387a4.844,4.844,0,0,0,.036.724,18.486,18.486,0,0,0,.718,3.309l1.343,4.745a28.021,28.021,0,0,0,2.674,7,9.482,9.482,0,0,0,5.729,4.54c1.469.329,3.246.059,4.07-1.2.211-.329.346-.682.576-.988,1.021-1.317,3.157-.794,4.659-1.528,2.522-1.231,2.325-5.41,4.847-6.641l.188.945a38.325,38.325,0,0,0,5.186-2.41,1.9,1.9,0,0,1-.053,1.294,4.468,4.468,0,0,0,3.747-1.113A3.8,3.8,0,0,0,370.526,245.368Z" transform="translate(-336.81 -230.064)"/>
  </g>
  <path id="Path_1300" data-name="Path 1300" d="M378.049,311.134c-1.771,1.021-5.887,3.293-6.72,2.9-.889-.412-10.589-3.806-13.829-4.939.214-1.1.988-3.9,3.553-4.817a3.4,3.4,0,0,1,1.59-.043l9.838,3.892C375.237,309.53,377.525,310.831,378.049,311.134Z" transform="translate(-256.728 -217.047)" opacity="0.1"/>
  <path id="Path_1301" data-name="Path 1301" d="M378.049,308.134c-1.771,1.021-5.887,3.292-6.72,2.9-.889-.412-10.589-3.806-13.829-4.939.214-1.1.988-3.9,3.553-4.817a3.4,3.4,0,0,1,1.59-.043l9.838,3.892C375.237,306.53,377.525,307.831,378.049,308.134Z" transform="translate(-256.728 -215.035)" fill="#dce6f2"/>
  <path id="Path_1302" data-name="Path 1302" d="M714.571,227.448a26.358,26.358,0,0,1-2.143,10.665c-2.759,5.792-8.913,9.239-14.649,8.2a4.557,4.557,0,0,1-2.14-.859,5.6,5.6,0,0,1-1.383-2.005c-1.2-2.588-1.821-5.571-3.507-7.787s-5.107-3.181-6.733-.912c-.886,1.228-1.034,3.125-2.216,3.977-1.419,1.024-3.292-.184-4.4-1.646-3.26-4.28-2.143-12.7-8.36-13.878-1.007-.194-2.176-.168-2.851-1.037a3.988,3.988,0,0,1-.609-1.9c-.112-.794-.208-1.6-.263-2.417a23.993,23.993,0,0,0,.263,5.38,3.987,3.987,0,0,0,.609,1.9c.675.869,1.844.843,2.851,1.037,6.217,1.179,5.1,9.588,8.36,13.878,1.1,1.445,2.963,2.654,4.4,1.646,1.182-.853,1.317-2.749,2.216-3.977,1.627-2.269,5.047-1.3,6.733.912s2.3,5.2,3.507,7.787a5.6,5.6,0,0,0,1.383,2.005,4.557,4.557,0,0,0,2.14.859c5.736,1.037,11.889-2.41,14.649-8.2,1.9-3.991,2.223-8.7,2.15-13.233C714.571,227.7,714.571,227.566,714.571,227.448Z" transform="translate(-463.164 -159.152)" opacity="0.1"/>
  <g id="Group_1269" data-name="Group 1269" transform="translate(245.411 59.564)" opacity="0.1">
    <path id="Path_1303" data-name="Path 1303" d="M875.656,290.888a11.427,11.427,0,0,1,.171,5.825,78.584,78.584,0,0,1-1.774,8.333,11.1,11.1,0,0,0-.609,5.031,15.428,15.428,0,0,0,1.567,3.622c1.511,3.2,1.771,6.822,1.886,10.355s.112,7.128,1.169,10.5a12.967,12.967,0,0,0,3.78,5.96,13.884,13.884,0,0,1-2.134-4.188c-1.057-3.372-1.057-6.967-1.169-10.5s-.375-7.158-1.886-10.352a15.938,15.938,0,0,1-1.567-3.622,11.257,11.257,0,0,1,.609-5.034,78.536,78.536,0,0,0,1.775-8.357,11.442,11.442,0,0,0-.171-5.828,10.733,10.733,0,0,0-2.822-3.763A7.7,7.7,0,0,1,875.656,290.888Z" transform="translate(-848.13 -266.352)"/>
    <path id="Path_1304" data-name="Path 1304" d="M902.039,453.647a8.605,8.605,0,0,1-2.45-1.277,7.964,7.964,0,0,1-3,.869,3.172,3.172,0,0,0,1.317,2.924,4.561,4.561,0,0,0,.56.385A2.638,2.638,0,0,1,898.25,455,8,8,0,0,0,902.039,453.647Z" transform="translate(-863.707 -376.019)"/>
    <path id="Path_1305" data-name="Path 1305" d="M800.9,221.6c-1.254-.6-2.878-.612-4.109-1.123a3.371,3.371,0,0,0,.28.659c1.037,1.738,3.648,1.363,5.475,2.239a4.5,4.5,0,0,1,.659.4A6.339,6.339,0,0,0,800.9,221.6Z" transform="translate(-796.79 -220.48)"/>
    <path id="Path_1306" data-name="Path 1306" d="M876.339,452.809a5.72,5.72,0,0,1-3.981.188,11.313,11.313,0,0,1-3.691-2.417l-6.312-5.429c-.3-.257-.6-.517-.885-.781.066.089.132.181.2.27A17.594,17.594,0,0,0,864,446.905l6.312,5.433A11.361,11.361,0,0,0,874,454.755a5.731,5.731,0,0,0,5.045-.78A10.668,10.668,0,0,1,876.339,452.809Z" transform="translate(-840.174 -370.653)"/>
    <path id="Path_1307" data-name="Path 1307" d="M841.32,224.635c1.7,2.334,3.464,4.83,3.688,7.708a30.766,30.766,0,0,0,.138,3.536,8.8,8.8,0,0,0,3.012,4.573,6.5,6.5,0,0,1-1.366-2.815,30.937,30.937,0,0,1-.138-3.54c-.224-2.878-1.975-5.374-3.688-7.7a35.194,35.194,0,0,0-4.047-4.883C839.766,222.511,840.553,223.578,841.32,224.635Z" transform="translate(-825.048 -221.171)"/>
  </g>
  <path id="Path_1308" data-name="Path 1308" d="M801.651,210.27s-1.976,3.293,3.622,6.035l.33-.879Z" transform="translate(-554.412 -154.068)" opacity="0.1"/>
  <path id="Path_1309" data-name="Path 1309" d="M800.651,210.27s-1.975,3.293,3.622,6.035l.329-.879Z" transform="translate(-553.742 -154.068)" fill="#ff6584"/>
  <path id="Path_1310" data-name="Path 1310" d="M1027.906,776.26s1.811,2.367-.833,5.927-4.824,6.585-3.951,8.814c0,0,3.991-6.635,7.244-6.727S1031.478,780.251,1027.906,776.26Z" transform="translate(-703.058 -533.701)" fill="#034aa6"/>
  <path id="Path_1311" data-name="Path 1311" d="M1028.123,776.26a3,3,0,0,1,.372.741c3.167,3.724,4.853,7.2,1.807,7.283-2.835.082-6.236,5.153-7.052,6.434.026.1.059.194.1.293,0,0,3.99-6.635,7.244-6.727S1031.7,780.251,1028.123,776.26Z" transform="translate(-703.276 -533.701)" opacity="0.1"/>
  <path id="Path_1312" data-name="Path 1312" d="M1047.418,784.321c0,.833-.1,1.508-.211,1.508s-.207-.658-.207-1.508.115-.441.23-.441S1047.418,783.488,1047.418,784.321Z" transform="translate(-719.206 -538.747)" fill="#ffd037"/>
  <path id="Path_1313" data-name="Path 1313" d="M1048.865,787.273c-.731.4-1.37.639-1.423.537s.491-.507,1.222-.905.444-.109.5,0S1049.6,786.875,1048.865,787.273Z" transform="translate(-719.5 -540.705)" fill="#ffd037"/>
  <path id="Path_1314" data-name="Path 1314" d="M1000.726,776.26s-1.811,2.367.833,5.927,4.824,6.585,3.951,8.814c0,0-3.988-6.635-7.244-6.727S997.167,780.251,1000.726,776.26Z" transform="translate(-685.443 -533.701)" fill="#034aa6"/>
  <path id="Path_1315" data-name="Path 1315" d="M1000.711,776.26a2.984,2.984,0,0,0-.372.741c-3.168,3.724-4.853,7.2-1.807,7.283,2.835.082,6.236,5.153,7.053,6.434a2.69,2.69,0,0,1-.1.293s-3.987-6.635-7.244-6.727S997.152,780.251,1000.711,776.26Z" transform="translate(-685.428 -533.701)" opacity="0.1"/>
  <path id="Path_1316" data-name="Path 1316" d="M998.82,784.321c0,.833.1,1.508.211,1.508s.207-.658.207-1.508-.115-.441-.231-.441S998.82,783.488,998.82,784.321Z" transform="translate(-686.889 -538.747)" fill="#ffd037"/>
  <path id="Path_1317" data-name="Path 1317" d="M994.412,787.273c.731.4,1.366.639,1.422.537s-.49-.507-1.222-.905-.445-.109-.5,0S993.681,786.875,994.412,787.273Z" transform="translate(-683.634 -540.705)" fill="#ffd037"/>
  <path id="Path_1318" data-name="Path 1318" d="M1000.57,814.542s5.057-.158,6.585-1.241,7.78-2.384,8.159-.659,7.6,8.656,1.89,8.7-13.266-.889-14.787-1.814S1000.57,814.542,1000.57,814.542Z" transform="translate(-688.063 -557.542)" fill="#a8a8a8"/>
  <path id="Path_1319" data-name="Path 1319" d="M1017.3,826.33c-5.709.046-13.266-.889-14.787-1.814-1.159-.708-1.62-3.24-1.775-4.405h-.171s.329,4.079,1.844,5.008,9.078,1.86,14.787,1.814c1.646,0,2.216-.6,2.186-1.469C1019.15,826,1018.528,826.33,1017.3,826.33Z" transform="translate(-688.063 -563.114)" opacity="0.2"/>
  <path id="Path_1320" data-name="Path 1320" d="M289.149,790.061a3.845,3.845,0,0,0,1.264-1.9,1.7,1.7,0,0,0-.882-1.942c-.81-.31-1.676.253-2.331.82a3.113,3.113,0,0,1-2.269,1.093A3.447,3.447,0,0,0,286,784.9a1.355,1.355,0,0,0-.3-.659c-.448-.481-1.264-.273-1.8.105-1.712,1.2-2.189,3.53-2.2,5.62a10.374,10.374,0,0,1-.033-2.3,2.371,2.371,0,0,0-.869-2.048,2.631,2.631,0,0,0-1.317-.329,2.743,2.743,0,0,0-2.153.612,2.118,2.118,0,0,0,.086,2.634,8.541,8.541,0,0,0,2.226,1.785,4.941,4.941,0,0,1,1.593,1.518,1.6,1.6,0,0,1,.119.273h4.8A13.416,13.416,0,0,0,289.149,790.061Z" transform="translate(-202.67 -538.866)" fill="#f29f05"/>
  <path id="Path_1321" data-name="Path 1321" d="M193.964,716.119s-4.61-15.706.866-27.269a24.829,24.829,0,0,0,2.009-15.564,41.908,41.908,0,0,0-2.206-7.306" transform="translate(-145.82 -459.732)" fill="none" stroke="#535461" stroke-miterlimit="10" stroke-width="2"/>
  <path id="Path_1322" data-name="Path 1322" d="M195.874,636.687c0,1.923-3.487,7.507-3.487,7.507s-3.487-5.6-3.487-7.507a3.487,3.487,0,0,1,6.974,0Z" transform="translate(-143.64 -437.745)" fill="#6c63ff"/>
  <path id="Path_1323" data-name="Path 1323" d="M213.307,665.209c-1.047,1.617-7.007,4.409-7.007,4.409s.105-6.585,1.152-8.2a3.486,3.486,0,1,1,5.855,3.787Z" transform="translate(-155.311 -455.606)" fill="#6c63ff"/>
  <path id="Path_1324" data-name="Path 1324" d="M209.954,718.074c-1.719.866-8.274.267-8.274.267s3.418-5.624,5.136-6.493a3.486,3.486,0,1,1,3.138,6.227Z" transform="translate(-152.213 -490.247)" fill="#6c63ff"/>
  <path id="Path_1325" data-name="Path 1325" d="M200.28,760.2c-1.548,1.146-8.11,1.646-8.11,1.646s2.417-6.121,3.951-7.267a3.487,3.487,0,1,1,4.145,5.6Z" transform="translate(-145.834 -518.63)" fill="#6c63ff"/>
  <path id="Path_1326" data-name="Path 1326" d="M181.77,678.366c1.38,1.343,7.813,2.733,7.813,2.733s-1.577-6.391-2.963-7.734a3.487,3.487,0,1,0-4.857,5Z" transform="translate(-138.1 -463.982)" fill="#6c63ff"/>
  <path id="Path_1327" data-name="Path 1327" d="M169.1,726.222c1.719.866,8.274.27,8.274.27s-3.414-5.627-5.136-6.493a3.485,3.485,0,1,0-3.138,6.223Z" transform="translate(-129.071 -495.714)" fill="#6c63ff"/>
  <path id="Path_1328" data-name="Path 1328" d="M166.166,776.089c1.547,1.142,8.11,1.646,8.11,1.646s-2.417-6.124-3.951-7.27a3.487,3.487,0,0,0-4.145,5.6Z" transform="translate(-127.545 -529.422)" fill="#6c63ff"/>
  <path id="Path_1329" data-name="Path 1329" d="M195.874,636.687c0,1.923-3.487,7.507-3.487,7.507s-3.487-5.6-3.487-7.507a3.487,3.487,0,0,1,6.974,0Z" transform="translate(-143.64 -437.745)" fill="#f29f05"/>
  <path id="Path_1330" data-name="Path 1330" d="M213.307,665.209c-1.047,1.617-7.007,4.409-7.007,4.409s.105-6.585,1.152-8.2a3.486,3.486,0,1,1,5.855,3.787Z" transform="translate(-155.311 -455.606)" fill="#f29f05"/>
  <path id="Path_1331" data-name="Path 1331" d="M209.954,718.074c-1.719.866-8.274.267-8.274.267s3.418-5.624,5.136-6.493a3.486,3.486,0,1,1,3.138,6.227Z" transform="translate(-152.213 -490.247)" fill="#f29f05"/>
  <path id="Path_1332" data-name="Path 1332" d="M200.28,760.2c-1.548,1.146-8.11,1.646-8.11,1.646s2.417-6.121,3.951-7.267a3.487,3.487,0,1,1,4.145,5.6Z" transform="translate(-145.834 -518.63)" fill="#f29f05"/>
  <path id="Path_1333" data-name="Path 1333" d="M181.77,678.366c1.38,1.343,7.813,2.733,7.813,2.733s-1.577-6.391-2.963-7.734a3.487,3.487,0,1,0-4.857,5Z" transform="translate(-138.1 -463.982)" fill="#f29f05"/>
  <path id="Path_1334" data-name="Path 1334" d="M169.1,726.222c1.719.866,8.274.27,8.274.27s-3.414-5.627-5.136-6.493a3.485,3.485,0,1,0-3.138,6.223Z" transform="translate(-129.071 -495.714)" fill="#f29f05"/>
  <path id="Path_1335" data-name="Path 1335" d="M166.166,776.089c1.547,1.142,8.11,1.646,8.11,1.646s-2.417-6.124-3.951-7.27a3.487,3.487,0,0,0-4.145,5.6Z" transform="translate(-127.545 -529.422)" fill="#f29f05"/>
  <path id="Path_1336" data-name="Path 1336" d="M164.45,804.064s5.634-1.12,7.135-2.611,8.264-4.1,9.015-2.239,10.141,8.205,3.757,9.324-15.024,1.492-16.9.744S164.45,804.064,164.45,804.064Z" transform="translate(-127.241 -548.664)" fill="#a8a8a8"/>
  <path id="Path_1337" data-name="Path 1337" d="M184.357,818.959c-6.388,1.119-15.024,1.492-16.9.747-1.429-.57-2.423-3.293-2.815-4.567l-.188.039s1.126,4.475,3,5.219,10.516.375,16.9-.744c1.841-.329,2.367-1.083,2.17-2.042C186.362,818.238,185.727,818.716,184.357,818.959Z" transform="translate(-127.241 -559.78)" opacity="0.2"/>
</svg>
