<svg id="Group_1208" data-name="Group 1208" xmlns="http://www.w3.org/2000/svg" width="337" height="254.329" viewBox="0 0 337 254.329">
  <path id="Path_1144" data-name="Path 1144" d="M343.789,176.521c0,39.118-22.934,73.725-58.092,94.792-22.541,13.509-50.111,21.453-79.879,21.453-39.656,0-69.907-14.987-92.662-37.947-20.974-21.156-35.578-49.087-45.309-78.3C24.407,46.1,96.976,10.518,205.819,60.276,275.119,91.961,343.789,112.323,343.789,176.521Z" transform="translate(-55.067 -38.747)" fill="#034aa6"/>
  <path id="Path_1145" data-name="Path 1145" d="M415.474,263.5V426.882c-22.542,13.509-50.111,21.453-79.879,21.453-39.656,0-69.907-14.988-92.662-37.946V263.5Z" transform="translate(-184.843 -194.006)" fill="#f2f2f2"/>
  <path id="Path_1146" data-name="Path 1146" d="M295.331,507.607a107.951,107.951,0,0,1,27.877-4.97,87.242,87.242,0,0,1,14.215.556,88.922,88.922,0,0,1,13.8,2.954c4.459,1.291,8.857,2.782,13.3,4.123a124.057,124.057,0,0,0,13.746,3.354,116.531,116.531,0,0,0,13.967,1.665,85.071,85.071,0,0,0,13.95-.172,42.682,42.682,0,0,0,12.551-3.182,38.327,38.327,0,0,0,10.207-6.547q1.136-1.014,2.185-2.117c.413-.431-.242-1.088-.656-.656a38.341,38.341,0,0,1-22.117,11.295,73.7,73.7,0,0,1-13.906.558,114.443,114.443,0,0,1-14.135-1.428,118.138,118.138,0,0,1-13.69-3.116c-4.418-1.28-8.776-2.756-13.178-4.086a99.149,99.149,0,0,0-13.568-3.233,85.321,85.321,0,0,0-13.92-.966,106.425,106.425,0,0,0-27.511,4.074q-1.687.474-3.358,1C294.517,506.891,294.759,507.786,295.331,507.607Z" transform="translate(-220.645 -358.503)" fill="#3f3d56"/>
  <path id="Path_1147" data-name="Path 1147" d="M295.331,583.607a107.957,107.957,0,0,1,27.877-4.97,87.238,87.238,0,0,1,14.215.556,88.911,88.911,0,0,1,13.8,2.954c4.459,1.291,8.857,2.782,13.3,4.123a124.043,124.043,0,0,0,13.746,3.354,116.506,116.506,0,0,0,13.967,1.665,85.078,85.078,0,0,0,13.95-.172,42.681,42.681,0,0,0,12.551-3.182,38.33,38.33,0,0,0,10.207-6.547q1.136-1.013,2.185-2.116c.413-.432-.242-1.089-.656-.656a38.341,38.341,0,0,1-22.117,11.295,73.662,73.662,0,0,1-13.906.558,114.419,114.419,0,0,1-14.135-1.428,118.145,118.145,0,0,1-13.69-3.116c-4.418-1.28-8.776-2.756-13.178-4.086a99.171,99.171,0,0,0-13.568-3.233,85.321,85.321,0,0,0-13.92-.966,106.44,106.44,0,0,0-27.511,4.074q-1.687.474-3.358,1C294.517,582.891,294.759,583.786,295.331,583.607Z" transform="translate(-220.645 -411.002)" fill="#3f3d56"/>
  <path id="Path_1148" data-name="Path 1148" d="M295.331,438.607a107.952,107.952,0,0,1,27.877-4.97,87.262,87.262,0,0,1,14.215.556,88.94,88.94,0,0,1,13.8,2.954c4.459,1.291,8.857,2.782,13.3,4.123a124.05,124.05,0,0,0,13.746,3.354,116.5,116.5,0,0,0,13.967,1.665,85.058,85.058,0,0,0,13.95-.172,42.684,42.684,0,0,0,12.551-3.182,38.337,38.337,0,0,0,10.207-6.547q1.136-1.014,2.185-2.117c.413-.432-.242-1.088-.656-.656a38.342,38.342,0,0,1-22.117,11.295,73.692,73.692,0,0,1-13.906.558,114.419,114.419,0,0,1-14.135-1.428,118.158,118.158,0,0,1-13.69-3.116c-4.418-1.28-8.776-2.756-13.178-4.086a99.121,99.121,0,0,0-13.568-3.232,85.287,85.287,0,0,0-13.92-.966,106.43,106.43,0,0,0-27.511,4.074q-1.687.474-3.358,1C294.517,437.891,294.759,438.786,295.331,438.607Z" transform="translate(-220.645 -310.838)" fill="#3f3d56"/>
  <path id="Path_1149" data-name="Path 1149" d="M291.443,317.861a11.126,11.126,0,0,1,7.145-.244c2.512.622,4.877,1.7,7.349,2.45a25.438,25.438,0,0,0,13.6.258,25.066,25.066,0,0,0,7.122-3.052c.5-.317.039-1.12-.468-.8A24.578,24.578,0,0,1,313.1,320.2a24.008,24.008,0,0,1-6.85-1.009c-2.454-.736-4.8-1.8-7.287-2.438a12.208,12.208,0,0,0-7.991.3C290.431,317.3,290.9,318.1,291.443,317.861Z" transform="translate(-217.862 -230.431)" fill="#3f3d56"/>
  <ellipse id="Ellipse_4" data-name="Ellipse 4" cx="14.224" cy="14.224" rx="14.224" ry="14.224" transform="translate(128.282 201.222)" fill="#3f3d56"/>
  <ellipse id="Ellipse_5" data-name="Ellipse 5" cx="7.73" cy="7.73" rx="7.73" ry="7.73" transform="translate(58.091 24.971)" fill="#f2f2f2"/>
  <ellipse id="Ellipse_6" data-name="Ellipse 6" cx="5.257" cy="5.257" rx="5.257" ry="5.257" transform="translate(128.282 49.399)" fill="#f2f2f2"/>
  <ellipse id="Ellipse_7" data-name="Ellipse 7" cx="5.257" cy="5.257" rx="5.257" ry="5.257" transform="translate(42.939 99.8)" fill="#f2f2f2"/>
  <rect id="Rectangle_14" data-name="Rectangle 14" width="0.58" height="103.662" transform="translate(26.452 66.006)" fill="#3f3d56"/>
  <ellipse id="Ellipse_8" data-name="Ellipse 8" cx="11.304" cy="25.796" rx="11.304" ry="25.796" transform="translate(15.55 109.192)" fill="#3f3d56"/>
  <ellipse id="Ellipse_9" data-name="Ellipse 9" cx="11.304" cy="25.796" rx="11.304" ry="25.796" transform="translate(15.55 50.354)" fill="#3f3d56"/>
  <path id="Path_1150" data-name="Path 1150" d="M100.749,157.751l-.555-.166c.035-.117,3.443-11.8-2.153-19.314-3.16-4.246-8.584-6.4-16.119-6.4v-.58c7.73,0,13.31,2.232,16.586,6.635C104.277,145.681,100.785,157.632,100.749,157.751Z" transform="translate(-73.618 -102.676)" fill="#3f3d56"/>
  <ellipse id="Ellipse_10" data-name="Ellipse 10" cx="7.246" cy="7.246" rx="7.246" ry="7.246" transform="translate(1.058 21.66)" fill="#3f3d56"/>
  <path id="Path_1151" data-name="Path 1151" d="M813.7,655.416l-5.421,49.876h37.407l1.626-3.795,2.168,3.795h35.238s-2.71-51.5-7.59-53.128S813.7,655.416,813.7,655.416Z" transform="translate(-575.373 -462.258)" fill="#2f2e41"/>
  <ellipse id="Ellipse_11" data-name="Ellipse 11" cx="18.974" cy="18.974" rx="18.974" ry="18.974" transform="translate(251.333 45.699)" fill="#ffb8b8"/>
  <path id="Path_1152" data-name="Path 1152" d="M894.029,276.786s1.626,17.348,0,18.432,26.022.542,26.022.542-3.795-15.722,0-23.311Z" transform="translate(-634.564 -200.185)" fill="#ffb8b8"/>
  <path id="Path_1153" data-name="Path 1153" d="M841.869,328.973s13.949,2.173,15.107-2.166l7.12,9.756.542,97.583s-58.008,7.048-60.176-4.337S826.69,328.431,826.69,328.431l6.142-.4S840.785,328.973,841.869,328.973Z" transform="translate(-572.646 -237.735)" fill="#d0cde1"/>
  <path id="Path_1154" data-name="Path 1154" d="M784.679,316.375l-9.3,3.223L748.813,326.1l1.084,65.055s-22.769,65.055-12.469,69.934,24.938-6.505,29.275-14.637,19.516-120.894,19.516-123.063S784.679,316.375,784.679,316.375Z" transform="translate(-524.586 -230.529)" fill="#3f3d56"/>
  <path id="Path_1155" data-name="Path 1155" d="M970.082,316.375l3.674,3.223,26.022,11.927-13.011,65.6s17.348,59.634,10.842,62.887-16.264,12.469-18.432,7.048S964.239,322.368,970.082,316.375Z" transform="translate(-686.1 -230.529)" fill="#3f3d56"/>
  <path id="Path_1156" data-name="Path 1156" d="M966.442,585.816s-24.4-10.3-24.938-1.084,27.648,15.722,27.648,13.011S966.442,585.816,966.442,585.816Z" transform="translate(-667.402 -413.259)" fill="#ffb8b8"/>
  <path id="Path_1157" data-name="Path 1157" d="M812.357,584.528s28.191,21.143,17.348,26.564-24.938-18.974-24.938-18.974Z" transform="translate(-572.951 -415.766)" fill="#ffb8b8"/>
  <path id="Path_1158" data-name="Path 1158" d="M887.869,156.405a1.047,1.047,0,0,1,1.007-.6c-8.687-.52-17.837.493-25.1,5.28-2.035,1.341-3.936,2.98-6.253,3.736L859.4,166.3l-2.247.685,3.307,2.138a2.867,2.867,0,0,1-2.73.915,4.968,4.968,0,0,1,3.033,3.1,14.7,14.7,0,0,1,.725,4.414c.555-2.157,2.909-3.426,5.132-3.555s4.391.6,6.555,1.132a36.262,36.262,0,0,0,14.393.554c-1.625,3.262-.254,7.152,1.125,10.526l2.755,6.735c1.529.154,2.611-1.367,3.763-2.385,1.05-.927-3.131,7.228-2.484,6.929.841-.388,9.716-10.187,10.132-11.014a25.2,25.2,0,0,0,2.862-12.212,17.808,17.808,0,0,0-4.626-11.511c-1.976-2.08-4.71-2.444-6.724-4.173-.793-.68-.8-1.212-1.885-1.609A31.775,31.775,0,0,0,887.869,156.405Z" transform="translate(-609.138 -119.526)" fill="#2f2e41"/>
  <path id="Path_1159" data-name="Path 1159" d="M712.839,349.465l-3.795-1.627-30.359,49.876s-5.421,13.011,4.337,18.974,32.527,23.854,32.527,23.854l13.011-20.059S702,408.015,703.623,403.136s10.3-17.89,10.3-17.89Z" transform="translate(-484.817 -252.264)" fill="#3f3d56"/>
  <path id="Path_1160" data-name="Path 1160" d="M1020.071,361.865l7.048,1.084s29.275,57.465,22.227,68.308-35.78,26.022-35.78,26.022-.542-17.89-5.421-24.4l16.806-6.505-9.216-35.78Z" transform="translate(-713.441 -261.953)" fill="#3f3d56"/>
</svg>
