<svg id="Group_1430" data-name="Group 1430" xmlns="http://www.w3.org/2000/svg" width="398" height="217.169" viewBox="0 0 398 217.169">
  <path id="Path_1592" data-name="Path 1592" d="M418.783,337.769a65.258,65.258,0,0,1-5.679,10.923,46.991,46.991,0,0,1-3.44,4.731.245.245,0,0,1-.038.042H25l.052-.042c.346-.27,2.378-1.914,5.537-4.731,2.267-2.018,5.112-4.641,8.306-7.8,26.126-25.7,76.313-86.522,34.515-142.243-38.855-51.8,2.98-61.2,30.577-62.3a78.842,78.842,0,0,1,31.1,5.084A276.312,276.312,0,0,0,201.5,157.118c1,.111,2,.221,3.018.322a290.747,290.747,0,0,0,48.376.879h0c.474-.028.952-.062,1.433-.1a287.468,287.468,0,0,0,47.317-7.32c1.007-.246,2-.478,2.99-.71,51.785-11.982,99.525,28.853,87.588,75-4.413,17.069-3.291,35.263,11.421,49.982C427.73,299.2,424.812,322.863,418.783,337.769Z" transform="translate(-25 -136.295)" fill="#6c63ff" opacity="0.1"/>
  <path id="Path_1593" data-name="Path 1593" d="M418.881,707.428a65.262,65.262,0,0,1-5.679,10.922,46.965,46.965,0,0,1-3.44,4.731H25.15c.346-.27,2.378-1.914,5.537-4.731,2.267-2.018,5.112-4.641,8.306-7.8l40.537-8.375a7.864,7.864,0,0,1,1.592-.163l43.216-.062h.045l21.406-.028h.048L163.9,701.9h23.939l49.636-.069h21.357l8.524-.1h2.817l24.794-.035H306.7l28.639-.038h8.528l27.126-.038,22.9-.028a8.122,8.122,0,0,1,1.893.225Z" transform="translate(-25.098 -505.954)" fill="#454b69"/>
  <path id="Path_1594" data-name="Path 1594" d="M30.687,750H413.2a47.007,47.007,0,0,1-3.44,4.731H25.15C25.489,754.444,27.521,752.8,30.687,750Z" transform="translate(-25.098 -537.604)" fill="none"/>
  <path id="Path_1595" data-name="Path 1595" d="M30.687,750H413.2a47.007,47.007,0,0,1-3.44,4.731H25.15C25.489,754.444,27.521,752.8,30.687,750Z" transform="translate(-25.098 -537.604)" opacity="0.4"/>
  <path id="Path_1596" data-name="Path 1596" d="M571.223,251.105l-.768.149-34.733,6.673c-10.088,1.938-20.322,3.887-30.57,3.142-7.424-.54-14.359-2.741-21.492-4.672-4.032-1.094-8.306-1.53-9.673-6.043-1.886-6.23,1.184-15.453,1.907-21.765.692-6.195,1.1-12.546-.132-18.668a33.2,33.2,0,0,0-1.08-4.063c-1.236-3.665-3.177-7.476-2.128-11.2.827-2.952,3.35-5.06,5.71-7.012,4.624-3.807,9.344-8.074,11.179-13.781.9-2.769,1.069-5.749,2.038-8.5,1.838-5.226,6.455-9.133,11.59-11.2s10.784-2.509,16.325-2.509a110.583,110.583,0,0,1,14.623.972c5.294.693,10.631,1.832,15.279,4.455s8.566,6.922,9.649,12.162c1.533,7.41-2.724,15.3-.439,22.5,1.149,3.637,3.807,6.576,5.652,9.905a23.593,23.593,0,0,1,1.73,18.343c-2.208,6.842-7.614,13.764-4.845,20.4,1.762,4.219,6.261,6.472,9.4,9.815Q570.86,250.655,571.223,251.105Z" transform="translate(-317.464 -146.342)" fill="#454b69"/>
  <path id="Path_1597" data-name="Path 1597" d="M572.588,329.579V330.6l-34.733,6.673c-10.088,1.938-20.322,3.887-30.57,3.142-7.424-.54-14.359-2.741-21.492-4.672-4.032-1.094-8.306-1.53-9.673-6.043-1.886-6.23,1.184-15.453,1.907-21.765.692-6.2,11.348-28.812,10.116-34.934l63.68,2.769c.429,3.381,17.259,20.354,16.211,23.6-2.208,6.842-7.614,13.764-4.845,20.4C564.953,323.982,569.452,326.235,572.588,329.579Z" transform="translate(-319.597 -225.688)" opacity="0.1"/>
  <path id="Path_1598" data-name="Path 1598" d="M528.9,348.55c.377,2.142.578,4.5-.516,6.368-1.457,2.506-4.634,3.305-7.475,3.873l-9.864,1.973a3.827,3.827,0,0,0-1.886.748,3.3,3.3,0,0,0-.879,2.156c-.4,3.572.865,7.091,2.018,10.493,2.329,6.891,4.285,13.927,7.23,20.575s6.988,13,12.757,17.439,13.4,6.811,20.468,5.074c6.153-1.512,11.2-5.856,15.55-10.462,3.589-3.807,6.946-7.96,8.687-12.9a45.925,45.925,0,0,0,1.969-10.583l1.751-16.46c.273-2.575.453-5.472-1.218-7.448a8.872,8.872,0,0,0-2.748-1.983c-3.786-2.011-7.773-3.672-11.3-6.095s-6.648-5.759-7.718-9.9c-.641-2.485-.526-5.191-1.616-7.507a10.135,10.135,0,0,0-6.576-5.126,22.428,22.428,0,0,0-8.542-.346c-2.852.322-13.844,1.146-15.024,4.361-.633,1.73,1.993,5.444,2.616,7.147A49.9,49.9,0,0,1,528.9,348.55Z" transform="translate(-340.972 -261.784)" fill="#efb7b9"/>
  <path id="Path_1599" data-name="Path 1599" d="M528.9,348.55c.377,2.142.578,4.5-.516,6.368-1.457,2.506-4.634,3.305-7.475,3.873l-9.864,1.973a3.827,3.827,0,0,0-1.886.748,3.3,3.3,0,0,0-.879,2.156c-.4,3.572.865,7.091,2.018,10.493,2.329,6.891,4.285,13.927,7.23,20.575s6.988,13,12.757,17.439,13.4,6.811,20.468,5.074c6.153-1.512,11.2-5.856,15.55-10.462,3.589-3.807,6.946-7.96,8.687-12.9a45.925,45.925,0,0,0,1.969-10.583l1.751-16.46c.273-2.575.453-5.472-1.218-7.448a8.872,8.872,0,0,0-2.748-1.983c-3.786-2.011-7.773-3.672-11.3-6.095s-6.648-5.759-7.718-9.9c-.641-2.485-.526-5.191-1.616-7.507a10.135,10.135,0,0,0-6.576-5.126,22.428,22.428,0,0,0-8.542-.346c-2.852.322-13.844,1.146-15.024,4.361-.633,1.73,1.993,5.444,2.616,7.147A49.9,49.9,0,0,1,528.9,348.55Z" transform="translate(-340.972 -261.784)" opacity="0.1"/>
  <path id="Path_1600" data-name="Path 1600" d="M544.132,431.548l5.783-12.245c2.71-5.738,5.479-11.767,5.191-18.1-.055-1.26-.069-2.835,1.038-3.406a2.97,2.97,0,0,1,1.519-.194,61.466,61.466,0,0,1,17.827,3.606,7.072,7.072,0,0,1,3.028,1.751,7.226,7.226,0,0,1,1.36,3.219,94.018,94.018,0,0,1,1.983,11.722c1.038,9.767.522,19.62,0,29.418l-1.537,29.912a2.859,2.859,0,0,1-.253,1.232,2.66,2.66,0,0,1-2.011,1.056,43.655,43.655,0,0,1-9.022.291c-21.181-.8-42.472-2.035-63.514.533q.142-4.669-.149-9.344c-.834-13.459-4.323-26.59-7.749-39.631-2-7.614-3.932-15.92-.716-23.094a9.892,9.892,0,0,1,2-3.053A11.386,11.386,0,0,1,504,402.667a32.329,32.329,0,0,1,9.791-1.107l21.821,47.508c1,2.173,1.817,4.461,2.81,6.607.893-3.707-.18-8.05.893-12.068A75.993,75.993,0,0,1,544.132,431.548Z" transform="translate(-332.468 -307.148)" fill="#fff"/>
  <path id="Path_1601" data-name="Path 1601" d="M494.68,462.694c3.9.246,7.7-1.755,10.383-4.582a32.082,32.082,0,0,0,5.956-10.037,98.968,98.968,0,0,0,5.119-15.958c1.038-4.638,1.775-9.438,1.059-14.138-.99-6.489-4.662-12.387-5.288-18.921-.107-1.142-.038-2.478.879-3.167a3.651,3.651,0,0,1,2.021-.526c6.527-.388,13.7-.315,18.755,3.828,1.54,1.26,2.789,2.835,4.295,4.132,3.586,3.115,8.652,4.7,10.954,8.836a30.642,30.642,0,0,1,1.748,4.62c1.322,3.669,3.61,6.894,5.884,10.068-2.2,9.3-4.738,18.613-6.943,27.916a122.052,122.052,0,0,1-4.62,16.162c-1.329,3.426-3,6.922-2.592,10.59a24.185,24.185,0,0,0,1.063,4.215,48.454,48.454,0,0,1,2.039,15.065l-98.753.242c4.731-6.783,6.119-15.1,5.638-23.358a25.522,25.522,0,0,0-3.115-11.359c-3.136-5.364-8.652-8.86-14.089-11.854-3.807-2.077-7.894,9.607-12.009,8.268.664-4.7.969-22.842.692-27.573a12.634,12.634,0,0,1,.249-4.624c.325-1.014.924-1.921,1.329-2.907,1.623-3.949.076-9,2.7-12.359,1.814-2.336,4.994-3,7.579-4.44,2.654-1.481,4.707-3.807,7.019-5.794a31.213,31.213,0,0,1,15.975-7.133,20.123,20.123,0,0,1,3.049,9c.176,2.011.048,4.049.329,6.05a29.786,29.786,0,0,0,2.616,7.759c4.627,10.448,9.272,20.928,15.134,30.74a32.557,32.557,0,0,0,5.863,7.694A13.4,13.4,0,0,0,494.68,462.694Z" transform="translate(-285.296 -305.606)" fill="#6c63ff"/>
  <path id="Path_1602" data-name="Path 1602" d="M494.68,462.694c3.9.246,7.7-1.755,10.383-4.582a32.082,32.082,0,0,0,5.956-10.037,98.968,98.968,0,0,0,5.119-15.958c1.038-4.638,1.775-9.438,1.059-14.138-.99-6.489-4.662-12.387-5.288-18.921-.107-1.142-.038-2.478.879-3.167a3.651,3.651,0,0,1,2.021-.526c6.527-.388,13.7-.315,18.755,3.828,1.54,1.26,2.789,2.835,4.295,4.132,3.586,3.115,8.652,4.7,10.954,8.836a30.642,30.642,0,0,1,1.748,4.62c1.322,3.669,3.61,6.894,5.884,10.068-2.2,9.3-4.738,18.613-6.943,27.916a122.052,122.052,0,0,1-4.62,16.162c-1.329,3.426-3,6.922-2.592,10.59a24.185,24.185,0,0,0,1.063,4.215,48.454,48.454,0,0,1,2.039,15.065l-98.753.242c4.731-6.783,6.119-15.1,5.638-23.358a25.522,25.522,0,0,0-3.115-11.359c-3.136-5.364-8.652-8.86-14.089-11.854-3.807-2.077-7.894,9.607-12.009,8.268.664-4.7.969-22.842.692-27.573a12.634,12.634,0,0,1,.249-4.624c.325-1.014.924-1.921,1.329-2.907,1.623-3.949.076-9,2.7-12.359,1.814-2.336,4.994-3,7.579-4.44,2.654-1.481,4.707-3.807,7.019-5.794a31.213,31.213,0,0,1,15.975-7.133,20.123,20.123,0,0,1,3.049,9c.176,2.011.048,4.049.329,6.05a29.786,29.786,0,0,0,2.616,7.759c4.627,10.448,9.272,20.928,15.134,30.74a32.557,32.557,0,0,0,5.863,7.694A13.4,13.4,0,0,0,494.68,462.694Z" transform="translate(-285.296 -305.606)" fill="#034aa6"/>
  <ellipse id="Ellipse_48" data-name="Ellipse 48" cx="29.667" cy="29.667" rx="29.667" ry="29.667" transform="translate(174.494 26.647)" fill="#efb7b9"/>
  <path id="Path_1603" data-name="Path 1603" d="M525.518,256.164c.813-7.676-2.378-15.186-5.991-22.008-1.73-3.26-3.586-6.51-4.454-10.092s-.62-7.638,1.6-10.583c1.89-2.506,4.887-3.859,7.659-5.33,7.825-4.153,14.979-10.258,18.419-18.422-1.945,1.059-1.44,4.219.277,5.614s4.056,1.665,6.167,2.329c7.7,2.423,12.314,10.1,16.017,17.27a8.253,8.253,0,0,1,1.215,3.724,7.554,7.554,0,0,1-1.239,3.61c-1.827,3.253-4.063,6.378-4.894,10.016-.952,4.153.052,8.521,1.357,12.594,1.384,4.333,3.222,8.7,6.545,11.809s8.476,4.651,12.563,2.644c-4.08-7.015-8.306-14.854-6.714-22.807.768-3.807,2.834-7.268,3.713-11.054,1.675-7.223-1.114-14.653-3.852-21.547l-8.182-20.575c-1.249-3.146-2.672-6.5-5.537-8.285a15,15,0,0,0-6.555-1.73c-7.309-.651-14.882-.436-21.686,2.284-12.4,4.953-20.17,17.163-26.337,29.006-1.848,3.547-3.672,7.316-3.6,11.317a31.4,31.4,0,0,0,1.152,6.468c2.028,8.708,2.139,17.73,2.243,26.67.08,6.859-.277,13.324-3.277,19.571,4.112.817,10.075,3.021,14.145,1.409C521.583,267.966,524.851,261.5,525.518,256.164Z" transform="translate(-336.924 -160.317)" fill="#454b69"/>
  <g id="Group_1426" data-name="Group 1426" transform="translate(165.072 28.865)" opacity="0.1">
    <path id="Path_1604" data-name="Path 1604" d="M505.362,326.655q.021-1.464,0-2.956c-.1-8.939-.215-17.962-2.243-26.67a45.009,45.009,0,0,1-1.059-5.15,13.459,13.459,0,0,0-.093,1.8,31.4,31.4,0,0,0,1.152,6.468C505.137,308.8,505.262,317.767,505.362,326.655Z" transform="translate(-501.966 -266.899)"/>
    <path id="Path_1605" data-name="Path 1605" d="M713.212,312.917a20.941,20.941,0,0,0,.45-6.167,19.218,19.218,0,0,1-.45,3.053c-.879,3.807-2.945,7.237-3.714,11.054a18.346,18.346,0,0,0-.277,5.115,18.186,18.186,0,0,1,.277-2C710.267,320.154,712.333,316.71,713.212,312.917Z" transform="translate(-637.448 -276.623)"/>
    <path id="Path_1606" data-name="Path 1606" d="M589.958,247.595a4.988,4.988,0,0,0,.27-1.526,8.34,8.34,0,0,0-1.215-3.724c-3.7-7.171-8.306-14.84-16.017-17.27-2.111-.664-4.447-.934-6.167-2.329a4.388,4.388,0,0,1-1.516-3.046c-3.752,6.887-10.2,12.155-17.18,15.854-2.769,1.471-5.769,2.824-7.659,5.33a11.8,11.8,0,0,0-1.983,8.379A10.592,10.592,0,0,1,540.475,244c1.889-2.506,4.887-3.859,7.659-5.33,6.984-3.7,13.428-8.967,17.18-15.854a4.388,4.388,0,0,0,1.516,3.046c1.73,1.384,4.056,1.665,6.167,2.329,7.7,2.423,12.314,10.1,16.017,17.27a13.629,13.629,0,0,1,.945,2.135Z" transform="translate(-525.796 -219.7)"/>
    <path id="Path_1607" data-name="Path 1607" d="M677.619,369.262c-3.323-3.115-5.153-7.476-6.544-11.809a34.181,34.181,0,0,1-1.661-7.514,27.366,27.366,0,0,0,1.661,10.628c1.384,4.333,3.222,8.7,6.544,11.809s8.476,4.651,12.563,2.644c-.492-.841-.979-1.7-1.464-2.558C684.922,373.533,680.561,372.01,677.619,369.262Z" transform="translate(-611.418 -304.865)"/>
    <path id="Path_1608" data-name="Path 1608" d="M525.719,402.527c-.668,5.34-3.935,11.8-9.254,13.913-3.693,1.464-8.95-.218-12.961-1.149a29.927,29.927,0,0,1-1.184,2.855c4.112.817,10.075,3.021,14.145,1.409,5.319-2.111,8.587-8.573,9.254-13.913a24.047,24.047,0,0,0,.076-4.021C525.774,401.921,525.743,402.226,525.719,402.527Z" transform="translate(-502.197 -338.66)"/>
  </g>
  <path id="Path_1609" data-name="Path 1609" d="M644.783,648.869c-5.347-.848-10.774-2.485-16.076-1.384a22.348,22.348,0,0,0-8.438,4.015c1.405,1.125,3.046,2.129,3.939,3.693a14.538,14.538,0,0,1,1.239,3.416,29.067,29.067,0,0,1,1.211,6.354,9.674,9.674,0,0,1-1.634,6.15c6.742.664,13.276-1,19.852-2.62a5.436,5.436,0,0,0,2.1-.848,4.51,4.51,0,0,0,1.35-3.6,24.621,24.621,0,0,0-1.339-6.946C646.185,654.379,645.59,651.575,644.783,648.869Z" transform="translate(-414.254 -470.327)" fill="#fff"/>
  <path id="Path_1610" data-name="Path 1610" d="M718.5,483.093c2.655.346,4.714,2.488,6.23,4.689,4.253,6.126,6.088,13.553,8.13,20.727a275.9,275.9,0,0,0,8.953,26.344,39.651,39.651,0,0,0,2.686,5.78,16.163,16.163,0,0,1,2.271,4.427c.914,3.924-2.322,7.614-5.7,9.8a22.544,22.544,0,0,1-5.832,2.81,34.736,34.736,0,0,1-6.2,1.059l-19.211,2.076c-8.842.962-17.765,1.924-26.611,1-.557-1.938.536-3.308.457-5.326a11.9,11.9,0,0,0-1.26-4.115,26.305,26.305,0,0,1-2.052-7.444,10.082,10.082,0,0,0-.495-2.793,2.618,2.618,0,0,0-2.076-1.731c5.191-.516,9.133-1.5,14.325-2.014a12.791,12.791,0,0,0,5.576-1.436c2.039-1.27,3.181-3.561,4.087-5.783,2.246-5.5,3.693-11.566,2.512-17.394-.969-4.779-3.672-9.23-3.658-14.107a21.11,21.11,0,0,1,2.159-8.375c1.239-2.81,2.855-5.683,5.576-7.109S715.43,482.678,718.5,483.093Z" transform="translate(-451.867 -362.926)" fill="#6c63ff"/>
  <path id="Path_1611" data-name="Path 1611" d="M718.5,483.093c2.655.346,4.714,2.488,6.23,4.689,4.253,6.126,6.088,13.553,8.13,20.727a275.9,275.9,0,0,0,8.953,26.344,39.651,39.651,0,0,0,2.686,5.78,16.163,16.163,0,0,1,2.271,4.427c.914,3.924-2.322,7.614-5.7,9.8a22.544,22.544,0,0,1-5.832,2.81,34.736,34.736,0,0,1-6.2,1.059l-19.211,2.076c-8.842.962-17.765,1.924-26.611,1-.557-1.938.536-3.308.457-5.326a11.9,11.9,0,0,0-1.26-4.115,26.305,26.305,0,0,1-2.052-7.444,10.082,10.082,0,0,0-.495-2.793,2.618,2.618,0,0,0-2.076-1.731c5.191-.516,9.133-1.5,14.325-2.014a12.791,12.791,0,0,0,5.576-1.436c2.039-1.27,3.181-3.561,4.087-5.783,2.246-5.5,3.693-11.566,2.512-17.394-.969-4.779-3.672-9.23-3.658-14.107a21.11,21.11,0,0,1,2.159-8.375c1.239-2.81,2.855-5.683,5.576-7.109S715.43,482.678,718.5,483.093Z" transform="translate(-451.867 -362.926)" fill="#034aa6"/>
  <path id="Path_1612" data-name="Path 1612" d="M442.876,369.2c1.256-2.983,2.533-6.063,2.568-9.3.038-3.5-1.384-6.821-2.471-10.144a58.652,58.652,0,0,1-2.668-12.525,1.73,1.73,0,0,1,.173-1.2,2.063,2.063,0,0,1,1.329-.6c2.395-.547,4.2-2.482,5.7-4.43a48.572,48.572,0,0,0,5.835-9.746c1.146-2.551,2.7-5.662,5.492-5.686a158.6,158.6,0,0,1-4.181,15.661c2.924-.748,5.7-1.834,8.628-2.582a5.167,5.167,0,0,1,1.772-.235,2.674,2.674,0,0,1,1.807,3.99c1.429,1.675,3.807,2.125,5.676,3.274s3.212,3.994,1.55,5.437a4.644,4.644,0,0,0-.973.838c-.8,1.239,1.163,2.661,1,4.129-.131,1.2-1.672,1.762-2.838,1.443a12.774,12.774,0,0,1-3.115-1.831c-1.038-.64-2.395-1.038-3.4-.374-.27,3.257-.561,6.576-1.969,9.542-.516,1.083-1.177,2.1-1.592,3.222a15.875,15.875,0,0,0-.734,3.783l-1.256,11.487C453.214,374.554,447.839,372.758,442.876,369.2Z" transform="translate(-296.546 -253.525)" fill="#efb7b9"/>
  <path id="Path_1613" data-name="Path 1613" d="M441.16,473.309l-1.1-7.472a9.124,9.124,0,0,1,1.322-6.8,45.494,45.494,0,0,0,19.45,3.869,3.038,3.038,0,0,0,2.457-.779c1.146,1.319,1.18,3.44.692,5.115s-1.426,3.184-2.049,4.818a6.868,6.868,0,0,1-1.173,2.367,5.064,5.064,0,0,1-3.828,1.173,24.471,24.471,0,0,1-4.319-.412C448.92,474.507,444.85,472.648,441.16,473.309Z" transform="translate(-296.295 -347.342)" fill="#fff"/>
  <path id="Path_1614" data-name="Path 1614" d="M445.807,492.6q-7.112-.81-14.131-2.284a28.578,28.578,0,0,0-6.949-.924c-1.523.062-3.16.367-4.5-.388a21.661,21.661,0,0,1-.177,13.477c-.924,2.6-2.333,5.015-3.011,7.687-1.412,5.589.526,11.684-1.239,17.173a4.347,4.347,0,0,1-1.066,1.91c-.54.495-1.277.751-1.775,1.288a4.394,4.394,0,0,0-.782,3.052l-.031,9.535c-.021,6.07.059,12.508,3.264,17.65a16.759,16.759,0,0,0,18.045,7.143,13.417,13.417,0,0,0,4.9-2.4c2.326-1.848,3.807-4.52,5.257-7.123,1.73-3.115,3.461-6.3,4.018-9.8a27.862,27.862,0,0,0-.111-7.51c-1.564-13.844-4.959-27.57-4.229-41.465A12.567,12.567,0,0,1,445.807,492.6Z" transform="translate(-278.158 -366.933)" fill="#034aa6"/>
  <path id="Path_1615" data-name="Path 1615" d="M487.581,662.479a41.953,41.953,0,0,1-7.223,0c-1.73-.208-3.419-.633-5.136-.924a32.917,32.917,0,0,0-26.507,7.365c-1.329,1.135-2.672,2.876-1.938,4.465.789,1.71,3.2,1.661,5.06,1.343a15.226,15.226,0,0,0-5.191,4.06,3.064,3.064,0,0,0-.91,2.2c.211,1.713,2.537,2.025,4.257,1.876a1.433,1.433,0,0,0,.529,2.076,3.552,3.552,0,0,0,2.405.177,17.828,17.828,0,0,0,5.108-1.768,1.947,1.947,0,0,0,1.038,2.263,4.277,4.277,0,0,0,2.668.246c4.229-.692,7.759-3.634,11.885-4.79,6.6-1.845,13.5,1.1,20.354,1.3a14.2,14.2,0,0,0,6.3-1.038c2.4-1.09,4.333-3.136,6.866-3.862,2.814-.8,6.043.121,8.618-1.267,1.872-1.007.184-8.77-.294-10.265-.876-2.734-1.755-4.548-4.672-4.825C503.418,660.4,495.018,662.05,487.581,662.479Z" transform="translate(-300.115 -479.365)" fill="#efb7b9"/>
  <path id="Path_1616" data-name="Path 1616" d="M619.88,656.831s11.175,9.459,4.728,19.779l12.459-4.3v-9.029c0-.429-4.731-6.877-4.731-6.877l-5.589-.862Z" transform="translate(-413.999 -475.835)" fill="#fff"/>
  <path id="Path_1617" data-name="Path 1617" d="M240.442,521.32h4.191a8.652,8.652,0,0,1,8.652,8.652v12.843h-21.5V529.972A8.652,8.652,0,0,1,240.442,521.32Z" transform="translate(-151.57 -340.909)" fill="#3f3d56"/>
  <path id="Path_1618" data-name="Path 1618" d="M240.442,521.32h4.191a8.652,8.652,0,0,1,8.652,8.652v12.843h-21.5V529.972A8.652,8.652,0,0,1,240.442,521.32Z" transform="translate(-151.57 -340.909)" opacity="0.1"/>
  <ellipse id="Ellipse_49" data-name="Ellipse 49" cx="1.72" cy="1.72" rx="1.72" ry="1.72" transform="translate(88.388 181.698)" fill="#3f3d56"/>
  <ellipse id="Ellipse_50" data-name="Ellipse 50" cx="1.72" cy="1.72" rx="1.72" ry="1.72" transform="translate(88.388 179.549)" fill="#3f3d56"/>
  <ellipse id="Ellipse_51" data-name="Ellipse 51" cx="1.72" cy="1.72" rx="1.72" ry="1.72" transform="translate(88.388 177.4)" fill="#3f3d56"/>
  <ellipse id="Ellipse_52" data-name="Ellipse 52" cx="1.72" cy="1.72" rx="1.72" ry="1.72" transform="translate(88.388 175.251)" fill="#3f3d56"/>
  <ellipse id="Ellipse_53" data-name="Ellipse 53" cx="1.72" cy="1.72" rx="1.72" ry="1.72" transform="translate(88.388 173.101)" fill="#3f3d56"/>
  <ellipse id="Ellipse_54" data-name="Ellipse 54" cx="1.72" cy="1.72" rx="1.72" ry="1.72" transform="translate(88.388 170.952)" fill="#3f3d56"/>
  <ellipse id="Ellipse_55" data-name="Ellipse 55" cx="1.72" cy="1.72" rx="1.72" ry="1.72" transform="translate(88.388 168.8)" fill="#3f3d56"/>
  <ellipse id="Ellipse_56" data-name="Ellipse 56" cx="1.72" cy="1.72" rx="1.72" ry="1.72" transform="translate(90.969 169.661)" fill="#3f3d56"/>
  <ellipse id="Ellipse_57" data-name="Ellipse 57" cx="1.72" cy="1.72" rx="1.72" ry="1.72" transform="translate(92.689 168.8)" fill="#3f3d56"/>
  <ellipse id="Ellipse_58" data-name="Ellipse 58" cx="1.72" cy="1.72" rx="1.72" ry="1.72" transform="translate(94.41 167.941)" fill="#3f3d56"/>
  <ellipse id="Ellipse_59" data-name="Ellipse 59" cx="1.72" cy="1.72" rx="1.72" ry="1.72" transform="translate(88.388 166.65)" fill="#3f3d56"/>
  <ellipse id="Ellipse_60" data-name="Ellipse 60" cx="1.72" cy="1.72" rx="1.72" ry="1.72" transform="translate(88.388 164.501)" fill="#3f3d56"/>
  <ellipse id="Ellipse_61" data-name="Ellipse 61" cx="1.72" cy="1.72" rx="1.72" ry="1.72" transform="translate(88.388 162.352)" fill="#3f3d56"/>
  <ellipse id="Ellipse_62" data-name="Ellipse 62" cx="1.72" cy="1.72" rx="1.72" ry="1.72" transform="translate(88.388 160.203)" fill="#3f3d56"/>
  <path id="Path_1619" data-name="Path 1619" d="M278.7,576.669q-.644.094-1.288.135a9.89,9.89,0,0,0,1.108-1.135,7.27,7.27,0,0,0-1.038-2.018,3.536,3.536,0,0,1-1.384.436c-.426.062-.855.107-1.284.138a21.417,21.417,0,0,0,1.644-1.73,7.3,7.3,0,1,0,2.4,5.4,7.16,7.16,0,0,0-.111-1.256Z" transform="translate(-181.447 -420.295)" fill="#f29f05"/>
  <path id="Path_1620" data-name="Path 1620" d="M309.628,611.228a3.334,3.334,0,0,1-1.447.481c-.426.062-.855.111-1.284.138a12.618,12.618,0,0,0,1.274-1.322,4.306,4.306,0,1,0,1.457.692Z" transform="translate(-206.643 -446.308)" fill="#f29f05"/>
  <ellipse id="Ellipse_63" data-name="Ellipse 63" cx="1.72" cy="1.72" rx="1.72" ry="1.72" transform="translate(85.809 169.661)" fill="#3f3d56"/>
  <ellipse id="Ellipse_64" data-name="Ellipse 64" cx="1.72" cy="1.72" rx="1.72" ry="1.72" transform="translate(84.089 168.8)" fill="#3f3d56"/>
  <ellipse id="Ellipse_65" data-name="Ellipse 65" cx="1.72" cy="1.72" rx="1.72" ry="1.72" transform="translate(82.369 167.941)" fill="#3f3d56"/>
  <path id="Path_1621" data-name="Path 1621" d="M244.83,611.228a3.337,3.337,0,0,0,1.447.481c.426.062.855.111,1.284.138a12.273,12.273,0,0,1-1.274-1.322,4.305,4.305,0,1,1-1.457.692Z" transform="translate(-167.597 -446.308)" fill="#f29f05"/>
  <path id="Path_1622" data-name="Path 1622" d="M240.423,525h4.191a8.652,8.652,0,0,1,8.652,8.652v11.376A1.467,1.467,0,0,1,251.8,546.5H233.227a1.467,1.467,0,0,1-1.467-1.467V533.652A8.652,8.652,0,0,1,240.423,525Z" transform="translate(-151.55 -343.316)" fill="#3f3d56"/>
  <g id="Group_1427" data-name="Group 1427" transform="translate(82.902 150.407)" opacity="0.1">
    <path id="Path_1623" data-name="Path 1623" d="M305.294,589.49a6.54,6.54,0,0,1-.554.526,5.631,5.631,0,0,0,.588-.052C305.321,589.8,305.311,589.646,305.294,589.49Z" transform="translate(-290.827 -583.051)"/>
    <path id="Path_1624" data-name="Path 1624" d="M297.28,580.843c.433-.028.858-.073,1.287-.135a4.157,4.157,0,0,0,1.118-.3,7.588,7.588,0,0,0-.6-.993,2.6,2.6,0,0,1-.692.294,9.963,9.963,0,0,1-1.111,1.139Z" transform="translate(-285.949 -576.459)"/>
    <path id="Path_1625" data-name="Path 1625" d="M265.3,578.961a7.3,7.3,0,0,1,11.248-6.146l.111-.118a7.3,7.3,0,1,0-9.628,10.982A7.268,7.268,0,0,1,265.3,578.961Z" transform="translate(-264.54 -570.885)"/>
  </g>
  <g id="Group_1428" data-name="Group 1428" transform="translate(96.13 164.072)" opacity="0.1">
    <path id="Path_1626" data-name="Path 1626" d="M314.68,614.278c.429-.028.858-.073,1.284-.135a3.342,3.342,0,0,0,1.447-.484,4.3,4.3,0,0,1,1.73,3.046,3.943,3.943,0,0,0,.024-.453,4.285,4.285,0,0,0-1.73-3.461,3.337,3.337,0,0,1-1.447.481l-.346.045a8.781,8.781,0,0,1-.962.962Z" transform="translate(-310.555 -611.952)"/>
    <path id="Path_1627" data-name="Path 1627" d="M307.058,611.228a3.53,3.53,0,0,1,.429.031c.225-.239.446-.495.671-.744a4.291,4.291,0,0,0-5.4,4.153,2.96,2.96,0,0,0,.021.429A4.3,4.3,0,0,1,307.058,611.228Z" transform="translate(-302.76 -610.37)"/>
  </g>
  <g id="Group_1429" data-name="Group 1429" transform="translate(75.478 164.072)" opacity="0.1">
    <path id="Path_1628" data-name="Path 1628" d="M247.575,614.278c-.429-.028-.858-.073-1.284-.135a3.342,3.342,0,0,1-1.447-.484,4.3,4.3,0,0,0-1.73,3.046,3.939,3.939,0,0,1-.024-.453,4.285,4.285,0,0,1,1.73-3.461,3.337,3.337,0,0,0,1.447.481l.346.045A8.186,8.186,0,0,0,247.575,614.278Z" transform="translate(-243.09 -611.952)"/>
    <path id="Path_1629" data-name="Path 1629" d="M253.471,611.228a3.637,3.637,0,0,0-.433.031c-.222-.239-.443-.495-.668-.744a4.291,4.291,0,0,1,5.4,4.153,2.96,2.96,0,0,1-.021.429A4.3,4.3,0,0,0,253.471,611.228Z" transform="translate(-249.158 -610.37)"/>
  </g>
  <path id="Path_1630" data-name="Path 1630" d="M155.249,699.725H121.436A1.436,1.436,0,0,1,120,698.289v-16a1.436,1.436,0,0,1,2.052-1.3c9.715,4.61,20.18,6.191,32.532.073a1.44,1.44,0,0,1,2.077,1.284v15.92A1.436,1.436,0,0,1,155.249,699.725Z" transform="translate(-87.122 -492.385)" fill="#6c63ff"/>
  <path id="Path_1631" data-name="Path 1631" d="M155.249,699.725H121.436A1.436,1.436,0,0,1,120,698.289v-16a1.436,1.436,0,0,1,2.052-1.3c9.715,4.61,20.18,6.191,32.532.073a1.44,1.44,0,0,1,2.077,1.284v15.92A1.436,1.436,0,0,1,155.249,699.725Z" transform="translate(-87.122 -492.385)"/>
  <ellipse id="Ellipse_66" data-name="Ellipse 66" cx="2" cy="2.62" rx="2" ry="2.62" transform="translate(48.985 189.935)" fill="#3f3d56"/>
  <ellipse id="Ellipse_67" data-name="Ellipse 67" cx="2" cy="2.62" rx="2" ry="2.62" transform="translate(48.985 186.734)" fill="#3f3d56"/>
  <ellipse id="Ellipse_68" data-name="Ellipse 68" cx="2" cy="2.62" rx="2" ry="2.62" transform="translate(48.985 183.529)" fill="#3f3d56"/>
  <ellipse id="Ellipse_69" data-name="Ellipse 69" cx="2" cy="2.62" rx="2" ry="2.62" transform="translate(48.985 180.328)" fill="#3f3d56"/>
  <ellipse id="Ellipse_70" data-name="Ellipse 70" cx="2" cy="2.62" rx="2" ry="2.62" transform="translate(48.985 177.123)" fill="#3f3d56"/>
  <ellipse id="Ellipse_71" data-name="Ellipse 71" cx="2" cy="2.62" rx="2" ry="2.62" transform="translate(48.985 173.918)" fill="#3f3d56"/>
  <ellipse id="Ellipse_72" data-name="Ellipse 72" cx="2" cy="2.62" rx="2" ry="2.62" transform="translate(48.985 170.717)" fill="#3f3d56"/>
  <path id="Path_1632" data-name="Path 1632" d="M161.639,544.407a10.193,10.193,0,0,0,.744-1.1l-5.261-.865,5.69.042a9.59,9.59,0,0,0,.183-7.614l-7.631,3.959,7.039-5.191a9.59,9.59,0,1,0-15.841,10.729,9.377,9.377,0,0,0-1.094,1.748l6.825,3.585-7.268-2.457a9.6,9.6,0,0,0,1.547,9,9.59,9.59,0,1,0,15.076,0,9.59,9.59,0,0,0,0-11.857Z" transform="translate(-103.15 -392.992)" fill="#f29f05"/>
  <path id="Path_1633" data-name="Path 1633" d="M144.49,590.663a9.548,9.548,0,0,0,2.052,5.928,9.59,9.59,0,1,0,15.076,0C162.9,594.961,144.49,589.587,144.49,590.663Z" transform="translate(-103.136 -433.319)" opacity="0.1"/>
  <path id="Path_1634" data-name="Path 1634" d="M155.249,700.573H121.436A1.436,1.436,0,0,1,120,699.137V682.286a1.436,1.436,0,0,1,2.052-1.3c9.715,4.61,17.419,9.985,32.532.073a1.408,1.408,0,0,1,2.077,1.284V699.13A1.436,1.436,0,0,1,155.249,700.573Z" transform="translate(-87.122 -492.385)" fill="#034aa6"/>
  <path id="Path_1635" data-name="Path 1635" d="M776.779,554.82l-49.885,6.6-2.5.329L700.01,548.722v-3.049l76.216-8.313Z" transform="translate(-457.744 -351.398)" fill="#9c9ca1"/>
  <path id="Path_1636" data-name="Path 1636" d="M740.85,562.152l54.042-6.372-.554,9.978-42.095,3.087Z" transform="translate(-484.45 -363.443)" fill="#939498"/>
  <path id="Path_1637" data-name="Path 1637" d="M751.887,710.11v3.274l-2.5.346L725,700.689V697.64L748.281,710.1A15.417,15.417,0,0,0,751.887,710.11Z" transform="translate(-482.738 -503.365)" opacity="0.4"/>
  <path id="Path_1638" data-name="Path 1638" d="M809.057,571.874l-11.2,51.931a3.315,3.315,0,0,0,3.676,3.99l70.855-9.379a3.315,3.315,0,0,0,2.713-2.243l15.287-46.1a3.322,3.322,0,0,0-3.309-4.361l-74.935,3.558A3.323,3.323,0,0,0,809.057,571.874Z" transform="translate(-530.331 -417.094)" fill="#3f3d56"/>
  <ellipse id="Ellipse_73" data-name="Ellipse 73" cx="3.011" cy="1.935" rx="3.011" ry="1.935" transform="translate(313.497 176.529) rotate(-84)" fill="#fff"/>
</svg>
