<svg xmlns="http://www.w3.org/2000/svg" xmlns:xlink="http://www.w3.org/1999/xlink" width="373.816" height="278.396" viewBox="0 0 373.816 278.396">
  <defs>
    <linearGradient id="linear-gradient" x1="0.5" y1="1" x2="0.5" gradientUnits="objectBoundingBox">
      <stop offset="0" stop-color="gray" stop-opacity="0.251"/>
      <stop offset="0.54" stop-color="gray" stop-opacity="0.122"/>
      <stop offset="1" stop-color="gray" stop-opacity="0.102"/>
    </linearGradient>
    <linearGradient id="linear-gradient-2" x1="0.5" y1="1" x2="0.5" y2="0" xlink:href="#linear-gradient"/>
    <linearGradient id="linear-gradient-3" x1="0.5" y1="1" x2="0.5" y2="0" xlink:href="#linear-gradient"/>
  </defs>
  <g id="Group_1436" data-name="Group 1436" transform="translate(0)">
    <ellipse id="Ellipse_74" data-name="Ellipse 74" cx="160.947" cy="9.821" rx="160.947" ry="9.821" transform="matrix(0.998, -0.055, 0.055, 0.998, 9.305, 258.783)" fill="#6c63ff" opacity="0.1"/>
    <path id="Path_1639" data-name="Path 1639" d="M67.34,437.14c5.917,24.3,18.437,45.309,38.227,55.487,41.125,21.163,133.874,10.248,203.1-2.282A160.028,160.028,0,0,0,398.8,440.819Z" transform="translate(-63.3 -296.307)" fill="#6c63ff" opacity="0.1"/>
    <path id="Path_1640" data-name="Path 1640" d="M449.184,45.143H411.2a3.157,3.157,0,1,1,0-6.311h6.563a3.157,3.157,0,1,1,0-6.311h-4.688a3.157,3.157,0,1,1,0-6.311H432.9a53.87,53.87,0,0,0-15.482-4.1c-54.029-6.678-73.328-2.262-80.137,2.282A77.419,77.419,0,0,1,309.5,36.1c-33.354,6.614-95.724,14.57-152.25-2.548-28.093-8.508-48.981,5.87-61.5,29.9H455.781a54.51,54.51,0,0,0-4.463-19.077A3.365,3.365,0,0,1,449.184,45.143Z" transform="translate(-82.148 -18.704)" fill="#6c63ff" opacity="0.1"/>
    <path id="Path_1641" data-name="Path 1641" d="M286.994,299.411l-.495-.03-5.17-.293L231.8,296.3l-5.351-.3-78.872-4.429-22.106-1.249-3.5-.2-3.107-.175L56.155,286.43a154.439,154.439,0,0,0,1.474,42.408l52.771,1.855,4.184.151.74.024,25.051.872,1.346.044,2.888.1,25.243.889,3.46.125,12.056.424h.229l1.774.064,6.041.212h0l5.3.185,10.1.353h.212l.9.034.956.034h.209l16.095.565,4.51.162h.188l2.171.074h0l.4.017h.162l1.908.067,5.826.205h0l2.188.077,2.81.1h.1l3.857.138,11.154.394,3.069.1h.337l14.87.522,8.636.3,10.747.38,1.723.061,2.783.1,10.117.353,76.317,2.692a150.3,150.3,0,0,0,23.166-33.967ZM143.5,322.971a3.345,3.345,0,0,1-2.188-.808h0a3.189,3.189,0,0,1-.693-.838,3.066,3.066,0,0,1-.4-1.508,3.009,3.009,0,0,1,.542-1.724h0a3.5,3.5,0,0,1,.363-.434,3.328,3.328,0,0,1,2.376-.983h6.563a3.16,3.16,0,1,1,0-6.314h-4.688q-.153.008-.306,0a3.151,3.151,0,0,1,.306-6.294h37.978a3.157,3.157,0,1,1,0,6.307h4.688a3.16,3.16,0,1,1,0,6.314h-6.563a3.157,3.157,0,1,1,0,6.307Z" transform="translate(-55.335 -196.322)" fill="#6c63ff" opacity="0.1"/>
    <path id="Path_1642" data-name="Path 1642" d="M430.7,152.32l-261.972,6.122-28.793.673-73.295,1.713a134.6,134.6,0,0,0-8.717,36.148h366.4a144.869,144.869,0,0,0,5.287-23.038A104.9,104.9,0,0,0,430.7,152.32ZM131.824,180.212h-6.563a3.228,3.228,0,0,1,3.282,3.154v.192a3.137,3.137,0,0,1-1.457,2.433,3.366,3.366,0,0,1-1.817.532H87.289a3.157,3.157,0,1,1,0-6.311h6.566a3.157,3.157,0,1,1,0-6.311H89.167a3.157,3.157,0,1,1,0-6.311h37.978a3.157,3.157,0,1,1,0,6.311h4.688a3.326,3.326,0,0,1,1.558.384,3.14,3.14,0,0,1,1.723,2.77,3.231,3.231,0,0,1-3.282,3.157Z" transform="translate(-57.05 -107.349)" fill="#6c63ff" opacity="0.1"/>
    <g id="Group_1431" data-name="Group 1431" transform="translate(196.393 122.315)" opacity="0.1">
      <path id="Path_1643" data-name="Path 1643" d="M645.86,481.577s9.609-22.762,27.552-31.207a38.084,38.084,0,0,0,17.575-16.4,61.364,61.364,0,0,0,4.4-10.639" transform="translate(-643.5 -409.46)" fill="none" stroke="#535461" stroke-miterlimit="10" stroke-width="2"/>
      <path id="Path_1644" data-name="Path 1644" d="M803.751,390.605c-1.868,2.262-11.551,5.56-11.551,5.56s1.168-9.811,3.029-12.069a5.594,5.594,0,0,1,7.647-.838,5.093,5.093,0,0,1,.875,7.347Z" transform="translate(-740.587 -382.12)" fill="#6c63ff"/>
      <path id="Path_1645" data-name="Path 1645" d="M791.34,440.434c-2.847.919-12.84-1.37-12.84-1.37s6.526-7.623,9.373-8.546a5.492,5.492,0,0,1,6.889,3.292,5.183,5.183,0,0,1-3.423,6.624Z" transform="translate(-731.498 -414.047)" fill="#6c63ff"/>
      <path id="Path_1646" data-name="Path 1646" d="M742.706,503.09c-2.942-.586-10.366-7.4-10.366-7.4s9.646-3.423,12.581-2.824a5.234,5.234,0,0,1,4.217,6.183A5.438,5.438,0,0,1,742.706,503.09Z" transform="translate(-700.874 -455.543)" fill="#6c63ff"/>
      <path id="Path_1647" data-name="Path 1647" d="M688.8,541.591c-3-.1-11.521-5.621-11.521-5.621s8.9-4.934,11.9-4.833a5.234,5.234,0,1,1-.38,10.454Z" transform="translate(-664.346 -480.982)" fill="#6c63ff"/>
      <path id="Path_1648" data-name="Path 1648" d="M750.781,425.822c.383,2.864,6.889,10.5,6.889,10.5s4.284-8.976,3.9-11.841a5.406,5.406,0,0,0-6.092-4.52A5.271,5.271,0,0,0,750.781,425.822Z" transform="translate(-713.078 -407.199)" fill="#6c63ff"/>
      <path id="Path_1649" data-name="Path 1649" d="M690.127,468.955c1.259,2.622,9.845,8.041,9.845,8.041s1.3-9.8.037-12.419a5.536,5.536,0,0,0-7.216-2.544,5.15,5.15,0,0,0-2.666,6.923Z" transform="translate(-672.548 -434.81)" fill="#6c63ff"/>
      <path id="Path_1650" data-name="Path 1650" d="M639.025,523.071c.777,2.79,8.29,9.525,8.29,9.525s3-9.444,2.218-12.234a5.473,5.473,0,0,0-6.664-3.7,5.21,5.21,0,0,0-3.844,6.411Z" transform="translate(-638.85 -471.259)" fill="#6c63ff"/>
      <path id="Path_1651" data-name="Path 1651" d="M803.751,390.605c-1.868,2.262-11.551,5.56-11.551,5.56s1.168-9.811,3.029-12.069a5.594,5.594,0,0,1,7.647-.838,5.093,5.093,0,0,1,.875,7.347Z" transform="translate(-740.587 -382.12)" opacity="0.25"/>
      <path id="Path_1652" data-name="Path 1652" d="M791.34,440.434c-2.847.919-12.84-1.37-12.84-1.37s6.526-7.623,9.373-8.546a5.492,5.492,0,0,1,6.889,3.292,5.183,5.183,0,0,1-3.423,6.624Z" transform="translate(-731.498 -414.047)" opacity="0.25"/>
      <path id="Path_1653" data-name="Path 1653" d="M742.706,503.09c-2.942-.586-10.366-7.4-10.366-7.4s9.646-3.423,12.581-2.824a5.234,5.234,0,0,1,4.217,6.183A5.438,5.438,0,0,1,742.706,503.09Z" transform="translate(-700.874 -455.543)" opacity="0.25"/>
      <path id="Path_1654" data-name="Path 1654" d="M688.8,541.591c-3-.1-11.521-5.621-11.521-5.621s8.9-4.934,11.9-4.833a5.234,5.234,0,1,1-.38,10.454Z" transform="translate(-664.346 -480.982)" opacity="0.25"/>
      <path id="Path_1655" data-name="Path 1655" d="M750.781,425.822c.383,2.864,6.889,10.5,6.889,10.5s4.284-8.976,3.9-11.841a5.406,5.406,0,0,0-6.092-4.52A5.271,5.271,0,0,0,750.781,425.822Z" transform="translate(-713.078 -407.199)" opacity="0.25"/>
      <path id="Path_1656" data-name="Path 1656" d="M690.127,468.955c1.259,2.622,9.845,8.041,9.845,8.041s1.3-9.8.037-12.419a5.536,5.536,0,0,0-7.216-2.544,5.15,5.15,0,0,0-2.666,6.923Z" transform="translate(-672.548 -434.81)" opacity="0.25"/>
      <path id="Path_1657" data-name="Path 1657" d="M639.025,523.071c.777,2.79,8.29,9.525,8.29,9.525s3-9.444,2.218-12.234a5.473,5.473,0,0,0-6.664-3.7,5.21,5.21,0,0,0-3.844,6.411Z" transform="translate(-638.85 -471.259)" opacity="0.25"/>
    </g>
    <g id="Group_1432" data-name="Group 1432" transform="translate(195.941 73.606)" opacity="0.1">
      <path id="Path_1658" data-name="Path 1658" d="M667.23,354.554s1.212-24.539,15.226-38.224a36.715,36.715,0,0,0,10.921-21.076,60.39,60.39,0,0,0,.485-11.443" transform="translate(-657.227 -268.19)" fill="none" stroke="#535461" stroke-miterlimit="10" stroke-width="2"/>
      <path id="Path_1659" data-name="Path 1659" d="M751.7,244.333c-.986,2.726-8.983,8.926-8.983,8.926s-2.275-9.6-1.3-12.342a5.479,5.479,0,0,1,6.923-3.224,5.183,5.183,0,0,1,3.359,6.641Z" transform="translate(-706.286 -237.399)" fill="#6c63ff"/>
      <path id="Path_1660" data-name="Path 1660" d="M756.674,292.922c-2.356,1.777-12.584,2.8-12.584,2.8s3.524-9.276,5.893-11.049a5.587,5.587,0,0,1,7.637.909,5.092,5.092,0,0,1-.946,7.337Z" transform="translate(-708.218 -268.029)" fill="#6c63ff"/>
      <path id="Path_1661" data-name="Path 1661" d="M728.369,367.189c-2.978.384-12.338-3.7-12.338-3.7s7.916-6.3,10.891-6.678a5.407,5.407,0,0,1,6.115,4.486A5.291,5.291,0,0,1,728.369,367.189Z" transform="translate(-689.602 -316.589)" fill="#6c63ff"/>
      <path id="Path_1662" data-name="Path 1662" d="M692.116,420.66c-2.867.862-12.806-1.632-12.806-1.632s6.694-7.489,9.562-8.35a5.485,5.485,0,0,1,6.816,3.43,5.2,5.2,0,0,1-3.571,6.553Z" transform="translate(-665.241 -352.198)" fill="#6c63ff"/>
      <path id="Path_1663" data-name="Path 1663" d="M710.33,295.614c1.346,2.578,10.124,7.711,10.124,7.711s.946-9.831-.4-12.413a5.543,5.543,0,0,0-7.3-2.319,5.132,5.132,0,0,0-2.417,7.021Z" transform="translate(-685.44 -270.987)" fill="#6c63ff"/>
      <path id="Path_1664" data-name="Path 1664" d="M667.973,355.657c2.09,2.073,12.059,4.446,12.059,4.446s-2.157-9.653-4.247-11.726a5.6,5.6,0,0,0-7.694-.115,5.086,5.086,0,0,0-.118,7.395Z" transform="translate(-656.701 -309.97)" fill="#6c63ff"/>
      <path id="Path_1665" data-name="Path 1665" d="M638.445,423.028c1.683,2.383,11.107,6.344,11.107,6.344s-.434-9.865-2.117-12.251a5.584,5.584,0,0,0-7.563-1.346,5.106,5.106,0,0,0-1.427,7.253Z" transform="translate(-637.509 -355.128)" fill="#6c63ff"/>
    </g>
    <ellipse id="Ellipse_75" data-name="Ellipse 75" cx="6.075" cy="0.835" rx="6.075" ry="0.835" transform="translate(128.746 230.596)" fill="#6c63ff" opacity="0.1"/>
    <ellipse id="Ellipse_76" data-name="Ellipse 76" cx="6.075" cy="0.835" rx="6.075" ry="0.835" transform="translate(105.475 232.955)" fill="#6c63ff" opacity="0.1"/>
    <ellipse id="Ellipse_77" data-name="Ellipse 77" cx="6.075" cy="0.835" rx="6.075" ry="0.835" transform="translate(78.065 229.761)" fill="#6c63ff" opacity="0.1"/>
    <ellipse id="Ellipse_78" data-name="Ellipse 78" cx="4.318" cy="0.592" rx="4.318" ry="0.592" transform="translate(116.545 239.915)" fill="#6c63ff" opacity="0.1"/>
    <ellipse id="Ellipse_79" data-name="Ellipse 79" cx="4.318" cy="0.592" rx="4.318" ry="0.592" transform="translate(92.393 239.323)" fill="#6c63ff" opacity="0.1"/>
    <path id="Path_1666" data-name="Path 1666" d="M335.373,621.849s8.519-27.935-1.346-39.116c-7.371-8.367-15.738-7.367-19.484-6.331a6.909,6.909,0,0,0-4.47,3.7c-1.309,2.827-1.074,7.4,8.172,12.77,15.482,8.963,16.448,21.261,16.448,21.261Z" transform="translate(-223.954 -388.248)" fill="#f2b704"/>
    <path id="Path_1667" data-name="Path 1667" d="M328.49,589.51S353.6,597.362,347.974,631" transform="translate(-236.555 -397.395)" fill="none" stroke="#565987" stroke-miterlimit="10" stroke-width="1"/>
    <path id="Path_1668" data-name="Path 1668" d="M367,597.87s-3.457,2.332-2.356,5.833" transform="translate(-260.397 -402.94)" fill="none" stroke="#565987" stroke-miterlimit="10" stroke-width="1"/>
    <path id="Path_1669" data-name="Path 1669" d="M336,601.4a4.355,4.355,0,0,1,4.685-.962" transform="translate(-241.537 -404.404)" fill="none" stroke="#565987" stroke-miterlimit="10" stroke-width="1"/>
    <path id="Path_1670" data-name="Path 1670" d="M365.47,634.765s3.7-1.885,4.672.475" transform="translate(-261.088 -426.945)" fill="none" stroke="#565987" stroke-miterlimit="10" stroke-width="1"/>
    <path id="Path_1671" data-name="Path 1671" d="M387.167,647.813s-2.787-.222-2.837,1.111" transform="translate(-273.601 -436.065)" fill="none" stroke="#565987" stroke-miterlimit="10" stroke-width="1"/>
    <path id="Path_1672" data-name="Path 1672" d="M357.73,674.274s-9.976-20.3-12.719-19.858c-1.3.212-1.9,1.491-2.171,2.78a8.175,8.175,0,0,0,.542,4.941C344.806,665.378,348.6,671.557,357.73,674.274Z" transform="translate(-245.967 -440.45)" fill="#f2b704"/>
    <path id="Path_1673" data-name="Path 1673" d="M349.83,665.89s10.491,15.183,12.51,15.856" transform="translate(-250.712 -448.067)" fill="none" stroke="#565987" stroke-miterlimit="10" stroke-width="1"/>
    <line id="Line_47" data-name="Line 47" x2="2.443" transform="translate(98.155 220.192)" fill="none" stroke="#565987" stroke-miterlimit="10" stroke-width="1"/>
    <line id="Line_48" data-name="Line 48" x2="3.834" y2="0.165" transform="translate(101.083 225.749)" fill="none" stroke="#565987" stroke-miterlimit="10" stroke-width="1"/>
    <line id="Line_49" data-name="Line 49" x1="0.417" y2="1.996" transform="translate(102.998 221.303)" fill="none" stroke="#565987" stroke-miterlimit="10" stroke-width="1"/>
    <line id="Line_50" data-name="Line 50" x1="0.074" y2="1.814" transform="translate(107.417 227.378)" fill="none" stroke="#565987" stroke-miterlimit="10" stroke-width="1"/>
    <path id="Path_1674" data-name="Path 1674" d="M386.52,674.274s9.979-20.3,12.722-19.858c1.3.212,1.9,1.491,2.171,2.78a8.177,8.177,0,0,1-.542,4.941C399.471,665.378,395.651,671.557,386.52,674.274Z" transform="translate(-275.054 -440.45)" fill="#f2b704"/>
    <path id="Path_1675" data-name="Path 1675" d="M399.483,665.89S389.019,681.073,387,681.746" transform="translate(-275.372 -448.067)" fill="none" stroke="#565987" stroke-miterlimit="10" stroke-width="1"/>
    <line id="Line_51" data-name="Line 51" x1="2.443" transform="translate(122.63 220.192)" fill="none" stroke="#565987" stroke-miterlimit="10" stroke-width="1"/>
    <line id="Line_52" data-name="Line 52" x1="3.83" y2="0.165" transform="translate(118.316 225.749)" fill="none" stroke="#565987" stroke-miterlimit="10" stroke-width="1"/>
    <line id="Line_53" data-name="Line 53" x2="0.414" y2="1.996" transform="translate(119.817 221.303)" fill="none" stroke="#565987" stroke-miterlimit="10" stroke-width="1"/>
    <line id="Line_54" data-name="Line 54" x2="0.074" y2="1.814" transform="translate(115.741 227.378)" fill="none" stroke="#565987" stroke-miterlimit="10" stroke-width="1"/>
    <path id="Path_1676" data-name="Path 1676" d="M334.45,722.107a1.742,1.742,0,0,1-.569-.858.757.757,0,0,1,.4-.872c.364-.141.754.111,1.05.367a1.4,1.4,0,0,0,1.01.492,1.559,1.559,0,0,1-.481-1.454.614.614,0,0,1,.135-.293c.2-.219.569-.125.811.047a3.017,3.017,0,0,1,.989,2.528,4.659,4.659,0,0,0,0-1.04,1.067,1.067,0,0,1,.394-.922,1.165,1.165,0,0,1,.6-.141,1.236,1.236,0,0,1,.969.276.966.966,0,0,1-.037,1.188,3.768,3.768,0,0,1-1.01.8,2.209,2.209,0,0,0-.717.673.5.5,0,0,0-.054.121h-2.171A6.143,6.143,0,0,1,334.45,722.107Z" transform="translate(-240.115 -483.542)" fill="#034aa6"/>
    <path id="Path_1677" data-name="Path 1677" d="M447.419,697.817a1.745,1.745,0,0,1-.569-.858.758.758,0,0,1,.4-.872c.363-.141.754.111,1.05.367a1.4,1.4,0,0,0,1.01.492,1.551,1.551,0,0,1-.481-1.454.615.615,0,0,1,.135-.293c.2-.219.569-.125.811.047a3.017,3.017,0,0,1,.989,2.527,4.649,4.649,0,0,0,0-1.04,1.07,1.07,0,0,1,.391-.922,1.175,1.175,0,0,1,.6-.141,1.239,1.239,0,0,1,.969.276.963.963,0,0,1-.04,1.188,3.7,3.7,0,0,1-1.01.8,2.162,2.162,0,0,0-.713.673.488.488,0,0,0-.054.121h-2.171A6.059,6.059,0,0,1,447.419,697.817Z" transform="translate(-315.062 -467.427)" fill="#034aa6"/>
    <path id="Path_1678" data-name="Path 1678" d="M409.77,722.107a1.743,1.743,0,0,1-.569-.858.758.758,0,0,1,.4-.872c.363-.141.754.111,1.05.367a1.4,1.4,0,0,0,1.01.492,1.551,1.551,0,0,1-.481-1.454.614.614,0,0,1,.135-.293c.2-.219.569-.125.811.047a3.017,3.017,0,0,1,.99,2.528,4.659,4.659,0,0,0,0-1.04,1.071,1.071,0,0,1,.39-.922,1.174,1.174,0,0,1,.6-.141,1.239,1.239,0,0,1,.969.276.963.963,0,0,1-.04,1.188,3.7,3.7,0,0,1-1.01.8,2.164,2.164,0,0,0-.714.673.5.5,0,0,0-.054.121h-2.171A6.05,6.05,0,0,1,409.77,722.107Z" transform="translate(-290.084 -483.542)" fill="#034aa6"/>
    <path id="Path_1679" data-name="Path 1679" d="M300.556,678.42s-.815,1.064.377,2.669,2.171,2.965,1.774,3.965c0,0-1.794-2.982-3.258-3.029S298.95,680.214,300.556,678.42Z" transform="translate(-216.809 -456.38)" fill="#034aa6"/>
    <path id="Path_1680" data-name="Path 1680" d="M300.556,678.42a1.257,1.257,0,0,0-.165.337c-1.427,1.683-2.184,3.238-.814,3.275,1.276.037,2.807,2.319,3.174,2.9a.359.359,0,0,1-.044.128c-.017.04-1.794-2.982-3.258-3.029S298.95,680.214,300.556,678.42Z" transform="translate(-216.809 -456.38)" opacity="0.1"/>
    <path id="Path_1681" data-name="Path 1681" d="M299.67,681.975c0,.374.04.673.091.673s.094-.3.094-.673-.05-.2-.1-.2S299.67,681.6,299.67,681.975Z" transform="translate(-217.435 -458.579)" fill="#ffd037"/>
    <path id="Path_1682" data-name="Path 1682" d="M297.726,683.274c.337.179.616.286.643.239s-.222-.226-.552-.4-.2-.051-.226,0S297.4,683.092,297.726,683.274Z" transform="translate(-216.012 -459.43)" fill="#ffd037"/>
    <path id="Path_1683" data-name="Path 1683" d="M312.524,678.42s.811,1.064-.377,2.669-2.171,2.965-1.774,3.965c0,0,1.794-2.982,3.255-3.029S314.13,680.214,312.524,678.42Z" transform="translate(-224.476 -456.38)" fill="#034aa6"/>
    <path id="Path_1684" data-name="Path 1684" d="M312.614,678.42a1.392,1.392,0,0,1,.165.337c1.424,1.683,2.184,3.238.815,3.275-1.276.037-2.807,2.319-3.174,2.9a.36.36,0,0,0,.044.128c.017.04,1.794-2.982,3.255-3.029S314.22,680.214,312.614,678.42Z" transform="translate(-224.567 -456.38)" opacity="0.1"/>
    <path id="Path_1685" data-name="Path 1685" d="M321.058,681.975c0,.374-.04.673-.094.673s-.094-.3-.094-.673.054-.2.1-.2S321.058,681.6,321.058,681.975Z" transform="translate(-231.499 -458.579)" fill="#ffd037"/>
    <path id="Path_1686" data-name="Path 1686" d="M321.736,683.274c-.337.179-.616.286-.64.239s.222-.226.552-.4.2-.051.222,0S322.073,683.092,321.736,683.274Z" transform="translate(-231.649 -459.43)" fill="#ffd037"/>
    <path id="Path_1687" data-name="Path 1687" d="M303.97,695.3a8.359,8.359,0,0,1-2.962-.559c-.687-.488-3.5-1.07-3.669-.286s-3.423,3.894-.852,3.914,5.971-.4,6.654-.818S303.97,695.3,303.97,695.3Z" transform="translate(-214.67 -466.762)" fill="#a8a8a8"/>
    <path id="Path_1688" data-name="Path 1688" d="M296.436,700.48c2.571.02,5.971-.4,6.654-.818.522-.316.73-1.457.8-1.982h.074s-.145,1.834-.828,2.251-4.086.838-6.654.818c-.744,0-1.01-.269-.986-.673C295.6,700.339,295.884,700.48,296.436,700.48Z" transform="translate(-214.665 -469.158)" opacity="0.2"/>
    <rect id="Rectangle_524" data-name="Rectangle 524" width="5.947" height="13.291" rx="2.974" transform="matrix(0.3, 0.954, -0.954, 0.3, 67.386, 186.846)" fill="#034aa6"/>
    <path id="Path_1689" data-name="Path 1689" d="M590.778,251.055s-1.043-7.98-6.647-8.148.878,9.9,1.538,10.807c.387.529.078,2-.242,3.134a23.21,23.21,0,0,0-.576,2.48,5.794,5.794,0,0,1-1.266,2.871,14.367,14.367,0,0,0-2.255,3.776,5.314,5.314,0,0,1-2.251-.337c-.6-.407-4.449-1.811-4.615-1.585-.037.047-.141.067-.286.064a4.645,4.645,0,0,1-.673-.084c-.031-.188-.064-.377-.111-.572,0,0-.475-.205-1.01-.495v-.034h0c.125-.316.205-.656.337-.966v-.027h0a1.5,1.5,0,0,1,.427-.606c.515-.414,1.259-.273,1.881-.478a2.2,2.2,0,0,0,.205-.081l.074-.044.114-.064.081-.057.091-.067.081-.071a.8.8,0,0,1,.077-.074l.07-.084.071-.081.064-.091c.02-.03.044-.057.061-.088s.04-.064.057-.1l.054-.1.05-.1.044-.1a1.02,1.02,0,0,0,.044-.108.371.371,0,0,1,.037-.108c.013-.037.02-.074.034-.111s0-.071.027-.111a1.117,1.117,0,0,0,.027-.114l.02-.111a.3.3,0,0,1,.017-.121c.017-.04,0-.071,0-.1v-.131a.933.933,0,0,1,0-.094v-.411a3.382,3.382,0,0,0-.064-.411,3.867,3.867,0,0,1-.249-2,.59.59,0,0,1,.027-.067,1.061,1.061,0,0,1,.1-.192A1.383,1.383,0,0,1,576.8,255c.2-.1.411-.178.613-.262a4.712,4.712,0,0,0,1.945-1.346h0a3.109,3.109,0,0,0,.673-1.521,2.437,2.437,0,0,0,0-.764v-.071h0a7.127,7.127,0,0,1-.3-1.346,1.717,1.717,0,0,1,.078-.528q.04-.121.091-.242l.027-.057c.037-.077.077-.155.118-.229a.248.248,0,0,0,.024-.04l.131-.209.03-.044c.047-.074.1-.148.151-.222.124-.178.256-.353.377-.535h0c.057-.084.111-.172.162-.259h0c.05-.091.1-.178.141-.269v-.044a3.078,3.078,0,0,0,.111-.289l.03-.1c.03-.111.057-.219.077-.337a.593.593,0,0,1,0-.081c0-.1.027-.2.034-.3a.5.5,0,0,1,0-.074v-.357a.805.805,0,0,0,0-.088,1.807,1.807,0,0,0-.024-.357,9.148,9.148,0,0,0-.222-1.255c-.145-.6-.4-1.292-.986-1.454a2.41,2.41,0,0,0-.915.04,4.4,4.4,0,0,1-2.72-.69,21.868,21.868,0,0,1-2.305-1.723,2.025,2.025,0,0,0-1.757-.6,4.717,4.717,0,0,0-.623.316.7.7,0,0,1-.135.04,3.23,3.23,0,0,1-.646.054h-.06c-.185-.592-.384-1.178-.606-1.757a8.919,8.919,0,0,0-2.494-3.918,10.048,10.048,0,0,0-2.3-1.255c-2.467-1.077-5.18-2.171-7.741-1.4a11.536,11.536,0,0,0-3.127,1.683l-4.136,2.824-.31-.094c-.606-.175-1.232-.279-1.6-.4l-.064-.02a3.251,3.251,0,0,1-2.356-2.666,2.853,2.853,0,0,1,.057-.589,9.446,9.446,0,0,1,.38-1.195c.084-.229.155-.461.226-.693l.067-.249c.04-.148.077-.3.114-.444l.071-.336c.027-.121.047-.239.071-.36s.047-.256.064-.384a.419.419,0,0,1,.027-.178c.05-.367.087-.734.107-1.1h0a5.7,5.7,0,0,1,.02-.589v-.68h0a13.821,13.821,0,0,0-2.322-7.3,4.377,4.377,0,0,0-.455,1.794.67.67,0,0,1-.067.337.437.437,0,0,1-.629.027,6.132,6.132,0,0,1-.471-.545,1.158,1.158,0,0,0-1.4-.168,1.272,1.272,0,0,0-.515,1.363,5.294,5.294,0,0,0-5.287.337,1.959,1.959,0,0,0-.912,1.158h0a1.347,1.347,0,0,0,.158.939c.286.559.841,1.064,1.2,1.636a14.092,14.092,0,0,0-2.2,4.752l-.3.37a10.4,10.4,0,0,0-1.9,1.5,2.016,2.016,0,0,0-.633,1.683l-5.136,6.445s-5.5,7.5-6.058,9.192c-.114.337-2.356,2.942,1.04,6.109s4.066,3.507,4.561,4.584c.289.629,2.5,1.777,4.3,2.622l.626.293c-.145,1.865.723,4.039,3.345,6.543a4.5,4.5,0,0,1,.077.9,29.684,29.684,0,0,0,.99,5.856s1.4,2.2-.41,3.648-2.218,2.275-1.1,3.446l.034.034-.165,3.312h-.485s-4.375,3.053-5.284,4.836-2.551,6.543-2.551,6.543-.336,4.581-.825,5.26,0,3.48,0,3.48-.084,4.328.986,5.348.744,3.564.744,3.564a12.024,12.024,0,0,0,.188,1.646c-1.148-.337-3.177-.559-3.527,2.09a28.281,28.281,0,0,0-.246,6.058,33.822,33.822,0,0,1-1.73,5.722c-.74,1.269-2.309,12.534,4.655,10.609a2.992,2.992,0,0,0,1.683-1.73,7.888,7.888,0,0,0,.723-.9c-.027,2.2.579,4.056,2.723,3.6,0,0,1.232-.273,1.787-2.864a26.7,26.7,0,0,0,3.029-3.537l1.989-4.961h0l.151-.38,1.851-1.986a49.962,49.962,0,0,0,9.424,1.979,23.2,23.2,0,0,0,2.827.128,21.768,21.768,0,0,0,4.88-.461c3,.417,8.239.761,12.642-.939,6.59-2.544,2.06-8.148.905-9.336s-4.8-4.712-5.089-4.988v-.02s.673-20.369-.744-20.962-6.1-5.6-6.1-5.6l.495-3.224s2.305.256,2.39-1.784,0-5.092,0-5.092l3.029-5.432s3.669-2.178,5.334-2.915c.088.057.182.118.286.175,1.811,1.037,5.688,2.174,7.041,1.918,1.814-.337,5.439.454,7.741.673s3.366-2.09,3.13-2.356.936-2.864.936-2.864,2.2-10.639,1.7-12.335S590.778,251.055,590.778,251.055ZM531.6,319.318c.192.094.39.185.6.276a32.169,32.169,0,0,0,3.305,1.171l2.06.764s-3.1.074-4.651.151a4.569,4.569,0,0,1-2-.925A3.429,3.429,0,0,1,531.6,319.318Zm31.122-59.438c-.037-.1-.071-.209-.1-.316.283-.071.559-.152.835-.242-.185.212-.41.465-.673.737C562.758,260,562.735,259.94,562.718,259.88Zm-34.666-8.414s1.471-3.625,2.6-6.109q.067.3.151.6c-.047,0-.04-.054.155.454v.027a7.45,7.45,0,0,0,3.1,3.7,6.862,6.862,0,0,0,1.468.673c0-.017,0-.034,0-.05a.467.467,0,0,0,0-.1.346.346,0,0,0,0-.061.4.4,0,0,0,0-.094l-.02-.047a.506.506,0,0,0-.05-.094l-.03-.034a.237.237,0,0,0-.047-.054c.229.145.461.283.693.424.05.027.1.061.148.091.239.138.478.269.72.4l.175.1c.286.152.579.3.872.441l.044.02.363.168.572.259a1.01,1.01,0,0,0,.6.118.955.955,0,0,0,.363-.2l.111-.084a10.646,10.646,0,0,1,2.38-.986,2.19,2.19,0,0,0,1.535-1.918,2.036,2.036,0,0,0-.882-1.427c-.454-.337-.979-.586-1.44-.922a2.81,2.81,0,0,1-1.175-2.777,1.781,1.781,0,0,1,.074-.212l.02-.051q.04-.084.091-.172c0-.017.02-.037.034-.057a2.2,2.2,0,0,1,.384-.427,6.319,6.319,0,0,1,.6-.444l4.059-2.736c.307-.209.613-.414.929-.606h0a9.208,9.208,0,0,1,.838-.458c.084-.037.168-.078.256-.111l.168-.071c.151-.057.3-.111.461-.158.084-.02.2-.04.336-.061a21.986,21.986,0,0,1-1.733,3.9,3.027,3.027,0,0,0-.316.7.878.878,0,0,0-.037.209,2.08,2.08,0,0,0,.189.875,2.608,2.608,0,0,0,.872,1.481c.141.1.273.2.387.293a2.386,2.386,0,0,1-.044.3,13.057,13.057,0,0,0-.088,1.5,12.415,12.415,0,0,0,2.356,7.3l-.135.151a12.331,12.331,0,0,1-2.48,2.2c-.108.067-.216.131-.337.192a3.793,3.793,0,0,1-.394-.858,1.057,1.057,0,0,1-1.346-.592c-.478-.936-1.962,0-1.962,0s-3.366-1.952-3.541-1.1a.845.845,0,0,1-.192.357l-.2-.188s-.774.256-1.861.754a2.086,2.086,0,0,1-1.212-.754c-.337-.437-.249.209-.037,1.373l-.027.017-.394-.145c-2.326-.855-7.859-3.076-8.118-4.948Zm38.005,8.468c-.151-.475-.885-.845-1.434-1.064a12.116,12.116,0,0,0,6.115-6.445c.05-.125.1-.252.145-.38.1-.024.2-.04.289-.071a1.424,1.424,0,0,0,.963-.707,1.582,1.582,0,0,0,.1-.535c.027-.407.044-.815.054-1.222v-.057a30.294,30.294,0,0,0-.744-7.428l.363.3h0c.141.118.283.236.421.357a2.872,2.872,0,0,1,.337.337l.054.054c.108.108.212.219.31.337a.4.4,0,0,1,.034.044,4.06,4.06,0,0,1,.246.337l.084.131a2.979,2.979,0,0,1,.181.337l.034.067a3.366,3.366,0,0,1,.135.363l.03.084c.03.108.054.215.078.337a.8.8,0,0,0,.034.148c.02.114.034.232.047.353v.128c0,.111.017.226.023.337s0,.145,0,.215a15.116,15.116,0,0,1-1.38,6.573,25.67,25.67,0,0,1-3.578,5.671,7.547,7.547,0,0,0-1.181,1.737,3.478,3.478,0,0,0-.131.374c-.579-.077-1.474-.242-1.622-.727Z" transform="translate(-363.37 -151.354)" fill="url(#linear-gradient)"/>
    <path id="Path_1690" data-name="Path 1690" d="M691.364,305.956c.5,1.683-1.74,12.228-1.74,12.228s-1.178,2.595-.952,2.841-.841,2.544-3.2,2.319-6.058-1.01-7.909-.673c-1.383.252-5.341-.875-7.192-1.9-.629-.337-1.01-.69-.976-.959.145-1.064,3.679-5.89,3.679-5.89a9.892,9.892,0,0,0,1.615.289c.148,0,.256-.017.293-.064.168-.225,4.1,1.178,4.712,1.572a5.675,5.675,0,0,0,2.3.32,14.2,14.2,0,0,1,2.3-3.743,5.678,5.678,0,0,0,1.3-2.847,22.122,22.122,0,0,1,.586-2.46c.337-1.124.643-2.581.249-3.107-.673-.9-7.293-10.881-1.572-10.713s6.789,8.078,6.789,8.078S690.859,304.273,691.364,305.956Z" transform="translate(-462.721 -200.789)" fill="#fbbebe"/>
    <path id="Path_1691" data-name="Path 1691" d="M618.492,333.64l-4.712,2.019-5.469,1.683s-12.537-10.181-9.34-10.938a5.475,5.475,0,0,0,1.575-.673,12.428,12.428,0,0,0,2.534-2.184,22.309,22.309,0,0,0,2.2-2.851s12.369-.589,10.434,2.356c-.754,1.148-.5,3.012.094,4.86.034.111.071.222.108.337a31.137,31.137,0,0,0,2.575,5.392Z" transform="translate(-415.654 -219.022)" fill="#fbbebe"/>
    <path id="Path_1692" data-name="Path 1692" d="M552.26,526.339s-2.171-2.019-2.962,1.09a31.97,31.97,0,0,0-.936,5.1,36.709,36.709,0,0,1-1.831,4.671c-.633,1.007-3.066,10.367,1.582,9.424,0,0,1.71-.363,2.043-4.311s3.208-15.724,3.208-15.724Z" transform="translate(-380.413 -355.057)" fill="#3f3d56"/>
    <path id="Path_1693" data-name="Path 1693" d="M589.533,510.358c-4.712,1.764-10.346,1.309-13.325.875-1.286-.185-2.073-.37-2.073-.37l-14.725-1.514-.3.309-1.891,1.969-2.188,5.294s-5.89,8.078-6.563,3.282a19.724,19.724,0,0,1-.124-3.164,87.354,87.354,0,0,1,1.471-11.9l13.379-1.767L571.611,499l.091-4.564.02-1.121.057-2.814,11.443,1.094,2.019,4.544.02.02c.3.276,4.066,3.813,5.2,4.944S596.265,507.833,589.533,510.358Z" transform="translate(-382.404 -331.708)" fill="#fbbebe"/>
    <path id="Path_1694" data-name="Path 1694" d="M558.016,552.765s-6.008.253-6.4-.824l-1.861,4.439s5.469,2.1,6.227,1.3Z" transform="translate(-383.352 -372.469)" fill="#034aa6"/>
    <path id="Path_1695" data-name="Path 1695" d="M528.928,512.754s-3.911-1.935-4.416,1.767a27.283,27.283,0,0,0-.252,6.018,32.845,32.845,0,0,1-1.767,5.678c-.757,1.262-2.356,12.426,4.752,10.518,0,0,2.608-.714,2.188-5.3s1.292-18.6,1.292-18.6Z" transform="translate(-364.795 -346.136)" fill="#3f3d56"/>
    <path id="Path_1696" data-name="Path 1696" d="M554.176,487.75l12.2,10.77s7.068,3.786-1.346,10.265a21.186,21.186,0,0,1-9.592,1.01,51.492,51.492,0,0,1-10.6-2.272s-4.375-.673-5.89,1.683-4.88,7.489-4.88,7.489-4.123,8.162-6.816-1.935l3.45-9.845a31.717,31.717,0,0,0,0-4.039c-.169-.757,2.272-4.123,3.534-3.029s2.945,2.608,4.375,2.524,5.048-.168,5.048-.168l-2.1-.757s-6.058-1.683-5.638-2.945,3.366-7.4,3.366-7.4Z" transform="translate(-368.418 -329.884)" opacity="0.1"/>
    <path id="Path_1697" data-name="Path 1697" d="M563.03,508.785a13.341,13.341,0,0,1-2.134.623,23.618,23.618,0,0,1-7.458.387,52.525,52.525,0,0,1-9.636-1.962c-.619-.189-.966-.31-.966-.31s-4.375-.673-5.89,1.683c-1.01,1.552-2.8,4.3-3.911,6.008l-.969,1.481s-4.123,8.162-6.816-1.935l3.45-9.845a31.694,31.694,0,0,0,0-4.039c-.114-.515.973-2.228,2.077-2.932.522-.337,1.05-.451,1.457-.1a16.563,16.563,0,0,0,2.693,2.05,3.224,3.224,0,0,0,1.683.474c1.43-.084,5.049-.168,5.049-.168l-2.1-.757a33.007,33.007,0,0,1-3.366-1.161c-1.309-.552-2.454-1.212-2.262-1.784.421-1.262,3.366-7.4,3.366-7.4l14.893-1.346,4.234,3.739,1.814,1.6,6.153,5.432S571.444,502.307,563.03,508.785Z" transform="translate(-367.091 -329.884)" fill="#fbbebe"/>
    <path id="Path_1698" data-name="Path 1698" d="M584.77,527.46s-3.2-4.291-10.77-3.113" transform="translate(-399.434 -354.027)" fill="none" stroke="#000" stroke-miterlimit="10" stroke-width="1" opacity="0.1"/>
    <path id="Path_1699" data-name="Path 1699" d="M529.69,536.63l-2.44,5.594s2.692,6.186,7.909,5.26l3.208-5.813S531.124,540.918,529.69,536.63Z" transform="translate(-368.418 -362.312)" opacity="0.1"/>
    <path id="Path_1700" data-name="Path 1700" d="M528.69,537.63l-2.44,5.594s2.693,6.186,7.909,5.261l3.207-5.813S530.124,541.918,528.69,537.63Z" transform="translate(-367.755 -362.975)" fill="#034aa6"/>
    <path id="Path_1701" data-name="Path 1701" d="M671.332,361.282a6.006,6.006,0,0,0-1.01.4c-.629-.337-1.01-.69-.976-.959.145-1.064,3.679-5.89,3.679-5.89a9.88,9.88,0,0,0,1.615.289A5.641,5.641,0,0,1,671.332,361.282Z" transform="translate(-462.688 -241.7)" opacity="0.1"/>
    <path id="Path_1702" data-name="Path 1702" d="M618.492,344.659l-4.712,2.02-5.469,1.683s-12.537-10.181-9.34-10.938a5.477,5.477,0,0,0,1.575-.673c1.885,2.477,6.334,5.049,6.334,5.049,3.722,1.346,7.1-1.111,8.929-2.881a30.438,30.438,0,0,0,2.683,5.742Z" transform="translate(-415.654 -229.706)" opacity="0.1"/>
    <path id="Path_1703" data-name="Path 1703" d="M598.8,343.562a55.4,55.4,0,0,0-6.058,3.113l-3.113,5.385s.084,3.029,0,5.049-2.44,1.767-2.44,1.767l-.114.047c-.6.252-3.43,1.441-3.43,1.467s-5.8-.589-5.8-.589l-11.359-1.851s-3.618-.168-4.8-1.346l-.034-.034c-1.138-1.161-.707-2,1.127-3.416s.421-3.618.421-3.618a28.642,28.642,0,0,1-1.01-5.806c0-2.188-1.094-2.1-1.094-2.1s-.757,0,2.609-2.188-.421-12.369.757-10.938,3.366.673,3.534-.168,3.618,1.094,3.618,1.094,1.515-.925,2.019,0a1.1,1.1,0,0,0,1.346.589c.841,2.777,7.068,6.395,7.068,6.395,5.553,2.019,10.349-4.459,10.349-4.459s1.851.5,2.1,1.269,2.356.727,2.356.727,2.524.276,2.608,1.033S602,336.746,602,336.746A5.714,5.714,0,0,1,598.8,343.562Z" transform="translate(-390.831 -223.98)" fill="#fff"/>
    <path id="Path_1704" data-name="Path 1704" d="M588.429,412.358l-.115.72c-.6.253-3.43,1.44-3.43,1.467s-5.8-.589-5.8-.589l-11.359-1.851s-3.618-.168-4.8-1.346l-.033-.034.033-.639,1.851-.337s18.175,1.01,20.7,2.188Z" transform="translate(-392.07 -278.136)" opacity="0.1"/>
    <path id="Path_1705" data-name="Path 1705" d="M586.992,494.333c0,.417-.02.653-.02.653s-3.534-5.469-8.162-2.777a5.934,5.934,0,0,1-3.544.879,5.611,5.611,0,0,1-1.834-.478,7.243,7.243,0,0,1-2.531-1.915s-8.078,1.683-10.854,3.955-5.049-.673-5.049-.673-.791,3.457-1.777,4.308c-1.309-.552-2.454-1.212-2.262-1.784.421-1.262,3.366-7.4,3.366-7.4l14.893-1.346,4.234,3.739.057-2.814,11.444,1.094,2.019,4.544Z" transform="translate(-384.133 -329.884)" opacity="0.1"/>
    <path id="Path_1706" data-name="Path 1706" d="M545.664,411.75s18.175,1.01,20.7,2.188l2.945.421-.5,3.2s4.8,4.964,6.227,5.553.757,20.783.757,20.783-3.534-5.469-8.162-2.777-7.909-1.514-7.909-1.514-8.078,1.683-10.854,3.955-5.048-.673-5.048-.673-.925,4.039-2.019,4.46-1.346,3.113-1.346,3.113-3.029-.589-3.029-1.514a2.308,2.308,0,0,0-.673-1.935c-.589-.673-.673-2.861-.673-2.861s.337-2.524-.757-3.534-1.01-5.3-1.01-5.3-.508-2.777,0-3.45.841-5.217.841-5.217,1.683-4.712,2.608-6.479,5.385-4.8,5.385-4.8h.495l.168-3.282Z" transform="translate(-372.949 -279.463)" fill="#034aa6"/>
    <ellipse id="Ellipse_80" data-name="Ellipse 80" cx="0.532" cy="0.532" rx="0.532" ry="0.532" transform="translate(192.32 138.319)" fill="#3f3d56"/>
    <ellipse id="Ellipse_81" data-name="Ellipse 81" cx="0.532" cy="0.532" rx="0.532" ry="0.532" transform="translate(189.486 150.381)" fill="#3f3d56"/>
    <ellipse id="Ellipse_82" data-name="Ellipse 82" cx="0.532" cy="0.532" rx="0.532" ry="0.532" transform="translate(193.219 146.285)" fill="#3f3d56"/>
    <path id="Path_1707" data-name="Path 1707" d="M558.239,424h.673s-4.039,9.256-4.261,6.674S558.239,424,558.239,424Z" transform="translate(-386.591 -287.59)" opacity="0.1"/>
    <path id="Path_1708" data-name="Path 1708" d="M573.809,426s-4.6,7.068-2.356,8.078,4.261-7.741,4.261-7.741Z" transform="translate(-397.335 -288.917)" opacity="0.1"/>
    <path id="Path_1709" data-name="Path 1709" d="M597.83,438.12s1.74,10.73,3.7,12.806a2.166,2.166,0,0,1-.337,3.534s6.9.616,9.087,1.064,5.553-.5,4.207-1.4-.222-10.434-.111-10.885S610.061,451.512,597.83,438.12Z" transform="translate(-415.243 -296.958)" opacity="0.1"/>
    <path id="Path_1710" data-name="Path 1710" d="M575.67,384.263c.39-.168,6.674-8.993,8.189-8.283S575.67,384.263,575.67,384.263Z" transform="translate(-400.542 -255.705)" opacity="0.1"/>
    <path id="Path_1711" data-name="Path 1711" d="M574.2,377.5s-2.524,3.871-1.794,4.544S574.2,377.5,574.2,377.5Z" transform="translate(-398.29 -256.74)" opacity="0.1"/>
    <path id="Path_1712" data-name="Path 1712" d="M588.07,334s2.558,5.106,1.828,6.058S588.07,334,588.07,334Z" transform="translate(-408.768 -227.881)" opacity="0.1"/>
    <path id="Path_1713" data-name="Path 1713" d="M670.718,354.83s-.5,2.975-1.178,3.086S670.718,354.83,670.718,354.83Z" transform="translate(-462.72 -241.7)" opacity="0.1"/>
    <path id="Path_1714" data-name="Path 1714" d="M637.33,357.67s7.125,1.743,7.687,2.134S638.844,360.194,637.33,357.67Z" transform="translate(-441.449 -243.585)" opacity="0.1"/>
    <path id="Path_1715" data-name="Path 1715" d="M710.736,365.921s-.9-3.48-2.073-3.423S710.736,365.921,710.736,365.921Z" transform="translate(-488.603 -246.787)" opacity="0.1"/>
    <path id="Path_1716" data-name="Path 1716" d="M678.985,290.248c-.437.905-1.39,1.629-1.376,2.635a7.108,7.108,0,0,0,.336,1.39,2.806,2.806,0,0,1-.673,2.262,4.823,4.823,0,0,1-2,1.346,2.482,2.482,0,0,0-1.2.717c-.441.636-.057,1.484.125,2.238a2.6,2.6,0,0,1-1.377,3.11c-.636.2-1.4.064-1.922.471s-.579,1.222-.906,1.828a2.094,2.094,0,0,1-2.74.821,2.115,2.115,0,0,1,.118-.915,1.724,1.724,0,0,1-1.922-.784,2.3,2.3,0,0,1,.017-2.019,7.57,7.57,0,0,1,1.205-1.723A25.386,25.386,0,0,0,670.332,296a14.628,14.628,0,0,0,1.41-6.516,4.985,4.985,0,0,0-.38-1.945,4.826,4.826,0,0,0-1.326-1.609c-.279-.242-.575-.471-.865-.7-.2-.162-.4-.337-.6-.491-.263-.232-1.306-1.084-1.222-1.494.047-.236.754-.2,1.37-.209a3.348,3.348,0,0,0,.673-.054.677.677,0,0,0,.138-.04,5.306,5.306,0,0,1,.636-.313,2.111,2.111,0,0,1,1.794.6,22.3,22.3,0,0,0,2.356,1.706,4.6,4.6,0,0,0,2.777.673,2.513,2.513,0,0,1,.936-.04c.6.158.858.841,1.01,1.441A4.974,4.974,0,0,1,678.985,290.248Z" transform="translate(-459.958 -193.765)" fill="#3f3d56"/>
    <path id="Path_1717" data-name="Path 1717" d="M571.182,241.308a3.5,3.5,0,0,0-.384.067,6.209,6.209,0,0,0-1.036.394,15.144,15.144,0,0,0-1.683,1.01l-4.147,2.713a3.416,3.416,0,0,0-1.01.868c-.7,1.033-.044,2.511.976,3.238.471.337,1.01.572,1.471.915a2.019,2.019,0,0,1,.9,1.414c.051.878-.757,1.568-1.568,1.9a11.137,11.137,0,0,0-2.43.979,1.4,1.4,0,0,1-.485.276,1.062,1.062,0,0,1-.612-.118,25.42,25.42,0,0,1-3.662-1.888.5.5,0,0,1,.151.528,7.31,7.31,0,0,1-4.177-10.652,21.234,21.234,0,0,0,1.346-2.2,2.7,2.7,0,0,0,0-2.474c-.337-.5-.925-.838-1.1-1.414a1.953,1.953,0,0,1,.629-1.733c.973-1.01,2.316-1.616,3.389-2.538s1.885-2.45,1.276-3.726c-.485-1.01-1.787-1.76-1.568-2.861a1.948,1.948,0,0,1,.932-1.161,5.543,5.543,0,0,1,5.385-.337,1.242,1.242,0,0,1,.528-1.346,1.208,1.208,0,0,1,1.434.165,6.155,6.155,0,0,0,.478.542.461.461,0,0,0,.643-.027.633.633,0,0,0,.071-.337,4.228,4.228,0,0,1,.464-1.78,13.533,13.533,0,0,1,1.592,12.221,4.824,4.824,0,0,0-.448,1.767c.037,1.269,1.225,2.211,2.417,2.642l.064.02c.373.121,1.009.226,1.629.4.815.226,1.6.569,1.683,1.212C574.514,241.036,572.245,241.164,571.182,241.308Z" transform="translate(-385.172 -153.398)" fill="#3f3d56"/>
    <path id="Path_1718" data-name="Path 1718" d="M532.071,256.036c-.616.673-3.813,8.246-3.813,8.246.266,1.854,5.917,4.059,8.31,4.911.646.232,1.057.363,1.057.363l2.3,2.019s-2.356,13.015-2.544,9.818-4.355-4.826-4.355-4.826-1.091-.444-2.4-1.047c-1.831-.838-4.093-1.976-4.375-2.6-.5-1.067-1.178-1.4-4.658-4.544s-1.178-5.722-1.064-6.058c.559-1.683,6.169-9.111,6.169-9.111l8.121-9.905s2.242-9.2,7.876-5.611-6.418,12.174-6.418,12.174S532.687,255.363,532.071,256.036Z" transform="translate(-363.395 -163.437)" fill="#fbbebe"/>
    <path id="Path_1719" data-name="Path 1719" d="M561.506,335.3s-2.356,13.015-2.545,9.818-4.355-4.826-4.355-4.826-1.091-.444-2.4-1.047c.421-2.982,3.524-5.106,5.941-6.327.646.232,1.057.363,1.057.363Z" transform="translate(-384.977 -227.165)" opacity="0.1"/>
    <path id="Path_1720" data-name="Path 1720" d="M565.449,331.5l-2.467-2.248s-15.96,5.049-5.19,14.614h4.54l4.16-5.526Z" transform="translate(-386.204 -224.73)" fill="#fff"/>
    <path id="Path_1721" data-name="Path 1721" d="M624.909,327.885c.034.111.071.222.108.337a12.133,12.133,0,0,1-12.837-4.7,22.293,22.293,0,0,0,2.2-2.851s12.369-.589,10.434,2.356C624.071,324.172,624.327,326.037,624.909,327.885Z" transform="translate(-424.764 -219.009)" opacity="0.1"/>
    <path id="Path_1722" data-name="Path 1722" d="M629.723,283.386a12.07,12.07,0,1,1-3.535-8.582A12.116,12.116,0,0,1,629.723,283.386Z" transform="translate(-420.325 -186.264)" fill="#fbbebe"/>
    <path id="Path_1723" data-name="Path 1723" d="M629.942,283.34a12.066,12.066,0,0,1-.942,4.688,5.456,5.456,0,0,1-2.063.034,1.222,1.222,0,0,1-.73-.337,1.35,1.35,0,0,1-.246-.673q-.192-1.121-.377-2.235a4.029,4.029,0,0,1-3.366-.461c-1.01-.572-1.9-1.37-2.881-2.019a4.661,4.661,0,0,0-3.312-.9,5.6,5.6,0,0,0-1.77.744,12.38,12.38,0,0,0-3.029,2.265,5.635,5.635,0,0,1-2,1.787,2.113,2.113,0,0,1-2.635-1.346,11.845,11.845,0,0,1-.131-1.932,1.5,1.5,0,0,0-.643-1.117,12.116,12.116,0,0,1,24.142,1.491Z" transform="translate(-420.544 -186.217)" opacity="0.1"/>
    <path id="Path_1724" data-name="Path 1724" d="M603.557,274.3a11.861,11.861,0,0,0,.131,1.932,2.114,2.114,0,0,0,2.635,1.346,5.7,5.7,0,0,0,2-1.787,12.371,12.371,0,0,1,3.029-2.265,5.6,5.6,0,0,1,1.77-.744,4.731,4.731,0,0,1,3.312.9c.986.636,1.858,1.437,2.881,2.02a4,4,0,0,0,3.366.461l.377,2.235a1.344,1.344,0,0,0,.246.673,1.221,1.221,0,0,0,.73.337,5.449,5.449,0,0,0,2.508-.145,1.44,1.44,0,0,0,.983-.7,1.577,1.577,0,0,0,.1-.532,29.184,29.184,0,0,0-1.945-12.615,8.825,8.825,0,0,0-2.548-3.884,10.285,10.285,0,0,0-2.356-1.245c-2.518-1.067-5.291-2.154-7.92-1.39a11.917,11.917,0,0,0-3.194,1.683l-4.712,3.127a2.937,2.937,0,0,0-.673.555,3.217,3.217,0,0,0-.508,1.111,21.55,21.55,0,0,1-1.932,4.335,2.15,2.15,0,0,0-.363.9,2.05,2.05,0,0,0,.2.865c.242.629.337,1.1.889,1.467A1.735,1.735,0,0,1,603.557,274.3Z" transform="translate(-417.658 -177.884)" fill="#3f3d56"/>
    <g id="Group_1433" data-name="Group 1433" transform="translate(167.644 72.354)" opacity="0.1">
      <path id="Path_1725" data-name="Path 1725" d="M565.322,304.737a11.29,11.29,0,0,0-2.43.979,1.4,1.4,0,0,1-.485.276,1.065,1.065,0,0,1-.613-.118,25.171,25.171,0,0,1-3.7-1.922.488.488,0,0,1,.2.562,7.425,7.425,0,0,1-4.672-4.318c-.269-.69.05.737,0,0-.074,1.074-.39,0,0,1.01a7.425,7.425,0,0,0,4.658,4.318.488.488,0,0,0-.2-.562,25.166,25.166,0,0,0,3.7,1.922,1.064,1.064,0,0,0,.613.118,1.4,1.4,0,0,0,.485-.276,10.967,10.967,0,0,1,2.43-.979c.811-.33,1.619-1.01,1.568-1.9a1.42,1.42,0,0,0-.1-.427,2.614,2.614,0,0,1-1.457,1.319Z" transform="translate(-553.432 -277.681)"/>
      <path id="Path_1726" data-name="Path 1726" d="M600.17,248.989a2.01,2.01,0,0,0,.06.427,8.665,8.665,0,0,1,.387-1.185,13.126,13.126,0,0,0,.777-4.981,13.027,13.027,0,0,1-.777,3.972A4.817,4.817,0,0,0,600.17,248.989Z" transform="translate(-584.44 -240.029)"/>
      <path id="Path_1727" data-name="Path 1727" d="M679.26,289.832a6.7,6.7,0,0,0-2.13-2.262c.094.4.178.8.256,1.212a6,6,0,0,1,1.875,2.06,4.871,4.871,0,0,1,.377,1.848v-.912A4.977,4.977,0,0,0,679.26,289.832Z" transform="translate(-635.497 -269.432)"/>
      <path id="Path_1728" data-name="Path 1728" d="M568.576,236.527c.1-.495.37-.279.148-.747-.367-.761-1.195-1.373-1.488-2.1a1.273,1.273,0,0,0-.081.249c-.219,1.1.936,1.585,1.42,2.6C568.647,236.672,568.277,235.807,568.576,236.527Z" transform="translate(-562.519 -233.68)"/>
      <path id="Path_1729" data-name="Path 1729" d="M591.078,276.92a2.478,2.478,0,0,0-.337.061,9.724,9.724,0,0,0-2.719,1.393l-4.147,2.713a3.415,3.415,0,0,0-1.01.868,1.835,1.835,0,0,0-.225,1.5,1.593,1.593,0,0,1,.225-.495,3.417,3.417,0,0,1,1.01-.868l4.147-2.713a9.936,9.936,0,0,1,2.645-1.37C590.812,277.65,590.95,277.284,591.078,276.92Z" transform="translate(-572.763 -262.367)"/>
      <path id="Path_1730" data-name="Path 1730" d="M694.957,317.11a3.075,3.075,0,0,1-.646,1.326,4.819,4.819,0,0,1-2,1.346,2.485,2.485,0,0,0-1.2.717,1.559,1.559,0,0,0-.131,1.269,1.051,1.051,0,0,1,.131-.259,2.409,2.409,0,0,1,1.2-.717,4.823,4.823,0,0,0,2-1.346,2.807,2.807,0,0,0,.673-2.262A.152.152,0,0,0,694.957,317.11Z" transform="translate(-644.637 -289.03)"/>
      <path id="Path_1731" data-name="Path 1731" d="M703.386,300.38c-.437.905-1.39,1.629-1.377,2.635a1.944,1.944,0,0,0,.078.5,17.817,17.817,0,0,1,1.3-2.124,3.7,3.7,0,0,0,.273-2.019A3.159,3.159,0,0,1,703.386,300.38Z" transform="translate(-652.003 -277.261)"/>
      <path id="Path_1732" data-name="Path 1732" d="M623.347,301.805a1.221,1.221,0,0,0,.73.337,5.449,5.449,0,0,0,2.508-.145,1.44,1.44,0,0,0,.983-.7,1.567,1.567,0,0,0,.1-.532c.057-.828.074-1.656.057-2.484,0,.491-.024.983-.057,1.474a1.568,1.568,0,0,1-.1.532,1.441,1.441,0,0,1-.983.7,5.449,5.449,0,0,1-2.508.145,1.222,1.222,0,0,1-.73-.336,1.344,1.344,0,0,1-.246-.673q-.192-1.121-.377-2.235a4.029,4.029,0,0,1-3.365-.461c-1.01-.572-1.9-1.37-2.881-2.019a4.661,4.661,0,0,0-3.312-.9,5.6,5.6,0,0,0-1.77.744,12.38,12.38,0,0,0-3.029,2.265,5.635,5.635,0,0,1-2,1.787,2.114,2.114,0,0,1-2.635-1.346,11.888,11.888,0,0,1-.131-1.932,1.735,1.735,0,0,0-1.01-1.373c-.555-.363-.646-.838-.889-1.467-.03-.081-.064-.168-.091-.252a1.263,1.263,0,0,0-.1.4,2.054,2.054,0,0,0,.2.865c.242.629.336,1.1.889,1.467a1.781,1.781,0,0,1,1.01,1.373,11.857,11.857,0,0,0,.131,1.932,2.114,2.114,0,0,0,2.635,1.346,5.7,5.7,0,0,0,2-1.787,12.372,12.372,0,0,1,3.029-2.265,5.6,5.6,0,0,1,1.77-.744,4.732,4.732,0,0,1,3.312.9c.986.636,1.858,1.437,2.881,2.019a4,4,0,0,0,3.365.461l.377,2.235A1.344,1.344,0,0,0,623.347,301.805Z" transform="translate(-585.328 -272.988)"/>
      <path id="Path_1733" data-name="Path 1733" d="M672.823,339.348c-.636.2-1.4.064-1.922.471s-.579,1.222-.905,1.828a2.093,2.093,0,0,1-2.739.821,2.118,2.118,0,0,1,.118-.915,1.723,1.723,0,0,1-1.922-.784,1.769,1.769,0,0,1-.172-.441,2.07,2.07,0,0,0,.172,1.451,1.723,1.723,0,0,0,1.922.784,2.118,2.118,0,0,0-.118.915,2.093,2.093,0,0,0,2.739-.821c.337-.606.36-1.4.905-1.827s1.286-.269,1.922-.471a2.54,2.54,0,0,0,1.417-2.9A2.242,2.242,0,0,1,672.823,339.348Z" transform="translate(-627.595 -302.531)"/>
    </g>
    <path id="Path_1734" data-name="Path 1734" d="M606.674,271.607a12.1,12.1,0,0,1-1.474,2.528,3.454,3.454,0,0,0-.384.067,6.2,6.2,0,0,0-1.037.394,21.006,21.006,0,0,1,1.269-3.386C605.419,271.331,606.055,271.436,606.674,271.607Z" transform="translate(-419.191 -186.224)" fill="#034aa6"/>
    <path id="Path_1735" data-name="Path 1735" d="M676.933,286.692c-.279-.242-.576-.471-.865-.7-.168-.673-.336-1.478-.448-2.194a3.337,3.337,0,0,0,.673-.054A9.263,9.263,0,0,1,676.933,286.692Z" transform="translate(-466.852 -194.537)" fill="#034aa6"/>
    <path id="Path_1736" data-name="Path 1736" d="M902.8,353.615c.1-.05.205-.1.306-.158-.205-.04-.411-.088-.613-.138-.145.04-.293.071-.441.1a16.583,16.583,0,0,1-7.4-4.466,11.677,11.677,0,0,1-3.46-7.943c.023-2.147.811-4.241.787-6.395s-1.276-4.581-3.47-4.823a16.033,16.033,0,0,0-2.3.141,1.834,1.834,0,0,1-2.053-2.682c.586-1.646,1.9-2.975,2.467-4.628a5.554,5.554,0,0,0,.152-3.049,3.058,3.058,0,0,0-1.427-2.09c-1.3-.673-2.844.108-4.288.38-2.47.471-4.978-.6-7.1-1.915s-4.119-2.908-6.513-3.679a15.677,15.677,0,0,0-4.833-.626,4.237,4.237,0,0,0-2.847.737c-.037.034-.064.071-.1.1a2.6,2.6,0,0,1,.293-.589,2.078,2.078,0,0,0-.313.232c-1.545,1.363-.464,3.965-1.373,5.789a3.035,3.035,0,0,1-.37.565,4.459,4.459,0,0,0,.6-.552c-.034.081-.064.162-.1.242a5.466,5.466,0,0,1-2.692,2.2,8.91,8.91,0,0,0-3,1.885c-.02.02-.034.04-.054.064a3.291,3.291,0,0,1,.539-.888,4.431,4.431,0,0,0-.609.569c-.845.979-.909,1.794-.532,2.42a2.9,2.9,0,0,0,2.05,1.491c-.047.212-.091.424-.128.64a10.647,10.647,0,0,0-.128,1.616,10.512,10.512,0,0,0,8.36,10.178,6.062,6.062,0,0,1-.054.673c-.161,1.528-.633,3.184-1.868,3.588-1.155-.394-3.467,1.346-3.985,1.851s-2.356.054-4.039.111a3.39,3.39,0,0,1-2.252-.448,9.576,9.576,0,0,0-.061,2.746c.175,1.683-1.212,1.74-1.212,1.74a8.258,8.258,0,0,1-.336,3.645,4.086,4.086,0,0,0-.461,2.305s1.962-.168,1.787.5a.6.6,0,0,0,.115.448l-.02.643-.266,8.892-.518,5.3a.9.9,0,0,0-.579.532c-.468,1.064-1.222,2.48-1.814,3.564-2.406,1.457-6.021,4.16-5,6.758,1.5,3.817,3.638,3.312,4.907,2.861s3.537-3.982,3.537-3.982.75-1.4,1.326-1.4a7.44,7.44,0,0,0,.919-.1v.1s-1.212,4.769-.808,5.947a5.774,5.774,0,0,1,.057,2.693s-.337,3.477.114,4.6-.626,4.143-.626,4.143.31.094.844.225c-.04.192-.087.4-.138.64-.707,3.342-1.976,10.972-.532,17.252,0,0,.808,3.366.922,4.268s.808,1.683.336,3.7.922,5.725.922,5.725.693,3.534.289,5.16,4.214,19.858,4.214,19.858l.754-.108.168.65.75,2.894.081.316a2.49,2.49,0,0,0-1.346.848s-2.019,4.6-4.56,5.89c-.673.337-1.5.788-2.292,1.276-2.268,1.387-4.214,3.056-.909,3.1,3.622.047,9.572.239,11.706.31a5.1,5.1,0,0,0,2.406.363c5.944-.111,14.375-.73,14.55-1.289.084-.273-.269-.852-.653-1.373s-.851-1.04-.851-1.04l-.172-5.106s-.484-.438-1.235-1.04l-.027-.357-.377-4.924-.05-.673a1.938,1.938,0,0,0,.707-.306l.408-5.1s2.48-8.525-.693-16.886c0,0-2.77-5.776-2.019-7.852l.118-4.433s1.326-5.22,1.962-6.62a35.867,35.867,0,0,0,1.979-6.691c2.279-3.615,1.905-8.414,1.905-8.414l1.615-5.049,2.252-6.449s.636-3.928.868-4.712a36.13,36.13,0,0,0,0-5.048s1.952-15.549.32-21.625v-.232h.016v-.337c.027-.03,1.777-1.855.976-2.356-.673-.417-1.881-2.282-2.8-3.4-.125-.145-.239-.276-.336-.394a11.546,11.546,0,0,0,2.776-3.083c.283-.461.629-1.01,1.182-1.033a1.492,1.492,0,0,1,.825.273c4.23,2.534,4.91,8.872,9.37,11a6.657,6.657,0,0,0,5.954-.172ZM868.958,454.97l-.037.337a1.818,1.818,0,0,0-.421.209s-.579,2.972-.925,3.2a2.785,2.785,0,0,0-.428.754l-.084-.151c-.027.061-.057.121-.084.185l-.155-.283-.044-.337-.962-7.442a34.078,34.078,0,0,1,.027-6.58c.4-2.245.337-10.1-2.252-13.237,0,0-1.212-2.861-.114-4.712l.172-11.672.4-.394.057,10.77a10.862,10.862,0,0,0,2.6,6.173l.407,5.664a53.008,53.008,0,0,0,1.383,9.592v5.274s.279.047.727.111l-.071.673Z" transform="translate(-576.876 -213.048)" fill="url(#linear-gradient-2)"/>
    <path id="Path_1737" data-name="Path 1737" d="M909.427,376l-2.413,5.385-.892.522-6.008,3.517s-7.573-.73-7.795-.841-.579-6.543,1.38-7.9a1.3,1.3,0,0,1,.353-.178h0c1.2-.4,1.659-2.06,1.817-3.588.024-.226.04-.444.051-.673a15.977,15.977,0,0,0,0-2.147s1.838-1.838,4.039-3.739c3.9-3.366,8.946-6.916,7.011-.862a20.2,20.2,0,0,0-.787,3.345c-.041.266-.068.525-.088.771-.236,2.982.7,4.591,1.636,5.446.1.094.206.175.306.252A3.7,3.7,0,0,0,909.427,376Z" transform="translate(-610.498 -246.602)" fill="#cf6f80"/>
    <path id="Path_1738" data-name="Path 1738" d="M845.226,717.088l-.842.39-5.664-1.289-.5-2.006-.73-2.895-.505-2h7.267l.936,7.448Z" transform="translate(-555.274 -470.563)" fill="#cf6f80"/>
    <path id="Path_1739" data-name="Path 1739" d="M902.169,745.536l-5.664-1.289-.5-2.02c2.147-.643,5.274,1.164,5.274,1.164-.205.714,1.407,1.293,1.683,1.39l.044.337Z" transform="translate(-613.059 -498.62)" opacity="0.1"/>
    <path id="Path_1740" data-name="Path 1740" d="M908.918,754.5l-4.062,3.981-1.434,1.4-.778-.027c-1.464-.821.434-2.817,1.7-3.924.249-.219.475-.4.646-.535.909-.71,1.76-2.733,2.305-3.941Z" transform="translate(-617.115 -504.837)" opacity="0.1"/>
    <path id="Path_1741" data-name="Path 1741" d="M907.3,751.46l1.619,3.029-4.062,3.982-1.434,1.417-.778-.027c-1.464-.821.434-2.817,1.7-3.925.249-.219.475-.4.646-.535C905.9,754.691,906.754,752.668,907.3,751.46Z" transform="translate(-617.115 -504.837)" opacity="0.1"/>
    <path id="Path_1742" data-name="Path 1742" d="M929.792,742.929,922.33,740.4l.222-2.13c1.945-.673,5.328,1.774,7.135,3.258Z" transform="translate(-630.526 -496.013)" opacity="0.1"/>
    <path id="Path_1743" data-name="Path 1743" d="M884.188,749.312l-4.063,3.982-1.434,1.4s-7.8-.279-12.14-.336c-3.211-.044-1.323-1.713.882-3.1.774-.488,1.585-.939,2.228-1.276,2.467-1.289,4.43-5.89,4.43-5.89,1.851-2.356,6.509.337,6.509.337-.226.784,1.736,1.4,1.736,1.4Z" transform="translate(-592.384 -499.31)" fill="#3f3d56"/>
    <path id="Path_1744" data-name="Path 1744" d="M880.125,769.323l-1.434,1.4s-7.8-.279-12.14-.337c-3.211-.044-1.323-1.713.882-3.1a3.524,3.524,0,0,1,2.787,2.019Z" transform="translate(-592.384 -515.339)" opacity="0.1"/>
    <path id="Path_1745" data-name="Path 1745" d="M874.442,715.82,866.98,713.3l.222-2.131.192-1.861.259-2.514h6.115l.2,2.709.367,4.924Z" transform="translate(-575.177 -468.904)" fill="#cf6f80"/>
    <path id="Path_1746" data-name="Path 1746" d="M919.129,751.109c-.169.559-8.36,1.178-14.136,1.289-5.015.1-2.3-2.847-.646-4.288.249-.219.475-.4.646-.535,1.289-1.01,2.467-4.658,2.8-4.88s.9-3.2.9-3.2c2.524-1.8,8.8,4.093,8.8,4.093l.168,5.106s.431.488.828,1.04S919.21,750.837,919.129,751.109Z" transform="translate(-617.114 -496.675)" fill="#3f3d56"/>
    <path id="Path_1747" data-name="Path 1747" d="M919.129,768.759c-.169.559-8.36,1.178-14.136,1.289-5.015.1-2.3-2.847-.646-4.288a7.441,7.441,0,0,1,3.171,2.548h6.448a37.641,37.641,0,0,0,4.53-.922C918.866,767.907,919.21,768.486,919.129,768.759Z" transform="translate(-617.114 -514.324)" opacity="0.1"/>
    <path id="Path_1748" data-name="Path 1748" d="M899.553,728c.037.616.071,1.01.071,1.01l-6.788.99-.5-2Z" transform="translate(-610.624 -489.273)" opacity="0.1"/>
    <path id="Path_1749" data-name="Path 1749" d="M930.137,728.21c-1.659.461-5.143.017-6.577-.2l.259-2.514h6.115Z" transform="translate(-631.343 -487.614)" opacity="0.1"/>
    <path id="Path_1750" data-name="Path 1750" d="M894.915,590.164c3.083,8.36.673,16.886.673,16.886l-.394,5.106c-1.4,1.121-7.852,0-7.852,0v-5.274A55.334,55.334,0,0,1,886,597.289l-.394-5.665a11.039,11.039,0,0,1-2.524-6.173l-.057-10.77-.391.394-.168,11.669c-1.067,1.851.111,4.712.111,4.712,2.524,3.14,2.581,10.992,2.188,13.237a37.962,37.962,0,0,0,0,6.9l-7.684,1.121s-4.49-18.229-4.1-19.858-.279-5.159-.279-5.159-1.346-3.7-.9-5.722-.226-2.8-.337-3.7-.9-4.264-.9-4.264c-1.4-6.28-.168-13.91.519-17.253.219-1.073.38-1.706.38-1.706s20.867-6.058,24.4-1.01a7.245,7.245,0,0,1,.956,1.989c1.727,5.456-1.309,13.995-1.854,15.233-.616,1.4-1.905,6.617-1.905,6.617l-.114,4.433C892.223,584.388,894.915,590.164,894.915,590.164Z" transform="translate(-595.761 -372.53)" fill="#3f3d56"/>
    <ellipse id="Ellipse_83" data-name="Ellipse 83" cx="0.226" cy="0.226" rx="0.226" ry="0.226" transform="translate(293.54 225.769)" fill="#6c63ff"/>
    <ellipse id="Ellipse_84" data-name="Ellipse 84" cx="0.226" cy="0.226" rx="0.226" ry="0.226" transform="translate(282.373 231.397)" fill="#6c63ff"/>
    <ellipse id="Ellipse_85" data-name="Ellipse 85" cx="0.226" cy="0.226" rx="0.226" ry="0.226" transform="translate(281.592 227.846)" fill="#6c63ff"/>
    <ellipse id="Ellipse_86" data-name="Ellipse 86" cx="0.226" cy="0.226" rx="0.226" ry="0.226" transform="translate(283.133 228.125)" fill="#6c63ff"/>
    <ellipse id="Ellipse_87" data-name="Ellipse 87" cx="0.226" cy="0.226" rx="0.226" ry="0.226" transform="translate(282.474 230.027)" fill="#6c63ff"/>
    <ellipse id="Ellipse_88" data-name="Ellipse 88" cx="0.226" cy="0.226" rx="0.226" ry="0.226" transform="translate(292.588 229.471)" fill="#6c63ff"/>
    <ellipse id="Ellipse_89" data-name="Ellipse 89" cx="0.226" cy="0.226" rx="0.226" ry="0.226" transform="translate(297.3 230.761)" fill="#6c63ff"/>
    <ellipse id="Ellipse_90" data-name="Ellipse 90" cx="0.226" cy="0.226" rx="0.226" ry="0.226" transform="translate(298.814 229.246)" fill="#6c63ff"/>
    <ellipse id="Ellipse_91" data-name="Ellipse 91" cx="0.226" cy="0.226" rx="0.226" ry="0.226" transform="translate(293.991 228.351)" fill="#6c63ff"/>
    <ellipse id="Ellipse_92" data-name="Ellipse 92" cx="0.226" cy="0.226" rx="0.226" ry="0.226" transform="translate(284.84 226.813)" fill="#6c63ff"/>
    <ellipse id="Ellipse_93" data-name="Ellipse 93" cx="0.226" cy="0.226" rx="0.226" ry="0.226" transform="translate(286.711 228.125)" fill="#6c63ff"/>
    <ellipse id="Ellipse_94" data-name="Ellipse 94" cx="0.226" cy="0.226" rx="0.226" ry="0.226" transform="translate(283.493 233.82)" fill="#6c63ff"/>
    <ellipse id="Ellipse_95" data-name="Ellipse 95" cx="0.226" cy="0.226" rx="0.226" ry="0.226" transform="translate(284.268 236.539)" fill="#6c63ff"/>
    <ellipse id="Ellipse_96" data-name="Ellipse 96" cx="0.226" cy="0.226" rx="0.226" ry="0.226" transform="translate(286.809 237.489)" fill="#6c63ff"/>
    <ellipse id="Ellipse_97" data-name="Ellipse 97" cx="0.226" cy="0.226" rx="0.226" ry="0.226" transform="translate(285.287 237.66)" fill="#6c63ff"/>
    <ellipse id="Ellipse_98" data-name="Ellipse 98" cx="0.226" cy="0.226" rx="0.226" ry="0.226" transform="translate(283.941 238.943)" fill="#6c63ff"/>
    <ellipse id="Ellipse_99" data-name="Ellipse 99" cx="0.226" cy="0.226" rx="0.226" ry="0.226" transform="translate(285.065 229.801)" fill="#6c63ff"/>
    <ellipse id="Ellipse_100" data-name="Ellipse 100" cx="0.226" cy="0.226" rx="0.226" ry="0.226" transform="translate(285.065 232.558)" fill="#6c63ff"/>
    <ellipse id="Ellipse_101" data-name="Ellipse 101" cx="0.226" cy="0.226" rx="0.226" ry="0.226" transform="translate(286.489 234.372)" fill="#6c63ff"/>
    <ellipse id="Ellipse_102" data-name="Ellipse 102" cx="0.226" cy="0.226" rx="0.226" ry="0.226" transform="translate(285.197 235.19)" fill="#6c63ff"/>
    <ellipse id="Ellipse_103" data-name="Ellipse 103" cx="0.226" cy="0.226" rx="0.226" ry="0.226" transform="translate(282.595 238.943)" fill="#6c63ff"/>
    <ellipse id="Ellipse_104" data-name="Ellipse 104" cx="0.226" cy="0.226" rx="0.226" ry="0.226" transform="translate(286.587 235.664)" fill="#6c63ff"/>
    <ellipse id="Ellipse_105" data-name="Ellipse 105" cx="0.226" cy="0.226" rx="0.226" ry="0.226" transform="translate(297.3 227.62)" fill="#6c63ff"/>
    <ellipse id="Ellipse_106" data-name="Ellipse 106" cx="0.226" cy="0.226" rx="0.226" ry="0.226" transform="translate(295.085 230.761)" fill="#6c63ff"/>
    <ellipse id="Ellipse_107" data-name="Ellipse 107" cx="0.226" cy="0.226" rx="0.226" ry="0.226" transform="translate(293.54 235.415)" fill="#6c63ff"/>
    <ellipse id="Ellipse_108" data-name="Ellipse 108" cx="0.226" cy="0.226" rx="0.226" ry="0.226" transform="translate(293.035 238.502)" fill="#6c63ff"/>
    <ellipse id="Ellipse_109" data-name="Ellipse 109" cx="0.226" cy="0.226" rx="0.226" ry="0.226" transform="translate(295.674 228.798)" fill="#6c63ff"/>
    <ellipse id="Ellipse_110" data-name="Ellipse 110" cx="0.226" cy="0.226" rx="0.226" ry="0.226" transform="translate(294.859 232.107)" fill="#6c63ff"/>
    <ellipse id="Ellipse_111" data-name="Ellipse 111" cx="0.226" cy="0.226" rx="0.226" ry="0.226" transform="translate(295.533 234.597)" fill="#6c63ff"/>
    <ellipse id="Ellipse_112" data-name="Ellipse 112" cx="0.226" cy="0.226" rx="0.226" ry="0.226" transform="translate(291.999 237.132)" fill="#6c63ff"/>
    <ellipse id="Ellipse_113" data-name="Ellipse 113" cx="0.226" cy="0.226" rx="0.226" ry="0.226" transform="translate(293.991 236.314)" fill="#6c63ff"/>
    <ellipse id="Ellipse_114" data-name="Ellipse 114" cx="0.226" cy="0.226" rx="0.226" ry="0.226" transform="translate(293.318 236.987)" fill="#6c63ff"/>
    <ellipse id="Ellipse_115" data-name="Ellipse 115" cx="0.226" cy="0.226" rx="0.226" ry="0.226" transform="translate(297.3 236.008)" fill="#6c63ff"/>
    <ellipse id="Ellipse_116" data-name="Ellipse 116" cx="0.226" cy="0.226" rx="0.226" ry="0.226" transform="translate(297.3 236.765)" fill="#6c63ff"/>
    <ellipse id="Ellipse_117" data-name="Ellipse 117" cx="0.226" cy="0.226" rx="0.226" ry="0.226" transform="translate(295.085 238.502)" fill="#6c63ff"/>
    <ellipse id="Ellipse_118" data-name="Ellipse 118" cx="0.226" cy="0.226" rx="0.226" ry="0.226" transform="translate(294.439 239.168)" fill="#6c63ff"/>
    <ellipse id="Ellipse_119" data-name="Ellipse 119" cx="0.226" cy="0.226" rx="0.226" ry="0.226" transform="translate(295.98 237.132)" fill="#6c63ff"/>
    <ellipse id="Ellipse_120" data-name="Ellipse 120" cx="0.226" cy="0.226" rx="0.226" ry="0.226" transform="translate(294.213 238.28)" fill="#6c63ff"/>
    <ellipse id="Ellipse_121" data-name="Ellipse 121" cx="0.226" cy="0.226" rx="0.226" ry="0.226" transform="translate(298.134 235.415)" fill="#6c63ff"/>
    <ellipse id="Ellipse_122" data-name="Ellipse 122" cx="0.226" cy="0.226" rx="0.226" ry="0.226" transform="translate(298.589 236.765)" fill="#6c63ff"/>
    <ellipse id="Ellipse_123" data-name="Ellipse 123" cx="0.226" cy="0.226" rx="0.226" ry="0.226" transform="translate(295.307 236.314)" fill="#6c63ff"/>
    <ellipse id="Ellipse_124" data-name="Ellipse 124" cx="0.226" cy="0.226" rx="0.226" ry="0.226" transform="translate(295.98 238.606)" fill="#6c63ff"/>
    <ellipse id="Ellipse_125" data-name="Ellipse 125" cx="0.226" cy="0.226" rx="0.226" ry="0.226" transform="translate(297.3 238.28)" fill="#6c63ff"/>
    <ellipse id="Ellipse_126" data-name="Ellipse 126" cx="0.226" cy="0.226" rx="0.226" ry="0.226" transform="translate(297.074 239.168)" fill="#6c63ff"/>
    <ellipse id="Ellipse_127" data-name="Ellipse 127" cx="0.226" cy="0.226" rx="0.226" ry="0.226" transform="translate(295.98 239.394)" fill="#6c63ff"/>
    <ellipse id="Ellipse_128" data-name="Ellipse 128" cx="0.226" cy="0.226" rx="0.226" ry="0.226" transform="translate(297.074 233.685)" fill="#6c63ff"/>
    <ellipse id="Ellipse_129" data-name="Ellipse 129" cx="0.226" cy="0.226" rx="0.226" ry="0.226" transform="translate(281.615 235.439)" fill="#6c63ff"/>
    <ellipse id="Ellipse_130" data-name="Ellipse 130" cx="0.226" cy="0.226" rx="0.226" ry="0.226" transform="translate(281.615 236.196)" fill="#6c63ff"/>
    <ellipse id="Ellipse_131" data-name="Ellipse 131" cx="0.226" cy="0.226" rx="0.226" ry="0.226" transform="translate(282.45 234.85)" fill="#6c63ff"/>
    <ellipse id="Ellipse_132" data-name="Ellipse 132" cx="0.226" cy="0.226" rx="0.226" ry="0.226" transform="translate(283.13 237.489)" fill="#6c63ff"/>
    <ellipse id="Ellipse_133" data-name="Ellipse 133" cx="0.226" cy="0.226" rx="0.226" ry="0.226" transform="translate(282.905 236.196)" fill="#6c63ff"/>
    <ellipse id="Ellipse_134" data-name="Ellipse 134" cx="0.226" cy="0.226" rx="0.226" ry="0.226" transform="translate(281.615 237.711)" fill="#6c63ff"/>
    <ellipse id="Ellipse_135" data-name="Ellipse 135" cx="0.226" cy="0.226" rx="0.226" ry="0.226" transform="translate(281.39 233.12)" fill="#6c63ff"/>
    <path id="Path_1751" data-name="Path 1751" d="M850.48,541.746l.562,17.165.616-.451.451-17.67Z" transform="translate(-564.23 -358.775)" opacity="0.1"/>
    <path id="Path_1752" data-name="Path 1752" d="M863.181,489.207s-3.871-3.648-4.712-1.683-2.639,5.16-2.639,5.16l4.264,4.039s.73-1.4,1.289-1.4a18.464,18.464,0,0,0,2.188-.336Z" transform="translate(-586.408 -329.348)" fill="#cf6f80"/>
    <path id="Path_1753" data-name="Path 1753" d="M816.768,422.218l-2.581,19.407-.969-1.484-3.238-4.964.5-5.331.259-8.892.078-2.662Z" transform="translate(-537.361 -277.504)" fill="#cf6f80"/>
    <path id="Path_1754" data-name="Path 1754" d="M914.33,365.532a18.63,18.63,0,0,0-.875,4.116,10.41,10.41,0,0,1-7.849,3.561,10.532,10.532,0,0,1-2.356-.269,16.245,16.245,0,0,0,.034-2.807S917.359,356.051,914.33,365.532Z" transform="translate(-617.868 -246.624)" opacity="0.1"/>
    <path id="Path_1755" data-name="Path 1755" d="M900.117,341.227a10.392,10.392,0,0,1-2.5,6.775,10.442,10.442,0,1,1,2.5-6.775Z" transform="translate(-601.946 -225.748)" fill="#cf6f80"/>
    <path id="Path_1756" data-name="Path 1756" d="M870.6,442.328a17.944,17.944,0,0,1-3-2.666l.078-2.662,5.947,3.928-2.581,19.406-.952-1.484a7.486,7.486,0,0,1,.411-2.44c.673-1.346.168-3.423.168-4.1s.953-1.74.9-2.188a26.539,26.539,0,0,0-.336-2.8C870.989,446.256,872.11,443.62,870.6,442.328Z" transform="translate(-594.217 -296.215)" opacity="0.1"/>
    <path id="Path_1757" data-name="Path 1757" d="M899.107,556.029v.03s-7.35-1.178-13.072.841c-4.692,1.656-10.669.37-12.665-.145.219-1.073.38-1.706.38-1.706s20.867-6.058,24.4-1.01a7.256,7.256,0,0,1,.956,1.989Z" transform="translate(-598.045 -372.53)" opacity="0.1"/>
    <path id="Path_1758" data-name="Path 1758" d="M909.427,401.339l-2.413,5.385-6.9,4.039s-7.573-.73-7.795-.841-.579-6.543,1.38-7.9c-.552,1.555-1.154,4.712,2.938,4.978a16.984,16.984,0,0,0,11.083-6.593A3.873,3.873,0,0,0,909.427,401.339Z" transform="translate(-610.498 -271.94)" opacity="0.1"/>
    <path id="Path_1759" data-name="Path 1759" d="M898.484,412.408l-.114,2.524L891.638,455.1s-7.347-1.178-13.069.841-13.352-.337-13.352-.337,1.067-3.029.619-4.15-.114-4.6-.114-4.6a5.96,5.96,0,0,0-.054-2.693c-.39-1.178.784-5.947.784-5.947s-.28-5.1.394-6.449.168-3.423.168-4.1.953-1.74.9-2.188a26.722,26.722,0,0,0-.337-2.8c-.222-1.067.9-3.7-.616-4.995s-3.255-2.41-3.086-3.083-1.737-.5-1.737-.5a4.168,4.168,0,0,1,.448-2.3,8.425,8.425,0,0,0,.336-3.645s1.346-.057,1.178-1.74a9.839,9.839,0,0,1,.057-2.746,3.24,3.24,0,0,0,2.188.448c1.629-.057,3.419.394,3.924-.111s2.75-2.245,3.87-1.851h0c-.087.172-2.77,5.5,2.585,5.829a16.98,16.98,0,0,0,11.389-7.014s.616-.673,2.635,1.518,3.756,1.346,3.756,1.346l2.245.168s-1.457,1.232-.562,2.073a5.81,5.81,0,0,1,.528.589,26.055,26.055,0,0,0,2.726,3.4C900.221,410.557,898.484,412.408,898.484,412.408Z" transform="translate(-590.579 -272.238)" fill="#034aa6"/>
    <path id="Path_1760" data-name="Path 1760" d="M850.448,496s-8.246,4.039-6.789,7.852,3.534,3.312,4.769,2.861,3.477-3.982,3.477-3.982Z" transform="translate(-578.22 -335.357)" fill="#cf6f80"/>
    <path id="Path_1761" data-name="Path 1761" d="M931.407,428.93c0,.36-2.1,4.9,0,6.082S931.407,428.93,931.407,428.93Z" transform="translate(-635.928 -290.861)" opacity="0.1"/>
    <path id="Path_1762" data-name="Path 1762" d="M879.981,424.25s-2.972,3.2-1.74,3.534S879.981,424.25,879.981,424.25Z" transform="translate(-601.078 -287.756)" opacity="0.1"/>
    <path id="Path_1763" data-name="Path 1763" d="M933.573,433.6s1.289,7.967,1.346,10.323.394,6.169.394,6.169.953,9.087-.5,12.79a20.836,20.836,0,0,0-1.235,7.741s-4.264,8.3-4.88,9.144.5,8.808,4.991,5.442,3.928-10.716,3.928-10.716l1.572-5.049L941.371,463s.616-3.928.842-4.712a37.224,37.224,0,0,0,0-5.049s2.635-21.6-.9-23.842S933.573,433.6,933.573,433.6Z" transform="translate(-634.645 -290.854)" fill="#cf6f80"/>
    <path id="Path_1764" data-name="Path 1764" d="M941.312,427.538s5.274-5.779,6.9-5.274,2.077.283,2.077.283.222-3.2-2.188-4.375-5.048-4.769-7.068-.5S941.312,427.538,941.312,427.538Z" transform="translate(-642.384 -282.041)" opacity="0.1"/>
    <path id="Path_1765" data-name="Path 1765" d="M941.312,426.538s5.274-5.779,6.9-5.274,2.077.283,2.077.283.222-3.2-2.188-4.375-5.048-4.769-7.068-.5S941.312,426.538,941.312,426.538Z" transform="translate(-642.384 -281.377)" fill="#034aa6"/>
    <path id="Path_1766" data-name="Path 1766" d="M908.3,360.183a10.692,10.692,0,0,1-1.222.912,9.088,9.088,0,0,1-3.53,1.346,7.887,7.887,0,0,1-3.184-.178,7.708,7.708,0,0,1-2.571-1.195,6.539,6.539,0,0,1-1.949-2.164c-.067-.121-.128-.242-.185-.364-1.131-2.383-.828-5.22-1.326-7.849-.037-.185-.078-.373-.121-.559a9.15,9.15,0,0,0-2.591-4.6c-1.8-1.74-4.227-2.8-6.732-4.109a12.294,12.294,0,0,0-4.349-1.592,5.65,5.65,0,0,1-.952-.205,10.434,10.434,0,1,1,18.245,8.391c-.04.266-.067.525-.088.771-.236,2.982.7,4.591,1.636,5.446.1.094.205.175.307.252,0,0,.616-.673,2.635,1.518s3.756,1.346,3.756,1.346l2.245.168s-1.458,1.232-.562,2.073A5.8,5.8,0,0,1,908.3,360.183Z" transform="translate(-602.172 -225.765)" opacity="0.1"/>
    <path id="Path_1767" data-name="Path 1767" d="M874.541,323.314a8.5,8.5,0,0,1,2.915-1.885,5.3,5.3,0,0,0,2.625-2.2c.882-1.824-.169-4.426,1.346-5.792a4.029,4.029,0,0,1,2.763-.737,14.929,14.929,0,0,1,4.712.626c2.322.771,4.261,2.356,6.328,3.679s4.5,2.386,6.9,1.915c1.4-.273,2.9-1.05,4.167-.38a3.064,3.064,0,0,1,1.387,2.09,5.721,5.721,0,0,1-.148,3.049c-.549,1.652-1.831,2.982-2.4,4.628a2.238,2.238,0,0,0,.03,1.871,2.178,2.178,0,0,0,1.979.811,15.107,15.107,0,0,1,2.231-.141c2.134.242,3.366,2.676,3.366,4.823s-.744,4.241-.767,6.395a11.83,11.83,0,0,0,3.366,7.94,15.938,15.938,0,0,0,8.347,4.756,6.3,6.3,0,0,1-5.785.172c-4.332-2.13-4.995-8.465-9.088-11a1.392,1.392,0,0,0-.8-.273c-.535.034-.872.572-1.148,1.03a10.382,10.382,0,0,1-7.112,5.069,7.606,7.606,0,0,1-7.7-3.537c-1.451-2.639-.929-5.86-1.632-8.771-1.222-5.049-5.173-6.529-9.313-8.71a12.3,12.3,0,0,0-4.349-1.592C874.653,326.875,872.687,325.508,874.541,323.314Z" transform="translate(-598.331 -213.745)" fill="#512e4e"/>
    <g id="Group_1434" data-name="Group 1434" transform="translate(275.344 99.206)" opacity="0.1">
      <path id="Path_1768" data-name="Path 1768" d="M892.033,318.808c.795-1.642.027-3.914.963-5.348a2.228,2.228,0,0,0-.306.232c-1.5,1.363-.447,3.965-1.329,5.789a3.213,3.213,0,0,1-.36.555A3.576,3.576,0,0,0,892.033,318.808Z" transform="translate(-885.086 -313.46)"/>
      <path id="Path_1769" data-name="Path 1769" d="M984.944,413.2c-4.335-2.131-5-8.465-9.108-11a1.41,1.41,0,0,0-.8-.273,1.375,1.375,0,0,0-.976.757.843.843,0,0,1,.3-.084,1.409,1.409,0,0,1,.8.273c4.109,2.538,4.773,8.872,9.108,11a6.3,6.3,0,0,0,5.782-.172c-.2-.044-.4-.091-.6-.141A6.314,6.314,0,0,1,984.944,413.2Z" transform="translate(-940.19 -372.147)"/>
      <path id="Path_1770" data-name="Path 1770" d="M900.014,368.137a7.607,7.607,0,0,1-7.7-3.537c-1.448-2.635-.929-5.863-1.633-8.771-1.225-5.048-5.176-6.53-9.316-8.711a12.213,12.213,0,0,0-4.345-1.592c-2.02-.266-3.962-1.592-2.268-3.726a4.091,4.091,0,0,0-.589.569c-1.844,2.194.121,3.561,2.184,3.83a12.217,12.217,0,0,1,4.345,1.592c4.14,2.181,8.078,3.648,9.316,8.71.7,2.908.188,6.149,1.632,8.771a7.627,7.627,0,0,0,7.7,3.537,9.89,9.89,0,0,0,5.695-3.17,9.66,9.66,0,0,1-5.022,2.5Z" transform="translate(-873.427 -332.262)"/>
    </g>
    <path id="Path_1771" data-name="Path 1771" d="M158.474,448.255c-2.08-.239-5.018-2.282-6.859-3.7.915-.535,1.521-.905,1.521-.905s-4.375-4.4-3.847-7.277-1.05-15.99-1.05-15.99-2.45-1.861-1.138-6.6a30.339,30.339,0,0,0,1.313-5.924s-.788-6.008-.263-7.445a18.817,18.817,0,0,0,.528-4.587l1.047-10.868.566-4.066c.952,3.117,2.548,5.176,5.049,3.426,5.776-4.062,1.488-17.347,1.488-17.347s-.744-2.857-1.265-5.247l.286-.761s-.175-2.958,1.313-3.975,0-22.93,0-22.93l-.495-13.288h0v-.394a12.312,12.312,0,0,0-6.371-10.35l-.357-.185c-.02-.121-.04-.242-.061-.37-.283-1.723-.6-3.8-.808-5.85-.023-.222-.044-.441-.064-.673a13.61,13.61,0,0,0,10.444-13.089,13.085,13.085,0,0,0-.491-3.557c-.024-.088-.05-.175-.077-.259.8-.8,1.457-1.033,1.518-.511.087.761.744-.212.788-.973s.219-.212.673-.212.525-.8-.175-1.225.131-.889.337-.973.219-.888,0-.888a.222.222,0,0,1-.077-.024h-.024a1.2,1.2,0,0,1-.111-.057h0l-.138-.087-.037-.024-.151-.108h0c-.4-.286-.862-.673-.862-.673l.219-.168c.219-.168-.263-.592-.673-.633h-.084c-.411-.064-1.067-.3-.65-.495.094-.044.135-.094.141-.148h0a.2.2,0,0,0-.074-.155h0a.881.881,0,0,0-.2-.141h0l-.125-.057h0l-.121-.04h0a.909.909,0,0,0-.131-.027h-.246a9.494,9.494,0,0,1-1.653-.586v-.889l-.737-.343h0l-.613-.269.219-.818h-1.925l.263-.72-.885-.172-.209-.04v-.337l-1.181-.464v-.508h-1.42l.545-.424h-1.094c-2.857-1.959-10.9-1.817-14.112-.747s-4.143,1.861-8.515,11.056c-2.8,5.877.774,11.575,3.911,14.755h0c.1.108.209.209.313.31l.044.044.279.266.027.024.3.273.034.027.262.229.037.03.283.232h0l.256.2.044.034a5.368,5.368,0,0,0,.488.337l.047.03.2.131h.017c.067.044.135.081.2.118l.04.024.151.081h.034l.158.071h.027l.111.04h.03a.847.847,0,0,0,.111.024h.118a.166.166,0,0,0,.061-.027,4.2,4.2,0,0,1,1.3-.417l.337.269c.162.131.337.256.5.377.04.246.074.495.1.754a13.547,13.547,0,0,1-.316,4.927c-.034.125-.071.249-.108.374a6.623,6.623,0,0,0-3.635,2.77,95.582,95.582,0,0,0-5.426,9.31s-.555,3.941-1.5,4.877,1.75,17.683,1.75,17.683-3.238,6.428-.337,7.573-.263,2.073-.263,2.073.875,1.945-.788,2.114-2.625,3.133-2.625,3.133l-5.16,5.584,1.3.444c-.111.175-.225.357-.337.562a21.257,21.257,0,0,0-2.615,15.819c2.45,10.154,3.15,12.352,3.063,14.136s2.8,8.8,2.1,10.407-1.091,7.192.111,8.633a1.4,1.4,0,0,1-.458,2.282s1.791,2.117.9,3.554,1.114,19.208,1.114,19.208,3.238,4.571,3.063,6.008-1.663,2.2-.337,2.793.788,1.437.788,1.437l.337.027c-.3.269-.586.552-.848.838a7.939,7.939,0,0,0-.717.9,4.2,4.2,0,0,0-.3.525c-1.178,2.592,1.959,4.571,1.959,4.571h1.07c3.046.121,11.655.337,15.714-.673l.074.047s15.4.828,18.457-1.289S161.711,448.625,158.474,448.255ZM142.705,449l-.111-.017-.175-.03h-.125l-.2-.03h-.081c-.145-.02-.289-.04-.431-.054a7.043,7.043,0,0,1-1.993-.613c-.444-.2-.9-.437-1.346-.693l.889-.02a6.245,6.245,0,0,0,.673-.024l.4-.02h0c1.01,0,2.457.135,2.837.818a3.509,3.509,0,0,0-.343.68Z" transform="translate(-95.951 -186.304)" fill="url(#linear-gradient-3)"/>
    <path id="Path_1772" data-name="Path 1772" d="M187.576,360.029c-.252,0-20.11,3.786-15.146-2.945a12.072,12.072,0,0,0,2.019-4.221,13.911,13.911,0,0,0,.3-4.9,17.28,17.28,0,0,0-1.649-5.688s16.408-3.618,13.8-.842c-1.138,1.212-1.107,4.911-.73,8.69.2,2.043.5,4.106.777,5.819C187.333,358.329,187.657,360.029,187.576,360.029Z" transform="translate(-132.491 -232.117)" fill="#ffccd0"/>
    <path id="Path_1773" data-name="Path 1773" d="M155,783.22s5.133,4.732,8.246,5.1,7.489,1.713,4.544,3.817-17.754,1.282-17.754,1.282-3.43-2.242-1.6-5.069S155,783.22,155,783.22Z" transform="translate(-116.747 -525.908)" fill="#3f3d56"/>
    <path id="Path_1774" data-name="Path 1774" d="M167.792,792.139a5.456,5.456,0,0,1-1.844.717c-4.931,1.174-15.91.565-15.91.565s-3.43-2.242-1.6-5.069S155,783.22,155,783.22s5.133,4.732,8.246,5.1l.441.057C166.752,788.817,170.6,790.133,167.792,792.139Z" transform="translate(-116.747 -525.908)" opacity="0.1"/>
    <path id="Path_1775" data-name="Path 1775" d="M198.491,802.31a5.455,5.455,0,0,1-1.844.717l-.337-.017s-2.952-1.925-1.915-4.459C197.451,798.988,201.3,800.3,198.491,802.31Z" transform="translate(-147.445 -536.078)" opacity="0.1"/>
    <path id="Path_1776" data-name="Path 1776" d="M203.253,781.5s5.133,4.712,8.246,5.1,7.489,1.717,4.544,3.82-17.754,1.279-17.754,1.279-3.43-2.238-1.6-5.048S203.253,781.5,203.253,781.5Z" transform="translate(-148.757 -524.766)" fill="#3f3d56"/>
    <path id="Path_1777" data-name="Path 1777" d="M203.253,781.5s5.133,4.712,8.246,5.1,7.489,1.717,4.544,3.82-17.754,1.279-17.754,1.279-3.43-2.238-1.6-5.048S203.253,781.5,203.253,781.5Z" transform="translate(-148.757 -524.766)" opacity="0.1"/>
    <path id="Path_1778" data-name="Path 1778" d="M148.945,623.736a9.647,9.647,0,0,1-4.244.868h-.03l-.367.02c-.215,0-.438.02-.673.023-4.924.158-11.275-.407-11.275-.407s.5-.841-.757-1.43.168-1.346.337-2.777S129,614.06,129,614.06s-1.935-17.67-1.074-19.1-.862-3.534-.862-3.534a1.416,1.416,0,0,0,.441-2.272c-1.158-1.43-.778-6.984-.1-8.583s-2.1-8.583-2.019-10.349-.589-3.955-2.945-14.052a21.751,21.751,0,0,1,2.514-15.745,15.951,15.951,0,0,1,1.272-1.925H142.3l.407,3.783.02.209c.135,1.276.3,2.82.485,4.594C145.454,568.431,150.9,622.319,148.945,623.736Z" transform="translate(-99.498 -363.553)" fill="#3f3d56"/>
    <path id="Path_1779" data-name="Path 1779" d="M158.58,631.6c-.73.528-2.507.787-4.641.888a11.315,11.315,0,0,0-1.683.023s-.252-.576-3.282-2.693,0-6.9,0-6.9l-3.15-12.874s-.791-3.437-.118-5.456a1.914,1.914,0,0,0-1.451-2.524s2.124-1.346,0-3.113-2.42-8.246-2.42-8.246-3.029-4.039-1.683-5.385-.841-4.544-.841-4.544-3.2-5.049-2.861-6.731,4.88-1.094,3.534-6.479,6.95,2.02,6.95,2.02l5.425-19.232C154.121,567,160.7,630.07,158.58,631.6Z" transform="translate(-109.134 -371.421)" opacity="0.1"/>
    <path id="Path_1780" data-name="Path 1780" d="M165.681,623.279S156.594,629,156,627.907c-.367-.673-1.743-.811-2.73-.814h-.03c-.586,0-1.027.044-1.027.044s-.252-.576-3.282-2.693,0-6.9,0-6.9l-3.15-12.874s-.8-3.436-.131-5.456a1.914,1.914,0,0,0-1.451-2.524s2.124-1.346,0-3.113-2.42-8.246-2.42-8.246-3.029-4.039-1.683-5.385-.841-4.544-.841-4.544-3.2-5.049-2.861-6.732,0-1.346-1.346-6.731c-1.01-4.059,1.6-13.183,2.955-17.431.441-1.39.747-2.258.747-2.258l12.524,2.521L163.83,547.3l.337,4.46-.094.707-1.683,12.453-1.01,10.807a19.145,19.145,0,0,1-.5,4.544c-.5,1.43.252,7.4.252,7.4a31.074,31.074,0,0,1-1.262,5.89c-1.262,4.712,1.094,6.563,1.094,6.563s1.515,13.042,1.01,15.9S165.681,623.279,165.681,623.279Z" transform="translate(-108.072 -366.04)" fill="#3f3d56"/>
    <path id="Path_1781" data-name="Path 1781" d="M171.63,690c1.262.212,7.781.337,6.058,1.137S171.63,690,171.63,690Z" transform="translate(-132.489 -464.063)" opacity="0.1"/>
    <path id="Path_1782" data-name="Path 1782" d="M169.5,700.594c.5-.044,2.82-1.053,3.45-.969a17.6,17.6,0,0,1,2.231,0c.757.178,2.174.673,1.38.973s-2.457.04-3.413.337S169.5,700.594,169.5,700.594Z" transform="translate(-131.076 -470.406)" opacity="0.1"/>
    <path id="Path_1783" data-name="Path 1783" d="M149,696.732c.337-.044,2.945-.717,2.736,0S149,696.732,149,696.732Z" transform="translate(-117.475 -468.311)" opacity="0.1"/>
    <path id="Path_1784" data-name="Path 1784" d="M136.63,634.63c.252.337,1.723,3.7,2.44,3.7S136.63,634.63,136.63,634.63Z" transform="translate(-109.269 -427.328)" opacity="0.1"/>
    <path id="Path_1785" data-name="Path 1785" d="M189.8,341.434c-1.138,1.212-1.107,4.911-.73,8.69a13.49,13.49,0,0,1-3.463.451c-2.985,0-3.221-3.766-5.452-5.405-.353-3.282-4.153-2.894-4.153-2.894S192.408,338.657,189.8,341.434Z" transform="translate(-135.388 -232.117)" opacity="0.1"/>
    <path id="Path_1786" data-name="Path 1786" d="M191.463,302.105a13.463,13.463,0,1,1-.471-3.537A13.463,13.463,0,0,1,191.463,302.105Z" transform="translate(-127.783 -197.784)" fill="#ffccd0"/>
    <path id="Path_1787" data-name="Path 1787" d="M187.576,383.818c-.252,0-20.11,3.786-15.146-2.945a12.073,12.073,0,0,0,2.019-4.221c4.015-1.282,8.936.855,8.936.855l2.272,1.683a7.813,7.813,0,0,1,1.309.542C187.333,382.118,187.657,383.818,187.576,383.818Z" transform="translate(-132.491 -255.906)" opacity="0.1"/>
    <path id="Path_1788" data-name="Path 1788" d="M161.608,549.3l-.094.707c-.535.182-3,.865-8.879-1.548-.946-.387-2.114-.845-3.409-1.346-4.177-1.6-9.723-3.611-13.776-5.048-1.942-.7-3.541-1.266-4.48-1.6a15.928,15.928,0,0,1,1.272-1.925h16.071l.407,3.783,12.551,2.514Z" transform="translate(-105.514 -363.579)" opacity="0.1"/>
    <path id="Path_1789" data-name="Path 1789" d="M154.587,378.509s-8.919-3.871-12.537,1.935a95.935,95.935,0,0,0-5.217,9.256s-.5,3.87-1.43,4.8,1.683,17.586,1.683,17.586-3.113,6.395-.337,7.529-.252,2.063-.252,2.063.841,1.935-.757,2.1-2.524,3.113-2.524,3.113l-4.964,5.553s16.212,5.722,22.58,8.33,8.72,1.6,8.973,1.515,4.123-10.686,4.123-10.686-.168-2.945,1.262-3.955,0-22.8,0-22.8l-.491-13.607a12.3,12.3,0,0,0-6.129-10.289,8.526,8.526,0,0,0-1.71-.757Z" transform="translate(-103.709 -256.571)" fill="#034aa6"/>
    <path id="Path_1790" data-name="Path 1790" d="M207.272,446.517l1.767,3.113s-14.136,4.039-14.691.168c-.084-.565,5.52-5.048,5.52-5.048Z" transform="translate(-147.56 -301.356)" fill="#6c63ff"/>
    <path id="Path_1791" data-name="Path 1791" d="M207.272,446.517l1.767,3.113s-14.136,4.039-14.691.168c-.084-.565,5.52-5.048,5.52-5.048Z" transform="translate(-147.56 -301.356)" opacity="0.1"/>
    <path id="Path_1792" data-name="Path 1792" d="M161.25,497.812s6.731-2.188,5.3-.421S161.25,497.812,161.25,497.812Z" transform="translate(-125.602 -335.823)" opacity="0.1"/>
    <path id="Path_1793" data-name="Path 1793" d="M184.07,501.46s3.443,4.3,4.268,2.693S184.07,501.46,184.07,501.46Z" transform="translate(-140.742 -338.979)" opacity="0.1"/>
    <path id="Path_1794" data-name="Path 1794" d="M190.991,298.589a8.71,8.71,0,0,0-1.185,1.5c-1.178,1.851-2.06,1.895-2.06,1.895s0,4.005-.545,4.423-3.662-1.774-3.7-2.319-3.847-6.479-5.5,1.05l-.31,6.1s-5.452.673-8.243,1.282a13.463,13.463,0,1,1,21.54-13.937Z" transform="translate(-127.782 -197.804)" opacity="0.1"/>
    <path id="Path_1795" data-name="Path 1795" d="M172.656,275.4h1.053l-.528.421h1.37v.5l1.134.461v.337l1.053.212-.252.714h1.851l-.212.811,1.262.579v.882a7.438,7.438,0,0,0,1.683.589c.421,0,1.117.38.673.589s.337.465.7.5.841.465.629.633l-.209.168a7.38,7.38,0,0,0,1.346.966c.212,0,.209.8,0,.885s-1.01.545-.337.966.589,1.222.168,1.222-.589-.549-.633.209-.673,1.727-.757.969-1.387.084-2.565,1.935-2.063,1.891-2.063,1.891,0,4.005-.545,4.423-3.662-1.77-3.7-2.319-3.847-6.479-5.5,1.053l-.306,6.1s-9.087,1.138-9.8,1.767-11.5-8.078-7.293-17.222,5.106-9.929,8.192-10.992S169.906,273.443,172.656,275.4Z" transform="translate(-118.076 -187.996)" fill="#3f3d56"/>
    <path id="Path_1796" data-name="Path 1796" d="M195.071,447.947s-.084,6.816-.673,8.5,4.039,17.418,4.039,17.418,3.7,8.3,3.029,10.854.252,18.932,5.806,14.893,1.43-17.249,1.43-17.249-1.767-7.358-1.767-8.263-1.851-14.54-1.851-14.54-1.43-4.459-1.01-7.152.589-7.657.589-7.657Z" transform="translate(-147.559 -301.356)" fill="#ffccd0"/>
    <path id="Path_1797" data-name="Path 1797" d="M199.137,416.25s-6.752,2.188-7.034,8.162,0,6.479,0,6.479,10.063-5.049,14.691-.168l-.475-13.21Z" transform="translate(-145.988 -282.448)" opacity="0.1"/>
    <path id="Path_1798" data-name="Path 1798" d="M201.137,416.25s-6.752,2.188-7.034,8.162,0,6.479,0,6.479,10.063-5.049,14.691-.168l-.475-13.21Z" transform="translate(-147.314 -282.448)" fill="#034aa6"/>
    <g id="Group_1435" data-name="Group 1435" transform="translate(36.576 87.82)" opacity="0.1">
      <path id="Path_1799" data-name="Path 1799" d="M242.174,294.73c-.151.188.475.39.811.427a.546.546,0,0,1,.1.024c.024-.205-.481-.444-.818-.444Z" transform="translate(-215.851 -289.648)"/>
      <path id="Path_1800" data-name="Path 1800" d="M235.5,289.978s.31.145.673.289v-.5l-.673-.31Z" transform="translate(-211.439 -286.152)"/>
      <path id="Path_1801" data-name="Path 1801" d="M246.052,298l-.172.138s.387.337.754.606l.128-.1c.212-.168-.252-.589-.629-.633Z" transform="translate(-218.325 -291.817)"/>
      <path id="Path_1802" data-name="Path 1802" d="M176.4,267.681l.757.343.125-.485h-.845Z" transform="translate(-153.601 -265.312)"/>
      <path id="Path_1803" data-name="Path 1803" d="M176.978,327.17l-.306,6.1s-9.087,1.138-9.8,1.767c-.222.2-1.43-.518-2.857-1.875,1.7,1.787,3.271,2.777,3.531,2.548.717-.629,9.8-1.767,9.8-1.767l.306-6.1c.966-4.416,2.693-4.2,3.931-3.164C180.344,323.222,178.143,321.91,176.978,327.17Z" transform="translate(-164.01 -308.659)"/>
      <path id="Path_1804" data-name="Path 1804" d="M231.143,304.5c-.673-.421.125-.882.337-.966s.209-.885,0-.885a1.563,1.563,0,0,1-.518-.306c0,.222-.044.471-.155.518-.212.084-1.01.545-.337.966s.589,1.222.168,1.222-.589-.549-.633.209-.673,1.727-.757.969-1.387.084-2.565,1.935-2.063,1.892-2.063,1.892,0,4.005-.545,4.423c-.38.286-1.976-.673-2.945-1.461.495.734,3.117,2.514,3.618,2.134s.545-4.423.545-4.423.885-.04,2.063-1.891,2.481-2.693,2.565-1.935.717-.212.757-.969.212-.209.633-.209S231.816,304.918,231.143,304.5Z" transform="translate(-201.905 -294.697)"/>
      <path id="Path_1805" data-name="Path 1805" d="M171.52,265.122h.912l.014-.04-.848-.172Z" transform="translate(-150.363 -263.567)"/>
      <path id="Path_1806" data-name="Path 1806" d="M167.259,261.024v-.1H167Z" transform="translate(-147.365 -260.92)"/>
    </g>
    <path id="Path_1807" data-name="Path 1807" d="M248.66,537.724s27.713-42.092,60.36-18.195,40.668,39.042,67.96,30.628,26.279-24.953,47.82-18.871,29-13.833,29-13.833" transform="translate(-183.593 -346.097)" fill="none" stroke="#1e49a0" stroke-miterlimit="10" stroke-width="4"/>
    <rect id="Rectangle_525" data-name="Rectangle 525" width="5.947" height="13.291" rx="2.974" transform="translate(270.111 162.2) rotate(23.32)" fill="#034aa6"/>
  </g>
</svg>
