<svg id="Group_1448" data-name="Group 1448" xmlns="http://www.w3.org/2000/svg" width="359.522" height="283.688" viewBox="0 0 359.522 283.688">
  <path id="Path_1959" data-name="Path 1959" d="M463.5,227.51a92.807,92.807,0,0,0-9.923-31.541c-11.029-21.582-27.743-37.684-45.811-49.217-.174-.113-.363-.22-.526-.33a19.606,19.606,0,0,0,4.169-7.973c5.558-22.263-31.926-50.324-83.7-62.67-41.548-9.9-79.678-6.675-96,6.49-38.065-2.341-77.777,20.557-104.167,55.825-9.433,12.623-17.414,27.533-20.915,44.39-4.259,20.415-1.712,42.386,4.263,62.088a149.026,149.026,0,0,0,19.787,41.564q.9,1.3,1.832,2.568,1.6,2.188,3.265,4.256A98.982,98.982,0,0,0,159.4,314.567a76.259,76.259,0,0,0,15.851,7.732,67.024,67.024,0,0,0,45.539,0,64.5,64.5,0,0,0,7.2-3.16q1.937-.99,3.831-2.128c2.434-1.461,4.825-3.093,7.2-4.788,3.291-2.355,6.53-4.838,9.836-7.157l.283-.2a70.148,70.148,0,0,1,11.907-7.012,33.334,33.334,0,0,1,8.584-2.543,30.95,30.95,0,0,1,13.108,1c.805.227,1.611.486,2.409.77a52.192,52.192,0,0,1,7.517,3.408c10.463,5.675,20.476,14.722,30.751,21.816,1.451,1.014,2.942,1.99,4.423,2.908,13.108,8.133,27.526,12.1,41.791,15.942,16.174,4.363,33.291,8.6,48.938,1.805,9.07-3.933,16.925-11.392,23.219-20.656a91.134,91.134,0,0,0,7.234-12.836q1.534-3.309,2.87-6.739c5.173-13.3,8.181-27.912,10.256-42.56C463.678,249.382,464.723,238.342,463.5,227.51Z" transform="translate(-104.515 -62.83)" fill="#034aa6" opacity="0.1"/>
  <g id="Group_1447" data-name="Group 1447" transform="translate(31.999 0)" opacity="0.1">
    <path id="Path_1960" data-name="Path 1960" d="M414.742,561.349c.113.325.23.639.365.946q3.612-2.83,7-5.844a6.773,6.773,0,0,0,3.177-2.922c.65-.613,1.3-1.242,1.936-1.866a9.5,9.5,0,0,0-.888-.873,6.94,6.94,0,0,0-12,3.959A12.576,12.576,0,0,0,414.742,561.349Z" transform="translate(-333.011 -366.63)" fill="#3f3d56"/>
    <path id="Path_1961" data-name="Path 1961" d="M403.743,528.11a12.586,12.586,0,0,0,3.59,5.533,7.51,7.51,0,0,0,7.279,1.877c.168-.058.329-.121.5-.186a6.774,6.774,0,0,0,3.178-2.922,9.451,9.451,0,0,0,1.048-2.739,13.1,13.1,0,0,0-4.018-12.133,6.94,6.94,0,0,0-12,3.959A12.578,12.578,0,0,0,403.743,528.11Z" transform="translate(-326.023 -345.523)" fill="#3f3d56"/>
    <ellipse id="Ellipse_186" data-name="Ellipse 186" cx="7.987" cy="10.456" rx="7.987" ry="10.456" transform="translate(70.417 160.536) rotate(-18.29)" fill="#3f3d56"/>
    <ellipse id="Ellipse_187" data-name="Ellipse 187" cx="7.987" cy="10.456" rx="7.987" ry="10.456" transform="translate(66.408 148.405) rotate(-18.29)" fill="#3f3d56"/>
    <ellipse id="Ellipse_188" data-name="Ellipse 188" cx="7.987" cy="10.456" rx="7.987" ry="10.456" transform="translate(62.398 136.273) rotate(-18.29)" fill="#3f3d56"/>
    <path id="Path_1962" data-name="Path 1962" d="M266.34,101.642A38.733,38.733,0,0,0,267.8,96.55l-21.008,3.316L268.4,92.9a38.348,38.348,0,0,0-8.824-29.01L235.621,88.45,255.8,60.035a38.257,38.257,0,1,0-46.555,60.481,38.215,38.215,0,0,0-1.954,7.995l30.314,4.887-30.639-.139A38.276,38.276,0,0,0,224.1,165.432a38.254,38.254,0,1,0,57.1-18.879,38.254,38.254,0,0,0-14.846-44.923Z" transform="translate(-192.129 -50.372)" fill="#034aa6"/>
    <path id="Path_1963" data-name="Path 1963" d="M237.97,304.078a38.1,38.1,0,0,0,15.2,19.886,38.254,38.254,0,1,0,57.118-18.893C313.1,297.281,236.633,299.984,237.97,304.078Z" transform="translate(-221.217 -208.89)" opacity="0.1"/>
  </g>
  <path id="Path_1964" data-name="Path 1964" d="M486.513,187.019a21.093,21.093,0,0,1-1.578-6c-1.928-12.118-3.733-25.2,1.5-36.183a12.86,12.86,0,0,1,3.287-4.587,23.4,23.4,0,0,1,5.314-2.677c5.259-2.367,9.5-6.614,14.12-10.139s10.2-6.464,15.869-5.566c2.922.464,5.625,1.925,8.459,2.841,8.006,2.593,17.246.9,24.437,5.4a33.9,33.9,0,0,1,6.8,6.238l9.288,10.226c2.516,2.768,5.08,5.606,6.6,9.076s1.844,7.746-.1,10.982c-.975,1.633-2.516,3.046-2.684,4.963-.183,2.082,1.329,3.871,1.881,5.88,1.461,5.307-3.9,9.861-8.784,11.958-14.766,6.318-31.011,5.592-46.643,5.332C512.649,194.561,493.226,200.671,486.513,187.019Z" transform="translate(-346.03 -95.651)" fill="#3f3d56"/>
  <path id="Path_1965" data-name="Path 1965" d="M542.716,342.474c-1.026,2.451-3.232,4.182-5.413,5.7s-4.507,2.973-7.133,3.1c4.627,5.949,10.957,10.325,17.144,14.609a38.17,38.17,0,0,0,9.09,5.1,49.488,49.488,0,0,0,9.383,1.717c4.017.552,8.017,1.4,12.052,1.235a27.174,27.174,0,0,0,18.838-9.317,34.986,34.986,0,0,0,8.24-19.587c-2.557-.04-4.916-1.461-6.98-3.009a24.627,24.627,0,0,1-6.519-6.771c-1.764-2.922-2.556-6.311-3.36-9.631-8.514-.256-17.027-.508-25.544-.343a40.234,40.234,0,0,0-9.233.95c-2.881.73-8.9,2.615-10.657,5.212-1.012,1.5,0,3.039.365,4.653A10.488,10.488,0,0,1,542.716,342.474Z" transform="translate(-376.011 -228.24)" fill="#be6f72"/>
  <path id="Path_1966" data-name="Path 1966" d="M542.716,342.474c-1.026,2.451-3.232,4.182-5.413,5.7s-4.507,2.973-7.133,3.1c4.627,5.949,10.957,10.325,17.144,14.609a38.17,38.17,0,0,0,9.09,5.1,49.488,49.488,0,0,0,9.383,1.717c4.017.552,8.017,1.4,12.052,1.235a27.174,27.174,0,0,0,18.838-9.317,34.986,34.986,0,0,0,8.24-19.587c-2.557-.04-4.916-1.461-6.98-3.009a24.627,24.627,0,0,1-6.519-6.771c-1.764-2.922-2.556-6.311-3.36-9.631-8.514-.256-17.027-.508-25.544-.343a40.234,40.234,0,0,0-9.233.95c-2.881.73-8.9,2.615-10.657,5.212-1.012,1.5,0,3.039.365,4.653A10.488,10.488,0,0,1,542.716,342.474Z" transform="translate(-376.011 -228.24)" opacity="0.1"/>
  <path id="Path_1967" data-name="Path 1967" d="M554.651,369.275c2.436,3.028,4.945,6.117,8.283,8.1a6.3,6.3,0,0,0,3.342,1.056c1.753-.073,3.2-1.322,4.489-2.52A246.6,246.6,0,0,0,589.026,357c1.8-2.078,3.652-4.244,6.118-5.453a371.284,371.284,0,0,1,1.738,60.547,2.189,2.189,0,0,1-.256,1.1,2.249,2.249,0,0,1-1.885.69c-20.617.774-42.059,1.4-60.941-6.939,1.311-3.89,1.1-8.1,1.223-12.2a95.481,95.481,0,0,1,2.991-19.923c.793-3.2,1.695-6.377,2.651-9.532.8-2.644,1.4-7.3,3.181-9.3C547.938,359.636,551.214,365,554.651,369.275Z" transform="translate(-378.277 -245.503)" fill="#e3e8f4"/>
  <path id="Path_1968" data-name="Path 1968" d="M501.2,376.54h2.557L510.33,387.5l-6.939,17.166-8.4-16.8Z" transform="translate(-315.455 -243.321)" fill="#3f3d56"/>
  <path id="Path_1969" data-name="Path 1969" d="M439.366,383.047a30.679,30.679,0,0,1-4.814-11.519,24.755,24.755,0,0,0-.895-3.933,21.871,21.871,0,0,0-3.181-5.062,44.886,44.886,0,0,1-8.2-20.35c-.453-3.338-.756-7.162-3.451-9.182-1.695-1.267-3.952-1.461-6.07-1.424a34.193,34.193,0,0,0-22.111,8.849,36.558,36.558,0,0,1-3.2,2.82,20.5,20.5,0,0,1-3.652,1.987,33.314,33.314,0,0,1-10.142,3.042,11.119,11.119,0,0,0-2.674.442,10.381,10.381,0,0,0-2.8,1.826,25.88,25.88,0,0,1-9.565,4.616,192.577,192.577,0,0,0-11.322,35.321c-.661,3.013-1.253,6.048-2.155,9-1.245,4.091-3.079,7.991-4.3,12.089-4.865,16.307.245,34.072-3.031,50.766l175.7.241c-2.761-4.284-1.768-9.726-2.005-14.817-.223-4.69-1.413-9.273-2.239-13.9a148.735,148.735,0,0,1-1.877-23.466c-.058-3.316-.062-6.742,1.22-9.8,2.407-5.738,8.652-8.765,14.565-10.712,2.827-.928,5.8-1.775,8.035-3.758,2.29-2.049,3.481-5.058,4.211-8.035a72.757,72.757,0,0,0-15.7-21.23,61.023,61.023,0,0,1-7.158-6.812c-1.264-1.567-2.312-3.312-3.707-4.748-3.492-3.627-8.765-4.993-13.791-5.193a22.045,22.045,0,0,1-4.631-.42c-4.317-1.1-7.067-5.314-10.957-7.5a12.892,12.892,0,0,0-8.9-1.366c-2.191.457-4.434,1.757-4.927,3.919a11.576,11.576,0,0,0,.19,3.711c.395,3.809-1.187,7.542-3.1,10.858C455.841,361.148,444.6,370.384,439.366,383.047Z" transform="translate(-253.844 -233.492)" fill="#034aa6"/>
  <path id="Path_1970" data-name="Path 1970" d="M592.773,210.254a36.888,36.888,0,1,1-17.118-31.15A36.886,36.886,0,0,1,592.773,210.254Z" transform="translate(-368.88 -130.136)" fill="#be6f72"/>
  <path id="Path_1971" data-name="Path 1971" d="M497.606,696.465V679.38H176.66q.9,1.337,1.831,2.644a11.492,11.492,0,0,0,1.9,3.064,11.054,11.054,0,0,0,1.377,1.333,100.059,100.059,0,0,0,23.6,22.249,75.276,75.276,0,0,0,15.838,7.962H487.517Z" transform="translate(-150.311 -457.881)" fill="#3f3d56"/>
  <path id="Path_1972" data-name="Path 1972" d="M571.344,620.053c-4.956-.395-10.109-1.629-14.777.08a21.415,21.415,0,0,0-4.5,2.454,80.711,80.711,0,0,0-13.842,11.753,16.376,16.376,0,0,0-3.115,4.211c-1.041,2.246-1.132,4.806-1.826,7.184-.4,1.362-1,2.743-.763,4.142s1.855,2.651,3.064,1.906h0a2.681,2.681,0,0,0,2.743,3.09,9.05,9.05,0,0,0,5.113-1.8h0a1.731,1.731,0,0,0,1.826,1.545c3.167-.208,6.183-1.826,8.893-3.594,3.181-2.06,6.341-4.4,10.066-5.113a16.324,16.324,0,0,0-5.9,4.562,2.246,2.246,0,0,0-.507,2.783,3.246,3.246,0,0,0,1.746,1.377c4.171,1.461,8.7-.957,11.486-4.31,1.121-1.355,2.111-2.922,3.652-3.744,2.48-1.333,5.537-.4,8.327-.785,3.1-.423,5.7-2.443,8.547-3.747,3.787-1.731,8.009-2.191,12.052-3.221a2.192,2.192,0,0,0,1.271-.657,2.268,2.268,0,0,0,.31-1.4,104.457,104.457,0,0,0-1.129-14.945,5.205,5.205,0,0,0-.712-2.257c-.8-1.132-2.308-1.461-3.67-1.687-2.191-.365-4.649-1.183-6.855-1.176-2.118,0-4.16,1.2-6.18,1.786a42.859,42.859,0,0,1-15.325,1.567Z" transform="translate(-377.468 -416.577)" fill="#be6f72"/>
  <path id="Path_1973" data-name="Path 1973" d="M676.614,607.6a25.931,25.931,0,0,0-14.7,6.574c4.554-1.15,9.456-2.286,13.846-.621a11.548,11.548,0,0,1,.606,21.344,7.177,7.177,0,0,0,3.488,1.863c9.368,2.732,19.4,1.1,28.977-.767,1.753-.34,3.652-.789,4.722-2.232.953-1.3.924-3.06.84-4.679-.245-4.671-.65-9.5-2.768-13.656-2.871-5.646-7.856-7.75-13.86-7.1C690.7,609.08,683.685,606.881,676.614,607.6Z" transform="translate(-459.916 -410.405)" fill="#e3e8f4"/>
  <path id="Path_1974" data-name="Path 1974" d="M790.232,441.82a40.56,40.56,0,0,1,7.217,10.186,168.83,168.83,0,0,1,15.493,39.349,11.419,11.419,0,0,0,1.486,3.868c1.169,1.647,3.152,2.557,4.427,4.112a8.35,8.35,0,0,1,1.322,6.939,23.287,23.287,0,0,1-2.922,6.662c-3.327,5.763-7.253,11.713-13.363,14.346a30.533,30.533,0,0,1-8.115,1.91,159.288,159.288,0,0,1-31.329,1.012c1.826-2.118,2-5.245,1.355-7.965s-1.994-5.216-2.922-7.849c-.731-2.056-1.245-4.248-2.527-6.015a12.264,12.264,0,0,0-3.433-3.02,24.863,24.863,0,0,0-9.92-3.638c2.619-2.045,6.011-2.725,9.2-3.652s6.53-2.352,8.2-5.223a13.041,13.041,0,0,0,1.417-5.749,48.738,48.738,0,0,0-2.06-17.706c-1.176-3.809-2.841-7.79-1.826-11.64a17.363,17.363,0,0,1,2.827-5.288c2.228-3.214,4.536-6.5,7.787-8.674a19.412,19.412,0,0,1,9.477-2.988C784.531,440.633,788.333,440.027,790.232,441.82Z" transform="translate(-514.751 -303.866)" fill="#034aa6"/>
  <path id="Path_1975" data-name="Path 1975" d="M428.022,735.38c-.029,3.813-10.4,8.035-22.4,8.035s-22.012-4.211-22.173-8.035c-.559-13.262,10.172-5.8,22.173-5.8S428.132,720.114,428.022,735.38Z" transform="translate(-282.336 -487.906)" fill="#3f3d56"/>
  <path id="Path_1976" data-name="Path 1976" d="M428.022,735.38c-.029,3.813-10.4,8.035-22.4,8.035s-22.012-4.211-22.173-8.035c-.559-13.262,10.172-5.8,22.173-5.8S428.132,720.114,428.022,735.38Z" transform="translate(-282.336 -487.906)" opacity="0.2"/>
  <path id="Path_1977" data-name="Path 1977" d="M428.165,724.563c0,3.816-9.73,8.035-21.727,8.035s-21.727-4.207-21.727-8.035,9.726-5.793,21.727-5.793S428.165,720.75,428.165,724.563Z" transform="translate(-283.148 -482.885)" fill="#3f3d56"/>
  <path id="Path_1978" data-name="Path 1978" d="M428.165,724.563c0,3.816-9.73,8.035-21.727,8.035s-21.727-4.207-21.727-8.035,9.726-5.793,21.727-5.793S428.165,720.75,428.165,724.563Z" transform="translate(-283.148 -482.885)" fill="#fff" opacity="0.1"/>
  <path id="Path_1979" data-name="Path 1979" d="M431.638,718.717c-.022,2.977-8.108,6.256-17.469,6.256s-17.166-3.287-17.3-6.256c-.435-10.343,7.936-4.521,17.3-4.521S431.725,706.811,431.638,718.717Z" transform="translate(-290.87 -478.544)" fill="#3f3d56"/>
  <path id="Path_1980" data-name="Path 1980" d="M431.638,718.717c-.022,2.977-8.108,6.256-17.469,6.256s-17.166-3.287-17.3-6.256c-.435-10.343,7.936-4.521,17.3-4.521S431.725,706.811,431.638,718.717Z" transform="translate(-290.87 -478.544)" opacity="0.2"/>
  <path id="Path_1981" data-name="Path 1981" d="M431.747,707.348c0,3.327-7.586,6.994-16.946,6.994s-16.95-3.652-16.95-6.994,7.589-5.047,16.95-5.047S431.747,704.017,431.747,707.348Z" transform="translate(-291.501 -472.43)" fill="#3f3d56"/>
  <path id="Path_1982" data-name="Path 1982" d="M431.747,707.348c0,3.327-7.586,6.994-16.946,6.994s-16.95-3.652-16.95-6.994,7.589-5.047,16.95-5.047S431.747,704.017,431.747,707.348Z" transform="translate(-291.501 -472.43)" fill="#fff" opacity="0.1"/>
  <path id="Path_1983" data-name="Path 1983" d="M302.244,745.956s3.207-3.535,3.758-7.509-15.668-10.077-15.668-10.077-5.625,3.287-5.814,6.366C284.52,734.736,295.287,746.306,302.244,745.956Z" transform="translate(-219.242 -488.979)" fill="#3f3d56"/>
  <path id="Path_1984" data-name="Path 1984" d="M302.244,745.956s3.207-3.535,3.758-7.509-15.668-10.077-15.668-10.077-5.625,3.287-5.814,6.366C284.52,734.736,295.287,746.306,302.244,745.956Z" transform="translate(-219.242 -488.979)" opacity="0.2"/>
  <ellipse id="Ellipse_189" data-name="Ellipse 189" cx="3.528" cy="10.511" rx="3.528" ry="10.511" transform="translate(63.032 249.345) rotate(-59.03)" fill="#3f3d56"/>
  <ellipse id="Ellipse_190" data-name="Ellipse 190" cx="3.528" cy="10.511" rx="3.528" ry="10.511" transform="translate(63.032 249.345) rotate(-59.03)" fill="#fff" opacity="0.1"/>
  <path id="Path_1985" data-name="Path 1985" d="M211.316,659.329l9.226-15.38-9.383-7.969-7.315-1.37-2.283,4.116L195.14,650.64Z" transform="translate(-124.373 -411.077)" fill="#3f3d56"/>
  <path id="Path_1986" data-name="Path 1986" d="M211.316,659.329l9.226-15.38-9.383-7.969-7.315-1.37-2.283,4.116L195.14,650.64Z" transform="translate(-124.373 -411.077)" fill="#fff" opacity="0.1"/>
  <path id="Path_1987" data-name="Path 1987" d="M339.948,679.957s6.231-6.621,4.631-10.2S334.532,659,329.152,660.1s-6.242,9.025-6.242,9.025Z" transform="translate(-243.71 -444.077)" fill="#3f3d56"/>
  <path id="Path_1988" data-name="Path 1988" d="M339.948,679.957s6.231-6.621,4.631-10.2S334.532,659,329.152,660.1s-6.242,9.025-6.242,9.025Z" transform="translate(-243.71 -444.077)" opacity="0.2"/>
  <path id="Path_1989" data-name="Path 1989" d="M171.415,621.6l47.724,29.028s4.536-.588,4.043-6.662L175.915,614.62a4.889,4.889,0,0,0-3.225-.694c-1.293.175-2.823.646-3.32,1.877a4.161,4.161,0,0,0-.263.975A4.817,4.817,0,0,0,171.415,621.6Z" transform="translate(-145.486 -414.713)" fill="#3f3d56"/>
  <path id="Path_1990" data-name="Path 1990" d="M171.415,621.6l47.724,29.028s4.536-.588,4.043-6.662L175.915,614.62a4.889,4.889,0,0,0-3.225-.694c-1.293.175-2.823.646-3.32,1.877a4.161,4.161,0,0,0-.263.975A4.817,4.817,0,0,0,171.415,621.6Z" transform="translate(-145.486 -414.713)" opacity="0.2"/>
  <path id="Path_1991" data-name="Path 1991" d="M315.171,738.069a1.172,1.172,0,0,0,1.07-.884,2.771,2.771,0,0,0-.643-2.268,12.179,12.179,0,0,0-2.958-3.024,38.276,38.276,0,0,0-6.026-4.018,18.43,18.43,0,0,0-3.974-1.253,13.526,13.526,0,0,0-3.126-.343.92.92,0,0,0-.566,1.625h0a4.634,4.634,0,0,0,1.6.672,29.419,29.419,0,0,1,7.944,3.934,24.917,24.917,0,0,1,3.714,2.922C312.965,736.185,313.937,738.1,315.171,738.069Z" transform="translate(-228.222 -487.652)" fill="#3f3d56"/>
  <path id="Path_1992" data-name="Path 1992" d="M315.171,738.069a1.172,1.172,0,0,0,1.07-.884,2.771,2.771,0,0,0-.643-2.268,12.179,12.179,0,0,0-2.958-3.024,38.276,38.276,0,0,0-6.026-4.018,18.43,18.43,0,0,0-3.974-1.253,13.526,13.526,0,0,0-3.126-.343.92.92,0,0,0-.566,1.625h0a4.634,4.634,0,0,0,1.6.672,29.419,29.419,0,0,1,7.944,3.934,24.917,24.917,0,0,1,3.714,2.922C312.965,736.185,313.937,738.1,315.171,738.069Z" transform="translate(-228.222 -487.652)" opacity="0.2"/>
  <path id="Path_1993" data-name="Path 1993" d="M337.111,695.176s4.682.113.807-4.594-10.807-9.379-15.741-8.323c0,0-2.045,1.695-.278,1.987,1.676.278,9.5,1.826,13.09,6.183a9.326,9.326,0,0,0,1.311,1.293C337.144,692.408,338.28,693.708,337.111,695.176Z" transform="translate(-242.602 -458.192)" fill="#3f3d56"/>
  <path id="Path_1994" data-name="Path 1994" d="M337.111,695.176s4.682.113.807-4.594-10.807-9.379-15.741-8.323c0,0-2.045,1.695-.278,1.987,1.676.278,9.5,1.826,13.09,6.183a9.326,9.326,0,0,0,1.311,1.293C337.144,692.408,338.28,693.708,337.111,695.176Z" transform="translate(-242.602 -458.192)" opacity="0.2"/>
  <ellipse id="Ellipse_191" data-name="Ellipse 191" cx="3.528" cy="10.511" rx="3.528" ry="10.511" transform="translate(82.27 219.057) rotate(-59.03)" fill="#3f3d56"/>
  <ellipse id="Ellipse_192" data-name="Ellipse 192" cx="3.528" cy="10.511" rx="3.528" ry="10.511" transform="translate(82.27 219.057) rotate(-59.03)" fill="#fff" opacity="0.1"/>
  <path id="Path_1995" data-name="Path 1995" d="M223.168,644.775a5.223,5.223,0,0,1-2.608,4.142,5.314,5.314,0,0,1-7.045-2.385,12.573,12.573,0,0,1-.731-4.24,13.879,13.879,0,0,0-.19-1.41c-.365-1.881-1.921-3.879-3.8-3.506-1.552.3-2.37,2.045-2.557,3.616a11.9,11.9,0,0,0-.073,1.3c0,.453.018.906.044,1.359.051.928.131,1.859.128,2.787a6.807,6.807,0,0,1-1.713,5.018c-1.6,1.523-4.054,1.592-6.267,1.567-5.4-.055-11.413-.365-15.478-3.689A11.094,11.094,0,0,1,181.489,648a11.486,11.486,0,0,1-1.91-3.064,14.168,14.168,0,0,1-.829-2.644,23.546,23.546,0,0,1,.026-8.787c.321-1.877.942-3.934,2.316-5.132a4.169,4.169,0,0,1,1.1-.69,8.586,8.586,0,0,0,1.976-.8c.573-.435.946-1.223,1.552-1.7,1.216-.953,3.064-.544,4.489-.865h.062l.077-.022a28.19,28.19,0,0,0,4.408-1.826c.625-.267,1.249-.522,1.877-.749a10.8,10.8,0,0,1,4.931-.731,28.278,28.278,0,0,1,15.8,7.936,9.231,9.231,0,0,1,2.111,3.236,11.992,11.992,0,0,1,.5,3.138,9.551,9.551,0,0,0,.924,4.28c.453.774,1.118,1.406,1.589,2.191a4.154,4.154,0,0,1,.285.552A5.015,5.015,0,0,1,223.168,644.775Z" transform="translate(-151.381 -419.162)" fill="#be6f72"/>
  <path id="Path_1996" data-name="Path 1996" d="M242.27,621.577a23.574,23.574,0,0,1,6.18,4.255A10.408,10.408,0,0,1,251.6,632.5a31.491,31.491,0,0,0,3.919-6.03c.847-1.7,1.545-3.707.793-5.453a6.076,6.076,0,0,0-1.486-1.936,22.751,22.751,0,0,0-12.177-5.537c-4.832-.763-14.485-2.429-15.226,4.605A28.12,28.12,0,0,1,242.27,621.577Z" transform="translate(-182.532 -413.603)" fill="#e3e8f4"/>
  <path id="Path_1997" data-name="Path 1997" d="M291.525,390.56c-3.576,1.545-7.761.453-11.541,1.388-2.79.69-5.19,2.44-7.454,4.211-4.514,3.528-8.963,7.472-11.377,12.67-.789,1.7-1.351,3.51-2.3,5.113a19.547,19.547,0,0,1-6.519,6.209c-6.5,4.193-14.058,6.815-19.846,11.95a45.278,45.278,0,0,0-6.5,7.469c-2.279,3.141-4.459,6.647-4.5,10.526a23.144,23.144,0,0,1,0,4.555c-.643,3.342-4.017,5.416-5.541,8.462-1.461,2.9-1.114,6.49-2.739,9.3-1.066,1.826-3,3.652-2.389,5.668a18.992,18.992,0,0,1,15.339-3.652,27.662,27.662,0,0,1,7.757,3.108,25.273,25.273,0,0,1,7.706,5.844c2.056,2.52,3.287,5.873,2.557,9.032,2.962-1.461,4.715-4.58,5.931-7.648s2.144-6.344,4.164-8.941a33.361,33.361,0,0,1,3.565-3.619c6.833-6.475,11.76-14.656,16.6-22.732q7.48-12.483,14.952-24.981a51.024,51.024,0,0,0,3.766-7.136C296.5,408.949,294.33,399.139,291.525,390.56Z" transform="translate(-171.919 -271.695)" fill="#034aa6"/>
  <ellipse id="Ellipse_193" data-name="Ellipse 193" cx="20.821" cy="4.003" rx="20.821" ry="4.003" transform="translate(305.009 221.201)" fill="#034aa6"/>
  <ellipse id="Ellipse_194" data-name="Ellipse 194" cx="2.425" cy="3.174" rx="2.425" ry="3.174" transform="translate(323.055 220.395)" fill="#3f3d56"/>
  <ellipse id="Ellipse_195" data-name="Ellipse 195" cx="2.425" cy="3.174" rx="2.425" ry="3.174" transform="translate(323.055 216.624)" fill="#3f3d56"/>
  <ellipse id="Ellipse_196" data-name="Ellipse 196" cx="2.425" cy="3.174" rx="2.425" ry="3.174" transform="translate(323.055 212.857)" fill="#3f3d56"/>
  <ellipse id="Ellipse_197" data-name="Ellipse 197" cx="2.425" cy="3.174" rx="2.425" ry="3.174" transform="translate(323.055 209.091)" fill="#3f3d56"/>
  <ellipse id="Ellipse_198" data-name="Ellipse 198" cx="2.425" cy="3.174" rx="2.425" ry="3.174" transform="translate(323.055 205.324)" fill="#3f3d56"/>
  <ellipse id="Ellipse_199" data-name="Ellipse 199" cx="2.425" cy="3.174" rx="2.425" ry="3.174" transform="translate(323.055 201.557)" fill="#3f3d56"/>
  <ellipse id="Ellipse_200" data-name="Ellipse 200" cx="2.425" cy="3.174" rx="2.425" ry="3.174" transform="translate(323.055 197.79)" fill="#3f3d56"/>
  <path id="Path_1998" data-name="Path 1998" d="M991.069,511.327a11.773,11.773,0,0,0,.9-1.326l-6.37-1.048,6.888.051a11.635,11.635,0,0,0,.223-9.2l-9.244,4.8,8.524-6.267a11.614,11.614,0,1,0-19.182,12.995,11.813,11.813,0,0,0-1.322,2.118l8.269,4.3-8.824-2.962a11.621,11.621,0,0,0,1.87,10.906,11.614,11.614,0,1,0,18.261,0,11.622,11.622,0,0,0,0-14.361Z" transform="translate(-656.509 -336.581)" fill="#034aa6"/>
  <path id="Path_1999" data-name="Path 1999" d="M970.34,563.363a11.565,11.565,0,0,0,2.483,7.18,11.614,11.614,0,1,0,18.261,0C992.637,568.567,970.34,562.059,970.34,563.363Z" transform="translate(-656.522 -381.697)" opacity="0.1"/>
  <path id="Path_2000" data-name="Path 2000" d="M535.213,182.028c2.556.986,5.051,2.4,7.794,2.589,3.481.234,6.768-1.541,10.226-2.031,6.337-.895,12.352,2.557,18.3,4.9s13.623,3.316,17.987-1.362c3.707-3.977,3.2-10.592.216-15.12s-7.849-7.458-12.662-9.982c-5.31-2.783-10.847-5.314-16.76-6.3-12.549-2.078-25.3,3.112-35.712,10.42-3.455,2.425-6.87,5.256-8.521,9.131a10.443,10.443,0,0,0-.413,7.279c1.337,3.754,2.213,3.309,4.985,2.33C525.954,182.024,529.084,179.683,535.213,182.028Z" transform="translate(-366.471 -116.321)" fill="#3f3d56"/>
</svg>
