<svg xmlns="http://www.w3.org/2000/svg" width="469" height="100" viewBox="0 0 469 100">
  <g id="Group_1407" data-name="Group 1407" transform="translate(-140 -101)">
    <g id="Group_1329" data-name="Group 1329" transform="translate(-100 -748.363)">
      <g id="Group_1285" data-name="Group 1285" transform="translate(-487 242.364)">
        <text id="_06._Summary" data-name="06. Summary" transform="translate(847 682)" fill="#fff" font-size="72" font-family="Lato-Bold, Lato" font-weight="700"><tspan x="0" y="0">06.</tspan><tspan y="0" xml:space="preserve" font-size="56"> Summary</tspan></text>
        <rect id="Rectangle_1144" data-name="Rectangle 1144" width="90" height="10" transform="translate(847 693)" fill="#fff"/>
      </g>
    </g>
    <g id="Group_1366" data-name="Group 1366" transform="translate(-1107 -724)">
      <circle id="Ellipse_82" data-name="Ellipse 82" cx="50" cy="50" r="50" transform="translate(1247 825)" fill="#144cdf"/>
      <path id="Path_1236" data-name="Path 1236" d="M0,63.584a6.385,6.385,0,0,0,6.53,6.183H44.861a6.409,6.409,0,0,0,6.39-5.147,6.29,6.29,0,0,0,5.436-6.1V30.664H59.8a1.115,1.115,0,0,0,.614-.17l5.7-3.7a1.121,1.121,0,0,0,0-1.882l-5.7-3.739a1.157,1.157,0,0,0-.614-.213H56.686V14.82a1.393,1.393,0,0,0-.5-.969L43.213.635a1.128,1.128,0,0,0-.264-.269L42.914.333a1.122,1.122,0,0,0-.8-.333H11.871A6.435,6.435,0,0,0,5.459,5.147,6.311,6.311,0,0,0,0,11.251ZM19.13,28.413v-5.2H58.655v5.2Zm41.776-.925V24.221l2.51,1.634ZM43.464,4.053,52.8,13.644H44.968a1.47,1.47,0,0,1-1.5-1.441ZM11.871,2.25H41.213V12.2a3.722,3.722,0,0,0,3.754,3.692h9.468v5.064H18.06a1.23,1.23,0,0,0-1.181,1.188v.144l-3.349-.066h-.01a1.156,1.156,0,0,0-1.125,1.16l.035,4.9A1.125,1.125,0,0,0,13.556,29.4h3.324v.165a1.154,1.154,0,0,0,1.181,1.1h2.377l-.015,1.688a2.476,2.476,0,0,0,.672,1.734,2.083,2.083,0,0,0,1.458.657H36.215a1.125,1.125,0,1,0,0-2.251H22.678c0-.141,0-.07,0-.087l.016-1.741H54.435V58.516A4.1,4.1,0,0,1,50.2,62.453H11.871A4.136,4.136,0,0,1,7.6,58.516V6.361c0-.057.037-.115.037-.175a1.073,1.073,0,0,0,0-.146A4.119,4.119,0,0,1,11.871,2.25Zm5.008,24.9H14.673l-.048-2.632,2.254.026ZM2.251,11.251A4.111,4.111,0,0,1,5.345,7.458V58.516A6.386,6.386,0,0,0,11.871,64.7H48.917a4.129,4.129,0,0,1-4.056,2.813H6.53a4.136,4.136,0,0,1-4.279-3.932Zm0,0" transform="translate(1270.41 839.897)" fill="#fff"/>
    </g>
  </g>
</svg>
