<svg xmlns="http://www.w3.org/2000/svg" width="538" height="101" viewBox="0 0 538 101">
  <g id="Group_1384" data-name="Group 1384" transform="translate(0 -11158)">
    <g id="Group_1383" data-name="Group 1383">
      <circle id="Ellipse_82" data-name="Ellipse 82" cx="50.5" cy="50.5" r="50.5" transform="translate(0 11158)" fill="#144cdf"/>
      <g id="prototyping" transform="translate(15.966 11173.716)">
        <path id="Path_1219" data-name="Path 1219" d="M65.612,218.943h6.9a1.016,1.016,0,1,0,0-2.031h-6.9a1.016,1.016,0,0,0,0,2.031Z" transform="translate(-55.854 -187.541)" fill="#fff"/>
        <path id="Path_1220" data-name="Path 1220" d="M68.334,28.773a1.015,1.015,0,0,0,1.016-1.016V5.078A5.083,5.083,0,0,0,64.272,0H55.141a1.016,1.016,0,0,0,0,2.031h9.131a3.05,3.05,0,0,1,3.047,3.047V7.743h-22.2V5.078a3.05,3.05,0,0,1,3.047-3.047H50.4A1.016,1.016,0,1,0,50.4,0H48.168A5.083,5.083,0,0,0,43.09,5.078V20.446H41.4a7.794,7.794,0,0,0-7.786,7.786V40.689a5.761,5.761,0,0,1-5.755,5.755H26.562V30.8a5.083,5.083,0,0,0-5.078-5.078H5.11A5.083,5.083,0,0,0,.032,30.8V64.249A5.083,5.083,0,0,0,5.11,69.326h.745a1.016,1.016,0,0,0,0-2.031H5.11a3.05,3.05,0,0,1-3.047-3.047V62.578H24.531v1.671A3.05,3.05,0,0,1,21.485,67.3H10.593a1.016,1.016,0,0,0,0,2.031H21.485a5.083,5.083,0,0,0,5.078-5.078V48.474h1.295a7.794,7.794,0,0,0,7.786-7.786V28.231A5.761,5.761,0,0,1,41.4,22.477H43.09V38.793a5.083,5.083,0,0,0,5.078,5.078h16.1a5.083,5.083,0,0,0,5.078-5.078V32.5a1.016,1.016,0,1,0-2.031,0v2.551h-22.2V22.477H53.7L51.85,24.331a1.016,1.016,0,0,0,1.436,1.436l3.588-3.588a1.023,1.023,0,0,0,0-1.436l-3.588-3.588a1.016,1.016,0,0,0-1.436,1.436L53.7,20.446H45.121V9.774h22.2V27.758A1.015,1.015,0,0,0,68.334,28.773ZM5.11,27.758H21.485A3.05,3.05,0,0,1,24.531,30.8v2.615H2.063V30.8A3.05,3.05,0,0,1,5.11,27.758ZM24.531,60.547H2.063V35.45H24.531V46.443H19.2a3.187,3.187,0,0,0-3.125-2.586h-.339a1.016,1.016,0,0,0,0,2.031h.339a1.152,1.152,0,0,1,1.151,1.151v.839a1.152,1.152,0,0,1-1.151,1.151H10.39a1.152,1.152,0,0,1-1.151-1.151v-.839a1.152,1.152,0,0,1,1.151-1.151h.653a1.016,1.016,0,0,0,0-2.031H10.39a3.186,3.186,0,0,0-3.182,3.182v.839A3.186,3.186,0,0,0,10.39,51.06h5.687A3.187,3.187,0,0,0,19.2,48.474h5.329ZM67.319,37.078v1.714a3.05,3.05,0,0,1-3.047,3.047h-16.1a3.05,3.05,0,0,1-3.047-3.047V37.078Z" transform="translate(-0.032 0)" fill="#fff"/>
        <path id="Path_1221" data-name="Path 1221" d="M382.9,29.119h6.82a1.016,1.016,0,1,0,0-2.031H382.9a1.016,1.016,0,0,0,0,2.031Z" transform="translate(-330.179 -23.42)" fill="#fff"/>
      </g>
    </g>
    <text id="_04._Prototyping" data-name="04. Prototyping" transform="translate(121 11234)" fill="#fff" font-size="72" font-family="Lato-Bold, Lato" font-weight="700"><tspan x="0" y="0">04. </tspan><tspan y="0" font-size="56">Prototyping</tspan></text>
    <rect id="Rectangle_1143" data-name="Rectangle 1143" width="90" height="10" transform="translate(121 11245)" fill="#fff"/>
  </g>
</svg>
