<svg xmlns="http://www.w3.org/2000/svg" width="464" height="101" viewBox="0 0 464 101">
  <g id="Group_1399" data-name="Group 1399" transform="translate(-140 -1925)">
    <g id="Group_1287" data-name="Group 1287" transform="translate(-127 1792)">
      <text id="_01._Research" data-name="01. Research" transform="translate(388 209)" fill="#fff" font-size="72" font-family="Lato-Bold, Lato" font-weight="700"><tspan x="0" y="0">01.</tspan><tspan y="0" xml:space="preserve" font-size="56"> Research</tspan></text>
      <rect id="Rectangle_1140" data-name="Rectangle 1140" width="90" height="10" transform="translate(388 220)" fill="#fff"/>
    </g>
    <g id="Group_1317" data-name="Group 1317" transform="translate(-60 1658)">
      <circle id="Ellipse_82" data-name="Ellipse 82" cx="50.5" cy="50.5" r="50.5" transform="translate(200 267)" fill="#144cdf"/>
      <g id="XMLID_34_" transform="translate(216.178 283.515)">
        <g id="XMLID_1873_" transform="translate(0 0)">
          <path id="XMLID_1877_" d="M213.357,52.349a17.706,17.706,0,1,0,17.706,17.706A17.726,17.726,0,0,0,213.357,52.349Zm0,2.683a15.023,15.023,0,1,1-15.023,15.023A15.04,15.04,0,0,1,213.357,55.032Z" transform="translate(-169.408 -45.327)" fill="#fff"/>
          <path id="XMLID_1878_" d="M280.52,101.544a1.341,1.341,0,1,1-1.9,1.9,8.878,8.878,0,0,0-12.556,0,1.341,1.341,0,0,1-1.9-1.9,11.56,11.56,0,0,1,16.35,0Z" transform="translate(-228.396 -84.992)" fill="#fff"/>
          <path id="XMLID_1881_" d="M0,68A5.669,5.669,0,0,0,9.677,72L25.8,55.886a4.811,4.811,0,0,0,5.8-.764l2.661-2.661A24.73,24.73,0,1,0,50.277,5.8,1.341,1.341,0,0,0,49.592,8.4a22.045,22.045,0,1,1-11.287,0,1.341,1.341,0,1,0-.685-2.594A24.731,24.731,0,0,0,21.2,39.412l-2.661,2.661a4.811,4.811,0,0,0-.764,5.8L1.66,63.987A5.632,5.632,0,0,0,0,68Zm26.7-14.77-6.256-6.256a2.123,2.123,0,0,1,0-3l2.025-2.025A24.911,24.911,0,0,0,31.719,51.2l-2.025,2.025A2.123,2.123,0,0,1,26.7,53.225ZM2.683,68a2.967,2.967,0,0,1,.875-2.112l16-16,4.223,4.223-16,16A2.986,2.986,0,0,1,2.683,68Z" transform="translate(0 -4.988)" fill="#fff"/>
          <path id="XMLID_1884_" d="M318.991,2.683a1.342,1.342,0,0,1-1.341-1.341,1.341,1.341,0,1,1,2.29.948A1.351,1.351,0,0,1,318.991,2.683Z" transform="translate(-275.042 0)" fill="#fff"/>
        </g>
      </g>
    </g>
  </g>
</svg>
