<svg xmlns="http://www.w3.org/2000/svg" width="452" height="101" viewBox="0 0 452 101">
  <g id="Group_1403" data-name="Group 1403" transform="translate(-140 -6960)">
    <g id="Group_1381" data-name="Group 1381" transform="translate(0 169)">
      <circle id="Ellipse_82" data-name="Ellipse 82" cx="50.5" cy="50.5" r="50.5" transform="translate(140 6791)" fill="#144cdf"/>
      <g id="light-bulb" transform="translate(154.487 6796.873)">
        <g id="Group_1310" data-name="Group 1310" transform="translate(0)">
          <g id="Group_1309" data-name="Group 1309">
            <path id="Path_1208" data-name="Path 1208" d="M233.465,8.775a1.463,1.463,0,0,0,1.462-1.462V1.462a1.462,1.462,0,0,0-2.925,0v5.85A1.462,1.462,0,0,0,233.465,8.775Z" transform="translate(-197.645)" fill="#fff"/>
            <path id="Path_1209" data-name="Path 1209" d="M140.176,26.81l2.925,5.065a1.463,1.463,0,1,0,2.543-1.446l-.01-.017-2.925-5.065a1.463,1.463,0,0,0-2.543,1.446Z" transform="translate(-122.785 -20.109)" fill="#fff"/>
            <path id="Path_1210" data-name="Path 1210" d="M73.335,94.7l.017.01,5.065,2.925a1.462,1.462,0,0,0,1.479-2.523l-.017-.01-5.065-2.925A1.462,1.462,0,0,0,73.335,94.7Z" transform="translate(-68.113 -74.863)" fill="#fff"/>
            <path id="Path_1211" data-name="Path 1211" d="M56.778,185.462A1.463,1.463,0,0,0,55.315,184h-5.85a1.462,1.462,0,1,0,0,2.925h5.85A1.463,1.463,0,0,0,56.778,185.462Z" transform="translate(-48.003 -149.791)" fill="#fff"/>
            <path id="Path_1212" data-name="Path 1212" d="M78.432,260.163l-.017.01L73.351,263.1a1.462,1.462,0,1,0,1.445,2.543l.017-.01,5.065-2.925a1.462,1.462,0,1,0-1.445-2.543Z" transform="translate(-68.112 -211.609)" fill="#fff"/>
            <path id="Path_1213" data-name="Path 1213" d="M370.879,263.108l-.017-.01-5.065-2.925a1.462,1.462,0,1,0-1.48,2.523l.017.01,5.065,2.925a1.462,1.462,0,1,0,1.48-2.523Z" transform="translate(-304.459 -211.609)" fill="#fff"/>
            <path id="Path_1214" data-name="Path 1214" d="M391.315,184h-5.85a1.462,1.462,0,0,0,0,2.925h5.85a1.462,1.462,0,1,0,0-2.925Z" transform="translate(-321.137 -149.791)" fill="#fff"/>
            <path id="Path_1215" data-name="Path 1215" d="M365.112,97.827a1.463,1.463,0,0,0,.731-.2l5.065-2.925a1.463,1.463,0,1,0-1.446-2.543l-.017.01L364.38,95.1a1.462,1.462,0,0,0,.731,2.729Z" transform="translate(-304.503 -74.862)" fill="#fff"/>
            <path id="Path_1216" data-name="Path 1216" d="M308.728,32.411h0a1.463,1.463,0,0,0,2-.536h0l2.925-5.065a1.462,1.462,0,0,0-2.523-1.48l-.01.017-2.925,5.065A1.463,1.463,0,0,0,308.728,32.411Z" transform="translate(-259.403 -20.109)" fill="#fff"/>
            <path id="Path_1217" data-name="Path 1217" d="M184.09,189.249a1.463,1.463,0,0,0,1.462-1.462V171.7h2.925a5.85,5.85,0,1,0-5.85-5.85v2.925H179.7V165.85a5.85,5.85,0,1,0-5.85,5.85h2.925v16.087a1.462,1.462,0,0,0,2.925,0V171.7h2.925v16.087A1.462,1.462,0,0,0,184.09,189.249Zm1.462-23.4a2.925,2.925,0,1,1,2.925,2.925h-2.925Zm-8.775,2.925h-2.925a2.925,2.925,0,1,1,2.925-2.925Z" transform="translate(-145.345 -130.029)" fill="#fff"/>
            <path id="Path_1218" data-name="Path 1218" d="M137.355,64.03A24.016,24.016,0,0,0,112.1,86.7a23.725,23.725,0,0,0,8.79,19.574,4.424,4.424,0,0,1,1.722,3.408v3.495a4.474,4.474,0,0,0,3.015,4.2v1.764a4.414,4.414,0,0,0,1.176,2.98,4.365,4.365,0,0,0,0,5.961,4.415,4.415,0,0,0,.292,6.288,4.533,4.533,0,0,0,3.055,1.163,1.462,1.462,0,0,0,1.508-1.414,1.442,1.442,0,0,0-.269-.876,1.578,1.578,0,0,0-.169-.258,1.56,1.56,0,0,0-.419-.271c-.044-.022-.087-.04-.133-.058a1.615,1.615,0,0,0-.475-.094c-.015,0-.029-.009-.044-.009a1.49,1.49,0,1,1,0-2.98h6.03a1.49,1.49,0,1,0,0-2.98h-6.03a1.49,1.49,0,1,1,0-2.98h6.03a1.49,1.49,0,1,0,0-2.98h-6.03a1.5,1.5,0,0,1-1.508-1.49v-1.49h7.538a1.49,1.49,0,1,0,0-2.98h-9.045a1.5,1.5,0,0,1-1.508-1.49v-3.495a7.377,7.377,0,0,0-2.827-5.715A20.7,20.7,0,0,1,119.9,74.6a21.142,21.142,0,0,1,37.391,13.114,20.649,20.649,0,0,1-7.832,16.337,7.353,7.353,0,0,0-2.721,5.8v3.322a1.5,1.5,0,0,1-1.508,1.49h-4.523a1.49,1.49,0,1,0,0,2.98h3.015v1.49a1.5,1.5,0,0,1-1.508,1.49h-1.508a1.49,1.49,0,1,0,0,2.98h1.508a1.49,1.49,0,1,1,0,2.98h-1.508a1.49,1.49,0,1,0,0,2.98h1.508a1.49,1.49,0,1,1,0,2.98h-7.538a1.49,1.49,0,1,0,0,2.98h5.772a4.547,4.547,0,0,1-7.645,1.48,1.52,1.52,0,0,0-2.129-.122,1.479,1.479,0,0,0-.124,2.1,7.583,7.583,0,0,0,10.618.626,7.412,7.412,0,0,0,2.424-4.323,4.4,4.4,0,0,0,1.967-7.216,4.365,4.365,0,0,0,0-5.961,4.414,4.414,0,0,0,1.176-2.98v-1.764a4.474,4.474,0,0,0,3.015-4.2v-3.322a4.458,4.458,0,0,1,1.6-3.483A23.6,23.6,0,0,0,160.3,87.7,24.248,24.248,0,0,0,137.355,64.03Z" transform="translate(-100.363 -52.302)" fill="#fff"/>
          </g>
        </g>
      </g>
    </g>
    <g id="Group_1382" data-name="Group 1382" transform="translate(-39 169)">
      <text id="_03._Ideation_" data-name="03. Ideation " transform="translate(300 6867)" fill="#fff" font-size="72" font-family="Lato-Bold, Lato" font-weight="700"><tspan x="0" y="0">03.</tspan><tspan y="0" xml:space="preserve" font-size="56"> Ideation </tspan></text>
      <rect id="Rectangle_1142" data-name="Rectangle 1142" width="90" height="10" transform="translate(300 6878)" fill="#fff"/>
    </g>
  </g>
</svg>
