<svg xmlns="http://www.w3.org/2000/svg" width="484" height="100" viewBox="0 0 484 100">
  <g id="Group_1401" data-name="Group 1401" transform="translate(-140 -4846)">
    <g id="Group_1321" data-name="Group 1321" transform="translate(-533 4192)">
      <g id="Group_1320" data-name="Group 1320" transform="translate(673 654)">
        <circle id="Ellipse_82" data-name="Ellipse 82" cx="50" cy="50" r="50" fill="#144cdf"/>
      </g>
      <g id="aim" transform="translate(674.429 655.429)">
        <path id="Path_1203" data-name="Path 1203" d="M46.744,84.5A37.744,37.744,0,1,1,84.487,46.754a37.366,37.366,0,0,1-3.746,16.413,1.348,1.348,0,0,1-2.426-1.175,34.654,34.654,0,0,0,3.476-15.238A35.048,35.048,0,1,0,46.744,81.8,34.589,34.589,0,0,0,62.9,77.856a1.349,1.349,0,1,1,1.248,2.391A37.274,37.274,0,0,1,46.744,84.5Z" transform="translate(2.132 2.122)" fill="#fff"/>
        <path id="Path_1204" data-name="Path 1204" d="M55.79,60.355a1.59,1.59,0,0,1-1.058-2.778,32.146,32.146,0,0,0,3.106-3.17,1.593,1.593,0,1,1,2.424,2.067,35.871,35.871,0,0,1-3.414,3.48,1.59,1.59,0,0,1-1.058.4Z" transform="translate(18.073 17.918)" fill="#fff"/>
        <path id="Path_1205" data-name="Path 1205" d="M40.84,62.69A21.84,21.84,0,1,1,62.68,40.85,21.84,21.84,0,0,1,40.84,62.69Zm0-41.254A19.414,19.414,0,1,0,60.254,40.85,19.414,19.414,0,0,0,40.84,21.437Z" transform="translate(8.036 8.026)" fill="#fff"/>
        <path id="Path_1206" data-name="Path 1206" d="M37.59,99.762a1.5,1.5,0,0,1-1.59-1.4V3.406a1.6,1.6,0,0,1,3.181,0V98.365A1.5,1.5,0,0,1,37.59,99.762Z" transform="translate(11.285 -2.01)" fill="#fff"/>
        <path id="Path_1207" data-name="Path 1207" d="M98.355,39.191H3.4a1.6,1.6,0,0,1,0-3.181H98.355a1.6,1.6,0,0,1,0,3.181Z" transform="translate(-2 11.275)" fill="#fff"/>
      </g>
    </g>
    <g id="Group_1288" data-name="Group 1288" transform="translate(-582 4712)">
      <text id="_02._Definition" data-name="02. Definition" transform="translate(842 209)" fill="#fff" font-size="72" font-family="Lato-Bold, Lato" font-weight="700"><tspan x="0" y="0">02.</tspan><tspan y="0" xml:space="preserve" font-size="56"> Definition</tspan></text>
      <rect id="Rectangle_1141" data-name="Rectangle 1141" width="90" height="10" transform="translate(842 220)" fill="#fff"/>
    </g>
  </g>
</svg>
