<svg xmlns="http://www.w3.org/2000/svg" width="802.027" height="590.916" viewBox="0 0 802.027 590.916">
  <g id="Group_1408" data-name="Group 1408" transform="translate(0 -0.001)">
    <rect id="Rectangle_1309" data-name="Rectangle 1309" width="337.121" height="9.889" transform="translate(464.906 218.808)" fill="#e6e6e6"/>
    <rect id="Rectangle_1310" data-name="Rectangle 1310" width="85.404" height="85.404" transform="translate(492.774 136.101)" fill="#e6e6e6"/>
    <rect id="Rectangle_1311" data-name="Rectangle 1311" width="51.242" height="51.242" transform="translate(509.855 153.182)" fill="#ccc"/>
    <rect id="Rectangle_1312" data-name="Rectangle 1312" width="21.576" height="85.404" transform="translate(684.259 136.101)" fill="#e6e6e6"/>
    <rect id="Rectangle_1313" data-name="Rectangle 1313" width="21.576" height="9.889" transform="translate(684.259 149.586)" fill="#ccc"/>
    <rect id="Rectangle_1314" data-name="Rectangle 1314" width="21.576" height="9.889" transform="translate(684.259 192.737)" fill="#ccc"/>
    <rect id="Rectangle_1315" data-name="Rectangle 1315" width="21.576" height="85.404" transform="translate(650.997 136.101)" fill="#e6e6e6"/>
    <rect id="Rectangle_1316" data-name="Rectangle 1316" width="21.576" height="9.889" transform="translate(650.997 149.586)" fill="#ccc"/>
    <rect id="Rectangle_1317" data-name="Rectangle 1317" width="21.576" height="9.889" transform="translate(650.997 192.737)" fill="#ccc"/>
    <rect id="Rectangle_1318" data-name="Rectangle 1318" width="21.576" height="85.404" transform="matrix(0.896, -0.444, 0.444, 0.896, 705.089, 145.321)" fill="#e6e6e6"/>
    <rect id="Rectangle_1319" data-name="Rectangle 1319" width="21.576" height="9.889" transform="matrix(0.896, -0.444, 0.444, 0.896, 711.072, 157.406)" fill="#ccc"/>
    <rect id="Rectangle_1320" data-name="Rectangle 1320" width="21.576" height="9.889" transform="matrix(0.896, -0.444, 0.444, 0.896, 730.218, 196.078)" fill="#ccc"/>
    <path id="Path_2497" data-name="Path 2497" d="M524.688,170.382,535.554,189.2l10.865,18.819H502.958L513.823,189.2Z" fill="#e6e6e6"/>
    <path id="Path_2498" data-name="Path 2498" d="M543.567,173.978,554.432,192.8,565.3,211.616H521.837L532.7,192.8Z" fill="#e6e6e6"/>
    <circle id="Ellipse_108" data-name="Ellipse 108" cx="6.293" cy="6.293" r="6.293" transform="translate(544.916 155.879)" fill="#e6e6e6"/>
    <rect id="Rectangle_1321" data-name="Rectangle 1321" width="337.121" height="9.889" transform="translate(802.027 92.949) rotate(180)" fill="#e6e6e6"/>
    <rect id="Rectangle_1322" data-name="Rectangle 1322" width="85.404" height="85.404" transform="translate(774.158 85.757) rotate(180)" fill="#e6e6e6"/>
    <rect id="Rectangle_1323" data-name="Rectangle 1323" width="51.242" height="51.242" transform="translate(757.077 68.676) rotate(180)" fill="#ccc"/>
    <rect id="Rectangle_1324" data-name="Rectangle 1324" width="21.576" height="85.404" transform="translate(582.673 85.757) rotate(180)" fill="#e6e6e6"/>
    <rect id="Rectangle_1325" data-name="Rectangle 1325" width="21.576" height="9.889" transform="translate(582.673 23.727) rotate(180)" fill="#ccc"/>
    <rect id="Rectangle_1326" data-name="Rectangle 1326" width="21.576" height="9.889" transform="translate(582.673 66.878) rotate(180)" fill="#ccc"/>
    <rect id="Rectangle_1327" data-name="Rectangle 1327" width="21.576" height="85.404" transform="translate(615.936 85.757) rotate(180)" fill="#e6e6e6"/>
    <rect id="Rectangle_1328" data-name="Rectangle 1328" width="21.576" height="9.889" transform="translate(615.936 23.727) rotate(180)" fill="#ccc"/>
    <rect id="Rectangle_1329" data-name="Rectangle 1329" width="21.576" height="9.889" transform="translate(615.936 66.878) rotate(180)" fill="#ccc"/>
    <rect id="Rectangle_1330" data-name="Rectangle 1330" width="21.576" height="85.404" transform="matrix(-0.896, -0.444, 0.444, -0.896, 523.95, 86.111)" fill="#e6e6e6"/>
    <rect id="Rectangle_1331" data-name="Rectangle 1331" width="21.576" height="9.889" transform="matrix(-0.896, -0.444, 0.444, -0.896, 551.472, 30.521)" fill="#ccc"/>
    <rect id="Rectangle_1332" data-name="Rectangle 1332" width="21.576" height="9.889" transform="matrix(-0.896, -0.444, 0.444, -0.896, 532.326, 69.192)" fill="#ccc"/>
    <path id="Path_2499" data-name="Path 2499" d="M742.244,34.634,731.379,53.453,720.514,72.272h43.461L753.109,53.453Z" fill="#e6e6e6"/>
    <path id="Path_2500" data-name="Path 2500" d="M723.365,38.23,712.5,57.049,701.635,75.868H745.1L734.231,57.049Z" fill="#e6e6e6"/>
    <circle id="Ellipse_109" data-name="Ellipse 109" cx="6.293" cy="6.293" r="6.293" transform="translate(709.431 20.131)" fill="#e6e6e6"/>
    <rect id="Rectangle_1333" data-name="Rectangle 1333" width="337.121" height="9.889" transform="translate(802.027 364.444) rotate(180)" fill="#e6e6e6"/>
    <rect id="Rectangle_1334" data-name="Rectangle 1334" width="85.404" height="85.404" transform="translate(774.158 357.252) rotate(180)" fill="#e6e6e6"/>
    <rect id="Rectangle_1335" data-name="Rectangle 1335" width="51.242" height="51.242" transform="translate(757.077 340.172) rotate(180)" fill="#ccc"/>
    <rect id="Rectangle_1336" data-name="Rectangle 1336" width="21.576" height="85.404" transform="translate(582.673 357.252) rotate(180)" fill="#e6e6e6"/>
    <rect id="Rectangle_1337" data-name="Rectangle 1337" width="21.576" height="9.889" transform="translate(582.673 295.222) rotate(180)" fill="#ccc"/>
    <rect id="Rectangle_1338" data-name="Rectangle 1338" width="21.576" height="9.889" transform="translate(582.673 338.374) rotate(180)" fill="#ccc"/>
    <rect id="Rectangle_1339" data-name="Rectangle 1339" width="21.576" height="85.404" transform="translate(615.936 357.252) rotate(180)" fill="#e6e6e6"/>
    <rect id="Rectangle_1340" data-name="Rectangle 1340" width="21.576" height="9.889" transform="translate(615.936 295.222) rotate(180)" fill="#ccc"/>
    <rect id="Rectangle_1341" data-name="Rectangle 1341" width="21.576" height="9.889" transform="translate(615.936 338.374) rotate(180)" fill="#ccc"/>
    <rect id="Rectangle_1342" data-name="Rectangle 1342" width="21.576" height="85.404" transform="matrix(-0.896, -0.444, 0.444, -0.896, 523.95, 357.606)" fill="#e6e6e6"/>
    <rect id="Rectangle_1343" data-name="Rectangle 1343" width="21.576" height="9.889" transform="matrix(-0.896, -0.444, 0.444, -0.896, 551.472, 302.016)" fill="#ccc"/>
    <rect id="Rectangle_1344" data-name="Rectangle 1344" width="21.576" height="9.889" transform="matrix(-0.896, -0.444, 0.444, -0.896, 532.326, 340.687)" fill="#ccc"/>
    <path id="Path_2501" data-name="Path 2501" d="M742.244,306.129l-10.865,18.819-10.865,18.82h43.461l-10.866-18.82Z" fill="#e6e6e6"/>
    <path id="Path_2502" data-name="Path 2502" d="M723.365,309.725,712.5,328.544l-10.865,18.82H745.1l-10.865-18.82Z" fill="#e6e6e6"/>
    <circle id="Ellipse_110" data-name="Ellipse 110" cx="6.293" cy="6.293" r="6.293" transform="translate(709.431 291.626)" fill="#e6e6e6"/>
    <ellipse id="Ellipse_111" data-name="Ellipse 111" cx="397.129" cy="28.205" rx="397.129" ry="28.205" transform="translate(0 534.506)" fill="#e6e6e6"/>
    <path id="Path_2503" data-name="Path 2503" d="M906.373,733.048c-64.755-11.525-135.567-9.609-209.847,0,33.855-28.581,63.075-57.163,29.219-85.744,66.039,13.624,75.289,12.245,148.752,0C857.459,675.885,889.334,704.467,906.373,733.048Z" transform="translate(-198.987 -154.542)" fill="#144cdf"/>
    <path id="Path_2504" data-name="Path 2504" d="M906.373,733.048c-64.755-11.525-135.567-9.609-209.847,0,33.855-28.581,63.075-57.163,29.219-85.744,66.039,13.624,75.289,12.245,148.752,0C857.459,675.885,889.334,704.467,906.373,733.048Z" transform="translate(-198.987 -154.542)" opacity="0.2"/>
    <path id="Path_2505" data-name="Path 2505" d="M890.578,720.854c-55.007-9.2-115.159-7.67-178.257,0,28.759-22.814,53.58-45.628,24.821-68.443,56.1,10.875,63.955,9.774,126.359,0C849.027,675.226,876.1,698.04,890.578,720.854Z" transform="translate(-198.987 -154.542)" fill="#144cdf"/>
    <circle id="Ellipse_112" data-name="Ellipse 112" cx="29.309" cy="29.309" r="29.309" transform="translate(641.331 470.935)" fill="#2f2e41"/>
    <path id="Path_2506" data-name="Path 2506" d="M537.591,466.249l20.308,3.385,10.154,29.333L538.72,517.019l-33.847-50.77h32.718Z" fill="#a0616a"/>
    <circle id="Ellipse_113" data-name="Ellipse 113" cx="47.385" cy="47.385" r="47.385" transform="translate(547.745 416.608)" fill="#a0616a"/>
    <path id="Path_2507" data-name="Path 2507" d="M532.372,445.919s-115.077,12.41-135.385,10.154-29.333-4.513-29.333-4.513-13.539,18.051-6.769,25.949a48.821,48.821,0,0,0,13.538,11.282s12.41-3.385,21.436,0S496.27,506.842,512.065,493.3,532.372,445.919,532.372,445.919Z" transform="translate(-198.987 -154.542)" fill="#2f2e41"/>
    <path id="Path_2508" data-name="Path 2508" d="M540.27,697.509S464.68,676.073,451.141,581.3v-9.026s-14.956,26.238-20.308,31.59c-6.205,6.205-28.205,62.051-27.077,67.693s0,7.9,0,7.9l-32.718-3.385V665.919s17.487-52.462,18.615-64.872,43.436-98.718,43.436-98.718,15.795-32.718,42.872,0S505.3,557.611,505.3,557.611L540.27,625.3Z" transform="translate(-198.987 -154.542)" fill="#2f2e41"/>
    <path id="Path_2509" data-name="Path 2509" d="M371.038,448.175l-36.1-12.41s-33.846-24.821-25.949,0,44,78.975,54.154,73.334,22.366-19.643,19.644-21.668S362.013,470.739,371.038,448.175Z" transform="translate(-198.987 -154.542)" fill="#2f2e41"/>
    <path id="Path_2510" data-name="Path 2510" d="M375.4,659.259l-29.144,14.233s-35.244,5.422-15.589,15.589,73.876,21.011,76.587,11.522,1.635-25.236-1.216-24.818S383.535,678.236,375.4,659.259Z" transform="translate(-198.987 -154.542)" fill="#2f2e41"/>
    <path id="Path_2511" data-name="Path 2511" d="M525.6,623.048s-14.667,63.18,10.154,76.718,198.565,15.795,212.1-9.026,6.769-24.821,6.769-24.821l-36.1-40.616,29.333-2.256s0-9.026-10.154-10.154-41.744-12.41-68.821-4.513-42.872-15.795-42.872-15.795Z" transform="translate(-198.987 -154.542)" fill="#575a89"/>
    <path id="Path_2512" data-name="Path 2512" d="M307.437,271.069l-19.18,104.924,132-15.8,23.692-94.77Z" fill="#3f3d56"/>
    <path id="Path_2513" data-name="Path 2513" d="M311.386,275.018l-15.795,93.641,120.154-14.1,23.128-85.18Z" fill="#fff"/>
    <path id="Path_2514" data-name="Path 2514" d="M292.77,377.121l-4.513-1.128L286,380.505l36.1,100.411,3.395-1.3,1.117-6.6Z" fill="#b3b3b3"/>
    <path id="Path_2515" data-name="Path 2515" d="M288.257,374.864l36.1,104.924L460.873,459.48,420.258,360.2Z" fill="#d0cde1"/>
    <path id="Path_2516" data-name="Path 2516" d="M306.309,371.48v5.641l100.41-11.282-1.128-5.641Z" fill="#3f3d56"/>
    <path id="Path_2517" data-name="Path 2517" d="M308.565,382.762l15.795,44,102.667-12.41-18.051-41.744Z" fill="#3f3d56"/>
    <path id="Path_2518" data-name="Path 2518" d="M636.167,599.355l-3.385-9.026s-25.949-45.128-39.487-36.1S621.5,607.253,621.5,607.253h13.539Z" transform="translate(-198.987 -154.542)" fill="#a0616a"/>
    <path id="Path_2519" data-name="Path 2519" d="M550.424,606.124l-3.385-13.539s-9.026-41.744,6.769-39.487,20.308,41.744,20.308,41.744l-1.128,9.026Z" transform="translate(-198.987 -154.542)" fill="#a0616a"/>
    <path id="Path_2520" data-name="Path 2520" d="M577.5,600.483s-29.333-4.513-30.462,2.256-6.769,108.308,21.436,111.693,168.1,18.051,153.436-16.923-37.231-30.462-37.231-30.462l-95.9,10.154Z" transform="translate(-198.987 -154.542)" fill="#575a89"/>
    <path id="Path_2521" data-name="Path 2521" d="M467.078,458.916l-29.9-20.872-19.744,15.231,24.821,27.077Z" fill="#575a89"/>
    <path id="Path_2522" data-name="Path 2522" d="M386.976,479.224l4.512,42.872,77.847-4.513-67.693-1.128Z" opacity="0.2"/>
    <circle id="Ellipse_114" data-name="Ellipse 114" cx="56.41" cy="56.41" r="56.41" transform="translate(562.11 416.192)" fill="#2f2e41"/>
    <path id="Path_2523" data-name="Path 2523" d="M328.309,307.736l69.949-2.435,6.769-25.77-72.205,2.179Z" fill="#144cdf"/>
    <path id="Path_2524" data-name="Path 2524" d="M310.258,322.4l106.051-3.385,1.128-4.513-106.051,3.734Z" fill="#e6e6e6"/>
    <path id="Path_2525" data-name="Path 2525" d="M308,333.685,414.053,330.3l1.128-4.513-106.052,3.734Z" fill="#e6e6e6"/>
    <path id="Path_2526" data-name="Path 2526" d="M306.873,342.71l106.051-3.384,1.129-4.513L308,338.546Z" fill="#e6e6e6"/>
  </g>
</svg>
