<svg xmlns="http://www.w3.org/2000/svg" xmlns:xlink="http://www.w3.org/1999/xlink" width="366.594" height="537.453" viewBox="0 0 366.594 537.453">
  <defs>
    <filter id="Ellipse_83" x="27.619" y="36.382" width="69.017" height="71.236" filterUnits="userSpaceOnUse">
      <feOffset dy="3" input="SourceAlpha"/>
      <feGaussianBlur stdDeviation="3" result="blur"/>
      <feFlood flood-opacity="0.161"/>
      <feComposite operator="in" in2="blur"/>
      <feComposite in="SourceGraphic"/>
    </filter>
    <filter id="Ellipse_82" x="205.912" y="185.16" width="160.682" height="134.525" filterUnits="userSpaceOnUse">
      <feOffset dy="3" input="SourceAlpha"/>
      <feGaussianBlur stdDeviation="3" result="blur-2"/>
      <feFlood flood-opacity="0.161"/>
      <feComposite operator="in" in2="blur-2"/>
      <feComposite in="SourceGraphic"/>
    </filter>
  </defs>
  <g id="Group_1084" data-name="Group 1084" transform="translate(-1407.863 -364)">
    <path id="Path_441" data-name="Path 441" d="M1269.889,455.878c-10.068-1.9-14.357,1.642-20.426,12.014s-18.211,27.631-14.637,38.508,21.941-1.606,34.5-8.275,22.3-13.581,22.3-26.264S1279.957,457.776,1269.889,455.878Z" transform="translate(320.321 249.001)" fill="#fe5621"/>
    <g transform="matrix(1, 0, 0, 1, 1407.86, 364)" filter="url(#Ellipse_83)">
      <ellipse id="Ellipse_83-2" data-name="Ellipse 83" cx="14" cy="23" rx="14" ry="23" transform="translate(66.19 42.38) rotate(40)" fill="#144cdf"/>
    </g>
    <g transform="matrix(1, 0, 0, 1, 1407.86, 364)" filter="url(#Ellipse_82)">
      <ellipse id="Ellipse_82-2" data-name="Ellipse 82" cx="39.617" cy="61.5" rx="39.617" ry="61.5" transform="translate(214.91 265.62) rotate(-70)" fill="#f7b62d"/>
    </g>
    <g id="Untitled_Artwork-2" transform="translate(660.578 1719.452)">
      <path id="Path_366" data-name="Path 366" d="M1016.09-1355.222c-2.695.407-3.356.661-10.627,4.169a16.881,16.881,0,0,1-8.643,2.237c-2.441.1-6.356.305-8.694.407-4.118.2-5.39.762-3.051,1.373a79.781,79.781,0,0,0,8.8.1l7.627-.254,5.746-2.745c6.711-3.254,8.694-3.712,16.626-3.813,5.8-.051,5.949-.051,8.288,1.475,1.322.864,4.881,3.1,7.932,4.932,6.356,3.864,7.983,4.983,10.474,7.118a51.7,51.7,0,0,0,5.084,3.559c3.762,2.339,10.271,8.593,14.186,13.677,4.068,5.237,10.626,19.423,13.779,29.8,2.9,9.457,5.39,16.067,6.711,17.846a21.089,21.089,0,0,1,2.186,3.661c1.017,2.441,1.881,2.034,1.17-.559a11.282,11.282,0,0,0-2.339-4.83,33.239,33.239,0,0,1-2.644-6.355c-1.017-3-2.136-6.152-2.441-6.966-.305-.865-1.068-3.254-1.678-5.339-2.491-8.593-8.8-21.914-13.118-27.761-3-4.068-12.253-13.423-13.27-13.423-.61,0-2.695-1.373-6.1-4.118-4.373-3.458-18.609-11.948-22.117-13.169C1026.92-1355.273,1019.8-1355.781,1016.09-1355.222Z" transform="translate(-116.315)" fill="#fff"/>
      <path id="Path_367" data-name="Path 367" d="M946.624-1340.629c-1.22,1.627-4.118,3.356-8.084,4.83a20.717,20.717,0,0,0-8.593,5.593c-2.034,2.39-6,5.542-7.016,5.542s-1.22.763-.356,1.322c.966.559,4.932-1.932,7.881-4.983a15.764,15.764,0,0,1,3.3-2.949.456.456,0,0,0,.458-.458c0-.254,2.186-1.322,4.83-2.339,5.084-1.983,9.406-5.135,9.406-6.915C948.455-1342.307,947.743-1342.206,946.624-1340.629Z" transform="translate(-85.898 -6.661)" fill="#fff"/>
      <path id="Path_368" data-name="Path 368" d="M1016-1322.57c0,1.017,4.474,4.779,7.678,6.457,3.864,2.034,4.017,2.186,4.373,4.474a6.365,6.365,0,0,0,6.508,5.44c1.576,0,1.678,1.119.2,3.508-.559.915-.915,1.831-.712,1.983.508.508,2.745-2.034,3.356-3.813.763-2.288.153-2.9-3.661-3.712-3.3-.712-3.2-.559-4.576-5.033-.661-2.034-1.017-2.441-4.017-3.966a37.821,37.821,0,0,1-5.8-3.711C1016.966-1322.926,1016-1323.383,1016-1322.57Z" transform="translate(-132.089 -15.975)" fill="#fff"/>
      <path id="Path_369" data-name="Path 369" d="M940.949-1310.47c-4.017,3.1-5.847,4.22-6.864,4.271-1.322.051-1.678.661-2.746,4.474-.864,3.3-1.983,4.627-3.356,4.22-1.118-.356-1.322.661-.2,1.068,2.339.915,3.915-.814,5.288-5.694.458-1.678.864-2.186,1.983-2.491a21.038,21.038,0,0,0,4.983-3.1,23.253,23.253,0,0,1,4.118-2.745c.508,0-1.169,8.339-2.135,10.779-.254.61-.1.915.407.915.407,0,1.119-.864,1.525-1.932,1.017-2.593,2.491-9.762,2.186-10.626C945.678-1312.5,943.034-1312.046,940.949-1310.47Z" transform="translate(-88.358 -21.364)" fill="#fff"/>
      <path id="Path_370" data-name="Path 370" d="M898.491-1299.694a47.246,47.246,0,0,0-4.83,6.254c-2.644,3.966-6.661,11.745-6.661,12.864,0,1.322,1.119-.2,3.3-4.424a90.65,90.65,0,0,1,9-13.728c1.119-1.525,1.881-2.847,1.729-3C900.881-1301.931,899.711-1301.016,898.491-1299.694Z" transform="translate(-68.678 -26.395)" fill="#fff"/>
      <path id="Path_371" data-name="Path 371" d="M895.793-1294.882c-1.627,1.78-8.847,11.135-9.965,12.965-.508.864-2.491,3.813-4.322,6.61-6.3,9.406-8.949,15.609-9.559,22.524a26.4,26.4,0,0,0,.61,9.152c.814,4.118,4.525,12.711,5.491,12.711.356,0,.407-.356.2-.915-2.542-6-4.83-14.592-4.83-18.253,0-4.271,2.237-12.66,4.373-16.27,2.39-4.017,5.542-9.1,5.9-9.558a31.191,31.191,0,0,0,3.457-4.83,87.554,87.554,0,0,1,5.084-7.169c4.423-5.949,5.695-8.084,4.83-8.084A5.506,5.506,0,0,0,895.793-1294.882Z" transform="translate(-61.201 -29.224)" fill="#fff"/>
      <path id="Path_372" data-name="Path 372" d="M936.63-1234.438c-1.22,2.441-1.932,7.423-1.932,14.135,0,6.813-.559,10.932-1.78,12.813a4.456,4.456,0,0,0-.712,2.034,4.33,4.33,0,0,1-.813,2.084,3.086,3.086,0,0,0-.559,2.186c.356,1.271-.407,1.22-2.237-.051-2.593-1.881-3.406-3.61-4.067-8.542-.305-2.593-.814-4.678-1.068-4.678-.458,0-.458,5.9-.051,9,.305,2.084,3.254,5.491,5.949,6.864,2.745,1.474,8.542,3.457,9.05,3.152.966-.61.2-1.373-2.644-2.593-3.712-1.627-3.712-1.729-1.22-8.288,1.83-4.779,1.881-4.881,2.034-13.728a94.664,94.664,0,0,1,.763-12.1C938-1235.709,937.749-1236.624,936.63-1234.438Z" transform="translate(-86.429 -58.907)" fill="#fff"/>
      <path id="Path_373" data-name="Path 373" d="M959.774-1221.932a8.371,8.371,0,0,0,1.119,3.051c.813,1.424,1.474,1.983,2.39,2.085.712,0,1.627.1,2.034.1.407.051,1.068,1.322,1.525,3.1a21.844,21.844,0,0,0,1.78,4.423c1.22,1.881.508,3-3.1,4.627a16.079,16.079,0,0,0-7.677,7.22c-1.83,3.762-1.881,6.2-.1,4.067.458-.508.813-.61,1.22-.254.966.762,4.474,0,5.9-1.271a26,26,0,0,1,10.372-5.034c3.1-.661,3.762-.61,9.457.508,3.356.712,6.711,1.475,7.423,1.729,2.085.813,5.8.661,5.8-.254,0-.458-.458-.763-1.169-.763a29.419,29.419,0,0,1-4.983-.966c-11.288-2.8-11.389-2.8-15.813-2.288a19.914,19.914,0,0,0-11.338,5.288c-1.474,1.373-4.83,2.39-5.491,1.729-.407-.458,1.373-3.508,3.152-5.44a15.363,15.363,0,0,1,3.915-2.593c4.932-2.288,5.8-4.22,3.559-8.084a15.849,15.849,0,0,1-1.576-4.322c-.356-2.339-1.322-3.152-3.762-3.152-1.576,0-3.61-2.085-3.61-3.763,0-.458-.2-.813-.509-.813C960.028-1223,959.774-1222.492,959.774-1221.932Z" transform="translate(-102.81 -65.108)" fill="#fff"/>
      <path id="Path_374" data-name="Path 374" d="M956.4-1210.593c-3.457,7.372-3.813,8.491-3.559,12.457.051,1.475,2.288,4.474,2.847,3.864.2-.2-.051-1.373-.508-2.644-1.068-2.8-.864-5.695.661-9,1.169-2.593,3.152-7.474,3.152-7.83,0-.153-.2-.254-.458-.254S957.312-1212.475,956.4-1210.593Z" transform="translate(-101.009 -69.532)" fill="#fff"/>
      <path id="Path_375" data-name="Path 375" d="M1051.339-1197.946a36.01,36.01,0,0,0,4.423,8.847c1.881,2.644,4.729,4.271,9.05,5.288,4.627,1.068,6.763,2.237,7.932,4.423a51.754,51.754,0,0,1,3.508,9.508c0,.763,1.271.966,1.322.2.2-2.237-1.424-7.474-3.356-10.779a10.289,10.289,0,0,0-6.711-4.627c-7.576-1.322-10.169-3.355-13.932-10.88C1052.1-1199.014,1050.678-1200.234,1051.339-1197.946Z" transform="translate(-149.378 -76.84)" fill="#fff"/>
      <path id="Path_376" data-name="Path 376" d="M903.212-1187.136c-.051.509-.152,2.39-.2,4.22-.254,6.051-2.288,8.593-7.982,9.864-1.424.3-2.695.864-2.847,1.271-.407,1.169,4.881.2,7.525-1.424,3.254-1.983,4.271-4.271,4.474-10.118.153-3.152,0-4.678-.356-4.678C903.517-1188,903.212-1187.593,903.212-1187.136Z" transform="translate(-71.213 -82.312)" fill="#fff"/>
      <path id="Path_377" data-name="Path 377" d="M1075-1187.823c0,.356,6.813,6.864,7.22,6.864,1.169,0-.305-2.339-3.1-4.881C1077.186-1187.67,1075-1188.738,1075-1187.823Z" transform="translate(-161.091 -82.235)" fill="#fff"/>
      <path id="Path_378" data-name="Path 378" d="M1199.178-1177.39c.153.356.763,3.051,1.424,6,.61,2.949,1.678,7.271,2.288,9.66.661,2.39,1.576,6.711,2.034,9.661.508,2.949,1.068,6.355,1.322,7.626a123.26,123.26,0,0,1,1.525,15.508c.1,5.034.813,14.847,1.474,20.592,1.678,14.338,2.135,17.389,2.746,19.219,1.017,2.847,1.932,4.169,2.949,4.169.763,0,.763-.152.153-1.424-1.271-2.542-2.237-7.322-3.051-15.1-.458-4.169-1.017-9.1-1.271-10.932-.305-1.83-.763-8.135-1.017-13.982-.254-5.9-.61-11.389-.763-12.2-.1-.864-.458-3.254-.763-5.338a145.379,145.379,0,0,0-3.508-18.2c-.559-1.881-1.525-5.339-2.135-7.728-1.983-7.83-2.085-8.135-2.847-8.135C1199.331-1178,1199.077-1177.695,1199.178-1177.39Z" transform="translate(-222.12 -87.228)" fill="#fff"/>
      <path id="Path_379" data-name="Path 379" d="M1128.134-1176.283c-1.576.458-6.051,4.83-8.339,8.033a14.977,14.977,0,0,1-5.9,5.44c-4.729,2.593-6.051,4.779-5.542,9.152.153,1.119.254,4.068.305,6.559,0,3.61-.152,4.678-.814,5.135-1.118.814-1.017,1.271.2,1.271a1.748,1.748,0,0,0,1.525-1.322c.61-1.576.763-7.067.254-11.033-.508-4.169.2-5.542,4.017-7.677,2.8-1.576,4.881-3.508,8.9-8.287,2.847-3.406,4.068-4.678,5.186-5.288,1.424-.763,6.813-.712,9.813.1,4.881,1.271,7.118,6.355,5.186,11.847a6.154,6.154,0,0,0-.2,3.813c1.17,4.525,1.78,8.389,1.576,10.016-.2,2.186-2.593,7.322-3.559,7.678a7.207,7.207,0,0,0-1.932,2.745,9.048,9.048,0,0,1-2.135,2.9,9.857,9.857,0,0,1-7.017-.2c-1.78-.813-5.695-.864-12.508-.051-4.322.559-5.8,3-6.254,10.423a21.411,21.411,0,0,1-1.017,6.1,33.015,33.015,0,0,0-2.339,7.525c0,1.373.966.661,1.983-1.474a10.832,10.832,0,0,0,1.068-2.847,11.378,11.378,0,0,1,.966-2.542c.712-1.322,1.068-3.356,1.271-6.508.2-4.474.966-6.966,2.441-8.135.763-.61,8.288-1.424,11.338-1.22a5.233,5.233,0,0,1,2.491.61c.814.763,6.813.559,8.44-.3a5.771,5.771,0,0,0,2.237-2.44,13.782,13.782,0,0,1,2.288-3.508,14.405,14.405,0,0,0,3.813-10.576,30.181,30.181,0,0,0-.915-6.762,7.878,7.878,0,0,1-.152-5.593,10.222,10.222,0,0,0,.051-5.949c-1.119-5.44-4.068-7.423-11.643-7.881A20.522,20.522,0,0,0,1128.134-1176.283Z" transform="translate(-176.854 -87.927)" fill="#fff"/>
      <path id="Path_380" data-name="Path 380" d="M1154.312-1165.195c-.559.966,1.525,1.576,4.169,1.322,2.745-.305,2.847-.254,3.813,1.322a16.646,16.646,0,0,1,1.525,3.763c.61,2.339,1.474,2.949,1.474,1.017a16.578,16.578,0,0,0-2.339-6.711c-.661-.864-1.373-1.017-4.576-1.017A15.8,15.8,0,0,0,1154.312-1165.195Z" transform="translate(-200.032 -93.372)" fill="#fff"/>
      <path id="Path_381" data-name="Path 381" d="M1082.316-1161.187a22.986,22.986,0,0,1,.61,3.559c.356,2.746.864,3.458,1.424,1.983.509-1.322-.763-6.356-1.576-6.356C1082.265-1162,1082.112-1161.7,1082.316-1161.187Z" transform="translate(-164.644 -95.093)" fill="#fff"/>
      <path id="Path_382" data-name="Path 382" d="M1156.439-1158.41c-.2.305.1.661.712.814s1.068.407,1.068.61a32.106,32.106,0,0,0,2.288,9.61,15.28,15.28,0,0,1,1.271,2.8c0,1.169,2.237,5.44,2.847,5.44.407,0,.712-.051.712-.153a70.023,70.023,0,0,0-3.661-9.508,13.067,13.067,0,0,1-1.271-3.051,30.776,30.776,0,0,1-.61-4.881,2.2,2.2,0,0,0-1.322-1.627C1156.846-1159.122,1156.846-1159.122,1156.439-1158.41Z" transform="translate(-201.092 -96.598)" fill="#fff"/>
      <path id="Path_383" data-name="Path 383" d="M893.349-1151.627c-.661.61-.356,7.017.407,9.559a20.135,20.135,0,0,0,2.237,4.576c2.186,3.051,2.237,4.932.407,9.152-2.186,4.983-2.186,9.813,0,18.609,2.44,9.61,6.2,19.779,7.322,19.779.559,0,3.813,5.135,5.288,8.338a49.965,49.965,0,0,1,3.3,10.118c1.881,7.677,5.237,14.44,8.593,17.541,2.186,1.983,8.186,4.525,12,5.084,1.983.3,5.593.712,8.084.864a26.385,26.385,0,0,1,5.949,1.017,43.452,43.452,0,0,1,5.389,5.084c3.661,3.864,4.271,4.83,5.949,9.2a118.53,118.53,0,0,1,3.712,13.067c1.627,7.322,1.83,9.05,1.881,15.863.051,7.423,0,7.728-1.474,10.932-1.525,3.356-2.136,4.271-5.44,7.779a9.693,9.693,0,0,0-1.932,2.441c0,1.118,1.373.2,4.322-2.847a19.629,19.629,0,0,0,4.83-7.22l1.678-3.966-.305-7.881c-.305-7.627-.763-10.779-2.949-19.829-1.271-5.135-3.712-11.745-5.288-14.236-1.576-2.441-8.44-9-10.118-9.66a11.6,11.6,0,0,0-3.051-.509,4.628,4.628,0,0,1-2.085-.407,30.769,30.769,0,0,0-6.355-1.119,37.313,37.313,0,0,1-7.118-1.271c-.712-.356-2.034-.966-2.949-1.322-4.525-1.678-9.508-9.355-11.694-18-2.237-8.9-3.3-11.338-7.677-17.9a51.7,51.7,0,0,1-4.525-8.8,151.15,151.15,0,0,1-4.881-17.033c-.153-.864-.508-2.593-.712-3.915-.559-2.746-.2-4.881,1.373-9.355,1.474-4.22,1.576-8.491.2-9.966-2.135-2.339-3.3-6-3.254-10.22C894.468-1151.678,894.214-1152.542,893.349-1151.627Z" transform="translate(-71.62 -100.025)" fill="#fff"/>
      <path id="Path_384" data-name="Path 384" d="M1144.134-1139.833a16.563,16.563,0,0,0-.2,3.254c.051,2.034.356,2.695,1.932,4.322a8.951,8.951,0,0,1,2.034,2.949c.254,1.423-1.475,1.576-2.949.2s-1.932-1.119-1.068.559c.966,1.932,3,2.44,5.186,1.271.966-.559,1.78-1.22,1.78-1.424,0-.254.305-.2.712.1,1.78,1.525,2.593-3.559,1.119-7.067-1.119-2.695-3.051-4.22-5.339-4.373a7.459,7.459,0,0,1-2.491-.407C1144.591-1140.6,1144.235-1140.341,1144.134-1139.833Zm3.763,1.322c1.932.458,3.966,4.017,3.966,6.966q0,2.288-.458,1.525c-.407-.61-.61-.61-1.22-.1-.661.509-.814.407-1.119-.458a8.453,8.453,0,0,0-2.084-2.644,3.97,3.97,0,0,1-1.729-3.762c0-1.525.2-2.136.661-2.034A11.986,11.986,0,0,0,1147.9-1138.51Z" transform="translate(-194.735 -105.668)" fill="#fff"/>
      <path id="Path_385" data-name="Path 385" d="M1090.5-1136.034c0,3.763.966,8.491,1.831,9,.864.559.966-1.78.152-4.118a10.511,10.511,0,0,1-.509-4.83c.356-2.542,0-4.017-.915-4.017C1090.7-1140,1090.5-1138.678,1090.5-1136.034Z" transform="translate(-168.71 -105.907)" fill="#fff"/>
      <path id="Path_386" data-name="Path 386" d="M1125.649-1137.646c-.2.2.2.966.864,1.78,1.678,1.932,2.085,5.39,1.119,8.8-.915,3.051-.61,4.474,1.169,6.1,1.729,1.576,4.068,1.169,6.051-.915,1.525-1.678,2.135-3.356,1.271-3.356a8.171,8.171,0,0,0-2.136,1.78c-3.254,3.356-5.847,1.576-4.728-3.356a21.466,21.466,0,0,0,.61-4.271C1129.869-1134.544,1127.022-1139.019,1125.649-1137.646Z" transform="translate(-185.962 -106.939)" fill="#fff"/>
      <path id="Path_387" data-name="Path 387" d="M1155.417-1112.678a2.482,2.482,0,0,1-1.22,2.39l-1.424,1.068-1.474-1.119c-1.932-1.424-2.593-.559-.864,1.17,1.017,1.017,1.627,1.22,2.695.966,1.83-.407,3.711-2.135,3.711-3.356a.869.869,0,0,1,.966-.915,2.444,2.444,0,0,0,1.576-.763c.559-.661.3-.763-1.729-.763C1155.417-1114,1155.265-1113.949,1155.417-1112.678Z" transform="translate(-197.68 -118.688)" fill="#fff"/>
      <path id="Path_388" data-name="Path 388" d="M1156.126-1088.136c-.305,5.491-1.373,8.237-5.237,13.88-1.983,2.848-2.186,3.509-1.169,3.61,3.508.356,4.83,1.017,6.508,3.508s5.084,4.932,6.05,4.322c.305-.2-.661-1.474-2.186-2.949a40.934,40.934,0,0,1-3.661-4.017,4.586,4.586,0,0,0-2.644-1.729c-2.339-.458-2.491-.966-.763-3.153a17.919,17.919,0,0,0,4.067-10.677c.153-2.441.051-3.661-.356-3.661C1156.431-1089,1156.177-1088.593,1156.126-1088.136Z" transform="translate(-197.525 -130.976)" fill="#fff"/>
      <path id="Path_389" data-name="Path 389" d="M1087.818-1038.985c-3.457,3.458-4.932,5.644-7.169,10.881-.559,1.271-1.576,8.949-1.22,9.3.661.661,1.729-1.271,2.034-3.864a25.448,25.448,0,0,1,7.932-15.863c1.474-1.474,2.491-2.949,2.39-3.457C1091.682-1042.595,1090.564-1041.781,1087.818-1038.985Z" transform="translate(-163.231 -153.993)" fill="#fff"/>
      <path id="Path_390" data-name="Path 390" d="M895.413-1022.627c-.559,1.525-.712,10.169-.254,14.389.153,1.525.407,3.813.559,5.084a80.814,80.814,0,0,0,1.576,9.966c1.22,5.542,1.373,7.728,1.424,23.338,0,10.067-.153,15.558-.61,17.287-1.525,6.406-1.627,9.711-.559,18.761.661,5.288.712,10.779.407,30.3-.153,10.067.305,14.541,1.525,14.9.661.152.915.763.966,2.39.1,2.237.763,3.559,1.831,3.559a15.726,15.726,0,0,1,2.491.559c2.288.61,2.39,1.373.61,6.05a18.156,18.156,0,0,1-6.559,8.288c-1.525,1.068-1.678,1.78-.407,2.237a5.105,5.105,0,0,1,1.576,1.271,4.42,4.42,0,0,0,1.881,1.424c1.779.712,1.525,1.932-1.22,6.152-1.322,2.085-3,4.779-3.661,6.05-.712,1.271-2.237,3.712-3.406,5.389a16.942,16.942,0,0,0-2.186,3.712c0,.305-.2.559-.407.559-.407,0-5.694,10.169-5.694,10.931,0,.153-.915,2.288-2.034,4.678-1.169,2.39-1.932,4.474-1.78,4.627.763.763,2.186-1.169,4.22-5.8,3.864-8.847,5.237-11.542,8.694-16.829,1.83-2.8,4.017-6.254,4.779-7.627.763-1.322,2.237-3.762,3.254-5.39a11.073,11.073,0,0,0,1.881-4.83c.051-1.678-.152-1.983-1.576-2.593-1.932-.864-2.695-2.491-1.474-3.2,1.729-.966,3.508-3.356,5.135-6.762,3.1-6.661,2.746-9.609-1.22-10.22a8.7,8.7,0,0,1-2.491-.661c-.458-.3-.966-2.034-1.068-4.017a.835.835,0,0,0-.813-.61c-.61,0-.763-.864-.864-4.22-.152-8.084-.051-16.372.254-18.151a29.663,29.663,0,0,0,.305-3.763c.051-1.118.153-1.881.305-1.78.1.153.356,5.593.559,12.152.153,6.559.508,12.152.712,12.406,1.373,1.424,1.576-.712,1.424-15.863-.1-14.745-.051-15.863,1.068-20.694,1.729-7.372,2.034-9.3,2.034-12.762.051-3.356-1.068-6.813-2.135-6.813-1.169,0-1.373.61-.61,1.729,1.322,1.831.966,6.762-1.169,17.592-.61,2.949-1.271,6.813-1.525,8.643l-.458,3.3-.153-4.474a120.663,120.663,0,0,0-.966-12.05c-1.068-9.915-1.068-10.271.1-15.762,1.017-4.881,1.119-6.711,1.068-21.1-.051-14.948-.153-16.067-1.373-22.117-.763-3.508-1.474-7.83-1.678-9.66a24.2,24.2,0,0,0-.458-3.559c-.1-.2-.356-3.661-.559-7.779-.254-5.593-.2-7.627.254-8.186.661-.814.356-1.83-.508-1.83C896.175-1024,895.718-1023.39,895.413-1022.627Z" transform="translate(-65.956 -162.928)" fill="#fff"/>
      <path id="Path_391" data-name="Path 391" d="M1176.009-1000.576c-.915,2.695,1.526,7.728,3.813,7.728,1.576,0,5.237-3.559,5.237-5.085,0-1.576-.712-1.22-2.745,1.271a9.393,9.393,0,0,1-2.339,2.288c-.814,0-2.085-2.339-2.39-4.322l-.305-1.83,3.254.051c4.322.1,4.423.1,3.3-.763-.661-.508-2.186-.763-4.169-.763C1176.67-1002,1176.467-1001.949,1176.009-1000.576Z" transform="translate(-210.645 -173.742)" fill="#fff"/>
      <path id="Path_392" data-name="Path 392" d="M1103.1-988.79c-.051,2.39,5.644,8.186,10.626,10.677,3.356,1.729,4.169,3.2,4.424,7.881.3,5.135.508,5.8,1.474,4.525.814-1.119.966-4.83.254-7.322l-.508-1.627h2.491c1.678,0,2.542-.254,2.746-.763.2-.61-.254-.763-2.644-.763-2.593,0-3.152-.2-4.373-1.474a10.742,10.742,0,0,0-3.051-2.135c-3-1.22-9.1-6.508-10.83-9.355C1103.151-990.112,1103.1-990.061,1103.1-988.79Z" transform="translate(-174.903 -179.732)" fill="#fff"/>
      <path id="Path_393" data-name="Path 393" d="M1200.888-987.661c-1.169.458-2.695,4.118-2.339,5.593.61,2.44,1.627,3.2,4.474,3.2,3.813,0,4.576.763,6.356,6.355a50.928,50.928,0,0,1,1.576,5.339c0,.814,3,7.169,3.813,8.135a6.839,6.839,0,0,1,1.119,2.441c.2.915.661,1.729.915,1.78.763.152.865-2.8.153-4.017a48.7,48.7,0,0,1-5.034-11.491c-1.169-3.407-2.441-6.813-2.847-7.525-.966-1.627-2.847-2.542-5.44-2.542-2.695,0-3.406-.508-3.457-2.491-.051-1.678,1.271-3.61,2.492-3.61.407,0,1.983,1.271,3.457,2.847,2.288,2.441,2.8,2.8,3.712,2.288,1.017-.559,1.78-2.288,1.22-2.847-.2-.152-.661.2-1.119.763-.814,1.068-.864,1.068-3.254-1.729S1203.023-988.525,1200.888-987.661Z" transform="translate(-221.796 -180.607)" fill="#fff"/>
      <path id="Path_394" data-name="Path 394" d="M1232.651-985.288a12.336,12.336,0,0,1-.2,1.678c-.356,1.729,1.119,9.508,2.542,13.474.763,2.085,1.78,5.186,2.237,6.864a113.3,113.3,0,0,0,6.2,15.762c2.746,5.135,5.542,10.881,5.542,11.338,0,1.119,4.424,11.338,5.9,13.626a25.683,25.683,0,0,0,7.779,7.474,68.328,68.328,0,0,1,10.881,6.762c4.271,3.254,5.084,3.457,4.118,1.017-.407-1.119-8.491-6.813-12.355-8.745a25.328,25.328,0,0,1-9.508-8.847c-1.22-2.135-4.779-10.83-4.779-11.643,0-.559-1.525-3.712-6.051-12.457a44.749,44.749,0,0,1-2.593-5.644,9.965,9.965,0,0,0-.966-2.593,37.164,37.164,0,0,1-1.831-5.034c-.509-1.678-1.068-3.508-1.271-4.068-2.44-6.152-3.152-8.491-3.813-12.253-.407-2.441-.763-4.932-.763-5.593C1233.719-985.39,1232.753-986.457,1232.651-985.288Z" transform="translate(-238.459 -181.709)" fill="#fff"/>
      <path id="Path_395" data-name="Path 395" d="M1109.293-953.542a50.676,50.676,0,0,0-4.525,2.695c-.915.661-2.085,1.424-2.542,1.729-.458.254-2.135,1.424-3.762,2.542-1.576,1.119-3.254,2.237-3.712,2.542-1.22.712-8.644,6.254-10.576,7.83-.864.712-2.441,1.983-3.508,2.847a128.487,128.487,0,0,0-11.287,11.491,41.98,41.98,0,0,1-5.237,5.084c-1.83,1.525-5.135,4.474-7.372,6.559-4.169,3.966-8.9,7.627-9.813,7.627a52.5,52.5,0,0,0-5.949,4.83c-6.813,6.1-12.406,9.66-17.135,10.982-2.288.61-2.8,2.186-.508,1.678a29.648,29.648,0,0,0,9-3.508,24.575,24.575,0,0,1,3.254-1.78c.254,0,6.3-5.339,10.22-9.05a4.346,4.346,0,0,1,1.78-1.119c.864,0,7.22-4.983,11.135-8.745,1.983-1.881,5.237-4.779,7.22-6.356a42.771,42.771,0,0,0,4.983-4.728c2.847-3.712,11.389-11.948,15.965-15.457,11.135-8.44,24.71-17.592,26.134-17.592a.857.857,0,0,0,.915-.763C1113.971-955.373,1112.446-955.119,1109.293-953.542Z" transform="translate(-134.981 -196.879)" fill="#fff"/>
      <path id="Path_396" data-name="Path 396" d="M1175.73-951.32a33.4,33.4,0,0,0,1.017,4.576c.559,1.983,1.169,4.322,1.322,5.186.254,1.678,1.475,6.559,2.288,9.406.305.966.712,2.8.966,4.068a47.794,47.794,0,0,0,1.271,4.779c1.017,3.3,1.017,3.356-.661,3.051-1.576-.305-6.1,1.119-11.542,3.61a48.16,48.16,0,0,1-4.83,2.034,9.091,9.091,0,0,0-2.491,1.322,4.529,4.529,0,0,1-1.627.966,48.658,48.658,0,0,0-4.881,2.085,52.128,52.128,0,0,0-10.321,6.864c-8.287,6.711-8.389,6.762-7.83,7.322.458.458,3.1-1.017,5.135-2.746.356-.305,1.271-1.068,2.034-1.678s2.695-2.135,4.22-3.356c2.949-2.339,4.474-3.2,13.372-7.474,5.593-2.644,7.83-3.2,3.813-.915-1.22.712-4.068,2.441-6.356,3.813a41.806,41.806,0,0,1-5.135,2.9c-3.661,1.169-16.677,12.457-15.355,13.27.356.2,1.475-.458,2.695-1.627,5.593-5.339,8.745-7.677,13.372-9.915a17.579,17.579,0,0,0,3.661-2.034.733.733,0,0,1,.661-.407,14.315,14.315,0,0,0,3.406-1.983c3.406-2.288,8.745-5.135,9.61-5.135,1.068,0,11.847-6.2,11.847-6.813,0-.305-.61-2.695-1.322-5.288a27.672,27.672,0,0,1-1.119-5.288c.1-.305,1.373,1.22,2.8,3.457a24.862,24.862,0,0,1,3.661,8.542,35.44,35.44,0,0,0,2.085,6.356c1.271,2.491,9.05,10.372,10.982,11.186,1.475.559,5.237,5.034,7.678,9.05.508.813,2.339,3.559,4.017,6.1a47.089,47.089,0,0,1,4.017,6.966c.966,2.441,1.78,2.644,1.78.458,0-1.576-1.83-4.932-7.016-12.864-5.288-8.084-6.457-9.457-9.457-11.389-3.356-2.135-9.711-8.643-10.677-10.982a61.14,61.14,0,0,1-1.881-6.051c-1.22-4.627-5.186-11.389-7.322-12.355-.864-.407-2.8-4.118-3.051-6C1179.7-944.049,1175.781-954.676,1175.73-951.32Zm2.288,33.812c-1.881,1.118-5.9,2.746-6.152,2.491-.1-.1.559-.559,1.424-.966C1178.374-918.424,1180.815-919.186,1178.018-917.509Z" transform="translate(-192.164 -198.339)" fill="#fff"/>
      <path id="Path_397" data-name="Path 397" d="M941.89-869.9c0,.1-.1,2.8-.153,6-.1,3.2-.305,6.406-.458,7.118-.2,1.271-1.678,12.3-2.136,16.779-.559,4.83-.457,12.711.153,13.321.966.966,1.475-1.373,1.83-9.3.2-4.118.813-10.525,1.373-14.236.559-3.763,1.118-8.745,1.22-11.135.2-4.271-.458-8.643-1.322-8.643A.944.944,0,0,0,941.89-869.9Z" transform="translate(-94.129 -238.627)" fill="#fff"/>
      <path id="Path_398" data-name="Path 398" d="M1099.186-847.945a7.752,7.752,0,0,1-3.406,1.017c-1.22,0-1.78.254-1.78.763,0,1.169,3.864.966,5.9-.3.966-.559,1.729-1.373,1.729-1.78C1101.627-849.216,1101.169-849.166,1099.186-847.945Z" transform="translate(-170.43 -248.988)" fill="#fff"/>
      <path id="Path_399" data-name="Path 399" d="M943.421-841.322a14.282,14.282,0,0,1-.457,3.915,101.582,101.582,0,0,0-1.525,11.186c-.254,2.847-1.017,9.05-1.729,14.745-.559,4.627-1.729,8.694-2.949,10.576-.508.813-.61,1.322-.2,1.729.559.559,2.695-2.695,3.559-5.695A80.675,80.675,0,0,0,942-814.679c.508-4.169,1.271-11.643,1.576-15.355.152-2.237.61-5.593.966-7.474.458-2.39.458-3.559.1-3.915C943.879-842.186,943.116-842.135,943.421-841.322Z" transform="translate(-92.915 -252.408)" fill="#fff"/>
      <path id="Path_400" data-name="Path 400" d="M1076.255-839.658a14.942,14.942,0,0,0-2.492,3.3c-.2.661-.661.763-1.983.559-1.576-.254-2.034-.051-3.813,1.78-2.135,2.085-2.644,4.169-1.525,6.152.508,1.068,2.847,1.678,4.525,1.22s1.271-1.068-1.068-1.525c-1.983-.407-2.186-.61-2.085-1.83.2-2.746,3.406-5.644,4.423-3.966.559.915,2.339-.1,3.152-1.729a19.413,19.413,0,0,1,2.542-3.712,12.268,12.268,0,0,0,1.729-2.339C1079.662-842.658,1078.238-841.742,1076.255-839.658Z" transform="translate(-156.601 -252.343)" fill="#fff"/>
      <path id="Path_401" data-name="Path 401" d="M1086.413-832.458a14.326,14.326,0,0,1-3.457,2.8c-1.525.509-1.169,1.424.407,1.017,1.576-.356,4.118-2.39,5.339-4.271C1090.684-835.865,1089.565-835.661,1086.413-832.458Z" transform="translate(-164.521 -255.831)" fill="#fff"/>
      <path id="Path_402" data-name="Path 402" d="M1092.02-830.187c.763,2.034-2.491,5.186-5.644,5.39-1.881.1-2.441.458-1.627.966,1.271.814,3.813.458,5.593-.712,2.9-1.932,4.424-6.457,2.135-6.457C1091.969-831,1091.817-830.695,1092.02-830.187Z" transform="translate(-165.704 -257.798)" fill="#fff"/>
      <path id="Path_403" data-name="Path 403" d="M1074-821.538a5.985,5.985,0,0,0,2.8,2.085c.509,0,.254-.966-.559-1.729C1075.373-822.047,1074-822.3,1074-821.538Z" transform="translate(-160.599 -262.226)" fill="#fff"/>
      <path id="Path_404" data-name="Path 404" d="M974.217-812.991c-3.457,4.017-5.491,8.084-7.779,15.66-2.39,7.932-3.1,9.508-16.88,37.371-3.508,7.118-4.118,8.9-2.847,8.9,1.169,0,18.812-36.1,20.592-42.2.305-.966,1.017-3.457,1.576-5.491a42.418,42.418,0,0,1,5.593-11.8C976.658-813.753,976.455-815.584,974.217-812.991Z" transform="translate(-97.73 -266.045)" fill="#fff"/>
      <path id="Path_405" data-name="Path 405" d="M1052.131-811.937c-1.474,1.373-1.474,3.356,0,3.864.864.254,1.424-.051,2.542-1.322,1.627-1.779,1.678-3.2.2-3.457-.712-.153-.864,0-.61.661a1.873,1.873,0,0,1-.508,1.83c-1.322,1.475-1.83,1.119-.966-.61C1053.809-812.9,1053.555-813.259,1052.131-811.937Z" transform="translate(-149.306 -266.692)" fill="#fff"/>
      <path id="Path_406" data-name="Path 406" d="M999.883-807.707c-.508.813-2.288,3.915-3.915,7.016-2.644,5.034-3.813,6.762-8.745,12.914-.763.915-2.39,3.2-3.661,5.084-1.22,1.83-3.3,4.729-4.576,6.406-1.932,2.491-8.084,11.389-13.474,19.575a42.778,42.778,0,0,1-4.322,4.83c-3.2,3.152-3.61,3.813-2.339,3.813,1.729,0,7.423-6.356,12.66-14.135,4.525-6.813,11.847-17.287,13.474-19.219a13.338,13.338,0,0,0,1.068-1.78,32.514,32.514,0,0,1,2.491-3.508c2.085-2.593,1.983-2.491,4.322-5.593,1.271-1.78,6.864-12.1,8.847-16.423C1002.171-809.69,1000.747-808.927,999.883-807.707Z" transform="translate(-103.667 -268.533)" fill="#fff"/>
      <path id="Path_407" data-name="Path 407" d="M1068.782-807.923c-1.983,1.22-3.1,2.542-2.695,3.152.153.2.61.153,1.068-.2.508-.305.051.152-.915,1.017a6.355,6.355,0,0,1-2.441,1.576c-.356,0-.508.2-.356.508.966,1.525,5.339-1.373,5.339-3.559,0-.763.509-1.271,1.78-1.83.966-.407,1.78-.966,1.78-1.22C1072.341-809.347,1070.663-809.042,1068.782-807.923Z" transform="translate(-155.381 -268.621)" fill="#fff"/>
      <path id="Path_408" data-name="Path 408" d="M1061.839-803.78c-.153.661-.458,1.627-.61,2.186-.305.813-.254.813.458.153.966-.915,1.678-3.559.966-3.559C1062.4-805,1061.992-804.441,1061.839-803.78Z" transform="translate(-154.234 -270.578)" fill="#fff"/>
      <path id="Path_409" data-name="Path 409" d="M1083.49-799.857l-2.847,2.949.2,4.78c.254,5.389-.61,9.965-3.559,18.456-2.39,6.864-3.1,8.44-6,13.372a72.511,72.511,0,0,0-3.763,7.271c-.712,1.678-1.983,4.474-2.8,6.152-.864,1.729-1.423,3.2-1.271,3.356.712.712,1.983-.864,4.068-5.084,1.322-2.593,2.237-4.271,2.085-3.712s-.407,1.881-.61,2.9c-.2,1.424-1.271,2.9-4.067,5.847-3.3,3.508-4.423,5.237-3.458,5.237a16.984,16.984,0,0,0,2.8-2.085c2.288-1.881,2.441-1.983,2.034-.813a20.579,20.579,0,0,1-4.068,6.152c-.966.864-1.017,1.322-.763,5.084.305,4.118.2,4.678-2.085,10.067-.254.712-.1.915.661.915s1.271-.712,2.034-2.695a15.357,15.357,0,0,0,1.119-9.1c-.458-2.339-.407-2.593.813-3.864a17.882,17.882,0,0,0,3.966-7.983,7.547,7.547,0,0,1,1.22-3.152c1.119-1.627,2.39-7.322,1.932-9.05-.2-.712.407-2.237,1.83-4.627,3.051-5.135,4.169-7.83,7.271-16.779,1.881-5.491,2.949-12.558,2.593-16.829-.305-3.356-.254-3.661.814-4.576,1.881-1.474,4.017-4.271,3.661-4.779C1086.846-803.213,1086.49-802.959,1083.49-799.857Z" transform="translate(-153.362 -271.654)" fill="#fff"/>
      <path id="Path_410" data-name="Path 410" d="M1048.6-795.968c-2.44,1.932-3.2,3.051-2.084,3.051.559,0,1.729-.864,4.525-3.407C1053.733-798.765,1051.75-798.459,1048.6-795.968Z" transform="translate(-146.84 -274.017)" fill="#fff"/>
      <path id="Path_411" data-name="Path 411" d="M1117.482-797.173a16.363,16.363,0,0,0-.1,2.949c.1,1.119.2,3.61.254,5.593.051,3.254.1,3.457.864,2.695.712-.712.763-1.627.458-6.457C1118.6-797.63,1118.093-799.308,1117.482-797.173Z" transform="translate(-181.913 -273.982)" fill="#fff"/>
      <path id="Path_412" data-name="Path 412" d="M1057.72-790.454a3.521,3.521,0,0,1-4.22.407c-1.271-.661-1.779-.254-.915.814.966,1.119,4.729,1.017,5.8-.2C1059.7-790.861,1059.195-791.623,1057.72-790.454Z" transform="translate(-149.861 -277.447)" fill="#fff"/>
      <path id="Path_413" data-name="Path 413" d="M1065.791-786.84c-3.508,3.559-5.389,4.627-9.66,5.542-3.254.712-6.355,2.085-11.084,4.932-2.695,1.627-2.949,1.932-2.644,3.152a17.1,17.1,0,0,0,2.237,4.118,15.462,15.462,0,0,1,2.288,4.474c.458,1.881,1.83,2.237,1.83.458,0-.915.458-1.271,2.288-1.83,2.034-.61,5.644-3.762,7.22-6.356.661-1.017,3.864-3.2,5.695-3.813,2.8-.915,6.1-5.593,6.152-8.593,0-1.932-1.271-1.22-1.932,1.119-.865,2.746-3.2,5.695-4.983,6.1-2.288.61-5.389,3.051-8.034,6.3-2.135,2.695-4.881,4.729-6.254,4.678a23.546,23.546,0,0,1-2.847-3.407c-2.8-3.915-2.847-3.763,2.441-6.508,1.983-1.017,3.813-2.034,4.068-2.237a15.409,15.409,0,0,1,3.813-1.068,19.668,19.668,0,0,0,5.39-1.83c2.237-1.322,7.83-6.864,7.83-7.779C1069.6-790.45,1068.841-789.89,1065.791-786.84Z" transform="translate(-145.017 -278.011)" fill="#fff"/>
      <path id="Path_414" data-name="Path 414" d="M1281.388-778.519c-.407.712.152.915,3.407,1.271,3.508.458,3.966,1.119,6.406,8.8.915,2.9,2.085,5.644,2.593,6.1a16.407,16.407,0,0,1,2.135,3.2,15.718,15.718,0,0,0,2.593,3.559c1.525,1.373,4.983,8.084,4.983,9.609a2.1,2.1,0,0,0,.356,1.271,15.116,15.116,0,0,1,1.22,3.254c.458,1.576,1.474,4.474,2.237,6.457,3.61,9.3,3.712,9.762,4.067,15.508.661,12.05.712,14.8.254,18.558-.254,2.237-.712,7.169-1.017,10.932-.458,6.1-1.169,12.559-1.83,16.27-.152.712-.458,3.2-.762,5.593s-.712,5.8-.915,7.627c-.712,5.949.153,14.491,1.475,14.491.61,0,.712-.61.508-3.051-.407-5.44-.254-12.66.356-15.508.915-4.271,2.695-18.457,3-23.9.153-2.644.61-7.322.966-10.372.966-7.728.051-25.931-1.474-29.541a165.174,165.174,0,0,1-6.152-17.033,35.8,35.8,0,0,0-5.9-11.491,28.044,28.044,0,0,1-2.8-3.813,10.714,10.714,0,0,0-1.729-2.491c-.559-.559-1.729-3.3-2.593-6.2-1.881-6.1-3.356-8.288-6-9.05C1284.49-779.078,1281.8-779.129,1281.388-778.519Z" transform="translate(-262.485 -283.383)" fill="#fff"/>
      <path id="Path_415" data-name="Path 415" d="M940.854-724.96c-3.152,2.491-19.321,18.609-23.948,23.846-1.932,2.186-5.9,6.457-8.745,9.406-4.474,4.729-6.3,6.966-8.542,10.576a64.552,64.552,0,0,1-7.881,9.457,62.219,62.219,0,0,0-6.508,8.135c-1.83,2.8-4.271,6.356-5.389,7.881-1.729,2.339-4.373,6.864-4.373,7.474,0,.1.3.152.712.152.813,0,4.881-5.491,9.762-13.169a73.627,73.627,0,0,1,7.271-9.254,67.285,67.285,0,0,0,9.254-11.491,104.252,104.252,0,0,1,8.593-10.169c2.949-3.051,6.61-7.016,8.135-8.8,1.525-1.83,5.542-6.05,8.9-9.457s6.966-7.067,7.932-8.135c1.017-1.119,3.254-3.356,4.932-4.983,2.39-2.339,3.051-2.746,2.8-1.83-.915,3.457-8.542,13.474-13.677,18-5.339,4.627-19.016,18.507-20.846,21.1-2.949,4.169-7.576,10.83-8.339,11.948a28.573,28.573,0,0,1-3.915,5.186,4.137,4.137,0,0,0-1.17,1.424,32.373,32.373,0,0,1-2.949,4.271c-3.3,4.423-6.2,8.643-6.2,9.1a12.616,12.616,0,0,1-1.424,2.135,34.329,34.329,0,0,0-2.9,4.373c-.813,1.373-3.1,4.678-5.084,7.322-6.356,8.491-8.847,12-8.9,12.559a1.84,1.84,0,0,1-.712,1.169c-.864.712-4.068,6.1-7.017,11.643a44.834,44.834,0,0,1-2.695,4.678c-2.339,2.695-6.406,13.626-7.067,19.067-.1,1.119-.356,2.949-.559,4.068-.153,1.119-.356,3.457-.458,5.135a50.878,50.878,0,0,1-3.966,16.118c-1.932,4.525-2.034,4.881-2.237,10.118-.152,4.423-.509,5.644-2.593,8.338a56.892,56.892,0,0,0-5.186,8.135,32.153,32.153,0,0,1-2.542,4.017,30.842,30.842,0,0,0-3.61,5.695,6.6,6.6,0,0,1-1.373,1.78c-1.576,1.678-1.22,2.441.61,1.22,1.322-.864,5.9-7.372,8.593-12.152.813-1.474,2.542-4.068,3.813-5.847,3.813-5.237,4.118-6,4.118-10.525a23.7,23.7,0,0,1,2.491-11.033c1.729-3.813,3-9.813,3.864-17.948.966-9.61,2.339-15.05,5.237-20.846,1.22-2.542,2.441-4.83,2.644-5.084.356-.458,1.881-3.254,4.983-9.152a59.741,59.741,0,0,1,3.152-5.084c.966-1.424,2.085-3.1,2.441-3.813.712-1.373,7.881-11.338,9.3-12.864a43.757,43.757,0,0,0,3.3-5.339,61.942,61.942,0,0,1,4.525-6.966c2.288-2.847,7.016-9.2,8.9-11.948a33.805,33.805,0,0,1,2.593-3.3c.763-.864,3.152-4.169,5.339-7.372s4.474-6.406,5.135-7.118a4.452,4.452,0,0,0,1.169-1.831c0-.61,14.9-15.863,21.863-22.372,5.745-5.339,11.9-14.287,12.3-17.8C944.921-727.248,943.7-727.2,940.854-724.96Z" transform="translate(-39.35 -309.079)" fill="#fff"/>
      <path id="Path_416" data-name="Path 416" d="M934.436-688.215c-2.8,3.661-4.068,6.356-3,6.356a1.048,1.048,0,0,0,.814-.661c.153-.305.2.051.1.864-.407,3.1.966,3.966,1.525.915.559-2.9,2.491-5.695,4.322-6.05a4.019,4.019,0,0,0,1.78-.712c.559-.915-1.475-1.068-3.1-.3l-1.729.813,1.525-2.186a15.187,15.187,0,0,0,1.474-2.542C938.148-692.689,936.979-691.57,934.436-688.215Z" transform="translate(-90.336 -326.096)" fill="#fff"/>
      <path id="Path_417" data-name="Path 417" d="M924.187-688.775a18.013,18.013,0,0,1-2.39,3.152c-1.322,1.22-2.644,3.559-2.186,4.017.661.661,6-5.8,6.559-8.033C926.678-691.673,925.61-691.216,924.187-688.775Z" transform="translate(-84.662 -326.654)" fill="#fff"/>
      <path id="Path_418" data-name="Path 418" d="M937.571-680.124c-.763,2.288-4.729,6.661-6.864,7.576a2.777,2.777,0,0,0-1.932,2.644,12.364,12.364,0,0,1-1.627,3.966c-1.424,2.034-3.915,10.728-3.254,11.135.763.458,1.474-1.068,2.339-4.83a21.046,21.046,0,0,1,2.034-5.593,10.759,10.759,0,0,0,1.525-3.457,3.7,3.7,0,0,1,1.678-2.491c3.559-2.237,7.678-7.627,7.678-10.067C939.148-682.666,938.232-682.005,937.571-680.124Z" transform="translate(-86.76 -331.035)" fill="#fff"/>
      <path id="Path_419" data-name="Path 419" d="M939.545-675.653c-2.135,3.508-2.339,4.373-.864,3.152.813-.661,3.762-5.491,3.762-6.2C942.443-679.822,941.375-678.652,939.545-675.653Z" transform="translate(-93.614 -332.455)" fill="#fff"/>
      <path id="Path_420" data-name="Path 420" d="M1086.948-676.865a38.19,38.19,0,0,1-4.83,8.8c-2.135,2.847-4.118,6.05-4.118,6.559,0,.966,1.424.051,2.542-1.627.712-1.017,2.034-2.9,3-4.169,2.949-3.915,6.152-11.694,4.78-11.694C1088.067-679,1087.457-678.034,1086.948-676.865Z" transform="translate(-162.565 -332.515)" fill="#fff"/>
      <path id="Path_421" data-name="Path 421" d="M1088.1-665.019a8.8,8.8,0,0,0-.3,2.237,40.665,40.665,0,0,1-2.034,7.118,54.044,54.044,0,0,0-2.186,7.118,6.664,6.664,0,0,1-.458,1.83,77.949,77.949,0,0,0-.61,8.9c-.763,18.711-1.22,22.066-4.068,31.168-.915,2.949-1.576,13.169-.966,14.338.915,1.627,1.627-.458,1.729-5.288.1-5.288.152-5.593,2.39-13.27,1.576-5.339,2.034-9.355,2.39-20.083.356-11.847,1.118-17.592,3.3-24.1,1.983-6.1,2.441-8.8,1.576-10.118C1088.5-665.731,1088.352-665.68,1088.1-665.019Z" transform="translate(-162.189 -339.123)" fill="#fff"/>
      <path id="Path_422" data-name="Path 422" d="M898.926-661.61c-.915,1.373-2.542,3.407-3.559,4.627a24.865,24.865,0,0,0-5.135,9.711c-1.017,3.356-2.593,5.339-6,7.678-2.9,2.034-3.559,2.695-3.559,3.661,0,1.017.763,1.22,1.322.356a21.2,21.2,0,0,1,3.356-2.8c3.915-2.9,4.83-4.118,6.254-8.288a51.471,51.471,0,0,1,2.135-5.237c1.068-2.034,4.271-6.152,4.525-5.847.254.2-3.2,10.271-4.22,12.253a37.008,37.008,0,0,1-2.542,4.068c-1.78,2.491-6.559,12.965-7.779,17.084-1.017,3.406-6.813,15.3-8.389,17.185-2.135,2.542-1.22,3.254,1.068.763,2.593-2.746,6.61-10.626,8.9-17.439,1.932-5.8,5.847-14.44,7.677-17.084a35.924,35.924,0,0,0,2.949-5.288c1.576-3.813,4.576-13.83,4.22-14.389a2.492,2.492,0,0,1,.559-1.627c.915-1.424,1.017-1.78.305-1.78A7.389,7.389,0,0,0,898.926-661.61Z" transform="translate(-62.351 -339.888)" fill="#fff"/>
      <path id="Path_423" data-name="Path 423" d="M902.227-658.65a10.061,10.061,0,0,1-2.9,2.542c-.915.3-3.1,3.254-4.373,5.847-.915,1.83-2.695,8.8-2.39,9.254.559.864,1.17-.254,2.695-4.881s3.813-8.949,4.729-8.949c.661,0,4.983-4.678,4.983-5.44C904.972-661.4,904.311-660.989,902.227-658.65Z" transform="translate(-71.397 -341.425)" fill="#fff"/>
      <path id="Path_424" data-name="Path 424" d="M1292.1-652.16c-.051,2.746,2.034,8.339,3.813,10.22,1.525,1.627,5.593,3.356,6.254,2.695.458-.458-1.932-2.288-2.949-2.288-1.068,0-3.762-2.695-3.966-3.966-.051-.508.712-1.525,1.78-2.491,2.288-1.932,1.983-2.644-.458-.915-1.627,1.22-1.729,1.271-2.39.407a7.076,7.076,0,0,1-.915-2.186,13.458,13.458,0,0,0-.712-2.288C1292.2-653.787,1292.1-653.635,1292.1-652.16Z" transform="translate(-267.807 -345.067)" fill="#fff"/>
      <path id="Path_425" data-name="Path 425" d="M1104.254-632.29a16.843,16.843,0,0,0-1.373,3.152,41.188,41.188,0,0,1-1.932,4.576A33.33,33.33,0,0,0,1098-612.919c0,2.9.814,3.254,1.322.508a64.862,64.862,0,0,1,3.152-11.847C1104.711-629.138,1105.83-634.172,1104.254-632.29Z" transform="translate(-172.396 -355.277)" fill="#fff"/>
      <path id="Path_426" data-name="Path 426" d="M1088.428-625.2c-1.169,1.373-2.695,9.2-3.458,17.694-.458,4.627-1.017,9.05-1.271,9.915-.254.813-.712,2.9-1.017,4.576a128.849,128.849,0,0,1-4.068,13.982,96.494,96.494,0,0,0-3.356,16.524c-.153,1.373-.458,3.915-.763,5.593a52.146,52.146,0,0,0-.458,6.457c0,1.881-.254,5.084-.508,7.22-.305,2.085-.661,4.678-.814,5.745s-.305,8.694-.407,16.931c-.254,20.439-1.169,26.846-6.152,44.489-2.186,7.779-3.762,14.948-3.406,15.965s1.119.61,1.678-.864a36.1,36.1,0,0,0,1.22-4.932c.356-1.983,1.475-6.406,2.542-9.915,3.2-11.033,3.152-10.626,5.644-27.558.153-1.068.356-8.949.458-17.541.1-11.135.356-17.185.966-21a83.066,83.066,0,0,0,.814-8.491c0-8.491,2.441-21.812,6.254-34.218A108.167,108.167,0,0,0,1086.5-604.2c.966-11.948,1.169-13.474,2.084-17.236C1089.5-624.9,1089.394-626.423,1088.428-625.2Z" transform="translate(-155.045 -358.755)" fill="#fff"/>
      <path id="Path_427" data-name="Path 427" d="M1298.644-623.554c-.508.508,2.441,2.186,4.627,2.644,1.78.356,1.881.508,1.983,2.644a123.507,123.507,0,0,0,1.729,13.22,46.726,46.726,0,0,1,.61,4.932c.152,3.1.559,3.712,1.373,2.186.661-1.271.559-3.2-.661-9.915a67.371,67.371,0,0,1-1.373-10.677c0-2.746-.407-3.2-3.356-4.017-1.373-.407-2.949-.864-3.508-1.068A1.85,1.85,0,0,0,1298.644-623.554Z" transform="translate(-270.996 -359.691)" fill="#fff"/>
      <path id="Path_428" data-name="Path 428" d="M857.194-606.88c-.458.712-2.034,3.3-3.457,5.847A95.6,95.6,0,0,1,846.721-590c-2.034,2.9-2.949,4.576-2.593,4.779.61.407,3.1-2.186,5.288-5.389a76.113,76.113,0,0,0,6.356-10.626c1.424-2.746,2.491-5.491,2.39-6C858.008-608.05,857.855-608,857.194-606.88Z" transform="translate(-47.567 -367.518)" fill="#fff"/>
      <path id="Path_429" data-name="Path 429" d="M868.369-604.185a22.665,22.665,0,0,1-1.576,2.9c-1.983,3.2-4.525,9.559-4.881,12.254-.712,5.949-.864,8.186-1.068,18.812-.1,6.152-.356,12.152-.559,13.321-.2,1.373-.153,2.186.2,2.186,1.424,0,2.085-5.39,2.186-18,.1-15.1.763-18.609,5.034-27.609,1.119-2.288,2.034-4.322,2.034-4.474C869.742-605.456,868.674-604.948,868.369-604.185Z" transform="translate(-55.488 -368.84)" fill="#fff"/>
      <path id="Path_430" data-name="Path 430" d="M877.319-592.874a48.425,48.425,0,0,0-6.966,13.372c-.864,3-.864,3.356-.152,3.2.458-.1,1.22-1.475,1.932-3.458a54.567,54.567,0,0,1,6.508-12.66,16.321,16.321,0,0,0,1.881-3.152C880.522-596.738,879.353-595.772,877.319-592.874Z" transform="translate(-60.167 -373.288)" fill="#fff"/>
      <path id="Path_431" data-name="Path 431" d="M1056.289-591.91c-4.118,6.152-5.491,10.525-6.2,19.27-.559,6.508-.356,18.05.3,21.863.305,1.525.966,9.152,1.576,16.982a190.579,190.579,0,0,0,2.288,20.643,36.039,36.039,0,0,1,.966,12.457c-.2,3.356-.407,8.542-.508,11.542a63.449,63.449,0,0,1-.509,7.067c-.254,1.22-.2,1.525.305,1.373,1.322-.458,1.83-2.491,1.932-7.423.051-2.695.305-7.576.61-10.779.559-6,.356-8.237-1.78-19.829a78.99,78.99,0,0,1-1.017-8.389c-1.068-15.813-1.373-20.287-1.576-20.592a27.161,27.161,0,0,1-.508-4.118c-.152-2.085-.407-5.135-.61-6.813-.356-3.915-.356-4.322.305-12.2.712-8.389.966-10.271,1.627-12.457a46.108,46.108,0,0,1,4.118-8.237,5.049,5.049,0,0,0,.915-1.881C1058.526-594.554,1057.611-593.944,1056.289-591.91Z" transform="translate(-148.684 -374.302)" fill="#fff"/>
      <path id="Path_432" data-name="Path 432" d="M1318.506-587.881a98.965,98.965,0,0,0-1.322,11.9c0,2.746-1.627,4.779-5.084,6.356-2.186,1.017-3.458,2.237-2.847,2.847.356.356,4.576-1.474,6.3-2.746,2.339-1.729,2.949-3.356,3.3-8.542.2-2.542.509-6,.661-7.779.254-2.186.152-3.152-.2-3.152S1318.608-588.492,1318.506-587.881Z" transform="translate(-276.164 -376.755)" fill="#fff"/>
      <path id="Path_433" data-name="Path 433" d="M878.15-572.288c-2.441,3.3-8.033,11.8-9.254,14.033-.814,1.525-2.593,4.474-3.864,6.508-1.322,2.034-3.61,6.152-5.135,9.152-6,11.948-10.982,22.372-12.2,25.676-.712,1.881-1.627,4.169-2.034,5.084a42.329,42.329,0,0,0-2.847,9,1.963,1.963,0,0,1-.305,1.119c-.153.2-1.322,3.356-2.542,7.067-1.271,3.712-2.644,7.423-3.051,8.237-.559,1.017-.661,1.627-.254,2.034.661.661,1.881-.305,2.237-1.83a108.489,108.489,0,0,1,3.712-10.372,9.314,9.314,0,0,0,.712-2.542,2.779,2.779,0,0,1,.407-1.424,28.023,28.023,0,0,0,1.627-4.83,37.129,37.129,0,0,1,1.525-4.83,45.537,45.537,0,0,0,1.983-4.83c3.051-8.033,13.626-29.236,19.168-38.489,2.085-3.407,3.763-6.3,3.763-6.457,0-.356,3.915-6.61,5.949-9.559,1.627-2.39,2.034-3.457,1.271-3.457A1.482,1.482,0,0,0,878.15-572.288Z" transform="translate(-43.812 -384.62)" fill="#fff"/>
      <path id="Path_434" data-name="Path 434" d="M797.171-562.573c-1.525,1.017-7.322,9.508-8.339,12.1-.61,1.627-2.085,5.135-3.356,7.728a53.459,53.459,0,0,0-2.237,5.186c0,.559-4.728,14.338-6.61,19.27a74.829,74.829,0,0,1-3.712,7.881c-1.119,1.983-2.644,5.084-3.407,6.915s-2.135,4.881-3.051,6.864a124.641,124.641,0,0,0-6,14.541c-1.169,3.2-3.559,10.271-5.389,15.711a158.139,158.139,0,0,1-5.644,14.9,29.793,29.793,0,0,0-2.135,5.237c1.424,1.424,5.39-7.271,11.033-24.2,4.017-11.948,5.9-17.033,8.9-23.643,4.881-10.779,5.593-12.253,7.627-16.016a61.8,61.8,0,0,0,2.8-6.1c.61-1.525,1.729-4.423,2.542-6.356.814-1.983,2.339-6.3,3.356-9.66a88.236,88.236,0,0,1,3.559-9.66c.915-1.983,2.39-5.339,3.254-7.525a53.5,53.5,0,0,1,4.881-8.491,49.351,49.351,0,0,0,3.254-4.83C798.493-563.082,797.832-563.031,797.171-562.573Z" transform="translate(0 -389.555)" fill="#fff"/>
      <path id="Path_435" data-name="Path 435" d="M848.919-555.008c-.458.966-1.373,3.1-2.034,4.678-1.83,4.068-2.135,6.559-1.017,7.779,2.644,2.949,4.373-.1,4.271-7.423a30.131,30.131,0,0,1,.254-5.695.637.637,0,0,0-.2-.864C849.885-556.737,849.326-556.025,848.919-555.008Zm-.763,10.932c-.305.559-.763.915-1.068.763-.712-.458-.559-2.237.458-4.83l.864-2.288.153,2.644A9.042,9.042,0,0,1,848.157-544.077Z" transform="translate(-48.138 -392.697)" fill="#fff"/>
      <path id="Path_436" data-name="Path 436" d="M837.755-525.041c-1.525,3.254-1.831,8.237-.559,10.626.661,1.322.661,1.525-.254,2.339-1.576,1.424-2.644,5.288-2.034,7.372.915,3.051.61,6.2-.915,10.677-1.474,4.118-1.576,5.084-.661,5.084.763,0,3.712-9.1,3.712-11.389a17.014,17.014,0,0,0-.661-4.271,5.639,5.639,0,0,1,.254-4.423,6.678,6.678,0,0,1,1.932-2.847c2.44-1.322,4.983-11.338,3.1-12-.458-.153-.661.407-.661,1.881a25.685,25.685,0,0,1-.864,5.44c-.813,3.254-.813,3.3-1.525,1.983-1.017-1.932-.966-7.271.1-9.813C840.042-527.685,839.28-528.193,837.755-525.041Z" transform="translate(-42.007 -407.157)" fill="#fff"/>
      <path id="Path_437" data-name="Path 437" d="M1314.036-525.261a35.907,35.907,0,0,1-2.542,5.644c-2.593,5.135-3.406,8.084-1.678,6.406.763-.814.915-.763,2.237.254,4.729,3.661,4.576,3.356,4.83,7.728.254,3.508.051,4.983-1.322,10.372l-1.678,6.3.3,12.253c.153,7.067.559,13.118.915,14.287.864,2.949.763,13.474-.305,33.811-.1,2.644-.407,7.728-.559,11.237-.254,4.373-.153,6.508.2,6.762.305.153.661.153.814-.1.508-.864,1.373-13.169,1.627-24,.152-6.3.509-13.016.814-14.9.559-3.712.305-7.677-.915-14.338a116.731,116.731,0,0,1-.813-15.508c-.1-11.186-.051-11.542,1.271-15.711a22.137,22.137,0,0,0,1.322-9c-.051-2.593-.305-5.237-.661-5.847a14.922,14.922,0,0,0-3.61-3.3c-1.678-1.169-3-2.44-2.9-2.847.1-.356.966-2.237,1.932-4.169,1.78-3.661,2.085-5.084,1.22-5.644C1314.29-525.719,1314.036-525.617,1314.036-525.261Z" transform="translate(-276.067 -407.902)" fill="#fff"/>
      <path id="Path_438" data-name="Path 438" d="M829.517-501.509c0,1.424-.2,2.695-.508,2.847-.254.153-.508.051-.508-.2a.518.518,0,0,0-.458-.559c-.2,0-.559,1.678-.712,3.661a41.68,41.68,0,0,1-1.627,7.779,31.248,31.248,0,0,0-1.474,8.389,27.265,27.265,0,0,1-1.831,8.9c-.864,2.491-1.678,4.779-1.729,5.085-.1.254-.254.864-.407,1.271-.966,2.593-5.186,16.321-6.254,20.338-.712,2.644-1.729,6.2-2.237,7.881a38.668,38.668,0,0,0-1.271,4.83c-.2.966-.915,3.61-1.576,5.847a70.829,70.829,0,0,0-1.729,7.677,32.935,32.935,0,0,1-.864,4.423c-.153.508-.051.864.254.864.763,0,1.525-2.085,2.186-5.847a55.65,55.65,0,0,1,1.678-6.864c1.474-4.678,3.356-11.287,5.135-18.05a77.242,77.242,0,0,1,2.288-7.576,19.474,19.474,0,0,0,.966-3.051c0-.305,1.525-5.135,3.356-10.728,2.949-8.847,3.406-10.728,3.508-14.491a37,37,0,0,1,1.474-8.847,44.009,44.009,0,0,0,1.373-5.847c0-.712.153-1.017.305-.712.254.712-.559,6.457-1.119,7.881-.2.508-.152.915.153.915.763,0,1.576-2.441,2.135-6.356.661-4.678.661-11.948,0-11.948C829.771-504,829.517-502.881,829.517-501.509Z" transform="translate(-28.991 -418.537)" fill="#fff"/>
      <path id="Path_439" data-name="Path 439" d="M1313.442-493.237c.153.407-.254,1.373-.864,2.186a21.933,21.933,0,0,0-2.441,4.068c-1.169,2.491-1.22,2.847-.61,5.084.407,1.322.864,3.508,1.119,4.881a9.457,9.457,0,0,0,.915,3c.763.763,1.678-.152,1.271-1.271a15.069,15.069,0,0,1-.407-2.085c-.1-.61-.559-2.441-1.017-4.068-.865-2.949-.865-2.949.407-5.593.712-1.474,1.678-3.254,2.135-3.966.865-1.322.712-3-.254-3C1313.391-494,1313.29-493.644,1313.442-493.237Z" transform="translate(-276.184 -423.453)" fill="#fff"/>
      <path id="Path_440" data-name="Path 440" d="M1334.305-490.358c.457,2.9,1.779,15.762,2.034,19.779.153,2.085.509,6.457.763,9.66.915,10.474,1.017,12.3,1.322,24.405.153,6.559.407,13.728.508,15.914a138.052,138.052,0,0,0,3.356,18.456,27.738,27.738,0,0,1,.61,4.779c.1,3.356,1.017,4.678,1.526,2.186.356-1.78-.2-6.152-1.881-14.389-1.78-8.847-1.83-9.559-2.085-21.863-.3-15.558-1.017-27.456-2.034-34.828-.1-.864-.458-4.627-.763-8.389-.763-9-2.085-16.88-2.949-17.185C1334.2-491.984,1334.1-491.629,1334.305-490.358Z" transform="translate(-288.506 -424.502)" fill="#fff"/>
    </g>
  </g>
</svg>
