<svg id="Component_36_1" data-name="Component 36 – 1" xmlns="http://www.w3.org/2000/svg" width="40" height="40" viewBox="0 0 40 40">
  <rect id="Rectangle_1147" data-name="Rectangle 1147" width="40" height="40" fill="#fff" opacity="0"/>
  <g id="bxl-behance" transform="translate(0 7)">
    <path id="Path_445" data-name="Path 445" d="M13.6,5.731a15.291,15.291,0,0,1,3.209.31,6.988,6.988,0,0,1,2.485,1.016A4.793,4.793,0,0,1,20.9,8.934a6.626,6.626,0,0,1,.56,2.885,5.394,5.394,0,0,1-.842,3.1,6.088,6.088,0,0,1-2.511,2.029,5.9,5.9,0,0,1,3.379,2.291A6.835,6.835,0,0,1,22.6,23.19a6.8,6.8,0,0,1-.716,3.225,6.217,6.217,0,0,1-1.947,2.227,8.626,8.626,0,0,1-2.8,1.279,12.569,12.569,0,0,1-3.217.412H2V5.731Zm-.7,9.94a3.917,3.917,0,0,0,2.383-.69,2.587,2.587,0,0,0,.926-2.237,2.955,2.955,0,0,0-.3-1.413,2.227,2.227,0,0,0-.834-.856,3.365,3.365,0,0,0-1.193-.43,7.215,7.215,0,0,0-1.393-.122H7.418v5.748Zm.3,10.474a6.894,6.894,0,0,0,1.519-.154,3.543,3.543,0,0,0,1.273-.522,2.586,2.586,0,0,0,.88-.982,3.421,3.421,0,0,0,.324-1.6,3.216,3.216,0,0,0-1.066-2.715,4.57,4.57,0,0,0-2.827-.808H7.418v6.777H13.2Zm17.123-.082a4.355,4.355,0,0,0,3.167,1.076,4.384,4.384,0,0,0,2.555-.746,3.153,3.153,0,0,0,1.305-1.579h4.308a8.164,8.164,0,0,1-3.177,4.6,9.241,9.241,0,0,1-5.158,1.385,10.235,10.235,0,0,1-3.8-.674,8.063,8.063,0,0,1-2.877-1.915,8.736,8.736,0,0,1-1.809-2.969,10.861,10.861,0,0,1-.64-3.8,10.44,10.44,0,0,1,.658-3.726,8.748,8.748,0,0,1,1.867-2.985,8.871,8.871,0,0,1,2.887-1.987,9.264,9.264,0,0,1,3.714-.724,8.462,8.462,0,0,1,3.956.88,7.931,7.931,0,0,1,2.779,2.363,9.645,9.645,0,0,1,1.565,3.381,12.57,12.57,0,0,1,.342,3.964H29.112a5,5,0,0,0,1.211,3.457ZM35.946,16.7a3.659,3.659,0,0,0-2.769-.992,4.216,4.216,0,0,0-1.947.4,3.938,3.938,0,0,0-1.239.982,3.542,3.542,0,0,0-.656,1.255,5.638,5.638,0,0,0-.222,1.173h7.961A4.753,4.753,0,0,0,35.946,16.7ZM28.113,7.382h9.974V9.811H28.113Z" transform="translate(-2 -5.731)" fill="#fff"/>
  </g>
</svg>
