<svg xmlns="http://www.w3.org/2000/svg" xmlns:xlink="http://www.w3.org/1999/xlink" width="548.563" height="298.781" viewBox="0 0 548.563 298.781">
  <defs>
    <filter id="Path_220" x="254.097" y="167.833" width="111.957" height="115.205" filterUnits="userSpaceOnUse">
      <feOffset dy="3" input="SourceAlpha"/>
      <feGaussianBlur stdDeviation="3" result="blur"/>
      <feFlood flood-opacity="0.161"/>
      <feComposite operator="in" in2="blur"/>
      <feComposite in="SourceGraphic"/>
    </filter>
  </defs>
  <g id="Group_1092" data-name="Group 1092" transform="translate(-28.236 -143.184)">
    <g transform="matrix(1, 0, 0, 1, 28.24, 143.18)" filter="url(#Path_220)">
      <path id="Path_220-2" data-name="Path 220" d="M17.9.552C-.042-2.926-2.682,10.535,2.1,26.783S19.071,62.066,37.01,65.544s41.621-8.6,36.843-24.851S35.836,4.029,17.9.552Z" transform="matrix(-0.48, 0.87, -0.87, -0.48, 357.05, 205.9)" fill="#144cdf"/>
    </g>
    <g id="Untitled_Artwork" transform="matrix(-0.438, -0.899, 0.899, -0.438, 134.012, 492.095)">
      <path id="Path_195" data-name="Path 195" d="M174.915.948c-2.922,1.555-12.112,11.5-13.1,14.186-.141.471-.518.848-.754.848s-.613.471-.8,1.037c-.424,1.414-3.2,5.7-5,7.729a30.349,30.349,0,0,1-4.147,3.629c-2.922,2.168-10.793,10.086-13.856,14a194.631,194.631,0,0,1-17.909,17.909c-2.969,2.356-8.955,7.635-19.323,17.108-6.692,6.08-10.6,10.18-11.547,12.065a7.506,7.506,0,0,1-1.32,2.026c-.848.33-3.818,7.022-6.6,14.752-.66,1.791-1.838,4.666-2.592,6.363-1.273,2.734-3.676,9.473-7.258,20.266-.66,1.932-1.508,4.242-1.885,5.137-.377.848-.566,1.7-.424,1.838.566.566,1.555-1.272,3.063-5.561a48.6,48.6,0,0,1,1.885-4.949,75.679,75.679,0,0,0,3.063-8.955,54.841,54.841,0,0,1,2.451-6.268c.9-1.932,2.4-5.75,3.393-8.483,3.346-9.285,6.928-15.836,11.076-20.03,2.027-2.074,8.672-8.2,11.17-10.322,1.131-.943,3.252-2.828,4.666-4.147s3.723-3.393,5.137-4.619c1.367-1.225,3.676-3.2,5.043-4.477a14.645,14.645,0,0,1,2.969-2.215c.9,0,11.547-10.981,16.637-17.2,1.7-2.074,3.723-4.336,4.43-5,.754-.66,2.357-2.262,3.535-3.535a35.625,35.625,0,0,1,4.053-3.77A29.885,29.885,0,0,0,160.3,19.988a75.8,75.8,0,0,1,8.578-11.5C176.564-.372,180-.608,182.738,7.5c1.272,3.77,1.791,13.149.943,17.485-1.7,8.578-7.682,21.915-12.49,27.665a97.946,97.946,0,0,1-7.541,8.059,103.186,103.186,0,0,0-8.955,9.238c-2.545,2.875-7.352,7.823-10.651,11.076C135.655,89.316,131.7,94.831,126.277,106a78.193,78.193,0,0,0-4.854,11.358,20.237,20.237,0,0,1-1.838,4.147c-.518.66-2.922,1.744-6.881,3.11-3.393,1.178-7.022,2.545-8.106,3.063a10.719,10.719,0,0,1-2.686.943,1.194,1.194,0,0,0-.943.424,4.217,4.217,0,0,1-1.7.707,71.8,71.8,0,0,0-9.9,3.676c-2.828,1.225-19.889,9.8-20.5,10.274a20.316,20.316,0,0,1-3.063,1.414c-1.414.518-3.2,1.272-4.006,1.65-.754.377-2.686,1.225-4.242,1.932-1.555.66-3.488,1.508-4.242,1.885-2.262,1.037-7.541,2.545-14.139,3.959-6.928,1.508-15.223,4.195-19.135,6.174C13.07,164.206,5.906,173.632,1.759,184.8c-.283.754-.8,1.32-1.225,1.32-.613,0-.707.99-.236,3.3,0,.141.33-.189.707-.66,1.084-1.414,3.865-2.262,18.145-5.656,2.734-.613,5.7-1.32,6.6-1.461a35.009,35.009,0,0,0,4.619-1.7,24.3,24.3,0,0,1,3.3-1.367,41.972,41.972,0,0,0,6.975-3.629c7.117-4.9,17.108-11.217,19.936-12.631,6.363-3.158,9.8-4.053,16.26-4.053,9.19-.047,12.772.754,16.59,3.629a5.58,5.58,0,0,0,2.168,1.131,20.99,20.99,0,0,1,3.488.943,10.746,10.746,0,0,0,3.346.754c.9-.33.754-1.225-.141-1.225-1.225,0-7.258-2.262-8.625-3.252-4.195-2.969-9.709-4.053-18.428-3.676A31.042,31.042,0,0,0,59.541,161a31.428,31.428,0,0,1-3.016,1.555c-.236,0-12.16,7.776-17.438,11.405a10.969,10.969,0,0,1-2.357,1.32,20.275,20.275,0,0,0-3.252,1.367,50.883,50.883,0,0,1-13.149,4.524C11,183.341,5.671,184.661,4.351,185.179c-.66.236-1.225.283-1.225.047a44.075,44.075,0,0,1,3.252-7.588,25.407,25.407,0,0,0,1.414-2.451,11.043,11.043,0,0,1,1.414-2.121,30.733,30.733,0,0,0,1.885-2.5c2.074-3.158,6.74-7.022,10.746-8.955a24.1,24.1,0,0,1,4.477-1.885,16.808,16.808,0,0,0,3.111-.943,16.167,16.167,0,0,1,2.592-.9,4.912,4.912,0,0,0,.8-.236c.377-.141,3.346-.8,6.551-1.461a74.657,74.657,0,0,0,16.307-4.949c1.555-.754,4.619-2.121,6.834-3.063s9.52-4.43,16.26-7.776c14.045-6.928,14.328-7.069,19.088-8.625,1.932-.66,6.174-2.215,9.426-3.535,11.641-4.666,14.563-5.09,24.508-3.629,10.274,1.555,11.028,1.6,11.641,1.084,1.178-.99.566-1.225-3.488-1.555a82.778,82.778,0,0,1-8.955-1.225,33.022,33.022,0,0,0-7.729-.66c-2.781.236-2.875.188-2.215-.613a39.119,39.119,0,0,0,2.969-6.457c5.656-14.516,10.84-22.67,20.737-32.52,3.629-3.629,8.2-8.389,10.133-10.557,1.932-2.215,6.41-6.881,9.944-10.369,8.248-8.248,10.934-11.971,15.082-20.737,4.006-8.483,5.609-15.082,5.609-23.376.047-9.143-2.262-15.836-5.844-17.2C177.837-.23,177.036-.183,174.915.948Z" transform="translate(55.775 0)" fill="#fff"/>
      <path id="Path_196" data-name="Path 196" d="M12.961,1.253C8.248,5.307,4.854,8.983,3.488,11.528c-.283.518-1.178,2.168-1.979,3.629A15.546,15.546,0,0,0,0,18.314c0,1.272.943.188,3.535-4.053a58.141,58.141,0,0,1,7.164-9.1A41.031,41.031,0,0,0,15.082.311C15.082-.3,14.422-.019,12.961,1.253Z" transform="translate(196.992 57.947)" fill="#fff"/>
      <path id="Path_197" data-name="Path 197" d="M14.678,2.852c-1.838,1.6-4.1,3.535-5.043,4.289-2.027,1.65-5.42,6.6-6.881,10.18A15.111,15.111,0,0,1,.68,20.95c-1.225,1.367-.707,1.932.848.9.707-.471,1.979-2.5,3.252-5.231C6.949,11.948,9.116,9.4,15.809,3.7,17.412,2.334,18.731.92,18.731.543,18.731-.494,18.213-.211,14.678,2.852Z" transform="translate(163.65 93.392)" fill="#fff"/>
      <path id="Path_198" data-name="Path 198" d="M36.439.383c-5.231.9-5.985,1.084-7.541,1.791a38.7,38.7,0,0,0-5,3.158A164.019,164.019,0,0,1,2.034,18.34c-2.074,1.084-2.4,1.367-1.7,1.65.9.33,1.744-.047,11.358-5.09A83.426,83.426,0,0,0,24.327,7.076c5.231-3.77,7.211-4.525,13.526-5.137,2.734-.236,3.629-.66,3.111-1.508C40.587-.135,39.644-.135,36.439.383Z" transform="translate(128.976 117.4)" fill="#fff"/>
      <path id="Path_199" data-name="Path 199" d="M78.99.136a23.44,23.44,0,0,1-5.137.377c-2.639.094-7.447.377-10.7.66-3.252.33-8.059.754-10.746.9-7.117.471-6.08,1.32,1.414,1.178,3.44-.094,6.975-.236,7.918-.377C64.427,2.493,80.592,1.6,83.42,1.644a19.806,19.806,0,0,1,4.006.518,47.626,47.626,0,0,0,6.363.943c2.733.236,8.012.754,11.782,1.178a106.975,106.975,0,0,0,16.071.424c11.971-.424,17.815,0,19.842,1.414,2.215,1.461,2.639,4.854,1.225,9.473-2.639,8.531-8.483,13.385-20.973,17.438-7.588,2.451-11.264,2.875-29.6,3.3-9.143.236-13.243.141-18.286-.424-5.137-.613-10.322-.707-25.215-.566-19.135.236-23.8.424-28.372,1.32-2.639.471-10.7,3.582-15.789,6.033-1.555.754-3.2,1.461-3.629,1.6-.471.141-.848.471-.848.754,0,.8,1.791.518,4.383-.66,10.746-4.854,14.186-5.986,20.313-6.645,7.352-.8,41.8-.943,48.591-.236,7.164.754,33.886.283,39.354-.66,12.254-2.168,21.3-6.315,26.676-12.16,4.053-4.43,6.127-9.944,5.608-14.987-.377-3.393-.99-4.383-3.535-5.561-1.414-.707-3.676-.8-16.5-.848-14.375,0-18.663-.236-24.837-1.178-1.6-.236-4.572-.566-6.6-.66a32.629,32.629,0,0,1-5.09-.707C86.625.23,79.367-.241,78.99.136Z" transform="translate(160.702 123.632)" fill="#fff"/>
      <path id="Path_200" data-name="Path 200" d="M13.731.627c-3.016,1.131-7.305,4.9-9.8,8.625a38.421,38.421,0,0,1-3.2,4.336c-1.131,1.273-.943,1.6.613,1.037.424-.141,1.885-1.885,3.252-3.912,2.875-4.053,6.268-7.305,8.766-8.342a14.694,14.694,0,0,1,4.854-.707c3.3.047,2.922-.141,12.537,4.854,3.44,1.838,4.807,2.262,6.645,2.262a5.158,5.158,0,0,1,2.639.471c.424.66,2.121-.33,2.121-1.178,0-.566-.66-.707-3.016-.707-3.11,0-2.451.283-15.459-6.457C21.555-.174,16.324-.316,13.731.627Z" transform="translate(118.08 161.788)" fill="#fff"/>
      <path id="Path_201" data-name="Path 201" d="M0,.37c0,.707,4.336,4.053,6.74,5.137a67,67,0,0,0,12.725,4.1,28.925,28.925,0,0,1,5.891,2.027c5.656,2.922,6.551,3.346,9.049,4.524a17.117,17.117,0,0,1,4.43,3.016c1.791,1.885,3.582,2.262,2.639.66-1.225-2.215-3.393-3.959-6.834-5.514-2.074-.943-4.289-2.027-4.949-2.4a37.509,37.509,0,0,0-8.483-3.535C19.041,7.911,10.84,5.46,8.248,4.518A31.413,31.413,0,0,1,3.723,1.973C.471-.148,0-.337,0,.37Z" transform="translate(166.357 168.738)" fill="#fff"/>
      <path id="Path_202" data-name="Path 202" d="M51.847.365a25.263,25.263,0,0,0-7.022,4.006,62.707,62.707,0,0,1-8.2,5.656A100.284,100.284,0,0,1,21.73,15.3c-.66.141-1.744.424-2.4.613C15.7,17.237,3.538,19.829,1.182,19.829c-1.272,0-1.65,1.178-.471,1.6.9.377,13.291-1.979,16.731-3.111,1.414-.518,3.959-1.225,5.609-1.65A30.8,30.8,0,0,0,27.527,15.3c.8-.33,2.639-.943,4.053-1.367,4.242-1.272,9.143-4.147,14.328-8.436,3.77-3.158,6.08-4.147,9.9-4.242,1.744-.047,3.111-.236,3.111-.424C58.916-.012,54.109-.3,51.847.365Z" transform="translate(58.426 171.571)" fill="#fff"/>
      <path id="Path_203" data-name="Path 203" d="M15.553.284c-1.084.424-3.252,2.168-7.069,5.8C5,9.381,1.414,11.6.471,11.03c-.236-.141-.471.047-.471.424,0,1.037,1.979.943,4.147-.141,1.838-.99,3.016-1.932,6.975-5.7a23.228,23.228,0,0,1,3.959-3.063c2.027-1.037,6.551-1.225,9.332-.33,3.44,1.084,7.635,4.477,8.578,6.928.471,1.225.188,5.514-.471,7.07-.236.518-.566,1.461-.8,2.121a36.165,36.165,0,0,1-6.363,10.416c-2.5,2.4-2.356,3.582.188,1.744,2.357-1.65,3.959-3.629,5.8-7.211,2.828-5.373,3.535-7.682,3.535-11.311,0-3.959-1.131-6.08-4.572-8.625A15.62,15.62,0,0,0,19.889,0,23.77,23.77,0,0,0,15.553.284Z" transform="translate(211.131 174.385)" fill="#fff"/>
      <path id="Path_204" data-name="Path 204" d="M0,.573c0,.99,2.687,2.734,4.619,3.016,2.026.33,3.488,1.131,9.52,5.42a40.772,40.772,0,0,0,4.807,3.2c.943,0,.188-.99-2.262-2.875-1.414-1.131-3.252-2.639-4.1-3.3A21.407,21.407,0,0,0,4.949,2.034,8.407,8.407,0,0,1,1.932.855C.613-.181,0-.276,0,.573Z" transform="translate(206.418 191.817)" fill="#fff"/>
      <path id="Path_205" data-name="Path 205" d="M50.465,1.491C47.024,3.282,36.891,12.99,35.43,15.865c-.518.99-1.6,3.676-2.451,6.033-1.65,4.43-3.252,7.117-7.965,12.961-6.457,8.059-9.9,12.772-10.416,14.469-.33.99-.848,2.4-1.178,3.2A86.47,86.47,0,0,0,9.179,64.975c-.33,1.7-1.084,5.137-1.6,7.635s-1.084,5.938-1.225,7.682c-.189,1.744-.613,5.137-.9,7.494-.33,2.4-.66,7.682-.707,11.783-.047,4.053-.189,8.389-.283,9.662-.094,1.225-.33,3.912-.471,5.985a35.775,35.775,0,0,1-.471,4.006c-.236.377-.66,6.174-.943,12.489-.141,3.111-.471,6.834-.707,8.248s-.518,3.629-.66,4.949c-.141,1.273-.471,3.629-.754,5.184a46.243,46.243,0,0,0,0,13.008,48.24,48.24,0,0,1,.66,5.608c.094,1.65.377,3.111.66,3.2.8.236,1.084-2.121.707-5.7a99.762,99.762,0,0,1,.471-21.4c.8-4.43.99-6.41,1.508-14.987.141-2.592.613-8.012.99-12.018.424-4.006.9-12.207,1.131-18.145.707-18.1,2.922-32.284,6.551-41.38.754-1.885,1.744-4.666,2.168-6.08.848-2.969,2.5-5.656,6.551-10.746,2.4-3.016,4.477-5.561,7.541-9.426A41.808,41.808,0,0,0,34.959,21.05a17.848,17.848,0,0,1,4.619-8.106c4.1-4.666,10.274-10.18,12.678-11.311,1.037-.518,1.932-1.084,1.932-1.32C54.188-.3,53.528-.065,50.465,1.491Z" transform="translate(0 192.266)" fill="#fff"/>
      <path id="Path_206" data-name="Path 206" d="M0,.343c0,.9.754,1.037,6.457,1.32,5.137.283,5.75.424,7.729,1.7A8.73,8.73,0,0,1,16.873,5.81c.613,1.32,6.174,4.713,9.285,5.608a70.217,70.217,0,0,1,6.692,2.592,40.253,40.253,0,0,0,7.776,2.451c1.885.283,4.713.8,6.268,1.178s4.43.9,6.363,1.178c8.389,1.225,22.057,6.315,27.006,10.086a7.779,7.779,0,0,0,1.979,1.225c.283,0,6.174,3.77,7.541,4.807.518.424,4.76,3.111,8.483,5.467a40.208,40.208,0,0,0,4.949,2.451c1.414.518,3.016,1.178,3.535,1.414A102.228,102.228,0,0,0,119,47.049c8.295,1.273,19.653-.613,23.659-3.912,2.027-1.7,3.393-4.572,3.111-6.6-.471-3.346-2.687-9.426-4.006-10.934-1.555-1.744-5.043-3.818-16.119-9.52-.848-.424-3.488-.8-7.164-.99-4.572-.236-5.986-.518-6.692-1.131-.9-.8-.943-.8-1.226,0-.66,1.65,1.273,2.5,5.656,2.5,5.184,0,7.823.754,14.327,4.1,7.022,3.629,9.1,5,10.322,6.645,1.084,1.555,3.346,8.154,3.346,9.85,0,3.723-4.006,6.645-11.123,8.106-3.2.66-12.584.707-15.27.094-1.178-.283-3.912-.9-6.127-1.367a30.622,30.622,0,0,1-4.949-1.367c-.519-.283-2.168-.99-3.629-1.555a8.034,8.034,0,0,1-2.734-1.367c0-.189-.566-.566-1.272-.9-1.508-.66-1.225-.471-9.662-5.986-14.7-9.615-16.024-10.227-29.833-14.328a53.035,53.035,0,0,0-6.6-1.414c-9.19-1.178-15.977-2.875-21.68-5.467a42.881,42.881,0,0,0-4.854-1.838C23.895,8.921,18.381,5.81,18.381,5.1a5.411,5.411,0,0,0-2.168-2.309,9.494,9.494,0,0,1-1.838-1.178C12.961.485,12.3.39,6.41.108,1.885-.081,0-.034,0,.343Z" transform="translate(116.399 193.225)" fill="#fff"/>
      <path id="Path_207" data-name="Path 207" d="M87.761,1.981c-4.383,2.451-14.186,5.8-17.2,5.938a10.371,10.371,0,0,1-4.43-.99c-2.074-.943-2.875-1.037-6.6-.8a34,34,0,0,0-6.645,1.037c-10.6,3.488-13.762,4.195-22.151,5.184-9.9,1.131-16.166,3.016-22.387,6.787C5.661,20.739,4.2,21.3,2.314,21.446c-2.828.236-3.158,1.178-.471,1.414,1.7.141,4.1-.8,9.332-3.676,4.1-2.215,9.1-3.629,16.967-4.713,10.51-1.461,17.014-2.686,18.711-3.535a61.31,61.31,0,0,1,6.692-2.074c6.127-1.508,9.426-1.555,12.4-.094a11.9,11.9,0,0,0,3.959.99c3.959,0,12.867-3.063,18.758-6.363A27.366,27.366,0,0,1,92.8,1.274c.707,0,.141-1.178-.613-1.273A18.533,18.533,0,0,0,87.761,1.981Z" transform="translate(35.001 204.642)" fill="#fff"/>
      <path id="Path_208" data-name="Path 208" d="M.062.229C-.268.794.675,1.313,3.927,2.35A10.421,10.421,0,0,1,6.707,3.622a.48.48,0,0,0,.707.141c.707-.424-.518-1.65-2.639-2.545C2.089.087.392-.29.062.229Z" transform="translate(134.954 207.054)" fill="#fff"/>
      <path id="Path_209" data-name="Path 209" d="M88.84.6c-.518.33-2.545,1.32-4.477,2.215-3.346,1.555-7.352,4.053-13.951,8.672-4.147,2.875-5.608,3.016-10.039.848l-3.582-1.744H49.958c-6.881,0-9.049.377-10.934,1.979-.613.518-2.781.707-9.662.8-10.086.141-13.479.848-18.993,3.959-1.7.943-4.713,2.592-6.74,3.582A16.921,16.921,0,0,0,0,23.123c0,1.084,1.508.566,7.871-2.686,8.908-4.572,12.018-5.42,20.36-5.42,4.289,0,6.41.189,6.645.518.283.424.613.424,1.367.047.848-.471.707,0-.943,3.158a28.52,28.52,0,0,1-3.063,4.949c-1.838,1.979-.518,1.885,1.414-.094a27.536,27.536,0,0,0,3.77-5.75c2.686-5.373,3.44-5.75,12.018-5.8L55.849,12l4.477,2.168A44.01,44.01,0,0,0,67.49,16.9a8.3,8.3,0,0,1,2.969,1.037,1.563,1.563,0,0,0,1.131.424,9.925,9.925,0,0,1,3.158,1.225c1.272.66,4.1,1.932,6.315,2.875,2.215.9,4.525,1.932,5.184,2.309a44.585,44.585,0,0,0,4.336,1.6,12.232,12.232,0,0,1,3.676,1.7c.848.99,1.508.8,1.32-.377-.094-.754-.943-1.367-3.441-2.4-5.938-2.5-6.363-2.686-8.106-3.44-.99-.424-3.393-1.508-5.326-2.4-3.063-1.414-6.881-2.969-10.133-4.147-.754-.283-.8-.377-.236-.613.754-.236,3.582-2.121,9.662-6.315a74.5,74.5,0,0,1,8.342-4.854c2.5-1.225,4.666-2.5,4.807-2.875C91.479-.206,90.065-.206,88.84.6Z" transform="translate(41.934 208.29)" fill="#fff"/>
      <path id="Path_210" data-name="Path 210" d="M.3.2C-.311.817.066,8.264.915,12.6c.99,4.949,1.508,6.6,2.828,8.436a9.665,9.665,0,0,1,1.225,2.4,35.714,35.714,0,0,0,2.875,5,38.705,38.705,0,0,1,2.545,4.053c0,.141-.754.424-1.65.566-1.461.283-2.5,1.037-2.026,1.461a10.66,10.66,0,0,0,2.781-.424c8.625-2.027,18.475-9.85,22.481-17.862,2.969-6.08,2.5-7.164-.66-1.508-3.158,5.608-7.635,10.227-14.045,14.422-4.1,2.734-5.467,3.3-5.467,2.215a7.151,7.151,0,0,0-1.272-2.215,22.565,22.565,0,0,1-3.2-5.231c-.424-.9-1.084-2.168-1.461-2.828A24.8,24.8,0,0,1,2.8,13.306c-.236-1.32-.613-3.3-.848-4.477A32.231,32.231,0,0,1,1.433,3.55C1.433.628,1.056-.5.3.2Z" transform="translate(144.187 209.812)" fill="#fff"/>
      <path id="Path_211" data-name="Path 211" d="M.951,1.741A39.364,39.364,0,0,0,8.633,8.81c1.131.66,3.346,1.273,6.787,1.744,2.828.377,5.184.707,5.279.707s.141-.283.141-.66c0-.66-3.252-1.7-5.467-1.7-3.488,0-6.928-1.838-11.735-6.268C.385-.427-1.123-.946.951,1.741Z" transform="translate(183.693 221.99)" fill="#fff"/>
      <path id="Path_212" data-name="Path 212" d="M87.3.7a34.524,34.524,0,0,1-2.781,3.158c-1.272,1.367-3.063,3.441-3.959,4.619-2.922,3.77-3.912,4.854-9.709,10.6-3.111,3.111-6.5,6.693-7.541,8.012-.99,1.273-2.215,2.781-2.639,3.252-1.225,1.367-4.1,6.315-7.4,12.914L50.3,49l-9.52,9.567C35.548,63.8,30.506,69.034,29.61,70.165c-3.818,4.854-5.137,6.315-12.16,13.479-4.053,4.147-8.766,9.1-10.416,11.028-1.7,1.932-3.959,4.336-5.043,5.373-2.074,1.932-2.5,2.686-1.414,2.686,1.367,0,23.9-23.188,29.88-30.776,1.461-1.885,6.5-7.211,11.217-11.877,4.666-4.666,9.1-9.238,9.8-10.18a83.612,83.612,0,0,0,4.289-7.776c3.912-7.871,8.625-14.657,13.244-19.04a144.4,144.4,0,0,0,12.3-13.2c2.734-3.441,4.195-5.231,5.137-6.315A11.409,11.409,0,0,0,88.57.366C88.57-.247,87.674-.058,87.3.7Z" transform="translate(120.676 237.033)" fill="#fff"/>
      <path id="Path_213" data-name="Path 213" d="M22.633.465c-.754.236-2.168.66-3.063.943-.9.33-3.346,1.225-5.42,2.074C9.625,5.32,2.7,7.488,1.283,7.488a1.646,1.646,0,0,0-1.225.424c-.33.518.8.99,2.451.99C3.922,8.9,13.348,5.932,15.8,4.66A39.052,39.052,0,0,1,26.167,1.6a43.589,43.589,0,0,1,10.6.9c.518.141,2.639.707,4.713,1.225,7.069,1.838,15.694,4.524,27.571,8.578,2.969,1.037,6.5,2.168,7.776,2.592,1.32.377,3.723,1.225,5.42,1.838,5.043,1.838,5.326,1.461.66-.99C79.471,13.944,51.617,4.66,44.784,3.01c-2.828-.66-6.221-1.6-7.541-2.074C34.556-.053,25.036-.336,22.633.465Z" transform="translate(55.356 246.501)" fill="#fff"/>
      <path id="Path_214" data-name="Path 214" d="M13.668.35a5.228,5.228,0,0,0,1.131,1.7c.754.9,3.063,2.121,6.645,3.582,8.436,3.44,8.955,4.289,4.619,7.635-4.1,3.2-4.949,3.629-9.19,4.854-5.514,1.555-9.9,1.6-12.678.141C1.178,16.657,0,16.327,0,17.081c.047.66,3.063,2.686,5.467,3.629C9.143,22.171,19.323,20,24.225,16.751c3.3-2.168,6.41-5.279,6.41-6.363,0-2.309-4.43-5.09-11.17-7.117a8.418,8.418,0,0,1-3.3-1.885C14.893.114,13.668-.4,13.668.35Z" transform="translate(146.563 246.428)" fill="#fff"/>
      <path id="Path_215" data-name="Path 215" d="M10.639,2.386A49.721,49.721,0,0,1,6.727,5.543C4.041,7.24-.437,11.01.034,11.2,1.213,11.576,12.665,3,13.8.877,14.645-.678,13.514-.16,10.639,2.386Z" transform="translate(61.6 254.478)" fill="#fff"/>
      <path id="Path_216" data-name="Path 216" d="M48.892.815c-.99,1.178-5.75,1.461-5.326.33C44.132-.269,43,.485,40.22,3.36a61.785,61.785,0,0,0-6.08,7.211c-.518.66-1.414,1.791-2.027,2.5-.66.707-2.451,2.875-4.053,4.807C22.122,25.04,21.6,25.369,11.848,28.763c-5.09,1.744-7.776,2.4-10.416,2.5a1.648,1.648,0,0,0-1.414.707c-.424,1.225,6.645.377,12.3-1.555,8.531-2.875,11.547-4.666,15.176-9.237.518-.66,1.885-2.357,3.063-3.77s2.451-2.969,2.828-3.488c.377-.471,1.225-1.555,1.885-2.357a33.022,33.022,0,0,0,2.074-2.828,30.865,30.865,0,0,1,2.639-3.3c1.744-1.838,1.932-1.979,4.9-2.074A9.46,9.46,0,0,1,48,3.454c0,.141-.518,1.6-1.131,3.252-2.168,5.8-2.686,10.7-1.037,10.7.377,0,.613-.66.613-2.027A36.088,36.088,0,0,1,48,8.355c1.791-5.844,1.178-5.467,9.285-5.231,5.137.189,10.651,1.367,21.586,4.572,2.357.707,5.467,1.6,7.022,1.979a30.5,30.5,0,0,1,4.713,1.6c6.08,2.781,21.727,5.8,26.016,4.949,2.734-.471,1.791-.99-2.027-1.084a40.458,40.458,0,0,1-4.854-.33c-.66-.141-2.215-.471-3.535-.707A63.512,63.512,0,0,1,91.121,9.864c-2.215-1.037-6.834-2.4-6.834-2.027,0,.141-.283.047-.566-.188a12.827,12.827,0,0,0-2.734-1.037c-1.178-.283-3.393-.99-4.949-1.461C66.8,2.134,63.078,1.474,54.5,1.427c-3.346-.047-4.147-.188-4.147-.754C50.353-.269,49.787-.222,48.892.815Z" transform="translate(35.412 255.436)" fill="#fff"/>
      <path id="Path_217" data-name="Path 217" d="M17.817.848C15.931,2.027,11.03,7.4,10.276,9.19,8.626,13.055,6.364,14,2.5,12.442c-1.272-.518-2.121-.613-2.4-.33-.707.707,2.639,2.168,5.561,2.4,2.215.189,2.545.094,3.676-1.131a16.586,16.586,0,0,0,2.121-3.016c1.084-2.074,6.08-7.588,7.729-8.436C20.456,1.225,20.88,0,19.843,0A6.136,6.136,0,0,0,17.817.848Z" transform="translate(91.278 339.766)" fill="#fff"/>
      <path id="Path_218" data-name="Path 218" d="M5.076,7.473C-.2,20.906-1,27.268,1.023,40.842c1.414,9.567,1.461,9.9,2.074,15.553a229.945,229.945,0,0,0,5,25.026c.9,3.629,1.744,6.881,1.838,7.258s.471,2.074.9,3.77c.99,4.147,4.147,18.381,5.467,24.508a120.1,120.1,0,0,0,6.834,20.973c.377.754,1.32,3.111,2.121,5.184,1.414,3.77,1.791,5.7.99,5.184a.654.654,0,0,0-.8.283c-.33.613.613,1.367,1.744,1.367,2.074,0,1.225-3.912-3.063-14.752-3.817-9.662-5.938-16.92-7.117-24.131-.471-3.158-4.619-20.5-7.305-30.87-.8-2.969-1.555-6.08-1.7-6.834-.141-.8-.754-3.959-1.367-7.117-.66-3.111-1.508-8.436-1.885-11.782-.424-3.346-.943-7.352-1.178-8.908S3,41.643,2.861,40.37c-.188-1.32-.518-3.393-.754-4.666C.976,29.719,2.3,18.219,4.747,12.328c.613-1.414,1.838-4.76,2.781-7.447C10.214-2.848,8.423-.963,5.076,7.473Z" transform="translate(111.417 345.818)" fill="#fff"/>
      <path id="Path_219" data-name="Path 219" d="M2.993.2C2.8.337,2.8,4.108,2.945,8.538c.283,7.4.236,8.389-.754,12.3C.353,28.1-.118,31.49.023,37.334c.094,5.985.283,6.74,3.158,14.139,1.037,2.592,2.262,5.986,2.734,7.541s2.5,7.494,4.477,13.2c4.053,11.688,5.09,16.213,6.41,27.477a120.5,120.5,0,0,0,2.309,13.573c.8,3.111,1.555,6.881,1.744,8.342.236,1.791.518,2.686.943,2.686,1.037,0,.8-2.5-1.225-11.924A129.078,129.078,0,0,1,18.4,97.425a105.971,105.971,0,0,0-5.42-23.235c-1.555-4.477-3.676-10.651-4.713-13.762C6.48,54.867,4.218,49.117,3.558,48.174a9.373,9.373,0,0,1-.66-2.357,8.125,8.125,0,0,0-.8-2.451c-.848-1.084-.471-12.819.613-17.58.518-2.451,1.178-5.561,1.461-6.834a50.9,50.9,0,0,0,.189-9.19C3.935.761,3.747-.605,2.993.2Z" transform="translate(1.567 369.12)" fill="#fff"/>
    </g>
  </g>
</svg>
