<svg xmlns="http://www.w3.org/2000/svg" width="80" height="88.219" viewBox="0 0 80 88.219">
  <g id="Icon_profile" transform="translate(-3.5 -2.5)">
    <path id="Path_364" data-name="Path 364" d="M61.875,9.576C57.39,5.017,51.056,2.5,43.674,2.5s-13.716,2.517-18.2,7.076-6.946,10.986-6.946,18.461c0,10.071,4.388,16.562,9.816,20.458a25.814,25.814,0,0,0,3.241,1.983,36.681,36.681,0,0,0-15,8.172c-6.338,5.7-10.271,13.029-12.917,19.594A2.323,2.323,0,1,0,7.977,79.98c2.517-6.25,6.115-12.848,11.71-17.876,5.544-4.977,13.159-8.529,23.986-8.529,10.122,0,17.43,3.1,22.854,7.559C72,65.623,75.679,71.6,78.321,77.5c1.76,3.942-1.333,8.576-6.18,8.576H18.568a2.322,2.322,0,0,0,0,4.643H72.141c7.67,0,13.767-7.619,10.419-15.113-2.8-6.268-6.858-12.945-13.084-18.062a36.644,36.644,0,0,0-13.414-6.983,23.169,23.169,0,0,0,7.011-6,27.561,27.561,0,0,0,5.748-16.525C68.821,20.557,66.36,14.136,61.875,9.576Zm-3.311,3.259c3.506,3.566,5.609,8.752,5.609,15.2a22.9,22.9,0,0,1-4.75,13.651c-3.236,4.114-8.279,7.243-15.75,7.243a23.22,23.22,0,0,1-12.629-4.207c-4.267-3.069-7.87-8.19-7.87-16.687,0-6.449,2.108-11.636,5.614-15.2s8.581-5.692,14.891-5.692,11.39,2.127,14.891,5.692Z" transform="translate(0)" fill="#fff" fill-rule="evenodd"/>
  </g>
</svg>
