<svg xmlns="http://www.w3.org/2000/svg" width="80" height="80.001" viewBox="0 0 80 80.001">
  <g id="Icon_message" transform="translate(-2.5 -2.5)">
    <path id="Path_363" data-name="Path 363" d="M42.5,6.711c-20.118,0-35.789,13.667-35.789,29.806a26.775,26.775,0,0,0,7.832,18.6,34.459,34.459,0,0,0,7.941,6.105,2.105,2.105,0,1,1-2.072,3.663,38.657,38.657,0,0,1-8.9-6.851A30.968,30.968,0,0,1,2.5,36.517C2.5,17.405,20.761,2.5,42.5,2.5s40,14.905,40,34.017c0,18.947-17.949,33.76-39.436,34.013l-20.577,11.7a2.106,2.106,0,1,1-2.08-3.663L41.46,66.6a2.105,2.105,0,0,1,1.04-.274c20.118,0,35.789-13.672,35.789-29.811S62.618,6.711,42.5,6.711Z" fill="#fff" fill-rule="evenodd"/>
  </g>
</svg>
