<svg xmlns="http://www.w3.org/2000/svg" width="578.367" height="820.523" viewBox="0 0 578.367 820.523">
  <g id="Untitled_Artwork" transform="translate(-796.203 1431.792)">
    <path id="Path_11" data-name="Path 11" d="M1080.3-1431.2a28.049,28.049,0,0,0-5.32,1.463c-3.458,1.53-7.98,4.988-7.98,6.185,0,.865.266.8,1.862-.266a33.974,33.974,0,0,1,13.965-5.453c7.515-1.064,8.778-1.4,8.778-2.062S1085.221-1431.93,1080.3-1431.2Z" transform="translate(-90.715)" fill="#fff"/>
    <path id="Path_12" data-name="Path 12" d="M1165-1421.327c0,1.8,4.722,2.859,12.1,2.593,3.923-.133,7.182-.4,7.182-.665,0-.732-2.327-1.064-9.643-1.463a63.88,63.88,0,0,1-8.113-.731C1165.532-1421.926,1165-1421.793,1165-1421.327Z" transform="translate(-123.544 -3.355)" fill="#fff"/>
    <path id="Path_13" data-name="Path 13" d="M1221-1399.317c0,.333.532.665,1.2.665a14.727,14.727,0,0,1,4.522,2.062c1.8,1.2,4.589,2.86,6.251,3.791a25.19,25.19,0,0,1,5.121,3.657c3.125,2.926,3.391,1.8.4-1.33C1233.5-1395.659,1221-1401.977,1221-1399.317Z" transform="translate(-142.304 -10.668)" fill="#fff"/>
    <path id="Path_14" data-name="Path 14" d="M1002.28-1394.136c0,1.064-13.766,10.574-18.088,12.436-1.8.8-3.192,1.662-3.192,1.995,0,1.929,6.717-.6,11.771-4.389a10.131,10.131,0,0,1,2.527-1.6c.4,0,4.323-2.793,8.113-5.852,1.862-1.463,2-3.458.2-3.458C1002.879-1395,1002.28-1394.6,1002.28-1394.136Z" transform="translate(-61.906 -12.325)" fill="#fff"/>
    <path id="Path_15" data-name="Path 15" d="M1266.369-1373.233c1.729,2.128,3.392,3.99,3.591,4.19,1.264.931,10.241,12.037,12.436,15.229,4.057,6.118,16.226,22.344,16.825,22.544,1.8.732-.665-3.591-7.781-13.5-1.33-1.862-4.522-6.318-7.116-9.975s-5.054-6.983-5.453-7.382c-.333-.4-3.657-3.924-7.249-7.781C1264.64-1377.423,1260.849-1379.817,1266.369-1373.233Z" transform="translate(-156.616 -18.331)" fill="#fff"/>
    <path id="Path_16" data-name="Path 16" d="M995.923-1370.778a53.875,53.875,0,0,1-5.254,3.059c-4.19,2.194-5.054,2.859-4.456,3.458,1.064,1.064,12.436-5.187,12.436-6.85C998.65-1372.307,997.785-1372.174,995.923-1370.778Z" transform="translate(-63.595 -20.055)" fill="#fff"/>
    <path id="Path_17" data-name="Path 17" d="M1014.167-1368.289a14.768,14.768,0,0,1-4.123,1.6c-1.862.067-2.061,1.4-.2,1.4,1.995,0,8.313-3.059,8.313-3.99S1017.625-1370.084,1014.167-1368.289Z" transform="translate(-71.133 -20.748)" fill="#fff"/>
    <path id="Path_18" data-name="Path 18" d="M980.36-1365.212c-1.33,1.729-2.062,7.581-.865,7.581.466,0,2.793-8.778,2.461-9.177C981.823-1366.941,981.158-1366.209,980.36-1365.212Z" transform="translate(-61.199 -21.764)" fill="#fff"/>
    <path id="Path_19" data-name="Path 19" d="M1165.5-1360.808c1.663,4.19,7.914,14.763,8.712,14.763,1.2,0,.731-1.264-2.66-7.315-1.8-3.325-3.325-6.185-3.325-6.384,0-.732-2.727-4.256-3.391-4.256C1164.5-1364,1164.834-1362.537,1165.5-1360.808Z" transform="translate(-123.445 -22.71)" fill="#fff"/>
    <path id="Path_20" data-name="Path 20" d="M997.983-1359.5c-2.793.6-6.983,2.394-6.983,2.926,0,1.064,3.059.665,6.251-.8,1.729-.731,2.926-1.6,2.727-1.995-.266-.332-.466-.532-.532-.532A14.578,14.578,0,0,1,997.983-1359.5Z" transform="translate(-65.255 -24.083)" fill="#fff"/>
    <path id="Path_21" data-name="Path 21" d="M1142-1359.55c0,.333,1.264,1.264,2.86,2.128a33.939,33.939,0,0,1,5.254,3.658c4.123,3.657,8.645,7.116,9.244,7.116,1.264,0,.532-1.6-1.529-3.391-5.254-4.655-11.7-9.244-13.7-9.643C1142.931-1359.949,1142-1359.882,1142-1359.55Z" transform="translate(-115.839 -24.101)" fill="#fff"/>
    <path id="Path_22" data-name="Path 22" d="M1244.485-1345.206c-.333.532,2.128,1.995,3.391,1.995,2.195,0,25.337,22.078,29.061,27.6.931,1.463,2.66,3.924,3.791,5.52a21.255,21.255,0,0,1,1.995,3.192c0,.6,4.19,6.583,4.788,6.783a.986.986,0,0,1,.532.8c0,1,8.18,13.3,8.778,13.3.731,0,.133-2.128-1.264-4.855-1.862-3.724-14.5-23.475-17.224-27.066-5.386-6.983-23.874-24.273-27.8-25.935C1246.413-1345.672,1244.95-1346,1244.485-1345.206Z" transform="translate(-150.161 -28.868)" fill="#fff"/>
    <path id="Path_23" data-name="Path 23" d="M1230-1337.1c0,2.926,3.325,7.249,9.776,12.9a75.2,75.2,0,0,1,10.707,10.84c1,1.4,6.517,7.515,12.569,13.832,3.391,3.525,6.184,6.783,6.184,7.116,0,.4.466.665,1,.665s1-.2,1-.532c0-1.064-3.923-6.251-8.312-10.906-2.527-2.727-6.318-6.85-8.313-9.244a165.664,165.664,0,0,0-16.426-16.426c-4.123-3.658-5.653-5.453-6.251-7.448C1231-1339.43,1230-1339.762,1230-1337.1Z" transform="translate(-145.319 -31.12)" fill="#fff"/>
    <path id="Path_24" data-name="Path 24" d="M1249-1335.566a33.125,33.125,0,0,0,4.123,4.522c7.847,7.914,22.411,25.8,22.477,27.531,0,1,1.064,1.13,1.663.2,1-1.663-6.384-11.638-17.224-23.275C1255.85-1330.977,1249-1336.63,1249-1335.566Z" transform="translate(-151.683 -32.191)" fill="#fff"/>
    <path id="Path_25" data-name="Path 25" d="M1326-1298.4c0,.931,5.054,14.231,6.783,17.689a101.368,101.368,0,0,0,7.847,12.569c.532.8,2.394,3.259,4.057,5.387a63.122,63.122,0,0,1,4.123,5.985c.532,1.064,2.727,4.522,4.722,7.581a154.84,154.84,0,0,1,8.313,14.63c2.527,4.988,6.118,11.9,7.914,15.362,1.862,3.458,4.921,9.31,6.783,12.968s5.121,9.643,7.315,13.3,4.19,7.116,4.456,7.648a21,21,0,0,0,1.53,2.66c2.261,3.392,5.386,9.443,5.586,10.84.2,1.862,2.594,6.916,12.7,27.4,7.581,15.3,8.512,17.623,11.571,28.6a221.489,221.489,0,0,1,7.98,42.228c1.662,17.822,1.928,22.078,1.8,30.79-.133,9.111.4,12.17,1.33,7.315.865-4.655.333-33.915-.732-38.1-.133-.532-.465-2.926-.665-5.32a294.1,294.1,0,0,0-5.586-29.992c-4.455-16.958-5.985-21.081-12.037-32.851-3.325-6.584-7.115-13.633-8.312-15.628a58.393,58.393,0,0,1-4.323-10.441,72.047,72.047,0,0,0-8.645-18.487c-1-1.463-2.461-3.99-3.325-5.653a24.361,24.361,0,0,0-2.328-3.99c-.465-.532-3.99-7.182-7.914-14.83-3.923-7.581-7.913-15.229-8.978-16.958-1-1.729-2.66-4.921-3.658-7.116-3.192-6.916-4.123-8.579-9.576-17.024-4.722-7.249-7.249-10.84-16.492-23.408a51.4,51.4,0,0,1-6.318-11.837c-1.662-4.256-5.32-11.9-5.652-11.9C1326.133-1299,1326-1298.734,1326-1298.4Z" transform="translate(-177.478 -44.484)" fill="#fff"/>
    <path id="Path_26" data-name="Path 26" d="M894.985-1289.941a26.766,26.766,0,0,0-1.33,3.392,12.581,12.581,0,0,1-.931,2.394c-3.857,8.579-5.919,13.167-5.985,13.766a5.15,5.15,0,0,1-.532,1.064,8.822,8.822,0,0,0-.8,2.461,8.25,8.25,0,0,1-.665,2.394c-.6.931-4.057,19.884-3.857,20.881a7.054,7.054,0,0,1-.865,2.461c-1.13,2.261-1.263,3.325-.333,3.325,1.33,0,3.192-4.19,3.99-9.177,1.929-11.771,4.854-22.677,7.515-27.8.6-1.13,2.261-5.187,3.724-8.978,1.4-3.791,2.793-7.448,3.059-8.113.333-.8.133-1.13-.6-1.13C896.714-1293,895.783-1291.8,894.985-1289.941Z" transform="translate(-27.761 -46.494)" fill="#fff"/>
    <path id="Path_27" data-name="Path 27" d="M1119-1269.67c0,3.125,10.906,22.743,12.9,23.142,1.064.2,1.53-1.529.532-1.995-.665-.266-7.382-11.7-10.374-17.689a28.774,28.774,0,0,0-2.727-4.788C1119.133-1271,1119-1270.4,1119-1269.67Z" transform="translate(-108.134 -53.864)" fill="#fff"/>
    <path id="Path_28" data-name="Path 28" d="M1168.445-1267.29c-.2.333-.133.665.266.665a7.2,7.2,0,0,1,2.527,1.862c5.12,4.988,10.84,9.51,10.84,8.579,0-1.064-4.389-5.52-9.31-9.377C1169.576-1268.155,1169.044-1268.288,1168.445-1267.29Z" transform="translate(-124.662 -54.914)" fill="#fff"/>
    <path id="Path_29" data-name="Path 29" d="M1131.474-1263.484c-.8.731-.532,1.4.8,1.729,1.662.4,9.776,11.97,11.239,15.894,1.2,3.458,3.125,4.522,2.394,1.33-.931-3.658-2.859-7.249-6.916-12.635C1134.6-1263.018,1132.6-1264.681,1131.474-1263.484Z" transform="translate(-112.163 -56.26)" fill="#fff"/>
    <path id="Path_30" data-name="Path 30" d="M1164-1263.614c0,.865,1.8,3.658,6.451,10.042,2.726,3.791,4.721,7.182,4.522,7.581-.333.465-.067.665.731.465,2.328-.465.8-3.392-7.249-14.032C1165.4-1263.481,1164-1264.811,1164-1263.614Z" transform="translate(-123.209 -56.196)" fill="#fff"/>
    <path id="Path_31" data-name="Path 31" d="M1030.3-1248.01c-1.064,3.724-1.064,4.057,0,6.318.6,1.264,1.33,2.328,1.662,2.328.732,0,.665-1.862-.2-3.391-.532-1.064-.465-2,.333-3.99,1.264-3.126,1.4-5.254.266-5.254C1031.894-1252,1030.963-1250.2,1030.3-1248.01Z" transform="translate(-78.153 -60.229)" fill="#fff"/>
    <path id="Path_32" data-name="Path 32" d="M1338-1244.153c0,2.793,7.448,18.953,10.308,22.411,1.463,1.729,9.443,18.088,11.172,22.943,1.463,3.99,3.125,8.113,5.786,13.965.333.731,1.33,3.724,2.195,6.65,3.524,11.5,5.719,18.753,6.384,21.347.665,2.461,4.057,18.687,4.057,19.285,0,.133.466.266,1,.266.731,0,.931-.466.731-1.53-.2-.8-.665-3.591-1.064-6.118-2.128-13.3-8.379-34.913-13.167-45.62-1.064-2.328-2.86-6.85-4.057-10.042a153.726,153.726,0,0,0-9.31-19.152c-2.527-4.056-10.042-17.423-10.906-19.285a26.435,26.435,0,0,1-1.463-4.19C1339.2-1245.084,1338-1245.749,1338-1244.153Z" transform="translate(-181.498 -62.556)" fill="#fff"/>
    <path id="Path_33" data-name="Path 33" d="M1038-1243.252c0,.8,3.126,6.65,7.914,14.963,3.059,5.254,4.722,4.921,1.8-.4C1041.392-1240.393,1038-1245.447,1038-1243.252Z" transform="translate(-81 -62.992)" fill="#fff"/>
    <path id="Path_34" data-name="Path 34" d="M1196.9-1241.222a21.657,21.657,0,0,1-5.387.731c-5.121.133-5.52.465-4.722,3.259a18.736,18.736,0,0,1,.665,4.655v2.328l-1.4-2.194c-2.328-3.591-2.195-1.929.266,3.724,2.66,6.118,6.517,12.037,10.374,15.761,1.53,1.4,2.727,2.993,2.727,3.458a.82.82,0,0,0,.665.865c1.729,0,.4-3.259-2.594-6.384-5.52-5.852-10.84-14.5-9.177-15.1.532-.133.8-1.663.731-4.323l-.066-4.123,2.394-.067c3.192-.067,8.113-1.463,8.113-2.261C1199.561-1241.821,1198.7-1241.887,1196.9-1241.222Z" transform="translate(-130.041 -63.691)" fill="#fff"/>
    <path id="Path_35" data-name="Path 35" d="M1162-1235.734a13.233,13.233,0,0,0,1.862,2.261,60.847,60.847,0,0,1,5.453,8.446c5.254,9.177,11.571,17.955,12.968,17.955a1.763,1.763,0,0,1,1.6,1.064c.465,1.264,7.648,11.239,10.441,14.5a141.445,141.445,0,0,1,10.507,16.16c1.53,3.059,3.391,4.788,4.389,4.19.532-.333.466-.8-.2-1.53a35.441,35.441,0,0,1-2.727-4.456c-1-1.862-2.328-4.256-3.059-5.32-.731-1.13-1.8-2.926-2.394-3.99a9.9,9.9,0,0,0-1.6-2.328c-.4-.266-3.658-4.456-11.106-14.3a48.312,48.312,0,0,1-6.052-9.776c-1.53-3.325-3.192-3.525-1.862-.2.532,1.264.865,2.328.665,2.328-.333,0-6.251-9.111-6.251-9.643,0-.133-2.261-3.724-4.988-7.98-3.591-5.453-5.453-7.648-6.318-7.648C1162.6-1236,1162-1235.867,1162-1235.734Z" transform="translate(-122.539 -65.589)" fill="#fff"/>
    <path id="Path_36" data-name="Path 36" d="M1051-1232.6a17.176,17.176,0,0,0,2.66,3.325,24.011,24.011,0,0,1,3.458,4.589c.8,1.8,2.261,2.328,1.6.6a7.283,7.283,0,0,1-.4-1.663c0-.865-5.985-7.249-6.717-7.249C1051.266-1233,1051-1232.8,1051-1232.6Z" transform="translate(-85.355 -66.594)" fill="#fff"/>
    <path id="Path_37" data-name="Path 37" d="M1159-1230.3c0,1.6,5.919,13.167,9.576,18.687,3.591,5.453,5.054,6.916,5.054,5.054,0-.865-2.859-5.985-5.054-8.844a93.437,93.437,0,0,1-4.855-8.845C1160.663-1230.3,1159-1232.433,1159-1230.3Z" transform="translate(-121.534 -67.227)" fill="#fff"/>
    <path id="Path_38" data-name="Path 38" d="M1195-1227.667a47.247,47.247,0,0,0,3.259,4.921,75.007,75.007,0,0,1,4.389,6.783,51.238,51.238,0,0,0,8.978,11.9,194.593,194.593,0,0,1,13.433,14.963c2.062,2.527,4.323,5.254,4.988,5.985,1.928,2.061,6.849,8.712,6.849,9.244a40.231,40.231,0,0,0,4.323,5.453,51.183,51.183,0,0,1,5.919,8.113,24.806,24.806,0,0,0,2.859,4.456c8.845,9.842,11.5,13.5,16.758,23.209,1.6,2.926,3.525,6.384,4.389,7.714a27.507,27.507,0,0,1,3.924,9.443c.6,3.325,1.729,3.192,1.729-.133,0-2.727-2.727-9.643-5.187-13.167-.665-1-2.527-4.189-4.123-7.116-4.189-7.714-6.318-10.574-15.229-20.216-2.66-2.926-4.589-6.251-4.988-8.911-.266-1.4-.732-2.328-1-2.128-.8.466-5.586-5.187-9.244-10.773-2.926-4.456-16.426-20.15-24.738-28.795a51.482,51.482,0,0,1-8.446-11.039c-3.192-5.32-7.049-10.241-7.98-10.241C1195.4-1228,1195-1227.867,1195-1227.667Z" transform="translate(-133.594 -68.269)" fill="#fff"/>
    <path id="Path_39" data-name="Path 39" d="M1204.716-1225.767c1.064,1.995,8.246,8.446,21.347,19.152,18.022,14.7,22.344,19.219,34.248,35.511a71.677,71.677,0,0,0,7.847,7.781c3.259,2.727,6.052,5.387,6.251,5.919.532,1.4,1.53,1.13,1.53-.465,0-.8-1.8-3.059-4.788-5.786-6.384-5.919-11.172-10.84-11.172-11.571,0-1.33-6.849-9.51-14.231-17.024-5.387-5.52-10.042-9.51-25.669-21.945-4.589-3.591-9.776-7.98-11.638-9.643C1204.915-1227.1,1203.652-1227.762,1204.716-1225.767Z" transform="translate(-136.726 -68.639)" fill="#fff"/>
    <path id="Path_40" data-name="Path 40" d="M1117.415-1224.269a6.143,6.143,0,0,0,.067,3.125,45.915,45.915,0,0,1,.865,4.522c.067.732,3.126,5.453,9.643,14.9a87.508,87.508,0,0,0,6.384,7.648,107.093,107.093,0,0,1,8.313,10.241c3.791,5.453,5.586,6.517,3.259,1.928-1.53-2.993-7.98-10.973-9.576-11.837-.731-.4-3.657-4.19-6.451-8.512-2.859-4.256-5.32-7.914-5.52-8.113-1-.865-3.591-5.919-3.99-7.781-.465-1.862.4-1.2,7.049,5.52,6.983,7.049,8.911,8.512,8.911,6.983,0-1.064-17.091-19.352-18.022-19.352A1.366,1.366,0,0,0,1117.415-1224.269Z" transform="translate(-107.547 -69.274)" fill="#fff"/>
    <path id="Path_41" data-name="Path 41" d="M1038-1221.867c.067.532,2.594,7.249,3.658,9.643,1.264,2.993,3.458,4.123,2.594,1.33-1.33-4.389-4.589-11.106-5.32-11.106C1038.4-1222,1038-1221.934,1038-1221.867Z" transform="translate(-81 -70.278)" fill="#fff"/>
    <path id="Path_42" data-name="Path 42" d="M1018.445-1212.217a105.236,105.236,0,0,0,1.729,13.1c.8,3.524,1.463,6.65,1.53,7.049.665,3.125,1.463,6.251,3.192,11.97,1.729,5.852,3.392,12.9,4.788,20.283.4,2.128.333,2.194-.532,1-1.463-2.061-1.928-.731-.864,2.461.6,1.6,1.8,5.786,2.726,9.244,2.062,7.714,2.86,9.909,3.658,9.909.865,0,1.53,6.384,1.995,18.82.6,15.561,1.729,13.433,1.662-3.059-.133-13.9-.731-18.554-4.123-30.723-2.195-7.98-3.458-13.433-3.458-15.029s-.2-2.194-3.259-11.9c-3.059-9.51-2.461-9.51.865,0,1.6,4.589,4.522,12.436,6.584,17.423a255.034,255.034,0,0,1,12.1,36.309,52.956,52.956,0,0,0,1.928,6.583c1.2,1.2,1.2-1.263-.066-7.315-1.4-6.717-1.53-8.845-.266-5.586.532,1.4,2.062,3.126,2.062,2.261,0-.133-.864-2.793-1.995-5.852a211.689,211.689,0,0,1-6.384-23.142c-.865-3.79-2.527-9.776-3.658-13.3-2.128-6.384-8.845-21.014-10.042-21.746-1.33-.865-1.13.4.865,4.788,3.924,8.645,4.456,9.909,6.451,15.894,2.992,8.844,5.386,17.689,4.721,17.49-1.6-.532-11.5-27.664-14.564-39.768a60.235,60.235,0,0,0-2-6.983c-1-2.394-3.99-12.635-3.99-13.766,0-1.6-.731-3.192-1.4-3.192C1018.312-1219,1018.246-1216.141,1018.445-1212.217Zm5.386,17.157a19.447,19.447,0,0,1,.732,4.456c-.266.2-2.461-7.781-2.461-8.844C1022.1-1200.912,1022.967-1198.651,1023.832-1195.06Zm1.4,6.783c-.2.532-.4.332-.4-.4-.067-.731.133-1.13.333-.865A1.348,1.348,0,0,1,1025.228-1188.277Zm5.32,32.585c-.2.532-.4.332-.4-.4-.067-.731.133-1.13.333-.865A1.347,1.347,0,0,1,1030.548-1155.691Zm12.1,6.185c0,.333-.266.2-.6-.333a4.6,4.6,0,0,1-.6-1.995C1041.454-1152.9,1042.585-1150.77,1042.651-1149.507Z" transform="translate(-74.413 -71.283)" fill="#fff"/>
    <path id="Path_43" data-name="Path 43" d="M1153-1214.208c0,.732,3.99,2.062,4.722,1.6,1.463-.865.4-1.929-2.062-1.995C1154.2-1214.673,1153-1214.474,1153-1214.208Z" transform="translate(-119.524 -72.751)" fill="#fff"/>
    <path id="Path_44" data-name="Path 44" d="M1076-1213.4a3.841,3.841,0,0,0,1,1.662,3.377,3.377,0,0,1,1,1.6,2.854,2.854,0,0,0,1,1.463c.8.665,5.653,9.177,9.51,16.625,1.4,2.66,3.99,5.653,4.522,5.121s-5.32-12.037-9.044-17.822C1079.392-1211.874,1076-1215.531,1076-1213.4Z" transform="translate(-93.73 -72.956)" fill="#fff"/>
    <path id="Path_45" data-name="Path 45" d="M1148.187-1210.605c-.2,1.4-.466,2.993-.6,3.591a23.217,23.217,0,0,0,1,5.653,43.82,43.82,0,0,1,1.264,7.249c.067,2.527.067,2.594,1.064,1.33a3.641,3.641,0,0,0,.532-2.992c-.2-.931-.532-2.594-.732-3.658a21.651,21.651,0,0,0-.931-3.99,17.4,17.4,0,0,1-.2-5.786C1150.049-1213.6,1148.852-1214.795,1148.187-1210.605Z" transform="translate(-117.704 -73.228)" fill="#fff"/>
    <path id="Path_46" data-name="Path 46" d="M1068-1211.306c0,.4,2.926,5.387,6.517,11.172,3.525,5.719,6.85,11.172,7.249,12.1.465.931,2.261,4.788,3.99,8.645,2.66,5.786,9.709,19.485,10.64,20.549.133.2.532,0,.865-.333.4-.4-.931-3.857-3.924-9.776-2.527-4.988-5.054-10.374-5.719-11.97a73.051,73.051,0,0,0-7.249-14.1c-1.529-2.128-3.325-4.988-4.057-6.318-1.862-3.259-7.182-10.574-7.781-10.574C1068.2-1211.971,1068-1211.638,1068-1211.306Z" transform="translate(-91.05 -73.658)" fill="#fff"/>
    <path id="Path_47" data-name="Path 47" d="M1061.51-1204.537c1,3.392,3.657,8.379,5.254,9.842.931.864,1.662,1.263,1.662.931,0-1.4-5.719-12.17-6.517-12.236C1061.311-1206,1061.178-1205.535,1061.51-1204.537Z" transform="translate(-88.816 -75.638)" fill="#fff"/>
    <path id="Path_48" data-name="Path 48" d="M1014-1195.074a20.677,20.677,0,0,0,.732,5.121c1.928,5.985,4.123,11.239,4.655,11.239,1,0,.732-1.463-1.4-7.182a37.7,37.7,0,0,1-1.995-7.315c0-2.461-.732-4.788-1.4-4.788C1014.266-1198,1014-1196.67,1014-1195.074Z" transform="translate(-72.96 -78.318)" fill="#fff"/>
    <path id="Path_49" data-name="Path 49" d="M1197-1197.537c0,1,1.663,3.325,5.985,8.313,2.062,2.394,4.522,5.387,5.453,6.65,4.323,5.786,16.293,16.625,18.421,16.625,1.4,0-.067-1.729-5.453-6.318a124.479,124.479,0,0,1-10.973-11.106C1202.586-1192.483,1197.067-1198.335,1197-1197.537Z" transform="translate(-134.264 -78.449)" fill="#fff"/>
    <path id="Path_50" data-name="Path 50" d="M1338.241-1194.5c-.8,1.862-1,3.791-.732,7.515.266,4.522.8,6.251,3.525,12.3,1.6,3.525,1.8,5.653.8,6.849-1,1.064-1.663,3.059-2.261,6.783-.731,3.857-2.46,8.047-3.724,8.712-.931.532-2.128.532-4.19,0-3.525-.865-3.658-.865-3.658-.133,0,.333,1.264,1.064,2.727,1.662,3.458,1.4,6.185.865,7.847-1.463,1.263-1.862,3.391-8.379,3.391-10.64a6.39,6.39,0,0,1,1.33-2.993c1.862-2.394,1.663-4.921-1-11.106-2.594-5.985-3.591-13.034-2.394-16.16,1.4-3.591,3.458-1.663,6.65,6.318,2.261,5.786,3.791,8.845,8.18,16.492,3.791,6.717,5.786,12.1,5.985,16.293.133,1.662.532,2.993.864,2.993,1,0,1.2-4.323.333-8.18-.665-3.259-4.788-12.17-7.315-15.761a111.653,111.653,0,0,1-6.65-14.032c-1.6-4.456-4.19-7.581-6.517-7.781C1339.5-1197.029,1339.172-1196.83,1338.241-1194.5Z" transform="translate(-178.148 -78.691)" fill="#fff"/>
    <path id="Path_51" data-name="Path 51" d="M1113.4-1194.144a1.415,1.415,0,0,0-.133,1.13,39.588,39.588,0,0,1,.8,6.185c.532,5.919,1.2,8.645,2.261,8.645.333,0,1.6,1.6,2.793,3.458,3.791,5.919,7.98,11.239,8.645,10.84.931-.6.732-1.729-.532-3.126a18.72,18.72,0,0,1-1.8-2.394,74.152,74.152,0,0,0-7.116-9.443c-1.463-1.463-1.8-2.394-2.128-7.249l-.465-5.653,4.057,6.318a75.853,75.853,0,0,0,6.185,8.246,13.639,13.639,0,0,1,3.325,6.118c1.33,4.323,2.793,5.786,2.062,1.995-1.064-5.254-2.394-9.111-3.259-9.111-.931,0-4.588-4.522-8.711-10.773C1116.79-1192.947,1114.063-1195.274,1113.4-1194.144Z" transform="translate(-106.19 -79.514)" fill="#fff"/>
    <path id="Path_52" data-name="Path 52" d="M1051.529-1187.95c1.064,3.391,2.527,7.647,3.125,9.51,8.579,23.674,11.172,31.056,13.234,37.374,2.461,7.381,3.99,9.842,3.259,4.988-.532-3.059-5.254-16.958-14.1-41.364-1-2.727-2.66-7.581-3.791-10.84C1050.465-1196.4,1048.936-1196.063,1051.529-1187.95Z" transform="translate(-85.086 -79.59)" fill="#fff"/>
    <path id="Path_53" data-name="Path 53" d="M1146.541-1190.3c-.532.8.865,6.583,1.729,7.116,1.064.665,1.13.066.4-3.392C1147.937-1190.169,1147.206-1191.433,1146.541-1190.3Z" transform="translate(-117.321 -80.762)" fill="#fff"/>
    <path id="Path_54" data-name="Path 54" d="M1163.2-1187.969a15.566,15.566,0,0,0-1.264,4.389l-.732,3.657,3.192,5.187c3.591,5.719,7.847,10.64,8.778,10.108.266-.2-.8-2.062-2.461-4.123-7.382-9.111-8.512-11.771-6.916-15.894.6-1.729,1.264-1,10.042,11.9,2.793,4.123,4.19,3.126,1.463-1.064-4.323-6.584-9.975-14.3-10.707-14.63A1.332,1.332,0,0,0,1163.2-1187.969Z" transform="translate(-122.271 -81.5)" fill="#fff"/>
    <path id="Path_55" data-name="Path 55" d="M1176.977-1185.476c2.062,1.929,3.724,3.99,3.724,4.655,0,.6.333,1.13.665,1.13.931,0,.8-1.13-.4-3.791-1.264-2.527-4.722-5.52-6.517-5.52C1173.652-1189,1174.45-1187.87,1176.977-1185.476Z" transform="translate(-126.61 -81.333)" fill="#fff"/>
    <path id="Path_56" data-name="Path 56" d="M874.46-1182.71c-1.13,8.047-1.463,14.7-1.463,30.324-.067,13.433.333,17.091,1.862,17.091.266,0,.4-6.916.4-15.428-.067-8.512.133-20.083.466-25.736C876.388-1187.7,875.657-1191.356,874.46-1182.71Z" transform="translate(-25.723 -81.837)" fill="#fff"/>
    <path id="Path_57" data-name="Path 57" d="M951.474-1177.277c-.665,1.064.067,14.5,1.33,25,.532,4.389,1.13,9.776,1.33,11.97.865,10.308,4.057,24.206,8.645,37.905a116.939,116.939,0,0,1,3.857,16.958c.333,2.328.333,2.261-4.323-2.66-2.527-2.727-4.788-5.653-4.988-6.451-.266-.865-.731-1.53-1.064-1.53-1.064,0,.067,3.458,1.928,5.919,1,1.263,3.458,4.057,5.52,6.251,4.589,4.855,5.652,4.722,5.12-.8-.333-3.857-5.32-24.605-6.384-27-1.463-3.126-5.387-20.881-5.52-25,0-.865-.6-5.32-1.263-9.909-1.2-8.645-1.6-12.037-2.328-22.61C952.8-1176.213,952.272-1178.607,951.474-1177.277Z" transform="translate(-51.93 -85.143)" fill="#fff"/>
    <path id="Path_58" data-name="Path 58" d="M968-1172.323a6.336,6.336,0,0,0,1.2,2.527,23.849,23.849,0,0,1,2.062,4.123c.532,1.264,1.264,3.192,1.729,4.323.466,1.064,1.33,3.325,1.862,4.988,1.6,4.788,4.589,12.236,5.187,12.9.333.4.732.2.931-.4.333-.865-1.8-7.448-4.323-13.5-.266-.731-1.264-3.126-2.062-5.32a61.689,61.689,0,0,0-3.259-6.916C969.662-1172.522,968-1173.852,968-1172.323Z" transform="translate(-57.551 -86.706)" fill="#fff"/>
    <path id="Path_59" data-name="Path 59" d="M1105-1172.867c.2,1.4,3.059,8.113,5.32,12.5,1.662,3.125,3.192,6.185,3.458,6.783.532,1.33,1.862,1.6,1.862.465a75.529,75.529,0,0,0-3.924-8.845c-2.128-4.389-4.123-8.712-4.323-9.576-.266-.8-.931-1.463-1.463-1.463S1105-1172.934,1105-1172.867Z" transform="translate(-103.445 -86.693)" fill="#fff"/>
    <path id="Path_60" data-name="Path 60" d="M1157.587-1171.324c-.333.6,2.66,5.453,5.187,8.446,1.53,1.8,1.662,1.862,1.729.6,0-.8-1.064-2.727-2.328-4.323a13.63,13.63,0,0,1-2.328-3.658C1159.848-1171.191,1158.053-1171.989,1157.587-1171.324Z" transform="translate(-121.052 -87.172)" fill="#fff"/>
    <path id="Path_61" data-name="Path 61" d="M1200-1169.624c0,1.13,2.66,5.254,6.916,10.84,2.594,3.392,5.187,6.916,5.719,7.847,1.2,1.862,1.995,2.062,1.995.4-.066-1.264-1.13-2.793-8.579-12.436C1201.463-1168.959,1200-1170.555,1200-1169.624Z" transform="translate(-135.269 -87.741)" fill="#fff"/>
    <path id="Path_62" data-name="Path 62" d="M964.5-1163.434c.266,1.4,2,7.315,3.924,13.167s3.99,13.034,4.655,15.96c2.793,13.367,5.187,21.48,8.512,29.393a83.12,83.12,0,0,1,4.123,11.305c.266,1.8.8,2.86,1.4,2.86,1.928,0,.6-5.719-3.724-15.96a93.909,93.909,0,0,1-5.985-18.421c-2.394-10.973-3.99-16.825-6.983-24.938-1.6-4.256-3.325-9.377-3.923-11.438C965.233-1165.895,963.77-1167.291,964.5-1163.434Z" transform="translate(-56.313 -89.143)" fill="#fff"/>
    <path id="Path_63" data-name="Path 63" d="M1189-1165.783a45.778,45.778,0,0,0,2.527,4.456c5.586,9.31,9.51,17.889,9.909,21.613.333,3.391,1.4,4.988,1.663,2.394a21.021,21.021,0,0,1,.2-2.128c.266-2.926-6.451-17.157-11.172-23.807C1190.4-1165.65,1189-1166.78,1189-1165.783Z" transform="translate(-131.584 -88.989)" fill="#fff"/>
    <path id="Path_64" data-name="Path 64" d="M960.3-1159.345c.2,2.527,1.463,10.707,2.727,18.088,1.264,7.448,2.66,15.561,3.059,18.155.865,5.387,3.192,13.3,4.323,14.9.731.931.931.865,1.529-.8.6-1.463.532-2.128-.2-2.859-1.2-1.2-1.463-2.062-2.66-8.579-.532-2.926-1.6-8.645-2.394-12.635-1.4-7.581-5.32-29.925-5.32-30.524,0-.266-.333-.4-.732-.4C960.034-1164,959.967-1162.67,960.3-1159.345Z" transform="translate(-54.904 -89.708)" fill="#fff"/>
    <path id="Path_65" data-name="Path 65" d="M1007-1159.426c0,3.791,5.852,19.418,7.249,19.418.931,0,1,.2-1.064-4.722-.931-2.328-2.394-6.65-3.192-9.51-.731-2.926-1.729-5.386-2.195-5.586C1007.333-1159.958,1007-1159.825,1007-1159.426Z" transform="translate(-70.615 -91.09)" fill="#fff"/>
    <path id="Path_66" data-name="Path 66" d="M1145-1158.319c0,.333.665.931,1.53,1.4,2.062,1.064,6.451,5.387,6.451,6.318a1.7,1.7,0,0,0,.665,1.263c.4.266.665-.332.665-1.33,0-1.995-3.791-6.118-6.849-7.515C1145.2-1159.183,1145-1159.183,1145-1158.319Z" transform="translate(-116.844 -91.399)" fill="#fff"/>
    <path id="Path_67" data-name="Path 67" d="M1358.562-1155.436c-.2.333,0,.731.532.931s1.13,1.663,1.4,3.259c.532,2.993,5.387,17.623,6.251,18.82a28.534,28.534,0,0,1,1.729,4.589c1.064,3.458,1.064,4.655.465,9.842a31.425,31.425,0,0,1-1.862,7.847c-1.463,2.394-.8,3.325,1.064,1.662,2.726-2.461,4.189-11.372,2.992-17.955a42.542,42.542,0,0,0-2.327-6.65,152.889,152.889,0,0,1-6.717-18.155C1360.823-1155.635,1359.559-1157.1,1358.562-1155.436Z" transform="translate(-188.36 -92.353)" fill="#fff"/>
    <path id="Path_68" data-name="Path 68" d="M999.183-1152.366c-.2,2.66.4,5.386,3.791,18.022,1.929,7.182,2.86,9.443,3.724,8.578.466-.4-2.527-13.367-4.057-17.756a40.135,40.135,0,0,1-1.53-6.982C1000.646-1155.026,999.382-1156.223,999.183-1152.366Z" transform="translate(-67.985 -92.83)" fill="#fff"/>
    <path id="Path_69" data-name="Path 69" d="M1165.97-1151.188c-1.33,2.594-2.128,7.382-1.33,7.914.333.2.865-1,1.13-2.793a16.338,16.338,0,0,1,1.13-4.323,3.246,3.246,0,0,0,.333-1.995C1167.1-1152.85,1166.5-1152.318,1165.97-1151.188Z" transform="translate(-123.317 -93.543)" fill="#fff"/>
    <path id="Path_70" data-name="Path 70" d="M1188-1149.549a6.558,6.558,0,0,0,1.33,2.195,8.366,8.366,0,0,1,1.33,2.062c0,.6,8.645,16.16,9.377,16.825q.6.6.6-.4c0-1.13-2.926-7.049-6.517-13.034a26.6,26.6,0,0,1-2.128-3.857,9.269,9.269,0,0,0-1.4-2.328C1189.33-1149.881,1188-1150.613,1188-1149.549Z" transform="translate(-131.249 -94.384)" fill="#fff"/>
    <path id="Path_71" data-name="Path 71" d="M1148.185-1146.2a44.23,44.23,0,0,1,2.194,3.857c1,1.862,1.064,1.928,1.264.465.266-1.862-2.261-6.118-3.657-6.118C1147.12-1148,1147.12-1147.734,1148.185-1146.2Z" transform="translate(-117.635 -95.068)" fill="#fff"/>
    <path id="Path_72" data-name="Path 72" d="M1165.628-1146.9c-.8,2.793-3.791,8.113-4.323,7.781-.8-.466-.731-.266.4,6.052a58.146,58.146,0,0,1,.931,7.315c.066,1.8-.2,1.529-2.394-2.328-2.461-4.522-4.655-7.315-5.653-7.315-.333,0-1.064,1.13-1.662,2.46a14.559,14.559,0,0,1-2.062,3.724c-.532.6-.8,1.33-.6,1.53.864.931,2.594-.532,3.724-3.125l1.2-2.66,2.66,4.854c1.463,2.66,2.993,5.786,3.458,6.983,1.13,2.859,2.594,4.057,3.125,2.594.466-1.2-.864-13.766-1.729-15.96-.4-1.131-.066-2.195,1.4-4.389a32.611,32.611,0,0,1,2.261-3.192c.133-.133,1.13,1.463,2.261,3.591,1.13,2.194,3.059,5.719,4.389,7.914,1.264,2.194,2.926,5.254,3.658,6.783,1.53,3.259,3.059,3.857,2.328,1-.2-1-2.261-5.121-4.522-9.111-2.195-4.057-4.456-8.18-4.988-9.177a5.214,5.214,0,0,0-1.929-2.261c-.665-.266-.8-.931-.532-2.261C1167.49-1148.232,1166.227-1148.9,1165.628-1146.9Z" transform="translate(-118.586 -95.035)" fill="#fff"/>
    <path id="Path_73" data-name="Path 73" d="M1232-1147.247a1.252,1.252,0,0,0,.665,1,9.208,9.208,0,0,1,1.729,2.793c1.264,2.66,11.5,13.5,12.768,13.5,1.463,0,.8-1-3.259-4.988a83.7,83.7,0,0,1-6.983-8.047C1234.195-1146.781,1232-1148.71,1232-1147.247Z" transform="translate(-145.989 -95.156)" fill="#fff"/>
    <path id="Path_74" data-name="Path 74" d="M1188-1139.611a17.181,17.181,0,0,0,2.062,8.778,91.273,91.273,0,0,1,3.392,9.377c1.33,5.12,2.128,6.65,2.926,5.852.731-.731-2.328-10.374-4.589-14.763-1.862-3.458-2.128-4.522-2.062-8.778.067-3.724-.133-4.854-.8-4.854C1188.2-1144,1188-1142.87,1188-1139.611Z" transform="translate(-131.249 -96.408)" fill="#fff"/>
    <path id="Path_75" data-name="Path 75" d="M1130.484-1137.5c-.2.2.2,2.062.931,4.123,1.6,4.589,4.722,17.49,4.323,17.889-.333.332-3.192-5.786-4.788-10.374-.665-1.928-1.663-3.724-2.128-3.857-1.2-.532-2.594.931-3.059,3.126a8.329,8.329,0,0,1-2.062,3.724c-1.995,1.995-2.062,2.261-.465,2.261,1.2,0,3.391-2.461,4.389-4.988.465-1.064.6-1.131.865-.333,1.53,4.988,5.121,12.037,6.783,13.034,1.53,1.064,1.662,1,2.527-.133,1.13-1.6,1.13-2.394-.4-6.85-.665-2.062-2.195-6.783-3.325-10.507C1132.08-1136.9,1131.348-1138.3,1130.484-1137.5Z" transform="translate(-109.178 -98.517)" fill="#fff"/>
    <path id="Path_76" data-name="Path 76" d="M1148.121-1132.507c-.133,1.929-.532,2.527-1.729,2.86-2.328.532-2.062,1.662.4,1.862,2.527.266,3.325-1.13,2.926-4.921C1149.384-1135.7,1148.387-1135.632,1148.121-1132.507Z" transform="translate(-116.773 -99.456)" fill="#fff"/>
    <path id="Path_77" data-name="Path 77" d="M1292.654-1127.18a40.487,40.487,0,0,0,3.791,5.719,44.254,44.254,0,0,1,4.854,9.244c1.463,3.525,3.059,7.116,3.591,7.98,1.6,2.394,2.461,1.2,1.264-1.662-.6-1.33-2.062-4.988-3.325-8.047a27.653,27.653,0,0,0-4.788-8.313,32.97,32.97,0,0,1-4.057-5.254C1291.923-1130.9,1290.925-1130.638,1292.654-1127.18Z" transform="translate(-166.011 -101.125)" fill="#fff"/>
    <path id="Path_78" data-name="Path 78" d="M1097.143-1122.8c-6.85,7.249-11.039,12.7-10.108,13.234.4.266,1.13-.133,1.662-.865,1.13-1.662,5.919-6.983,11.106-12.5,2.594-2.793,3.591-4.256,3.059-4.589C1102.4-1127.852,1100.2-1126.057,1097.143-1122.8Z" transform="translate(-97.383 -101.915)" fill="#fff"/>
    <path id="Path_79" data-name="Path 79" d="M1011.538-1126.385c-.6.931,1.064,7.049,3.059,11.438,2.328,4.988,3.259,4.389,1.33-.8a71.023,71.023,0,0,1-2.128-7.049C1013-1126.186,1012.2-1127.449,1011.538-1126.385Z" transform="translate(-72.094 -102.186)" fill="#fff"/>
    <path id="Path_80" data-name="Path 80" d="M1335.775-1122.729c-.2,3.791.2,6.717,1.13,8.446,1.2,2.328,6.517,8.047,7.515,8.047,1.53,0,.731-1.662-1.928-4.323-3.392-3.259-5.187-7.049-5.254-10.773C1337.238-1124.658,1335.974-1125.921,1335.775-1122.729Z" transform="translate(-180.735 -102.915)" fill="#fff"/>
    <path id="Path_81" data-name="Path 81" d="M1026-1121.982a13.625,13.625,0,0,0,1,3.458,13.021,13.021,0,0,1,1,3.325,9.955,9.955,0,0,0,.931,3.059c.532,1.2,1.463,3.259,2,4.589,1,2.461,2.926,3.658,2.195,1.33-.665-2.061-4.988-14.431-5.453-15.628C1027.064-1123.246,1026-1123.312,1026-1121.982Z" transform="translate(-76.98 -103.463)" fill="#fff"/>
    <path id="Path_82" data-name="Path 82" d="M1344-1121.6a20.313,20.313,0,0,0,2.328,3.125,17.065,17.065,0,0,1,3.126,5.254c1,3.391,2.194,2.261,1.263-1.2-.731-2.594-4.655-7.581-5.985-7.581C1344.333-1122,1344-1121.8,1344-1121.6Z" transform="translate(-183.508 -103.778)" fill="#fff"/>
    <path id="Path_83" data-name="Path 83" d="M1103.677-1116.962a100.016,100.016,0,0,0-13.034,10.64,44.1,44.1,0,0,0-7.249,11.239c-.865,2.859,1.064,1.33,3.458-2.793a58.821,58.821,0,0,1,14.83-15.029c4.854-3.192,5.985-4.19,5.985-5.187C1107.667-1119.356,1107-1119.157,1103.677-1116.962Z" transform="translate(-96.136 -104.825)" fill="#fff"/>
    <path id="Path_84" data-name="Path 84" d="M1317.971-1115.721a38.77,38.77,0,0,0,2.261,7.515c2.261,5.253,3.325,9.177,4.655,16.825,1.995,11.172,3.657,15.561,4.189,10.84.133-1,.532-1.8.865-1.8s.6-.332.6-.8a37.041,37.041,0,0,1,2.328-5.586c1.663-3.591,2.793-5.121,4.389-5.985a18.364,18.364,0,0,0,3.458-2.328,6.269,6.269,0,0,1,1.862-1.264c.731,0,3.259-4.323,3.923-6.65.6-2.128.266-3.99-.732-3.99-.266,0-.4.465-.2,1s-.465,2.461-1.463,4.256c-1.6,2.993-2.86,4.189-7.648,7.049-3.192,2-5.719,6.118-7.115,11.638-.532,2.261-.6,2.194-1.4-2.328-.665-3.724-2.194-11.372-3.126-15.3-.066-.4-1.33-3.192-2.793-6.318a42.1,42.1,0,0,1-2.926-7.581c-.133-1.064-.532-2.062-.931-2.195C1317.638-1118.913,1317.572-1117.982,1317.971-1115.721Z" transform="translate(-174.702 -104.87)" fill="#fff"/>
    <path id="Path_85" data-name="Path 85" d="M1404-1118.77c0,.2,2.86,6.052,6.318,13.034,7.249,14.5,9.842,20.815,11.638,27.93.665,2.793,2.061,7.116,2.992,9.709,1.6,4.057,3.724,10.906,6.584,20.948,2.859,9.842,4.057,13.3,4.722,13.1,1.33-.532.532-4.323-4.456-21.746-1.131-3.857-3.192-10.042-4.589-13.832a60.087,60.087,0,0,1-2.594-7.714,67.643,67.643,0,0,0-1.995-6.916c-3.059-9.11-15.827-33.915-17.756-34.58C1404.4-1118.97,1404-1118.9,1404-1118.77Z" transform="translate(-203.607 -104.813)" fill="#fff"/>
    <path id="Path_86" data-name="Path 86" d="M1366.339-1099.554c0,7.648-.6,14.963-1.264,16.093a17.177,17.177,0,0,0-.732,3.391c-.4,3.192-4.788,16.559-5.652,17.556-.333.333-.8-.532-1-1.862q-.8-3.99-3.791-3.192c-1.264.333-1.33.732-.865,7.714.466,6.65.4,7.248-.532,6.451a4.883,4.883,0,0,0-3.059-.6c-3.059.266-5.852-2.859-9.377-10.374-1.663-3.525-3.192-6.384-3.525-6.384-1.662,0,3.857,12.569,7.182,16.492,2.328,2.727,2.66,2.859,5.054,2.46,2.062-.333,2.66-.2,2.993.6.6,1.53,2.062,1.33,2.993-.4.732-1.4.4-11.239-.532-13.633-.266-.665-.133-.931.465-.732.532.133,1.2,1.6,1.6,3.192,1.264,5.121,2.993,4.256,5.453-2.726.931-2.66,2.128-5.852,2.66-7.049,3.458-7.647,5.32-35.445,2.394-35.445C1366.538-1108,1366.339-1104.209,1366.339-1099.554Z" transform="translate(-180.909 -108.468)" fill="#fff"/>
    <path id="Path_87" data-name="Path 87" d="M1023.429-1103.22a38.391,38.391,0,0,0,1.995,7.315c.865,2.461,2.328,6.517,3.192,8.978a32.57,32.57,0,0,0,2.061,4.921c1.064,1.064.2-4.189-1.33-8.246-.931-2.46-2.394-6.517-3.259-8.978C1023.895-1105.481,1022.9-1106.944,1023.429-1103.22Z" transform="translate(-76.072 -109.391)" fill="#fff"/>
    <path id="Path_88" data-name="Path 88" d="M1015.667-1098.5c-.2.2.066,1.8.6,3.458,1.662,5.453,2.926,14.763,3.192,24.339.2,5.054.466,9.377.665,9.576,1,1,1.663-4.057,1.4-10.973-.4-9.709-1.33-16.559-3.059-21.945C1017.13-1098.106,1016.4-1099.236,1015.667-1098.5Z" transform="translate(-73.496 -111.579)" fill="#fff"/>
    <path id="Path_89" data-name="Path 89" d="M1023.775-1086.579c-.665.665,5.653,24.339,6.451,24.073,1-.333.466-3.791-2.328-13.965C1025.438-1085.316,1024.64-1087.378,1023.775-1086.579Z" transform="translate(-76.219 -115.59)" fill="#fff"/>
    <path id="Path_90" data-name="Path 90" d="M870.5-1081.174c-1,2.66,0,16.891,2.128,30.058,2.195,13.1,5.985,25.669,9.51,31.455,2.66,4.323,2.594,1.13-.133-5.453a155.69,155.69,0,0,1-7.315-27.664c-.466-2.726-.931-5.453-1-5.985-.133-.6-.4-2.66-.665-4.655-.2-1.995-.532-4.589-.665-5.652-.133-1.131-.266-4.456-.266-7.515C872.034-1081.506,871.369-1083.435,870.5-1081.174Z" transform="translate(-24.76 -117.139)" fill="#fff"/>
    <path id="Path_91" data-name="Path 91" d="M1344.02-1073.281c-1.663,4.323-2.594,5.919-3.857,6.451l-1.662.732,1.53.266c2.128.333,3.125-.665,4.655-4.722,2.527-6.584,2.394-6.318,2.66-3.924.266,2.461-1.729,5.985-4.921,8.978-1.2,1.13-1.662,2.062-1.33,2.859.4,1,.6,1,2.128-.465a28.425,28.425,0,0,0,5.919-8.446,12.727,12.727,0,0,0,0-4.522c-.333-2.261-.731-2.926-1.662-2.926S1345.749-1077.6,1344.02-1073.281Z" transform="translate(-181.665 -118.182)" fill="#fff"/>
    <path id="Path_92" data-name="Path 92" d="M1413.717-1077.544c-.266.266-.2,1.263.133,2.194a41.17,41.17,0,0,1,1,5.453,72.5,72.5,0,0,0,1.995,9.31,252.285,252.285,0,0,1,6.65,36.176c.333,3.126.665,4.323,1.131,3.857,1.263-1.264.665-11.305-1.2-21.081-1.4-6.916-5.52-23.541-6.251-24.871a25.738,25.738,0,0,1-1-4.722C1415.646-1075.018,1414.449-1078.209,1413.717-1077.544Z" transform="translate(-206.807 -118.64)" fill="#fff"/>
    <path id="Path_93" data-name="Path 93" d="M1000.513-1074.983c.665,2.594,6.185,14.763,7.714,16.891.732,1.064,1.729,1.862,2.261,1.862,1.064,0,1.2-.8.333-1.729-.8-.732-7.714-14.63-8.313-16.692a3.111,3.111,0,0,0-1.463-1.8C1000.314-1076.712,1000.181-1076.446,1000.513-1074.983Z" transform="translate(-68.384 -119.007)" fill="#fff"/>
    <path id="Path_94" data-name="Path 94" d="M950.42-1059.175a.92.92,0,0,0,.2,1.264c.8.465,2.926,8.578,4.057,15.3.732,4.389,1.064,5.253,1.862,4.455.665-.665-.931-12.5-2.195-16.359C953.146-1058.111,951.218-1060.438,950.42-1059.175Z" transform="translate(-51.608 -124.707)" fill="#fff"/>
    <path id="Path_95" data-name="Path 95" d="M940.579-1051.368c-.2.266.332,2.46,1.263,4.788.865,2.328,2.261,6.451,2.993,9.044,1.4,4.589,2.128,5.653,2.926,4.323.4-.665-3.724-13.832-5.254-16.825C941.377-1052.1,941.111-1052.3,940.579-1051.368Z" transform="translate(-48.351 -127.261)" fill="#fff"/>
    <path id="Path_96" data-name="Path 96" d="M1335-1034.928c0,7.315,1.064,10.507,3.658,11.172a2.835,2.835,0,0,0,2.527-.333c.532-.532.333-.732-.731-.732-2.461,0-3.657-2.859-3.99-9.244C1336.064-1041.978,1335-1042.576,1335-1034.928Z" transform="translate(-180.493 -131.132)" fill="#fff"/>
    <path id="Path_97" data-name="Path 97" d="M938.337-1032.884a41.866,41.866,0,0,1,2.993,7.182,54.193,54.193,0,0,0,1.33,6.384,122.755,122.755,0,0,1,2.328,12.1,119.886,119.886,0,0,0,4.389,19.152,136.028,136.028,0,0,0,6.783,16.958c1.8,3.724,6.916,11.97,15.561,25.071,2.195,3.391,4.123,4.788,3.259,2.394-.6-1.4-6.783-11.571-11.039-18.155-8.379-12.768-15.362-31.721-17.29-46.617-1-8.18-4.389-20.682-6.65-24.672-1.131-1.928-2.261-3.923-2.527-4.455a3.383,3.383,0,0,0-1.33-1.264C935.677-1038.935,936.674-1036.275,938.337-1032.884Z" transform="translate(-46.84 -131.647)" fill="#fff"/>
    <path id="Path_98" data-name="Path 98" d="M1343.07-1010.6c-.066.865-.2,2.261-.266,3.192a24.3,24.3,0,0,0,.732,5.985,25.88,25.88,0,0,1,.6,8.379,18.475,18.475,0,0,0,.532,7.315,10.431,10.431,0,0,1,.6,4.19c-.2.665,0,.8.8.532.8-.332,1.064,0,1.064,1.463,0,1,.2,4.123.4,6.783.532,6.251-.2,7.249-5.386,7.249-3.126,0-3.525.2-3.924,1.53a16.867,16.867,0,0,0,.6,5.453c1.264,5.387,1.264,5.453-1.13,7.648-1.8,1.663-2.195,2.594-2.594,6.251a35.319,35.319,0,0,1-1.8,7.182c-.731,1.6-1.8,4.522-2.46,6.517a77.171,77.171,0,0,1-4.19,9.31c-4.522,8.512-5.387,10.241-4.988,10.84a.543.543,0,0,0,.8.133c1.264-.732,10.707-18.554,10.707-20.15a47.112,47.112,0,0,1,2-5.653,25.611,25.611,0,0,0,1.995-7.98c0-2.46.4-3.325,2.328-5.32,2.461-2.527,2.727-3.657,1.729-6.85a34.313,34.313,0,0,1-1-4.455c-.332-2.394-.266-2.461,1.862-2.461,3.724,0,6.251-1.2,6.983-3.458.731-1.995-.333-14.364-1.264-15.162-.931-.731-1.995-7.914-1.862-12.3a31.714,31.714,0,0,0-.732-7.648,29.146,29.146,0,0,1-.8-6.517C1344.4-1011.932,1343.2-1013.661,1343.07-1010.6Z" transform="translate(-175.994 -140.562)" fill="#fff"/>
    <path id="Path_99" data-name="Path 99" d="M1359.417-1008.87c1.729,3.99,2.859,7.98,2.594,8.978-.2.665-.067,1.2.333,1.2,1.264,0,.8-5.187-.731-8.313-.8-1.663-1.729-2.993-2.062-2.993S1359.151-1009.468,1359.417-1008.87Z" transform="translate(-188.617 -141.297)" fill="#fff"/>
    <path id="Path_100" data-name="Path 100" d="M1454.693-980.856a13.364,13.364,0,0,0,.931,2.195,29.841,29.841,0,0,1,1.663,6.584c.8,5.919.465,27.531-.532,31.92-.4,1.8-1.2,5.586-1.729,8.313-.6,2.727-1.2,5.586-1.33,6.318-.2.731-.732,3.391-1.264,5.985-.532,2.527-1.263,5.852-1.662,7.315-.865,3.325-.865,4.323-.067,4.323,1.53,0,2.859-4.655,6.318-21.812,2.461-12.1,3.591-21.812,3.259-28.4-.665-12.9-1.6-18.82-3.325-21.48C1456.156-980.789,1454.693-981.654,1454.693-980.856Z" transform="translate(-219.054 -150.956)" fill="#fff"/>
    <path id="Path_101" data-name="Path 101" d="M897.362-968.87c.2.665.8,3.591,1.4,6.517a101.565,101.565,0,0,0,2.594,10.308c4.456,13.367,5.254,16.559,6.318,24.938,2,15.229,2.394,16.958,3.724,16.958.665,0,.8-.665.6-2.527-.2-1.33-.6-4.389-.931-6.783s-.8-6.118-1-8.313c-.6-5.586-1.995-11.106-5.653-22.278-1.729-5.32-3.391-10.707-3.591-11.97-1.064-5.453-1.929-7.98-2.86-7.98C897.362-970,897.163-969.6,897.362-968.87Z" transform="translate(-33.862 -154.696)" fill="#fff"/>
    <path id="Path_102" data-name="Path 102" d="M1039.423-920.918c-3.392,2.793-3.392,4.722.067,2.128a19.224,19.224,0,0,1,3.525-2.394c1.13-.4,6.583,1.929,6.583,2.793s3.259,2.062,5.387,2.062c3.059,0,7.781-1.33,8.712-2.527.8-.931.532-1-1.8-.532-7.847,1.33-8.579,1.33-10.707-.532C1046.8-923.578,1043.014-923.91,1039.423-920.918Z" transform="translate(-80.627 -170.462)" fill="#fff"/>
    <path id="Path_103" data-name="Path 103" d="M1099.83-913.269c.731.532,5.52,1.995,10.64,3.192a114.808,114.808,0,0,1,14.963,4.522,153.246,153.246,0,0,0,23.94,7.781A80.867,80.867,0,0,1,1167-891.191a82.932,82.932,0,0,0,13.633,5.387c2.726.665,8.446,2.328,12.635,3.658,4.19,1.4,9.177,2.926,10.973,3.525,5.453,1.729,22.278,4.988,29.659,5.786,8.712.931,11.305,1.53,19.751,4.389,6.517,2.261,8.778,2.461,8.778,1,0-.4-.465-.532-1-.333-1.929.732-2.394-.466-.665-1.862,2.328-1.8,4.256-5.852,7.714-16.16,2.727-8.047,2.926-9.111,2.859-15.362,0-5.786-.266-7.049-1.662-9.576-.865-1.662-2.195-3.059-2.86-3.192-1.2-.266-1.2-.133.133,1.53,2.128,2.66,2.793,5.919,2.527,12.3-.2,4.589-.8,7.249-3.192,14.3-3.192,9.244-4.921,13.1-6.983,15.428l-1.264,1.463-6.052-2.328c-5.919-2.195-7.847-2.594-22.145-4.522-12.369-1.729-28.928-5.586-35.245-8.246a86.577,86.577,0,0,0-8.312-2.527c-9.244-2.328-13.433-3.857-19.95-7.116-6.916-3.392-9.842-4.389-19.95-6.783-6.916-1.6-9.51-2.328-12.635-3.658a104.007,104.007,0,0,0-26.268-7.98c-3.458-.665-6.916-1.4-7.648-1.662l-1.33-.466Z" transform="translate(-101.267 -173.389)" fill="#fff"/>
    <path id="Path_104" data-name="Path 104" d="M1018.72-912.355a29.061,29.061,0,0,0-3.192,4.323c-2.594,3.99-3.059,7.049-1.2,7.648.665.2.8,0,.466-.865-.266-.8.466-2.727,2.328-5.719C1019.651-911.158,1020.316-913.552,1018.72-912.355Z" transform="translate(-72.692 -173.904)" fill="#fff"/>
    <path id="Path_105" data-name="Path 105" d="M1031.848-909.094c3.658,3.259,5.32,4.456,7.98,5.786,1.463.8,2.66,1.862,2.793,2.66.665,4.855,2.394,10.973,3.059,10.773.8-.266.6-4.456-.333-6.983a11.341,11.341,0,0,1-.6-3.392c0-1.862-2.128-4.722-3.525-4.722-.465,0-2.859-1.4-5.386-2.993C1030.717-911.288,1028.722-911.887,1031.848-909.094Z" transform="translate(-78.439 -174.505)" fill="#fff"/>
    <path id="Path_106" data-name="Path 106" d="M1088-910.479c0,.4,2.793,1.263,6.185,2.062,8.778,2.062,11.106,2.394,11.106,1.6,0-.333-2.793-1.264-6.251-2.062C1090.461-910.878,1088-911.211,1088-910.479Z" transform="translate(-97.75 -174.516)" fill="#fff"/>
    <path id="Path_107" data-name="Path 107" d="M1073.443-904.4c1.995,1.929,13.167,7.648,16.359,8.379,2.793.665,3.658-.4,1.131-1.4-1-.4-5.453-2.461-9.842-4.655-4.456-2.128-8.313-3.924-8.645-3.924S1072.579-905.268,1073.443-904.4Z" transform="translate(-92.503 -176.136)" fill="#fff"/>
    <path id="Path_108" data-name="Path 108" d="M1018.076-900.107c-4.19,7.515-5.586,10.64-5.919,13.433-.4,3.791.665,3.657,1.862-.266a59.862,59.862,0,0,1,3.857-8.978C1021.334-902.833,1021.534-906.225,1018.076-900.107Z" transform="translate(-72.314 -177.042)" fill="#fff"/>
    <path id="Path_109" data-name="Path 109" d="M1056.707-902.114a7.545,7.545,0,0,1,1.4,8.712c-1.33,2.594-.8,3.525.931,1.662,2.793-2.793,1.729-9.975-1.663-11.5C1054.845-904.375,1054.712-904.176,1056.707-902.114Z" transform="translate(-86.805 -176.83)" fill="#fff"/>
    <path id="Path_110" data-name="Path 110" d="M1112.352-892.4c.731,1.2,10.175,5.387,14.364,6.318,5.387,1.264,8.845,1.4,8.512.2-.2-.4-2.727-1.33-5.719-1.929a64.483,64.483,0,0,1-10.175-3.126C1114.547-892.932,1111.687-893.6,1112.352-892.4Z" transform="translate(-105.876 -180.492)" fill="#fff"/>
    <path id="Path_111" data-name="Path 111" d="M1154.474-879.519c-.8.8-.465,1.529.466,1.13,1-.4,2.793.133,26.667,7.98,13.234,4.323,21.613,6.517,27.93,7.382,3.857.532,12.968,2.061,16.16,2.726a4.2,4.2,0,0,1,2.594,1.33c.532,1.4,2.195,1.13,2.195-.333,0-1.729-3.857-2.926-14.63-4.722-13.034-2.128-20.216-3.924-30.258-7.382-5.12-1.729-12.3-3.99-15.96-4.921s-7.781-2.128-9.177-2.66C1157.8-880.051,1155.205-880.251,1154.474-879.519Z" transform="translate(-119.867 -184.861)" fill="#fff"/>
    <path id="Path_112" data-name="Path 112" d="M1050.38-877.15c-.133,1.53-7.913,12.1-10.241,13.965a11.1,11.1,0,0,0-2.328,2.128,12.449,12.449,0,0,1-3.525,1.263c-3.658.931-4.323,1.929-1.264,1.929,2.727,0,5.852-1.463,8.446-3.857,3.325-3.126,9.643-13.3,9.31-14.963C1050.646-877.482,1050.447-877.682,1050.38-877.15Z" transform="translate(-78.684 -185.701)" fill="#fff"/>
    <path id="Path_113" data-name="Path 113" d="M1019.7-870.675a20.662,20.662,0,0,1,2.727,5.719,24.9,24.9,0,0,1-.8,9.909c-.4,1.2-.333,1.2.532.333,1.463-1.463,2.66-6.451,2.195-8.845-1-4.921-4.123-10.441-5.985-10.441C1017.774-874,1018.239-872.87,1019.7-870.675Z" transform="translate(-74.34 -186.856)" fill="#fff"/>
    <path id="Path_114" data-name="Path 114" d="M992.476-870.24a16.4,16.4,0,0,1-3.658,2.328c-5.52,2.793-8.047,4.788-17.556,14.1-5.719,5.586-8.978,9.177-8.579,9.576.731.732,3.259-1.33,12.7-10.773a99.085,99.085,0,0,1,11.837-10.108c4.854-3.192,6.717-4.855,6.052-5.52C993.074-870.839,992.742-870.639,992.476-870.24Z" transform="translate(-55.759 -187.955)" fill="#fff"/>
    <path id="Path_115" data-name="Path 115" d="M1064.2-867.222c-2.527,1.4-.665,9.909,2.128,9.909,2.993,0,4.456-7.781,1.862-9.576C1066.461-868.086,1065.8-868.153,1064.2-867.222Zm2.992,1.729c.732.865.931,1.8.6,3.458-.665,2.993-1.8,3.325-2.727.665C1063.535-865.825,1064.731-868.153,1067.192-865.493Z" transform="translate(-89.377 -188.912)" fill="#fff"/>
    <path id="Path_116" data-name="Path 116" d="M901.873-866.651c-.2,2.261.2,16.492.532,18.953,1.2,9.111,3.658,16.958,6.85,21.945,2.527,3.99,3.658,4.921,5.054,4.389,1-.4.931-.665-.532-2.261-5.387-5.852-8.778-17.024-9.975-33.051-.4-5.121-1-9.576-1.263-9.975C902.139-867.05,901.94-867.05,901.873-866.651Z" transform="translate(-35.381 -189.217)" fill="#fff"/>
    <path id="Path_117" data-name="Path 117" d="M1007.7-865.537c-3.192,4.522-6.451,7.116-10.042,7.914-2.328.532-3.658,1.131-3.658,1.729s.466.8,1.2.6c.6-.133,2.394-.466,3.924-.731,2.328-.333,3.458-1.131,6.384-4.323,3.392-3.591,5.054-6.65,3.791-6.65C1008.963-867,1008.231-866.335,1007.7-865.537Z" transform="translate(-66.26 -189.201)" fill="#fff"/>
    <path id="Path_118" data-name="Path 118" d="M1094.789-864.932a23.54,23.54,0,0,1-6.118,2c-2.727,0-4.788,1.13-5.121,2.859-.332,1.8,1.8,10.906,2.926,12.236a1.429,1.429,0,0,1,.266,1.4c-.2.4.732,1.663,2.128,2.926,2.461,2.195,4.123,4.589,4.123,5.852,0,1.729-2.926.266-6.783-3.325-6.451-6.118-6.983-4.788-.731,1.729,3.525,3.658,6.783,4.988,8.512,3.591a3.208,3.208,0,0,0,1-2.128c0-1.463-3.657-6.916-5.054-7.448-1.663-.665-3.059-3.658-3.924-8.845-1.064-5.919-.665-6.85,2.793-6.85a13.665,13.665,0,0,0,4.921-1.33,37.449,37.449,0,0,1,4.323-1.995c1.662-.665,1.662-.665,1.53,2.793a39.681,39.681,0,0,1-1.064,6.85c-1,3.99-1.2,12.569-.2,11.97.4-.2.665-1.4.665-2.527a62.47,62.47,0,0,1,1.33-8.379c1.463-6.983,1.663-10.175.665-12.1C1100.109-867.259,1100.242-867.259,1094.789-864.932Z" transform="translate(-95.428 -189.274)" fill="#fff"/>
    <path id="Path_119" data-name="Path 119" d="M1450.1-857.123c0,.865,1.33,2.727,7.648,10.441a11.8,11.8,0,0,1,2.062,4.788c.2,1.53.665,2.527,1,2.261.931-.532.266-5.919-.865-7.049-.532-.532-1.995-2.261-3.259-3.857C1452.561-855.726,1450.1-858.187,1450.1-857.123Z" transform="translate(-219.05 -192.428)" fill="#fff"/>
    <path id="Path_120" data-name="Path 120" d="M1398.167-850.847a25.909,25.909,0,0,0-2.727,3.657c-2.46,3.791-4.389,5.852-5.586,5.852-.665,0-1.729-1.33-2.66-3.391-.865-1.862-2.128-3.658-2.859-3.99-1.6-.865-3.924.6-5.985,3.724-2.461,3.857-5.187,2.66-8.579-3.591-1-1.8-1.463-2.062-2.66-1.663-2.527.732-3.192,1.663-3.192,4.19,0,2.394-.931,7.249-1.529,7.781-.865.931-2.594-1-4.123-4.655-2.195-5.121-4.256-6.65-7.781-5.719a9.43,9.43,0,0,0-3.525,1.995c-1.53,1.663-1.264,1.663,2.594,0,2.328-1.064,3.325-1.2,4.389-.665,1.33.731,4.655,6.517,4.655,8.18,0,1.064,1.862,2.859,3.325,3.192.532.133,2.66,2.062,4.788,4.256l3.724,3.99-4.057.133c-2.261.066-5.653.133-7.581.266a13.652,13.652,0,0,1-7.315-1.8,26.512,26.512,0,0,1-4.256-2.461c-.266-.333-2.859-.731-5.852-.931l-5.453-.4-4.722,3.259c-5.187,3.591-9.31,8.246-10.507,11.97a22.518,22.518,0,0,0-.532,7.581c.333,5.786,1.995,9.31,5.187,10.973,2.328,1.2,11.239,1.463,13.234.333a7.58,7.58,0,0,1,3.525-.532c2.261.333,2.793-.2,1.662-1.729-.732-1-1.13-1-4.655-.067-7.515,1.928-12.968,1-15.362-2.594-1.264-2-2.062-8.579-1.463-11.9.6-3.259,4.256-7.714,9.51-11.7l4.522-3.392,4.323.333a22.627,22.627,0,0,1,8.246,2.394c5.52,2.859,8.911,3.325,14.1,2.062,3.392-.8,4.722-.865,6.783-.266,2.66.8,8.778,5.187,8.778,6.251a21.867,21.867,0,0,0,2.327,4.455,12.9,12.9,0,0,1,2.461,7.847c.066,2.594-.2,4.522-.8,5.187-1.064,1.33-.333,2.195,1.131,1.264,3.059-1.928,2.261-10.241-1.6-16.492-2.128-3.591-5.187-6.717-15.761-16.426l-2.593-2.394.8-2.926a34.973,34.973,0,0,0,.931-5.586c.133-2.394.731-3.591,1.862-3.658.266,0,1.064,1.33,1.862,2.993,1.463,3.059,3.192,4.522,6.185,5.254,1.463.333,1.995.067,3.258-1.729a38.323,38.323,0,0,1,2.993-3.724l1.53-1.6,1.2,1.995c.665,1.13,1.729,2.993,2.327,4.057q2.693,4.788,7.781-1c1.53-1.729,2.726-3.458,2.726-3.924,0-.931,2.793-3.657,3.791-3.657,1.529,0,2.461,2.194,2.394,5.786-.133,4.589,1.2,3.857,1.6-.931.266-2.594.066-3.525-1.131-5.054C1402.224-852.244,1399.83-852.51,1398.167-850.847Z" transform="translate(-175.497 -194.248)" fill="#fff"/>
    <path id="Path_121" data-name="Path 121" d="M1073.412-850.505a2.4,2.4,0,0,0-.466,1.6c0,.8-.333,1.064-1,.865-1.662-.665-1.33,5.387.333,7.049a5.072,5.072,0,0,0,1.862,1.33c1.064,0,2.793-2.394,3.458-4.655.665-2.394-.465-5.52-2.328-6.251C1073.944-851.037,1073.944-851.037,1073.412-850.505Zm2.527,2.992c.466,2.128-.6,5.52-1.729,5.52-1.264,0-1.53-2.594-.465-4.988C1074.742-849.375,1075.474-849.508,1075.939-847.513Z" transform="translate(-92.007 -194.59)" fill="#fff"/>
    <path id="Path_122" data-name="Path 122" d="M1125.486-849.951c-.6,1.663-.465,1.929.6,1,1.33-1.13,1.862,1.4,1.53,7.315-.2,3.924-.532,4.921-1.995,6.384l-1.729,1.729-.665-2.195a16.211,16.211,0,0,1-.2-6.384c.465-3.857,0-6.384-.931-5.387-.8.8-1.13,11.5-.4,13.3,1.4,3.658,5.985,1.463,7.382-3.525a29.054,29.054,0,0,0,.067-11.239C1128.612-850.882,1126.151-851.547,1125.486-849.951Z" transform="translate(-108.901 -194.612)" fill="#fff"/>
    <path id="Path_123" data-name="Path 123" d="M1044.024-843.867c0,.133-.133,1.064-.2,2.195-.133,1.064-.532,4.655-1,7.914a41.614,41.614,0,0,0-.465,8.512c.931,5.852,10.84,20.815,12.968,19.551.6-.4.2-1.264-1.4-3.259a99.643,99.643,0,0,1-8.113-12.236c-1.662-3.325-1.928-7.182-.864-14.5.931-6.584.864-8.313-.266-8.313A1.235,1.235,0,0,0,1044.024-843.867Z" transform="translate(-82.435 -196.905)" fill="#fff"/>
    <path id="Path_124" data-name="Path 124" d="M1012.61-839.537c-.732.865-2.261,2.859-3.392,4.522a52.01,52.01,0,0,1-4.456,5.653c-3.924,4.323-7.847,9.643-7.382,10.108.2.266,1.2-.266,2.128-1.2,2.461-2.261,11.172-13.167,12.5-15.561a41.044,41.044,0,0,1,2.128-3.525c.6-.8.8-1.463.465-1.463A4.8,4.8,0,0,0,1012.61-839.537Z" transform="translate(-67.38 -197.91)" fill="#fff"/>
    <path id="Path_125" data-name="Path 125" d="M1352-840.224c0,1.13,14.364,7.648,15.362,7.049.8-.465-1.8-2.461-3.391-2.66a60.078,60.078,0,0,1-6.451-2.461C1354.461-839.626,1352-840.49,1352-840.224Z" transform="translate(-186.188 -198.154)" fill="#fff"/>
    <path id="Path_126" data-name="Path 126" d="M1473.1-838.6c0,.665,6.85,5.786,11.239,8.379,2.86,1.8,6.318,2.727,12.635,3.525,1.662.2,3.724.466,4.655.665.931.133,3.724.6,6.251,1,5.786.931,8.579,2.062,11.771,4.988a13.52,13.52,0,0,0,3.126,2.328,32.813,32.813,0,0,1,4.456,3.591c4.056,3.724,6.118,4.589,12.635,5.386a54.111,54.111,0,0,1,8.978,2.66c7.448,2.926,10.507,3.724,11.039,2.926.532-.931.8-.731-6.717-3.857a72.029,72.029,0,0,0-13.566-4.057c-5.254-1-7.382-1.729-8.645-2.926-4.189-3.857-6.384-5.719-6.849-5.719a8.892,8.892,0,0,1-2.527-2,22.122,22.122,0,0,0-4.589-3.259c-2.394-1.263-13.234-3.391-22.344-4.456a27.13,27.13,0,0,1-14.564-5.918C1476.689-838.133,1472.965-839.8,1473.1-838.6Z" transform="translate(-226.753 -198.583)" fill="#fff"/>
    <path id="Path_127" data-name="Path 127" d="M1232.063-829.217a3.387,3.387,0,0,0-2.727,2.328c-1.264,2.594-.8,3.325.865,1.263,1.862-2.261,2.793-1.862,2.261.865-.4,2.128-.2,2.594,2.128,4.655,3.525,3.258,5.985,3.791,15.362,3.525,9.177-.2,10.906-.931,9.51-3.924-1.662-3.591-8.047-6.251-16.958-6.916-3.259-.266-6.584-.8-7.315-1.263A5.985,5.985,0,0,0,1232.063-829.217Zm11.039,4.123c5.187.466,7.382,1,10.308,2.461,5.985,3.059,5.121,3.857-4.589,4.057-8.246.2-8.379.133-11.5-1.8-2.66-1.729-3.126-2.328-3.126-4.123,0-1.729.2-1.995,1.131-1.6C1235.987-825.892,1239.511-825.427,1243.1-825.094Z" transform="translate(-144.855 -201.846)" fill="#fff"/>
    <path id="Path_128" data-name="Path 128" d="M921.349-827.758a64.991,64.991,0,0,0-7.382,6.451c-2.926,2.926-7.914,7.648-11.106,10.574s-7.249,6.65-8.911,8.313a74.534,74.534,0,0,1-6.318,5.32,11.708,11.708,0,0,0-3.126,2.726,3.04,3.04,0,0,1-.865,1.4c-2.461,2.46-5.786,10.773-6.783,17.157-1.729,10.906-2.394,12.768-7.515,22.743-2.859,5.586-6.118,11.5-7.182,13.1-6.384,9.576-8.047,13.367-8.379,19.019-.266,4.921,1.2,5.918,1.8,1.2.665-5.187,2.926-10.574,7.049-16.758,2.062-3.125,6.052-10.175,8.911-15.628,4.722-9.31,5.187-10.441,6.65-18.62.931-4.788,2.062-10.241,2.66-12.1,1.264-4.323,5.586-10.973,8.18-12.635,2.394-1.53,17.357-15.428,25.736-24.007a90.066,90.066,0,0,1,8.579-7.781C926.4-829.354,924.607-829.753,921.349-827.758Z" transform="translate(-19.278 -201.909)" fill="#fff"/>
    <path id="Path_129" data-name="Path 129" d="M1443.826-827.2c-1.662,1.33-3.126,5.453-3.591,10.175-.665,6.983,1.2,9.643,6.783,9.643,1.995,0,2.66-.532,4.988-3.392,2.195-2.793,3.458-5.919,2.394-5.919a34.8,34.8,0,0,0-2.993,3.658c-2.328,3.126-3.059,3.658-4.921,3.658a7.374,7.374,0,0,1-2.926-.532c-1.6-1-2.195-4.057-1.6-8.712.6-4.722,1.53-7.182,3.325-8.512.6-.466.731-.865.333-.865A4.945,4.945,0,0,0,1443.826-827.2Z" transform="translate(-215.703 -202.265)" fill="#fff"/>
    <path id="Path_130" data-name="Path 130" d="M1444.582-823.537a3.542,3.542,0,0,0,.931,1.463c2.46,2.793,1.13,8.313-3.591,14.9-1.53,2.128-2.128,3.99-2.727,8.113-.8,6.052-1.8,7.98-6.584,12.635-1.928,1.8-6.849,7.182-10.973,11.97-4.057,4.722-8.845,10.108-10.507,11.97-3.591,3.791-4.19,5.852-1.2,3.724,2.394-1.729,9.244-9.044,14.364-15.428,2.194-2.727,6.251-7.182,9.044-9.909,5.985-5.919,7.249-8.047,7.98-14.1.532-4.323,1-5.52,5.254-12.835,2.461-4.123,2.66-8.579.6-11.239C1445.912-823.87,1444.582-824.535,1444.582-823.537Z" transform="translate(-204.953 -203.603)" fill="#fff"/>
    <path id="Path_131" data-name="Path 131" d="M1420.832-816.538c.066,1.2,1.2,2.128,4.988,4.19,2.195,1.2,4.389,2.461,4.855,2.793,1.662,1.4.266,15.1-2.062,19.485a20.968,20.968,0,0,0-1.2,3.325,166.933,166.933,0,0,1-5.586,15.96c-.465,1.131-1.463,3.325-2.194,4.988-4.389,10.175-8.778,18.221-11.837,21.613-.931,1.064-4.19,4.988-7.115,8.645-2.993,3.657-5.586,6.783-5.786,6.983s-1.264,1.53-2.328,2.993c-2.128,2.859-11.106,13.167-14.9,16.958-1.2,1.263-4.057,4.589-6.185,7.315-2.194,2.726-4.323,5.52-4.854,6.118-.466.6-2.527,3.458-4.522,6.318a79.727,79.727,0,0,1-5.653,7.116l-1.995,1.862L1354-684.4c-1-9.111,1.131-32.519,2.926-32.519.532,0,1.2-.732,1.463-1.663.532-1.662,2.328-15.894,4.323-34.248a93.674,93.674,0,0,1,1.862-11.97c1.2-3.525,5.054-9.576,9.044-13.965a41.335,41.335,0,0,0,3.924-4.921c1.064-1.862-.266-2.394-1.463-.532-.6.8-2.727,3.259-4.788,5.453-7.581,8.047-10.707,16.027-10.973,28.6l-.067,3.99-1.33-2.926-1.264-2.926-4.522.6a113.716,113.716,0,0,1-11.438.4c-7.581-.2-11.106-1.33-12.3-3.99-.8-1.729-1.662-1.929-1.662-.333.066,1.463,1.2,2.993,3.325,4.389,2.527,1.663,14.3,2.66,20.083,1.663,3.857-.6,4.721-.6,5.253.2.8,1.13.333,9.909-.6,11.638-.6,1.064-4.722,10.308-6.85,15.229-.333.731-1.2,3.325-1.929,5.786-1.2,3.857-1.6,4.522-2.926,4.522a5.742,5.742,0,0,1-3.259-1.862c-1.862-1.995-4.389-7.049-4.456-8.978,0-2.527-4.854-12.768-7.315-15.561a15.02,15.02,0,0,1-2.993-5.054c-.731-3.791-2.394-8.446-2.993-8.446-.731,0-1.6,1.33-1.8,2.926-.133.8.066,1.064.731.865.731-.266,1.064.333,1.4,2.394.665,3.99,2.527,7.847,4.921,10.042a7.9,7.9,0,0,1,2.061,2.727,21.6,21.6,0,0,0,1.6,4.123,25.678,25.678,0,0,1,2.128,5.919,19.488,19.488,0,0,0,5.121,10.241c4.123,4.123,7.648,3.791,9.244-.931.532-1.463,1.463-4.256,2.128-6.052,1.729-5.121,7.315-17.556,7.914-17.623.333,0,.4.266.2.532a36.133,36.133,0,0,0-.731,4.456,77.29,77.29,0,0,1-1.995,9.975,86.809,86.809,0,0,0-2,8.645c-.266,1.463-.731,4.589-1.13,6.983-.466,2.394-.8,9.909-.8,16.758-.067,8.978-.333,12.7-.931,13.3-.865.865-1.064,2.527-.266,2.527a2.434,2.434,0,0,0,1.2-.665c.665-.665,1.2,4.456,1.928,19.95.466,10.84-1.263,15.561-12.037,32.12-2.328,3.525-4.256,6.65-4.256,6.85a18.264,18.264,0,0,1-2.993,3.658c-3.125,3.325-3.525,4.19-2.194,4.988.465.266,1.2-.133,1.8-1.131a25.5,25.5,0,0,1,2.394-2.926,59.665,59.665,0,0,0,5.121-6.983c13.167-20.15,15.162-25.47,14.231-38.7-.2-3.392-.6-9.377-.8-13.3l-.465-7.049,2.66-2.594a158.865,158.865,0,0,0,10.308-12.835c4.256-5.653,9.244-11.97,11.172-13.965,6.916-7.315,13.1-14.431,16.625-18.953,1.995-2.527,4.256-5.387,5.054-6.318s2.793-3.325,4.389-5.387c1.529-2.062,4.189-5.387,5.786-7.315,3.059-3.724,9.776-17.091,13.433-26.667,1.131-3.059,2.328-6.118,2.594-6.85,3.059-7.382,6.052-19.019,6.451-24.605l.4-6.185-2.195-2.062a20.362,20.362,0,0,0-5.52-3.192c-1.8-.665-3.458-1.6-3.591-1.995C1421.963-817.07,1420.832-817.336,1420.832-816.538Zm-61.38,73.483c-.2.466-.333.133-.333-.8s.133-1.264.333-.865A3.509,3.509,0,0,1,1359.452-743.055Z" transform="translate(-175.884 -205.947)" fill="#fff"/>
    <path id="Path_132" data-name="Path 132" d="M1006.693-810.093a10.023,10.023,0,0,0-4.256,2.261c-1.33,1.4-1.4,1.8-.6,2.726,1.13,1.33,6.85,1,10.773-.665,3.458-1.4,2.594-2.527-1.064-1.4-3.924,1.2-7.382,1.463-7.714.665-.466-1.13,2.793-2.328,6.45-2.328,1.862,0,3.458-.333,3.458-.665,0-.4-.6-.665-1.264-.665a10.426,10.426,0,0,1-2.195-.266A11.318,11.318,0,0,0,1006.693-810.093Z" transform="translate(-68.713 -208.135)" fill="#fff"/>
    <path id="Path_133" data-name="Path 133" d="M1248.425-808.136c-.2.333.333.865,1.2,1.2,1.53.6,7.182,5.919,7.182,6.783,0,1-6.916,3.325-10.042,3.392-3.525,0-6.584-1.463-6.584-3.192a14.114,14.114,0,0,1,1-3.392c.532-1.33.865-2.527.665-2.727-.665-.665-2.128,1.263-2.926,3.924-1.529,4.988,1.8,7.648,8.911,7.049,5.054-.4,10.175-2.727,10.707-4.855.332-1.263-.133-2.128-2.062-3.99C1252.216-807.937,1249.29-809.466,1248.425-808.136Z" transform="translate(-148.183 -208.762)" fill="#fff"/>
    <path id="Path_134" data-name="Path 134" d="M970.677-799.614c-3.657,3.525-6.85,7.049-7.116,7.781a17.318,17.318,0,0,1-2.992,4.123c-6.85,7.182-12.569,14.5-12.569,16.027,0,.865.333,1.6.665,1.6a.628.628,0,0,0,.665-.665,17.906,17.906,0,0,1,3.192-4.19c5.254-5.985,11.039-13.1,12.569-15.628a69.356,69.356,0,0,1,7.448-8.446,68.5,68.5,0,0,0,6.052-6.584C978.59-806.8,976.795-805.4,970.677-799.614Z" transform="translate(-50.851 -209.637)" fill="#fff"/>
    <path id="Path_135" data-name="Path 135" d="M1372-804.395c0,.333.6.865,1.33,1.064s1.33.665,1.33.931c0,1.6,8.911,4.456,11.837,3.724,2.46-.6,1.13-1.463-2.993-1.929a14.558,14.558,0,0,1-6.85-2.394C1373.6-804.993,1372-805.525,1372-804.395Z" transform="translate(-192.887 -209.977)" fill="#fff"/>
    <path id="Path_136" data-name="Path 136" d="M1530-802.936a13.354,13.354,0,0,0,2,4.057,17.665,17.665,0,0,1,1.995,3.325,14.3,14.3,0,0,0,2.793,2.992c2.594,2.328,5.919,3.857,8.512,3.857a33.815,33.815,0,0,1,5.187,1.33,113.917,113.917,0,0,0,14.032,2.594c5.719.732,10.84,1.729,12.1,2.461a38.6,38.6,0,0,1,6.517,4.987,31.16,31.16,0,0,0,9.975,6.185c3.125,1.264,7.515,3.059,9.776,3.99a31.24,31.24,0,0,0,9.842,2.128c3.125.266,5.719.732,5.719,1,0,.333.466.6,1,.6,1.33,0,1.264-1.064-.266-2.594-.865-.865-2.261-1.263-5.121-1.33-4.855-.133-8.911-1.2-16.093-4.389-3.059-1.33-5.919-2.527-6.384-2.594-1.263-.2-3.658-1.928-7.382-5.387-4.522-4.19-8.712-5.985-16.293-6.916-8.246-1.064-13.566-2-17.29-3.059a47.432,47.432,0,0,0-6.251-1.4c-3.857-.532-6.517-2.66-10.839-8.712a34.559,34.559,0,0,0-3.259-4.19C1530.133-804,1530-803.534,1530-802.936Z" transform="translate(-245.816 -210.305)" fill="#fff"/>
    <path id="Path_137" data-name="Path 137" d="M1360.9-802.535c1.995,3.924,2.593,5.985,2.194,7.98-.332,1.862-.6,2.128-1.33,1.53a7.545,7.545,0,0,1-1.33-3.392c-.6-3.391-1.663-3.391-1.33.067a10.109,10.109,0,0,0,5.586,7.98,9.451,9.451,0,0,1,5.12,6.251c.332,1.33.133,1.729-.665,1.729-.6,0-1.064.266-1.064.532,0,.732-6.584,2.394-8.978,2.261-1.4-.133-2.66-.931-4.123-2.66-2.527-2.993-3.591-2.461-1.53.931,2.594,4.123,6.717,4.921,13.1,2.527a8.106,8.106,0,0,0,3.458-2.128c.465-.865.731-.6,1.064,1.4.532,2.793,1.463,3.724,2.062,2.128.532-1.4-1.6-8.778-3.259-11.172a11.718,11.718,0,0,0-3.99-3.192c-3.591-1.8-3.458-1.6-2.195-3.392a6.872,6.872,0,0,0,1.064-3.525c0-2.194-2.194-6.318-3.392-6.318C1360.966-803,1360.767-802.8,1360.9-802.535Z" transform="translate(-186.309 -210.64)" fill="#fff"/>
    <path id="Path_138" data-name="Path 138" d="M1506-802.366c0,1.13,5.586,5.586,9.044,7.182,3.059,1.4,3.857,1.529,6.185.865,2.594-.665,3.924-1.729,3.192-2.461a5.241,5.241,0,0,0-2.594.465c-1.862.665-2.66.6-5.453-.6a41.862,41.862,0,0,1-6.384-3.724C1506.665-803.031,1506-803.363,1506-802.366Z" transform="translate(-237.776 -210.676)" fill="#fff"/>
    <path id="Path_139" data-name="Path 139" d="M1437.12-794c.2.466-.665,2-1.929,3.392a11.2,11.2,0,0,0-2.261,3.192,33.787,33.787,0,0,1-2.261,5.187c-2.128,4.123-2.328,5.32-1.064,5.32.266,0,1.729-2.66,3.259-5.919a44.2,44.2,0,0,1,4.389-7.914c1.929-2.328,2.062-3.192.6-3.724C1437.12-794.732,1436.854-794.6,1437.12-794Z" transform="translate(-211.922 -213.455)" fill="#fff"/>
    <path id="Path_140" data-name="Path 140" d="M1004.752-786.146c-2.594,9.31-2.527,13.234.332,14.763,2.062,1.131,4.855-.4,6.118-3.258a40.092,40.092,0,0,0,2.394-10.973c0-2.527-1.263-.2-2,3.525-.865,4.854-2.527,8.512-4.057,8.978-3.325,1.064-3.791-2.394-1.53-11.305C1008.277-793.661,1007.213-795.191,1004.752-786.146Z" transform="translate(-69.232 -214.26)" fill="#fff"/>
    <path id="Path_141" data-name="Path 141" d="M1393.927-788.523c-2.195,2.328-3.126,5.121-2.128,6.318,1.131,1.4,2.926,1.263,4.323-.333,1.6-1.8.865-2.394-1.2-1-2.993,1.928-2.926-1.064.067-4.522C1396.454-789.72,1395.456-790.186,1393.927-788.523Z" transform="translate(-199.386 -215.142)" fill="#fff"/>
    <path id="Path_142" data-name="Path 142" d="M1052.355-782.4c-7.315,1.33-15.029,3.059-15.628,3.458a11.237,11.237,0,0,1-3.125,1.33c-7.515,2.461-16.093,18.288-21.613,39.967-1.264,4.921-2.66,10.175-3.126,11.638-1.729,5.187-1.862,6.318-.731,6.318,1.4,0,2.594-2.992,5.387-13.832,3.258-12.7,4.256-16.027,5.652-19.086.665-1.463,2.195-5.187,3.458-8.246,2.726-6.65,7.581-12.7,11.438-14.364,1.463-.665,3.591-1.6,4.722-2.062,2.461-1.064,13.433-2.926,17.29-2.926a19.561,19.561,0,0,1,7.315,2.128,47.491,47.491,0,0,0,8.845,2.926c9.111,1.662,13.9,2.926,17.091,4.522a46.128,46.128,0,0,0,9.443,2.66c6.184,1.064,10.108,2.527,10.108,3.724a10.942,10.942,0,0,1-1.662,3.059c-3.192,4.722-2.993,9.443.466,11.172,2.793,1.4,2.992,1,.532-1.13-2.859-2.594-2.726-3.591,1.463-10.973a4.824,4.824,0,0,0,.8-3.059c-.6-1.6-5.453-3.591-11.9-4.788a36.59,36.59,0,0,1-8.845-2.793c-2.527-1.4-11.372-3.791-19.418-5.254a26.947,26.947,0,0,1-6.118-2.328A20.821,20.821,0,0,0,1052.355-782.4Z" transform="translate(-70.749 -217.476)" fill="#fff"/>
    <path id="Path_143" data-name="Path 143" d="M1404.7-782.069c0,1.862-2.527,3.99-6.384,5.32-2.461.865-3.99,1.8-4.123,2.527-.4,2.062,8.512-2.062,10.374-4.788,1.53-2.328,1.929-3.99.8-3.99C1405.033-783,1404.7-782.6,1404.7-782.069Z" transform="translate(-200.318 -217.34)" fill="#fff"/>
    <path id="Path_144" data-name="Path 144" d="M1364.19-778.429c-2.261.6-1.2,1.4,1.862,1.4,1.995,0,2.926-.266,2.727-.731C1368.512-778.629,1366.052-778.961,1364.19-778.429Z" transform="translate(-189.865 -218.785)" fill="#fff"/>
    <path id="Path_145" data-name="Path 145" d="M982.032-770.8c0,.067-.731,3.126-1.662,6.783-2.195,8.645-4.921,21.945-7.781,38.371-.8,4.123-.465,5.852,1.064,5.852.8,0,.931-.465.665-1.862a19.364,19.364,0,0,1,.665-6.185c.532-2.328,1.6-7.714,2.394-11.9.732-4.19,2.261-11.97,3.392-17.29,2.793-13.433,2.859-13.965,1.995-13.965C982.364-771,982.032-770.934,982.032-770.8Z" transform="translate(-58.947 -221.36)" fill="#fff"/>
    <path id="Path_146" data-name="Path 146" d="M1429.2-764.889a10.532,10.532,0,0,1-1.729,3.724c-.732.931-1.064,1.663-.732,1.663,1.6,0,4.589-5.786,3.525-6.85C1429.927-766.685,1429.528-766.219,1429.2-764.889Z" transform="translate(-211.18 -222.882)" fill="#fff"/>
    <path id="Path_147" data-name="Path 147" d="M1184.276-757.347a97.373,97.373,0,0,0-19.95,5.786c-2.527,1.2-7.448,3.857-10.906,5.985-3.391,2.062-6.318,3.724-6.45,3.724-.4,0-8.978,5.985-11.239,7.847a80,80,0,0,0-14.431,14.564c-2.261,3.059-4.323,5.52-4.589,5.52s-2.594,2.46-5.12,5.453c-4.256,5.121-6.118,8.512-4.722,8.512.333,0,.6-.4.6-.865s2.993-3.924,6.717-7.781c3.724-3.791,7.847-8.446,9.244-10.241a90.116,90.116,0,0,1,12.635-12.835,152.7,152.7,0,0,1,18.953-12.5,53.575,53.575,0,0,0,5.32-2.993,35.166,35.166,0,0,1,8.712-4.256,128.816,128.816,0,0,1,17.224-4.057c3.259-.4,4.123-.732,3.591-1.263S1186.271-757.613,1184.276-757.347Z" transform="translate(-103.917 -225.902)" fill="#fff"/>
    <path id="Path_148" data-name="Path 148" d="M1257.283-756.9a75.943,75.943,0,0,1-13.1.466c-4.854-.266-7.182-.2-7.182.333,0,.665,6.052,1.463,13.3,1.663a77.829,77.829,0,0,0,9.975-.732l6.318-.931,4.988,1.995c10.441,4.19,13.034,5.453,15.3,7.249,1.264,1.064,3.391,2.66,4.655,3.525a13.14,13.14,0,0,1,2.859,2.461c.8,1.263,1.8,1.064,1.8-.333s-8.446-8.379-11.97-9.909c-1.263-.6-3.524-1.6-4.988-2.261-5.919-2.66-11.771-4.589-13.832-4.522C1264.265-757.834,1260.608-757.369,1257.283-756.9Z" transform="translate(-147.663 -225.747)" fill="#fff"/>
    <path id="Path_149" data-name="Path 149" d="M1408.07-754.468a18.745,18.745,0,0,1-2.992,3.857c-1.6,1.862-3.924,4.788-5.121,6.451-1.2,1.729-3.059,4.323-4.123,5.786s-1.729,2.86-1.463,3.126c.665.665,3.591-2.394,6.783-7.116,1.6-2.394,4.057-5.852,5.586-7.648,2.594-3.259,3.325-4.988,1.995-4.988A.657.657,0,0,0,1408.07-754.468Z" transform="translate(-200.362 -226.72)" fill="#fff"/>
    <path id="Path_150" data-name="Path 150" d="M932.687-750.872c.266,2.328-1.463,8.246-5.453,18.487-1.862,4.788-3.192,7.116-5.586,9.643-5.121,5.387-6.85,8.512-6.85,12.1-.066,4.456,1,6.85,3.059,6.85,1.663,0,4.389-2.727,4.389-4.389,0-1.4-1.2-1.13-1.663.332-.865,2.86-3.525,2.195-3.724-.931-.266-4.589,1-7.116,6.451-12.635,2.993-2.993,3.857-4.855,7.581-15.495,3.392-9.776,4.389-16.093,2.461-16.093C932.754-753,932.554-752.269,932.687-750.872Z" transform="translate(-39.728 -227.39)" fill="#fff"/>
    <path id="Path_151" data-name="Path 151" d="M1133.806-743.857a22.849,22.849,0,0,0-6.451,1.929,6.527,6.527,0,0,1-2.394,1,24.8,24.8,0,0,0-4.323,1.862c-2.926,1.53-7.515,5.387-17.224,14.431-1.2,1.064-2.926,2.594-3.924,3.325s-3.192,2.527-4.854,3.99c-1.729,1.53-4.19,3.458-5.453,4.456-5.985,4.389-11.571,10.241-13.1,13.766-1.729,3.791-1.6,4.788.266,3.325,1.13-.865,1.13-.865.266.4a47.421,47.421,0,0,1-3.125,3.658,28.207,28.207,0,0,0-3.591,4.921c-3.524,6.384-9.31,18.288-10.175,21.014-2.394,7.249-3.325,24.472-1.862,33.915.6,4.19,1.13,9.51,1.663,18.953l.333,4.655-1.064-2.328a19.523,19.523,0,0,1-1-2.66,3.337,3.337,0,0,0-.8-1.33c-1.2-1.4-5.985-18.82-7.714-28a71.481,71.481,0,0,1-1.264-14.763c.133-6.384-.133-8.579-1-7.714a46.893,46.893,0,0,0-.665,7.315,70.716,70.716,0,0,0,1.264,16.293c1.33,8.047,4.19,20.482,5.453,23.541a10.771,10.771,0,0,1,.532,1.8c.133.4,1.8,3.99,3.791,7.98l3.591,7.182-7.049-.067c-7.249-.133-13.234-1.264-18.554-3.724a29.537,29.537,0,0,0-5.985-1.862c-2.66-.466-2.793-.532-.865-.6,5.719-.2,8.313-3.857,9.51-13.367.466-4.057.4-5.786-.266-7.781-.532-1.4-1.729-4.655-2.66-7.182a39.481,39.481,0,0,1-2.062-11.305c-.465-8.113-2.926-18.62-5.52-23.674-1.13-2.061-2.793-5.786-3.791-8.246-3.458-8.645-10.84-15.162-25.137-22.145a22.857,22.857,0,0,1-5.653-3.658,9.885,9.885,0,0,0-2.062-2.062c-.731-.466-.8-.266-.2.8,1.264,2.328,4.19,4.788,8.379,7.116,12.9,6.983,19.817,12.968,22.012,18.953.6,1.662,2.394,5.786,3.99,9.177,3.392,7.182,6.118,19.152,6.118,26.467-.067,3.857.4,5.719,2.46,10.973,2.727,6.85,2.993,9.909,1.663,16.093-1.13,5.054-3.458,7.781-7.116,8.246-2.594.332-2.793.266-3.259-1.463-.731-3.059.133-9.111,2.394-15.561,1.13-3.325,1.928-6.65,1.8-7.249-.266-.865-.333-.8-.4.266a19.594,19.594,0,0,1-1.729,5.121c-2.461,5.653-3.791,11.638-3.525,15.628l.333,3.458-2.261-.4c-2.394-.465-5.52,1.064-5.52,2.66,0,1.263,3.259,4.456,5.719,5.719,1.064.532,2.993,1.6,4.256,2.394a29.822,29.822,0,0,0,8.712,3.259c.865.2,3.259.665,5.254,1.064,3.99.8,13.633.4,19.352-.8,3.259-.731,3.525-.665,4.655.8,1.6,2.128,1.929,1.529,1.2-2.062-1.662-8.313-2.394-11.97-2.261-11.97.067,0,1.2,1.6,2.527,3.591a38.556,38.556,0,0,0,6.916,7.182c5.586,4.389,7.049,5.32,10.906,6.717a20.7,20.7,0,0,1,4.323,2.328,26.647,26.647,0,0,0,3.192,2.461,15.277,15.277,0,0,1,3.657,4.854c1.663,3.458,2.062,3.791,7.98,6.85a47.078,47.078,0,0,0,7.116,3.259c.466,0,2.328,1.2,4.19,2.66,3.657,2.926,4.057,3.059,4.057,1.8,0-1.33-3.259-4.123-6.65-5.786-1.663-.8-3.724-1.8-4.655-2.328-.931-.466-3.192-1.663-5.054-2.527-2.926-1.4-3.791-2.261-5.586-5.719-1.2-2.261-2.394-4.057-2.66-4.057a18.6,18.6,0,0,1-3.724-2.594,24.571,24.571,0,0,0-5.919-3.458c-2.727-.931-8.712-4.788-12.635-8.047a40.507,40.507,0,0,1-5.586-6.983l-3.525-5.121-1-10.707c-1.862-18.886-1.729-31.255.532-40.233,1.2-4.655,10.773-23.874,13.9-27.731,2-2.594,2.66-3.857,2.328-4.855-.731-2.261,3.325-6.983,11.239-13.234,2.128-1.662,5.453-4.389,7.315-6.052s4.455-3.724,5.719-4.655a38.06,38.06,0,0,0,4.323-3.658c5.653-5.586,13.367-12.1,15.495-13.1,7.714-3.591,10.374-4.522,13.167-4.522a11.931,11.931,0,0,0,4.389-.732c1-.532,3.125-.532,7.781,0,3.525.4,8.18.865,10.374,1.064,7.648.6,10.64,1.2,15.3,2.727a24.055,24.055,0,0,0,9.31,1.4c8.446-.2,17.756,1.4,18.886,3.392.6,1,.665.931.732-.333a3.349,3.349,0,0,0-1.463-2.461c-2.128-1.4-15.362-3.258-19.152-2.726a10.631,10.631,0,0,1-5.52-.532c-3.99-1.729-11.7-3.126-22.677-4.123C1140.656-745.054,1140.456-745.054,1133.806-743.857Zm-110.99,137.524a15.122,15.122,0,0,0,3.658,1.33c1,.266,2.46.532,3.192.732a44.283,44.283,0,0,1,7.781,2.594c4.323,1.862,8.712,2.527,16.625,2.461,5.852,0,7.781.2,8.047.865s-.466,1-2.394,1.263c-1.53.2-3.657.6-4.788.8-3.325.8-13.1.665-16.958-.266-6.318-1.4-8.911-2.328-11.9-4.19a16.314,16.314,0,0,0-3.724-1.862c-1.13,0-3.658-2.594-3.658-3.657C1018.693-607.53,1020.489-607.53,1022.816-606.333Z" transform="translate(-65.018 -230.149)" fill="#fff"/>
    <path id="Path_152" data-name="Path 152" d="M927.551-697.35c-.6.931,1.662,4.589,3.325,5.387,2.328,1.064,11.239.931,15.561-.266,4.522-1.2,7.714-1.2,13.167-.067,4.722,1,6.185.266,2.461-1.33-3.857-1.6-12.037-1.928-16.226-.665-5.187,1.53-14.165,1.463-15.561-.133a3.876,3.876,0,0,1-1.13-1.995C929.146-697.35,928.016-698.082,927.551-697.35Z" transform="translate(-43.967 -245.932)" fill="#fff"/>
    <path id="Path_153" data-name="Path 153" d="M1236.629-665.589c-6.717,1.33-20.017,6.185-23.541,8.512-2.594,1.729-16.958,15.894-16.958,16.758,0,.067-2,2.195-4.389,4.655-9.177,9.377-9.909,10.507-16.093,23.475-5.586,11.837-7.116,19.285-7.049,35.578,0,7.581.266,11.771.865,12.768,1.064,2.061,2.328,1.995,1.8-.133-.466-1.729-.466-20.682-.067-23.94a120.511,120.511,0,0,1,2.328-12.968c1.2-4.655,9.51-21.214,12.436-24.938,3.791-4.722,10.175-11.438,10.175-10.64,0,.4.266.333.532-.133q.5-.7,6.783,3.99a98.4,98.4,0,0,0,10.241,6.783,17.337,17.337,0,0,1,4.655,3.125c.931,1.53,1.729,1.53,1.729,0,0-1.463-1.463-2.859-4.455-4.389-2.128-1.064-2.195-1.263-2.195-5.254,0-4.256-1.13-7.049-2.527-6.185-.466.266-.4,1,.266,2.261.865,1.663,1.33,6.783.6,6.783-.665,0-3.325-1.729-7.847-5.187a34.479,34.479,0,0,0-5.187-3.458c-1,0-.665-1.463.6-2.594.665-.6,3.259-3.325,5.786-6.052,7.049-7.648,10.175-9.776,17.49-12.369,3.525-1.263,7.049-2.594,7.781-2.926a39.563,39.563,0,0,1,11.837-2.66c1.663,0,3.192-.266,3.392-.6C1246.272-666.32,1240.885-666.453,1236.629-665.589Z" transform="translate(-124.749 -256.48)" fill="#fff"/>
    <path id="Path_154" data-name="Path 154" d="M946.241-632.037c-8.512,1-21.48,4.921-21.48,6.584a10.315,10.315,0,0,1-2.793,2.394c-7.648,5.121-9.709,5.387-13.832,1.929a12.709,12.709,0,0,0-3.525-2.328c-1.33.067,5.254,5.919,7.116,6.384,2.461.6,6.916-1.2,11.571-4.721a54.249,54.249,0,0,1,5.786-3.791c3.658-1.862,13.234-3.99,19.285-4.323,6.65-.333,8.18-.665,7.249-1.463C954.553-632.3,951.228-632.569,946.241-632.037Z" transform="translate(-36.257 -267.821)" fill="#fff"/>
    <path id="Path_155" data-name="Path 155" d="M961.077-619.525c-.731.133-2.993.6-4.988,1a29.309,29.309,0,0,0-7.249,2.727c-3.059,1.729-4.589,2.062-11.305,2.594-4.256.266-8.579.6-9.576.6-2.195,0-1.862,1.064.532,1.463a67.035,67.035,0,0,0,9.51-.133c6.85-.466,8.246-.732,11.438-2.461A23.831,23.831,0,0,1,959.414-617a29.9,29.9,0,0,0,3.658-.6c2.992-.665,11.106,6.384,14.3,12.436,1.2,2.328,2.859,5.254,3.658,6.517,1.463,2.394,5.054,12.037,6.318,17.091.865,3.458,2,3.724,2,.532,0-7.648-9.776-27.6-16.492-33.583C967.594-619.325,965.2-620.323,961.077-619.525Z" transform="translate(-43.645 -272.02)" fill="#fff"/>
    <path id="Path_156" data-name="Path 156" d="M1265.672-615.2c-2.926.732-12.236,5.653-15.162,8.113-3.591,2.926-6.584,7.581-6.318,9.776.2,1.663.333,1.529,2.328-1.929,2.461-4.389,6.052-7.515,12.835-11.239,6.251-3.458,9.111-4.19,12.768-3.392,3.126.732,4.256.4,1.8-.466A16.577,16.577,0,0,0,1265.672-615.2Z" transform="translate(-150.067 -273.481)" fill="#fff"/>
    <path id="Path_157" data-name="Path 157" d="M1213-611.284c0,1.263,5.586,6.783,8.313,8.113,3.391,1.8,8.845,3.258,9.31,2.527.4-.665.067-.931-3.192-2a31.041,31.041,0,0,1-11.039-6.65C1213.266-612.148,1213-612.281,1213-611.284Z" transform="translate(-139.624 -274.675)" fill="#fff"/>
    <path id="Path_158" data-name="Path 158" d="M1291.658-602.288c-.2.332,0,.665.532.665,1.463,0,4.854,5.52,5.786,9.443,1.2,4.921.2,19.019-1.663,23.541-1.662,3.99-10.973,14.963-16.692,19.551-5.187,4.19-9.643,6.185-14.032,6.251-3.857,0-4.323.4-1.929,1.663,5.453,2.926,17.423-4.19,27.531-16.359,7.581-9.177,8.512-11.638,9.244-24.539.333-6.451.2-7.847-1.064-11.771C1297.377-599.761,1293.055-604.549,1291.658-602.288Z" transform="translate(-156.104 -277.686)" fill="#fff"/>
    <path id="Path_159" data-name="Path 159" d="M1203.085-596.787c-3.857,5.121-6.118,10.507-7.914,18.62-1.6,7.315-.333,8.911,4.589,5.586a28.054,28.054,0,0,0,8.712-9.776c2.66-5.32,1.8-14.564-1.6-16.293C1205.213-599.514,1205.08-599.447,1203.085-596.787Zm4.455,2.195c1.2,2.992.333,9.709-1.6,13.034a27.629,27.629,0,0,1-8.446,8.446c-1.4.732-1.463.665-1.064-1.8a35.048,35.048,0,0,1,3.059-11.239c1.862-4.19,5.852-10.175,6.85-10.241C1206.61-596.388,1207.142-595.59,1207.541-594.592Z" transform="translate(-133.433 -278.931)" fill="#fff"/>
    <path id="Path_160" data-name="Path 160" d="M1260.58-585.822c-3.99,4.19-5.719,10.574-3.857,13.965a9.383,9.383,0,0,0,3.724,2.66,74.842,74.842,0,0,1,6.983,3.724c3.325,2.062,4.057,2.261,4.788,1.463s.665-2.128-.532-8.047c-1.263-6.318-2.46-9.377-3.325-8.446a17.451,17.451,0,0,0,.6,4.256c.4,2.194,1,5.453,1.264,7.249l.532,3.259-2.261-1.4a63.008,63.008,0,0,0-6.318-3.392c-2.727-1.33-4.256-2.461-4.323-3.192-.333-3.99.8-7.182,3.923-11.372C1264.038-588.083,1263.173-588.615,1260.58-585.822Z" transform="translate(-154.019 -282.78)" fill="#fff"/>
    <path id="Path_161" data-name="Path 161" d="M1231.57-568.542c-4.323,9.709-3.591,22.477,1.4,25.137,1.995,1.064,2.394.266.8-1.53-2.394-2.594-2.926-4.323-2.992-9.643-.067-5.919.333-8.18,2.128-12.768,1.463-3.658,1.6-4.655.8-4.655C1233.366-572,1232.435-570.4,1231.57-568.542Z" transform="translate(-144.894 -288.023)" fill="#fff"/>
    <path id="Path_162" data-name="Path 162" d="M1329.338-568.87c-1.995,3.857-3.791,12.635-3.458,17.024.133,1.862,5.054,3.791,9.842,3.791,6.717,0,7.315-.532,10.042-8.978.8-2.594,0-4.788-2.195-5.786s-2.992-.133-1.13,1.2c1.8,1.2,1.862,3.325.332,7.648-.731,2.062-1.6,3.325-2.527,3.525-2.727.732-8.047.333-10.308-.8-2.195-1.064-2.261-1.264-2.128-4.256.333-4.655,3.059-12.9,4.19-12.635.532.133,3.591.532,6.783.865,3.259.333,6.584.8,7.515,1,.931.266,1.6.133,1.6-.266,0-.8-4.123-1.729-12.169-2.793-2.86-.332-5.32-.665-5.453-.665C1330.07-570,1329.737-569.468,1329.338-568.87Z" transform="translate(-177.424 -288.693)" fill="#fff"/>
    <path id="Path_163" data-name="Path 163" d="M1213.295-558.468c0,.333-2.46,2.328-5.453,4.456-3.059,2.128-5.653,3.99-5.786,4.123s-.133.4.133.6c.931.931,12.436-7.116,12.436-8.778,0-.532-.266-.931-.665-.931A.657.657,0,0,0,1213.295-558.468Z" transform="translate(-135.928 -292.378)" fill="#fff"/>
    <path id="Path_164" data-name="Path 164" d="M1315.728-536.512c-.732.732,1.463,4.057,3.923,6.052a71.334,71.334,0,0,0,7.382,4.855c2.594,1.53,4.788,3.059,4.788,3.392,0,.4.466.665,1,.665,1.929,0,1-1.929-1.928-3.99a16.164,16.164,0,0,0-3.658-2c-.4,0-.731-.2-.731-.532,0-.266-1.13-1.064-2.461-1.8a27.024,27.024,0,0,1-5.187-4.19C1317.324-535.581,1315.927-536.711,1315.728-536.512Z" transform="translate(-173.989 -299.904)" fill="#fff"/>
    <path id="Path_165" data-name="Path 165" d="M1006.278-530.016c0,4.788-7.315,21.679-10.108,23.541a15.512,15.512,0,0,1-4.589,1.463c-3.392.532-3.791.931-8.246,10.374-5.586,11.7-7.049,16.891-8.047,29.859-.4,4.589-.266,5.52.465,5.254.6-.2,1.13-1.862,1.463-4.256,1.729-13.3,2.66-17.423,5.919-25.2,1.862-4.389,4.256-9.377,5.32-11.172,1.729-2.66,2.328-3.126,4.123-3.126,3.325,0,6.118-2.195,8.313-6.451,4.921-9.776,7.515-18.82,6.118-21.214C1006.411-532.011,1006.345-531.944,1006.278-530.016Z" transform="translate(-59.918 -301.545)" fill="#fff"/>
    <path id="Path_166" data-name="Path 166" d="M1314-522.783c0,.8,5.453,6.185,8.778,8.778,2.527,1.928,3.99,2.594,4.256,2.128.333-.466-.466-1.463-1.8-2.461-1.264-.931-3.923-3.325-5.985-5.254C1316.062-522.517,1314-523.847,1314-522.783Z" transform="translate(-173.458 -304.389)" fill="#fff"/>
    <path id="Path_167" data-name="Path 167" d="M1026.808-515.435a22.409,22.409,0,0,0,1.463,6.052c2.394,5.054,11.837,12.5,19.285,15.362a29.507,29.507,0,0,1,7.714,4.323,47.449,47.449,0,0,0,5.653,3.99,37.84,37.84,0,0,1,5.919,4.589c1.862,1.729,5.121,4.589,7.315,6.451,4.788,3.924,5.985,5.187,7.648,8.379a75.374,75.374,0,0,0,4.788,6.983,75.245,75.245,0,0,1,5.653,8.512c2.128,4.057,9.11,12.369,12.3,14.7,2.062,1.53,6.384,7.714,6.916,9.975.333,1.264.133,1.6-.864,1.6a5.734,5.734,0,0,1-2.527-.865,28.328,28.328,0,0,0-4.921-2.195,24.558,24.558,0,0,1-7.847-5.054,42.837,42.837,0,0,0-6.65-5.121,30.4,30.4,0,0,1-5.187-3.724,50.754,50.754,0,0,0-4.788-3.857c-1.13-.8-3.391-2.594-5.054-3.99-2.46-2.061-3.924-2.66-9.111-3.724-6.717-1.463-7.781-1.264-11.172,1.6-3.392,2.793-4.323,5.653-4.456,13.7-.066,3.857-.333,7.315-.6,7.781-.6,1-1.8.466-7.382-3.126-8.911-5.786-10.84-6.318-13.766-3.857-3.658,3.192-4.323,9.643-1.729,17.423,1.928,5.786,9.709,20.482,12.5,23.608,2.993,3.259,3.724,4.855,6.384,14.1,1.33,4.522,2.727,9.31,3.126,10.64.532,1.729,1.13,2.527,1.929,2.527,1.463,0,1.529.332-.4-5.453-.864-2.727-2.261-7.249-3.059-10.175-1.8-6.517-2.66-8.246-6.251-12.968a51.107,51.107,0,0,1-3.857-5.653c-.532-1.13-2.394-4.522-4.057-7.581a39.8,39.8,0,0,1-3.125-6.318,2.473,2.473,0,0,0-.665-1.463c-1.064-1.064-2.66-9.576-2.194-11.837.532-2.993,2.328-5.719,3.923-6.118s3.724.532,9.643,4.389a42.934,42.934,0,0,0,6.118,3.325,5.306,5.306,0,0,1,3.259,3.192,55.284,55.284,0,0,0,6.185,8.113,51.912,51.912,0,0,1,7.049,9.975c5.453,11.438,9.51,17.423,13.234,19.352.931.532,2.727,1.53,3.99,2.328,3.392,2.128,5.32,2.594,5.32,1.33,0-.6-.266-1.064-.532-1.064a34.926,34.926,0,0,1-4.589-2.594c-6.65-4.389-10.175-9.111-15.761-21.347a37.449,37.449,0,0,0-5.653-7.847c-5.719-5.985-8.246-10.042-7.648-12.1a49.278,49.278,0,0,0,.6-7.714c.2-7.382,1.064-10.241,4.057-12.9,2.594-2.261,4.057-2.394,9.776-1.064a15.12,15.12,0,0,0,3.791.6c0-.465,2.527,1.463,5.32,4.057a11.367,11.367,0,0,0,3.192,2.394,22.473,22.473,0,0,1,3.857,2.926,46.691,46.691,0,0,0,5.786,4.522,63.522,63.522,0,0,1,6.916,5.254,33.531,33.531,0,0,0,10.108,6.185c8.313,3.458,10.574,3.126,9.842-1.33-.532-3.259-3.392-7.249-10.108-14.032a62.5,62.5,0,0,1-8.579-10.973,88.434,88.434,0,0,0-5.852-8.579c-1.33-1.729-3.525-4.855-4.788-6.983-1.995-3.525-8.845-10.906-10.042-10.906a33.339,33.339,0,0,1-4.788-4.19,38.956,38.956,0,0,0-6.717-5.387,41.169,41.169,0,0,1-5.852-4.057,27.644,27.644,0,0,0-6.65-3.857,42.092,42.092,0,0,1-13.5-7.781c-5.653-4.522-7.315-7.049-7.914-11.771-.266-2.261-.8-3.857-1.4-4.057C1026.608-519.093,1026.475-518.428,1026.808-515.435Z" transform="translate(-76.259 -305.818)" fill="#fff"/>
    <path id="Path_168" data-name="Path 168" d="M1301-516.667c0,.931,4.123,6.783,5.387,7.515,1.662,1.064,1.6.931-1.4-4.057-1.264-2.062-2.66-3.791-3.126-3.791S1301-516.867,1301-516.667Z" transform="translate(-169.103 -306.448)" fill="#fff"/>
    <path id="Path_169" data-name="Path 169" d="M965.431-512.593c-3.924,3.126-10.906,10.441-12.369,12.968-4.057,6.916-5.387,19.219-4.256,40.1.532,10.308,1.2,13.766,2.328,12.569.665-.6.532-5.586-.665-26.135-.466-8.978,1.729-21.679,4.589-26.2a78.128,78.128,0,0,1,7.315-8.18,70.06,70.06,0,0,0,5.719-6.118C968.091-514.322,967.093-513.989,965.431-512.593Z" transform="translate(-50.991 -307.464)" fill="#fff"/>
    <path id="Path_170" data-name="Path 170" d="M1103.474-511.357c-.2.332.2.665.931.665.865,0,2.128,1.13,3.458,3.126,3.99,5.852,9.975,11.571,14.231,13.566a19.671,19.671,0,0,0,5.386,1.928,46,46,0,0,1,8.246,2.86l6.916,2.793,1.995,3.99a61.076,61.076,0,0,0,3.192,5.653,22.148,22.148,0,0,1,2.128,4.522,31.792,31.792,0,0,0,3.923,6.65c9.443,12.436,11.106,14.9,11.106,16.492,0,2.261,1.6,1.729,1.862-.532.133-1.2-.8-3.126-3.325-6.65-1.929-2.66-3.724-4.988-3.924-5.187a51.385,51.385,0,0,1-2.66-4.655c-2.062-4.057-2.195-4.722-2.46-12.436-.2-4.522-.532-8.18-.8-8.18-1.264,0-1.8,9.576-.731,14.1.333,1.463.333,2.394,0,2.128a1.509,1.509,0,0,1-.6-1.2,21.75,21.75,0,0,0-1.862-4.456c-5.919-11.239-6.384-12.037-8.047-12.635-.931-.4-2.593-1.064-3.724-1.6a60.938,60.938,0,0,0-11.638-3.924c-5.187-.865-10.308-4.788-17.024-13.234C1106.6-511.756,1104.472-513.019,1103.474-511.357Z" transform="translate(-102.916 -308.101)" fill="#fff"/>
    <path id="Path_171" data-name="Path 171" d="M933.808-505.084c-2.793,3.325-14.564,6.916-19.485,5.919-1.53-.333-2.261.067-4.057,1.929-5.719,6.118-8.778,17.091-11.5,41.43-.466,4.123-2.062,14.7-2.527,16.958-1,4.522-1,4.655.2,4.655.865,0,1.4-.931,2.062-3.857a41.743,41.743,0,0,0,1.064-5.453c.133-1.4.931-8.379,1.263-10.973.067-.4.333-2.461.6-4.655s.6-4.722.731-5.653c2.394-17.423,3.591-21.413,8.911-30.258,1.13-1.929,1.33-1.995,7.448-2.394,5.254-.332,6.849-.732,10.241-2.461,3.724-1.929,7.648-4.921,7.648-5.786C936.4-506.414,934.539-505.949,933.808-505.084Z" transform="translate(-33.267 -310.118)" fill="#fff"/>
    <path id="Path_172" data-name="Path 172" d="M1320.711-500.654c.465,1.663-3.458,13.1-7.914,23.275-1.6,3.724-6.451,13.367-7.182,14.3-2.46,3.325-10.507,20.482-12.9,27.664-3.192,9.576-4.123,12.037-7.049,18.221-2.793,5.985-8.18,21.746-10.64,31.122a21.029,21.029,0,0,1-2.461,5.52c-1.8,2.727-1.862,2.926-.6,2.926,2,0,3.791-3.857,8.379-18.155,2.66-8.113,6.251-17.889,7.98-21.746s4.389-10.707,5.852-15.3c2.594-8.113,4.389-12.17,9.377-21.613,5.32-9.909,11.305-22.078,12.236-24.605.532-1.463,1.862-5.054,2.926-7.98,3.391-9.31,4.455-13.7,3.391-14.364C1320.711-502.316,1320.312-502.117,1320.711-500.654Z" transform="translate(-159.088 -311.489)" fill="#fff"/>
    <path id="Path_173" data-name="Path 173" d="M965.906-495.5a4.82,4.82,0,0,0-1.6,1.8c-.731,1.4-.665,1.4.6.266,2.594-2.261,5.786-1,6.783,2.727.665,2.461.665,3.259-.266,9.776-.8,5.254-4.722,17.822-7.182,23.142-4.589,9.776-5.187,11.305-6.185,16.16a21.94,21.94,0,0,0-.333,9.244c.4,2.394,1.064,6.318,1.463,8.778a73.665,73.665,0,0,1,.465,11.372c-.2,4.655-.067,6.717.4,6.584,1.2-.4,1.6-3.126,1.662-11.106,0-4.988-.266-8.778-.931-10.906a34.674,34.674,0,0,1-.4-15.029c.732-3.059,2.328-6.983,5.985-14.83,2.793-5.919,6.451-18.82,7.182-25.071.665-5.985.2-9.643-1.53-11.372C970.694-495.232,967.37-496.1,965.906-495.5Z" transform="translate(-53.994 -313.586)" fill="#fff"/>
    <path id="Path_174" data-name="Path 174" d="M1298.242-490.6c-5.054,1.729-9.177,3.059-9.177,2.926,0-.266-4.854,1.862-11.305,4.921a22.148,22.148,0,0,1-8.512,2.527c-4.123.2-4.788.532-2.793,1.6,2.195,1.2,6.85.133,13.9-3.126,8.379-3.857,8.047-3.724,15.694-6.251,8.645-2.793,12.3-4.389,12.3-5.254S1308.682-494.253,1298.242-490.6Z" transform="translate(-157.168 -314.232)" fill="#fff"/>
    <path id="Path_175" data-name="Path 175" d="M991.935-476.251c-.067,3.591-5.786,21.746-9.111,29.061-1.663,3.658-3.325,10.441-4.19,17.29a13.8,13.8,0,0,1-1.13,4.522c-.8,1.064-.333,1.6,1.064,1.13,1.2-.466,1.4-1.2,2.727-9.776a79.562,79.562,0,0,1,3.658-13.3c6.052-16.027,9.576-30.79,7.581-31.987C992.2-479.509,991.935-478.113,991.935-476.251Z" transform="translate(-60.604 -319.068)" fill="#fff"/>
    <path id="Path_176" data-name="Path 176" d="M908.921-476.595c.466,1.8-1.53,15.894-3.591,25.6-1.2,5.52-2.594,9.443-5.786,16.492a39.547,39.547,0,0,0-3.059,9.975c-.4,2.594-1.13,6.517-1.6,8.778-2.993,12.835-5.187,42.827-3.192,42.361.865-.133.8,1.53-.8,17.157-.2,1.995-.6,5.453-.8,7.648s-1.264,9.044-2.328,15.3c-1.064,6.185-2.062,11.97-2.194,12.835a2.122,2.122,0,0,0,.4,1.862c.865.532,2.594-4.123,2.859-7.714.133-1.729.865-6.85,1.6-11.372s1.53-10.374,1.729-12.9c.2-2.594.465-5.852.665-7.315.133-1.463.465-4.921.665-7.648.266-2.727.665-7.116,1-9.643.8-6.251.8-8.978-.067-8.978-.332,0-.532.2-.4.466.2.333-.067,2.594-.6,5.187l-.865,4.655.333-6.983c.6-12.7,1.529-20.283,4.522-36.908,1.862-10.507,2.727-13.5,5.52-19.618,3.458-7.515,4.389-11.106,6.118-24.605,1.33-10.175,1.4-15.362.266-15.761C908.854-477.925,908.721-477.526,908.921-476.595Z" transform="translate(-29.926 -319.588)" fill="#fff"/>
    <path id="Path_177" data-name="Path 177" d="M1186.349-477.446c.4.665,4.921,1.862,9.377,2.394,14.564,1.862,15.827,2.527,16.625,7.98.466,2.86.333,3.392-1.529,5.653-2.261,2.86-2.062,4.19.266,2l1.53-1.4-1.064,3.192c-1.263,4.19-1.53,12.968-.333,14.364a3.608,3.608,0,0,1,.4,2.993c-.465,1.662-.4,1.8.6.931a2.6,2.6,0,0,0,1.13-1.8c0-.931,8.113-12.037,11.837-16.226,2.128-2.394,2.594-3.325,1.53-3.325-.532,0-5.121,4.788-7.382,7.714-3.392,4.389-5.985,8.246-6.052,8.978,0,.532-.266.333-.6-.4-1-2.261-.731-8.379.665-14.9,1.4-6.65,1.264-9.709-.532-12.835-1.33-2.328-3.458-3.059-12.436-4.256C1186.948-478.177,1185.817-478.244,1186.349-477.446Z" transform="translate(-130.662 -319.535)" fill="#fff"/>
    <path id="Path_178" data-name="Path 178" d="M1254.26-467.289a8.509,8.509,0,0,1-1.929,2.86c-3.059,3.525-3.657,5.121-2.726,6.85.731,1.4.465,2.128-2.328,6.85-4.522,7.581-20.283,23.009-20.815,20.416-.333-1.463-1.463-1.2-1.463.332a2.07,2.07,0,0,0,1.064,1.8c1.862.665,5.719-2.061,12.835-9.177,5.52-5.453,7.914-8.512,11.106-13.965a57.34,57.34,0,0,0,4.522-8.911c.931-4.788,1.064-6.916.4-7.315C1254.593-467.754,1254.26-467.688,1254.26-467.289Zm-1.662,6.517c-.532,1.8-1,3.259-1,3.392,0,.665-1.33-.732-1.33-1.4,0-.865,2.461-5.121,2.926-5.121C1253.4-463.9,1253.13-462.5,1252.6-460.772Z" transform="translate(-143.644 -322.975)" fill="#fff"/>
    <path id="Path_179" data-name="Path 179" d="M1210.625-462.447c-2.46,2.594-7.714,8.645-10.773,12.5a21.11,21.11,0,0,1-4.389,4.323c-.8.333-1.463.865-1.463,1.13,0,.865,1.6.6,3.392-.665,1.928-1.263,15.495-18.022,15.029-18.554C1212.221-463.843,1211.423-463.311,1210.625-462.447Z" transform="translate(-133.259 -324.293)" fill="#fff"/>
    <path id="Path_180" data-name="Path 180" d="M1231.562-455.611c-3.923,3.924-4.323,4.655-4.788,7.914-.532,3.924-.2,6.318.865,6.318.4,0,.532-.466.333-1-.266-.532-.133-2.66.2-4.788.532-3.192,1.064-4.19,2.993-5.852,2.328-2.062,5.985-6.983,5.121-6.983A34.394,34.394,0,0,0,1231.562-455.611Z" transform="translate(-144.154 -325.542)" fill="#fff"/>
    <path id="Path_181" data-name="Path 181" d="M820.008-456.069c0,.532-1.8,2.86-3.923,5.187-9.244,9.776-16.758,25.2-19.418,39.9-.665,3.791-.665,5.32.333,10.308.6,3.192,1.4,8.845,1.729,12.5s.8,7.382,1,8.313.8,4.123,1.33,7.182,1.4,7.249,1.929,9.31c.931,3.658,1.264,7.249,2.062,20.416.2,3.259.532,8.047.732,10.64.465,5.653,3.391,20.416,6.318,31.255,1.2,4.389,2.461,9.776,2.859,11.9,1.064,5.453,2.793,6.052,2.128.8a58.483,58.483,0,0,0-1.4-7.581c-.865-3.525-2.394-9.975-4.655-19.751a121.711,121.711,0,0,1-3.458-24.273,198.234,198.234,0,0,0-4.057-32.585c-1.064-5.32-2.461-13.566-3.059-18.288-.6-4.788-1.4-10.507-1.729-12.835C797-414.9,806.11-437.582,817.282-449.818c3.657-3.99,5.187-7.182,3.391-7.182C820.341-457,820.008-456.535,820.008-456.069Z" transform="translate(0 -326.547)" fill="#fff"/>
    <path id="Path_182" data-name="Path 182" d="M1243.609-448.173c-1.53,3.059-7.581,12.9-11.372,18.62-.665,1.064-.931,1.862-.532,1.862,1.929,0,14.431-20.682,13.965-23.076C1245.538-451.3,1244.673-450.168,1243.609-448.173Z" transform="translate(-145.827 -328.592)" fill="#fff"/>
    <path id="Path_183" data-name="Path 183" d="M1212.082-443.118c-3.724,3.259-7.049,8.778-6.983,11.571,0,1.729.266,1.463,1.929-2.128a33.681,33.681,0,0,1,5.386-7.847c1.929-2,3.325-3.791,3.126-3.99S1213.811-444.648,1212.082-443.118Z" transform="translate(-136.977 -330.388)" fill="#fff"/>
    <path id="Path_184" data-name="Path 184" d="M833.638-442.2c.532.865.465,10.441-.067,13.167-.2.931-.931,5.121-1.663,9.31-.8,4.19-1.8,9.111-2.328,10.973a52.335,52.335,0,0,0-1.8,13.633c.266,5.32,2.394,15.894,3.924,19.618.865,2.195,2.527,6.517,3.591,9.643,2.328,6.517,3.724,8.113,6.451,7.382,5.919-1.729,19.219-11.106,16.825-11.9-.4-.133-1.4.532-2.128,1.463a12.817,12.817,0,0,1-4.123,3.059c-1.53.732-4.456,2.195-6.451,3.325-5.919,3.259-5.985,3.259-9.177-6.052a73.376,73.376,0,0,0-3.059-7.714,64.4,64.4,0,0,1-2.461-9.909c-1.463-8.18-1.463-15.761.066-20.881.4-1.264,1.463-6.318,2.328-11.172,2.793-15.1,2.926-24.738.266-24.738C833.438-443,833.372-442.668,833.638-442.2Z" transform="translate(-10.57 -331.237)" fill="#fff"/>
    <path id="Path_185" data-name="Path 185" d="M1214.313-430.732a14.935,14.935,0,0,1-1.929,5.653c-1.928,3.458-1.862,4.722,0,2.328,2.86-3.525,4.256-8.778,2.594-9.776C1214.578-432.793,1214.313-432.062,1214.313-430.732Z" transform="translate(-138.941 -334.727)" fill="#fff"/>
    <path id="Path_186" data-name="Path 186" d="M1202.222-416.859c.665,7.182,2.46,13.1,6.517,21.081,4.256,8.446,6.451,11.438,10.374,14.431,4.921,3.724,13.433,12.3,14.165,14.3.4,1.064,1.463,5.453,2.461,9.842,2.261,10.574,1.928,19.551-1.064,31.721-1.13,4.589-2.195,9.643-2.394,11.305-1.862,15.561-2.993,22.81-3.99,25.47-1.13,2.86-1.264,4.456-.4,4.456,1.463,0,3.525-7.914,5.386-20.948,1.131-7.714,2.926-17.889,4.057-22.677,2.128-9.377,2.594-18.62,1.33-25.337-1.463-7.448-3.458-14.431-4.655-16.426-1.6-2.461-7.382-8.047-13.566-12.9-4.722-3.791-7.581-7.914-12.1-17.623-2.66-5.586-4.921-13.7-5.12-18.088,0-1.663-.4-3.259-.732-3.458C1202.022-421.98,1201.956-420.317,1202.222-416.859Z" transform="translate(-135.961 -338.359)" fill="#fff"/>
    <path id="Path_187" data-name="Path 187" d="M819.471-403.207a112.872,112.872,0,0,0-7.382,16.692c-1.53,4.522-1.064,6.85,2.727,14.963,1.33,2.86,2.992,6.384,3.591,7.847a11.12,11.12,0,0,0,1.862,3.192c1.131.665,1.663-.931.931-2.461-.333-.8-1.729-3.724-2.993-6.451-3.791-7.98-5.121-11.305-5.121-12.768,0-2.261,2.793-9.776,6.318-16.958,2-4.057,3.059-6.85,2.527-6.85C821.466-406,820.4-404.736,819.471-403.207Z" transform="translate(-5.048 -343.632)" fill="#fff"/>
    <path id="Path_188" data-name="Path 188" d="M933.691-397.069c.6.732.466,1.8-.865,4.921a46.931,46.931,0,0,0-1.995,5.52c-.2.865-.732,3.059-1.33,4.921-1.2,4.057-1.6,6.517-2.062,12.635-.466,5.653.4,7.847,3.259,8.18,4.655.532,6.983-3.126,8.712-13.367,1.064-6.451.865-10.441-.466-10.441-.4,0-.532.665-.333,1.4.532,1.929-1.463,13.633-2.926,16.958a5.456,5.456,0,0,1-3.126,3.458c-3.126,1.064-3.724-.133-3.192-6.65.6-6.85,1.2-9.643,4.123-19.019,2.46-7.515,2.527-9.443.532-9.443C933.159-398,933.093-397.8,933.691-397.069Z" transform="translate(-43.924 -346.312)" fill="#fff"/>
    <path id="Path_189" data-name="Path 189" d="M1076-379.768a15.189,15.189,0,0,0,2.993,2.461,15.273,15.273,0,0,1,5.054,6.517c3.125,6.584,5.32,9.443,14.7,18.953,10.973,11.106,12.635,13.234,12.9,16.226.133,1.4.2,2.594.2,2.727.066.133.532-.133,1.064-.6,2.993-2.461-.066-7.515-11.305-18.554-10.308-10.108-13.167-13.633-15.96-19.551a16.927,16.927,0,0,0-4.854-6.185C1078.195-379.768,1076-380.633,1076-379.768Z" transform="translate(-93.73 -352.307)" fill="#fff"/>
    <path id="Path_190" data-name="Path 190" d="M1144-363.073c0,.466.6,1.064,1.264,1.263,1.729.4,5.586,5.852,7.847,10.906,1,2.328,2.062,4.19,2.328,4.19,1.33,0-1.663-7.315-5.121-12.436C1147.591-363.139,1144-365.4,1144-363.073Z" transform="translate(-116.509 -357.698)" fill="#fff"/>
    <path id="Path_191" data-name="Path 191" d="M878.323-322.927c.266,1.33-.266,5.653-1.263,10.308-3.525,17.091-7.98,51.472-6.85,52.6.8.8,1.8-.532,1.8-2.461,0-4.256,4.057-35.445,5.985-45.819,2.261-12.5,2.394-13.9,1-15.694C878.057-325.188,877.99-325.121,878.323-322.927Z" transform="translate(-24.732 -370.845)" fill="#fff"/>
  </g>
</svg>
